<svg width="152" height="51" viewBox="0 0 152 51" fill="none" xmlns="http://www.w3.org/2000/svg">
<path d="M64.8495 26.3844C64.8495 33.5976 59.2351 38.9129 52.3449 38.9129C45.4548 38.9129 39.8404 33.5976 39.8404 26.3844C39.8404 19.1204 45.4548 13.8559 52.3449 13.8559C59.2351 13.8559 64.8495 19.1204 64.8495 26.3844ZM59.3756 26.3844C59.3756 21.8768 56.1216 18.7927 52.3449 18.7927C48.5683 18.7927 45.3143 21.8768 45.3143 26.3844C45.3143 30.8468 48.5683 33.9761 52.3449 33.9761C56.1216 33.9761 59.3756 30.8411 59.3756 26.3844Z" fill="#EA4335"/>
<path d="M91.8256 26.3844C91.8256 33.5976 86.2112 38.9129 79.321 38.9129C72.4309 38.9129 66.8165 33.5976 66.8165 26.3844C66.8165 19.126 72.4309 13.8559 79.321 13.8559C86.2112 13.8559 91.8256 19.1204 91.8256 26.3844ZM86.3517 26.3844C86.3517 21.8768 83.0977 18.7927 79.321 18.7927C75.5444 18.7927 72.2904 21.8768 72.2904 26.3844C72.2904 30.8468 75.5444 33.9761 79.321 33.9761C83.0977 33.9761 86.3517 30.8411 86.3517 26.3844Z" fill="#FBBC05"/>
<path d="M117.678 14.6128V37.1054C117.678 46.3577 112.249 50.1366 105.831 50.1366C99.7892 50.1366 96.153 46.0753 94.7817 42.7539L99.5475 40.76C100.396 42.7991 102.476 45.2054 105.825 45.2054C109.933 45.2054 112.479 42.6579 112.479 37.8623V36.0604H112.288C111.063 37.5798 108.703 38.9073 105.724 38.9073C99.4913 38.9073 93.7814 33.4507 93.7814 26.4296C93.7814 19.3576 99.4913 13.8559 105.724 13.8559C108.697 13.8559 111.057 15.1833 112.288 16.6576H112.479V14.6185H117.678V14.6128ZM112.867 26.4296C112.867 22.0181 109.939 18.7927 106.213 18.7927C102.436 18.7927 99.2721 22.0181 99.2721 26.4296C99.2721 30.7959 102.436 33.9761 106.213 33.9761C109.939 33.9761 112.867 30.7959 112.867 26.4296Z" fill="#4285F4"/>
<path d="M126.248 1.42908V38.1447H120.909V1.42908H126.248Z" fill="#34A853"/>
<path d="M147.054 30.5079L151.302 33.3547C149.931 35.3939 146.627 38.9073 140.917 38.9073C133.835 38.9073 128.547 33.4056 128.547 26.3788C128.547 18.9283 133.88 13.8503 140.304 13.8503C146.773 13.8503 149.937 19.0244 150.971 21.8204L151.538 23.2438L134.875 30.1803C136.151 32.6939 138.135 33.9761 140.917 33.9761C143.704 33.9761 145.637 32.5978 147.054 30.5079ZM133.976 26.0003L145.115 21.3516C144.502 19.7869 142.659 18.6967 140.489 18.6967C137.708 18.6967 133.835 21.1652 133.976 26.0003Z" fill="#EA4335"/>
<path d="M19.6308 23.1252V17.8099H37.4519C37.6261 18.7363 37.716 19.8321 37.716 21.0183C37.716 25.0062 36.6313 29.9374 33.1357 33.4508C29.7356 37.0094 25.3913 38.9073 19.6364 38.9073C8.96956 38.9073 0 30.1746 0 19.4536C0 8.73267 8.96956 0 19.6364 0C25.5374 0 29.7412 2.32721 32.8996 5.36048L29.1679 9.11112C26.9031 6.97597 23.8345 5.31529 19.6308 5.31529C11.8414 5.31529 5.74929 11.6247 5.74929 19.4536C5.74929 27.2825 11.8414 33.592 19.6308 33.592C24.6832 33.592 27.5606 31.5529 29.404 29.7001C30.8989 28.1976 31.8824 26.0512 32.2702 23.1196L19.6308 23.1252Z" fill="#4285F4"/>
</svg>
