<?xml version="1.0" encoding="UTF-8"?>
<svg xmlns="http://www.w3.org/2000/svg" width="29" height="38" viewBox="0 0 29 38" fill="none">
  <path d="M28.5448 22.9817H21.6981C21.5783 22.9817 21.4635 23.0293 21.3787 23.1143C21.2939 23.1992 21.2461 23.3144 21.2458 23.4347C21.2178 25.2135 20.4947 26.9099 19.2325 28.1579C17.9703 29.4059 16.2703 30.1054 14.4992 30.1054C12.7281 30.1054 11.028 29.4059 9.76578 28.1579C8.50359 26.9099 7.78049 25.2135 7.75253 23.4347C7.75253 23.3142 7.70488 23.1987 7.62006 23.1135C7.53523 23.0283 7.42019 22.9804 7.30023 22.9804H0.451877C0.3925 22.9804 0.333706 22.9921 0.278854 23.015C0.224003 23.0378 0.174169 23.0713 0.132203 23.1135C0.0902371 23.1557 0.0569607 23.2058 0.0342764 23.2609C0.0115922 23.316 -5.50386e-05 23.3751 1.95532e-07 23.4347V25.385C-9.7675e-06 25.4946 0.0394869 25.6006 0.111192 25.6832C0.182896 25.7659 0.281963 25.8197 0.390086 25.8347L3.15641 26.2189C3.43833 27.3835 3.89788 28.4973 4.51877 29.5208L2.83274 31.7586C2.76693 31.8461 2.73492 31.9547 2.74265 32.0642C2.75038 32.1736 2.79732 32.2766 2.87478 32.3539L5.62051 35.1124C5.69758 35.1901 5.80005 35.2372 5.90899 35.2449C6.01793 35.2527 6.12599 35.2206 6.21321 35.1546L8.44106 33.461C9.4599 34.0848 10.5687 34.5465 11.7282 34.8295L12.1103 37.6082C12.1253 37.7168 12.179 37.8163 12.2613 37.8883C12.3437 37.9604 12.4492 38 12.5584 38H16.4416C16.5508 38 16.6563 37.9604 16.7387 37.8883C16.821 37.8163 16.8747 37.7168 16.8897 37.6082L17.2718 34.8299C18.4313 34.5466 19.5402 34.0847 20.5589 33.4606L22.7868 35.1546C22.874 35.2206 22.9821 35.2527 23.091 35.2449C23.2 35.2372 23.3024 35.1901 23.3795 35.1124L26.1252 32.3539C26.2027 32.2766 26.2496 32.1736 26.2574 32.0642C26.2651 31.9547 26.2331 31.8461 26.1673 31.7586L24.4812 29.5208C25.1023 28.4974 25.5618 27.3835 25.8436 26.2189L28.6099 25.8347C28.718 25.8197 28.8171 25.7659 28.8888 25.6832C28.9605 25.6006 29 25.4946 29 25.385V23.4347C28.9999 23.3749 28.988 23.3157 28.965 23.2605C28.9421 23.2053 28.9085 23.1552 28.8662 23.1131C28.8239 23.071 28.7737 23.0377 28.7185 23.0152C28.6634 22.9926 28.6043 22.9812 28.5448 22.9817ZM28.0925 24.9906L25.4073 25.3635C25.3156 25.3765 25.2302 25.4176 25.1626 25.481C25.0949 25.5444 25.0483 25.6272 25.0289 25.7181C24.7568 26.9923 24.256 28.206 23.551 29.2999C23.5007 29.3782 23.4755 29.4702 23.479 29.5633C23.4825 29.6564 23.5143 29.7462 23.5703 29.8205L25.2072 31.9921L23.018 34.1906L20.8544 32.5465C20.7805 32.4902 20.6911 32.4582 20.5983 32.4547C20.5056 32.4512 20.4141 32.4765 20.3362 32.527C19.2466 33.2359 18.0375 33.7393 16.7682 34.0124C16.6778 34.0319 16.5955 34.0788 16.5324 34.1468C16.4693 34.2147 16.4285 34.3005 16.4155 34.3925L16.0444 37.0892H12.9506L12.5794 34.392C12.5663 34.3 12.5255 34.2142 12.4623 34.1463C12.3992 34.0783 12.3168 34.0315 12.2263 34.012C10.9577 33.739 9.74936 33.236 8.66049 32.5275C8.58259 32.4769 8.49108 32.4515 8.39836 32.4549C8.30565 32.4583 8.21622 32.4903 8.1422 32.5465L5.98033 34.1906L3.79114 31.9921L5.42799 29.8201C5.48398 29.7458 5.51587 29.656 5.51933 29.5629C5.52279 29.4697 5.49765 29.3778 5.44733 29.2995C4.74206 28.2059 4.24122 26.9922 3.96937 25.7181C3.95006 25.6272 3.90342 25.5444 3.83576 25.481C3.7681 25.4176 3.68269 25.3765 3.59106 25.3635L0.905856 24.9906V23.8899H6.8597C6.96814 25.8512 7.82018 27.6963 9.2408 29.0462C10.6614 30.3962 12.5427 31.1484 14.4983 31.1484C16.4539 31.1484 18.3352 30.3962 19.7558 29.0462C21.1765 27.6963 22.0285 25.8512 22.1369 23.8899H28.0925V24.9906ZM4.74072 15.026C4.68134 15.0259 4.62253 15.0376 4.56766 15.0604C4.51279 15.0832 4.46292 15.1166 4.42092 15.1588C4.37891 15.2009 4.34559 15.251 4.32286 15.3061C4.30012 15.3612 4.28842 15.4202 4.28842 15.4799V21.6305C4.28875 21.7508 4.33655 21.866 4.42134 21.9509C4.50612 22.0359 4.62098 22.0836 4.74072 22.0836H7.36623C7.4256 22.0836 7.4844 22.0718 7.53925 22.049C7.5941 22.0261 7.64394 21.9927 7.6859 21.9505C7.72787 21.9083 7.76114 21.8582 7.78383 21.8031C7.80651 21.748 7.81816 21.6889 7.81811 21.6292V15.4794C7.81811 15.4198 7.80642 15.3608 7.78371 15.3057C7.761 15.2507 7.72771 15.2006 7.68575 15.1585C7.64379 15.1163 7.59398 15.0829 7.53915 15.0601C7.48433 15.0373 7.42557 15.0255 7.36623 15.0255L4.74072 15.026ZM6.91393 21.177H5.19049V15.9338H6.91393V21.177ZM12.7568 22.0853C12.8768 22.0853 12.9918 22.0374 13.0766 21.9522C13.1615 21.867 13.2091 21.7514 13.2091 21.6309V12.7033C13.2091 12.6436 13.1974 12.5846 13.1747 12.5295C13.1519 12.4744 13.1186 12.4243 13.0766 12.3822C13.0346 12.34 12.9847 12.3066 12.9299 12.2838C12.875 12.261 12.8162 12.2493 12.7568 12.2494H10.13C10.0707 12.2493 10.0119 12.261 9.95698 12.2838C9.90211 12.3066 9.85224 12.34 9.81024 12.3822C9.76823 12.4243 9.73491 12.4744 9.71217 12.5295C9.68944 12.5846 9.67774 12.6436 9.67774 12.7033V21.6305C9.67807 21.7508 9.72587 21.866 9.81066 21.9509C9.89544 22.0359 10.0103 22.0836 10.13 22.0836L12.7568 22.0853ZM10.5819 13.1576H12.3054V21.1766H10.5819V13.1576ZM18.1449 22.0836C18.2043 22.0836 18.2631 22.0718 18.3179 22.049C18.3728 22.0262 18.4227 21.9927 18.4647 21.9505C18.5067 21.9083 18.54 21.8582 18.5627 21.8031C18.5855 21.748 18.5972 21.6889 18.5972 21.6292V9.75441C18.5972 9.69477 18.5855 9.63571 18.5627 9.58062C18.54 9.52552 18.5067 9.47546 18.4647 9.43331C18.4227 9.39115 18.3728 9.35773 18.3179 9.33494C18.263 9.31216 18.2042 9.30046 18.1449 9.30051H15.5194C15.46 9.30046 15.4012 9.31216 15.3463 9.33494C15.2914 9.35773 15.2416 9.39115 15.1996 9.43331C15.1575 9.47546 15.1242 9.52552 15.1015 9.58062C15.0788 9.63571 15.0671 9.69477 15.0671 9.75441V21.6305C15.0674 21.7508 15.1152 21.866 15.2 21.9509C15.2848 22.0359 15.3996 22.0836 15.5194 22.0836H18.1449ZM15.9716 10.2066H17.693V21.1766H15.9716V10.2066ZM23.5359 5.79473H20.9087C20.8492 5.79473 20.7904 5.80651 20.7355 5.8294C20.6805 5.85229 20.6307 5.88583 20.5887 5.92812C20.5467 5.9704 20.5135 6.02059 20.4908 6.0758C20.4682 6.13102 20.4566 6.19018 20.4568 6.24989V21.6318C20.4573 21.7518 20.5052 21.8667 20.5899 21.9514C20.6746 22.036 20.7892 22.0836 20.9087 22.0836H23.5359C23.6557 22.0835 23.7707 22.0355 23.8554 21.9503C23.9401 21.8652 23.9877 21.7497 23.9877 21.6292V6.24989C23.9879 6.19018 23.9763 6.13102 23.9537 6.0758C23.9311 6.02059 23.8978 5.9704 23.8558 5.92812C23.8139 5.88583 23.764 5.85229 23.7091 5.8294C23.6542 5.80651 23.5953 5.79473 23.5359 5.79473ZM23.0836 21.1766H21.3601V6.70295H23.0836V21.1766ZM4.29388 12.8012C4.26418 12.7496 4.2449 12.6925 4.23714 12.6333C4.22939 12.5742 4.23332 12.5141 4.2487 12.4564C4.26407 12.3988 4.29061 12.3448 4.32678 12.2974C4.36295 12.2501 4.40805 12.2104 4.4595 12.1806L23.0701 1.38705L21.2471 0.89642C21.1882 0.882419 21.1327 0.856698 21.0839 0.820777C21.0351 0.784856 20.994 0.739467 20.963 0.687295C20.9319 0.635124 20.9116 0.577231 20.9033 0.517043C20.8949 0.456855 20.8987 0.395596 20.9143 0.336892C20.93 0.278187 20.9572 0.22323 20.9943 0.175274C21.0315 0.127318 21.0778 0.0873372 21.1307 0.0576986C21.1835 0.0280601 21.2417 0.00936586 21.3018 0.00272274C21.3619 -0.00392038 21.4228 0.00162267 21.4808 0.0190235L24.3585 0.793396C24.416 0.808916 24.47 0.835687 24.5172 0.872177C24.5645 0.908667 24.6041 0.954159 24.6338 1.00605C24.6635 1.05794 24.6827 1.1152 24.6904 1.17457C24.698 1.23393 24.694 1.29423 24.6784 1.35201L23.907 4.2426C23.8737 4.35634 23.7974 4.45249 23.6945 4.5105C23.5915 4.56852 23.4701 4.58381 23.356 4.55311C23.242 4.52241 23.1445 4.44815 23.0842 4.3462C23.024 4.24424 23.0058 4.12266 23.0335 4.00742L23.5224 2.17578L4.91054 12.9672C4.80673 13.0273 4.68339 13.0437 4.56761 13.0125C4.45183 12.9814 4.35308 12.9054 4.29304 12.8012H4.29388ZM8.80551 23.4347C8.80314 24.3322 9.01306 25.2174 9.41796 26.0175C9.45582 26.0923 9.51356 26.1552 9.58479 26.1991C9.65601 26.2429 9.73794 26.2662 9.8215 26.2662H19.1751C19.2586 26.2662 19.3405 26.2429 19.4116 26.199C19.4828 26.1551 19.5405 26.0923 19.5783 26.0175C19.9835 25.2175 20.1936 24.3323 20.1911 23.4347C20.1911 23.3142 20.1435 23.1987 20.0587 23.1135C19.9738 23.0283 19.8588 22.9804 19.7388 22.9804H9.25781C9.13785 22.9804 9.02281 23.0283 8.93798 23.1135C8.85316 23.1987 8.80551 23.3142 8.80551 23.4347ZM19.2659 23.8886C19.2195 24.3957 19.0918 24.8919 18.8876 25.358H10.1078C9.90383 24.8918 9.77608 24.3956 9.72944 23.8886H19.2659Z" fill="#006CA9"></path>
</svg>
