<?xml version="1.0" encoding="UTF-8"?>
<svg xmlns="http://www.w3.org/2000/svg" width="30" height="37" viewBox="0 0 30 37" fill="none">
  <path d="M4.01302 25.3656L11.0479 21.305C11.4794 21.0584 11.9648 20.989 12.4502 21.12L18.0828 22.6303C18.8687 22.846 19.4928 23.3391 19.8473 23.9633C20.1169 24.4256 20.2325 24.9495 20.1632 25.4658L25.8882 22.1602C28.9163 20.4111 31.2125 23.8246 28.3307 25.8125L19.1692 32.1385C18.7916 32.4005 18.3833 32.5007 17.921 32.4544L11.8955 31.8072C11.7953 31.7995 11.6951 31.7995 11.6104 31.8226C11.5179 31.8457 11.4255 31.8765 11.3407 31.9228L8.58222 33.5177C8.6978 35.1744 7.15676 36.4534 5.54637 36.0219C4.94536 35.8601 4.40599 35.4749 4.07467 34.897L0.329926 28.4015C-0.741101 26.5599 0.961754 24.2946 3.04987 24.8571C3.39661 24.9495 3.72793 25.119 4.01302 25.3656ZM17.9287 4.13H20.718C20.9799 4.13 21.188 4.33804 21.188 4.60002V13.1605C21.188 13.4225 20.9799 13.6305 20.718 13.6305H12.3578C12.0958 13.6305 11.8878 13.4148 11.8878 13.1605V9.724C11.8878 9.46202 12.1035 9.25398 12.3578 9.25398H14.6771V7.31997C14.6771 7.05799 14.8851 6.84995 15.1471 6.84995H17.4664V4.60002C17.4586 4.33804 17.6744 4.13 17.9287 4.13ZM20.2479 5.07004H18.3987V12.6905H20.2479V5.07004ZM17.4586 7.78999H15.6094V12.6905H17.4586V7.78999ZM14.6771 10.1863H12.8278V12.6905H14.6771V10.1863ZM11.3946 0C13.2362 0 14.9622 0.801344 16.1565 2.15746C17.3508 0.801344 19.0767 0 20.9183 0C25.2872 0 27.8145 3.29013 26.7974 7.41243C26.4584 8.77625 25.7572 10.2017 24.717 11.5964C22.1434 15.0637 18.2754 18.924 16.4878 20.7039C16.3029 20.8889 16.0101 20.8812 15.8328 20.7039C14.0144 18.9009 10.0693 14.9713 7.49579 11.4731C6.13967 9.62383 4.76814 7.31997 5.12258 5.0161C5.56178 2.13435 8.58993 0 11.3946 0ZM13.8526 1.52564C11.8955 0.531661 9.62243 0.832164 7.86564 2.22681C6.9256 2.97422 6.22443 3.99901 6.0472 5.1548C5.739 7.15816 7.05659 9.2848 8.2509 10.9106C10.6858 14.2239 14.3843 17.9378 16.1565 19.71C17.9055 17.9609 21.5347 14.3163 23.9696 11.0339C25.5106 8.95347 26.6818 6.21812 25.788 3.88343C25.0329 1.90319 23.1759 0.932332 20.926 0.932332C19.1846 0.932332 17.5357 1.77991 16.5417 3.16685C16.3568 3.42883 15.9715 3.43653 15.7789 3.17455C15.2781 2.48879 14.6154 1.9186 13.8526 1.52564ZM8.32795 32.5931L10.8707 31.1214C11.0479 31.0212 11.2251 30.9519 11.41 30.9057L11.9879 30.8826L18.0134 31.5298C18.2369 31.5529 18.4449 31.5067 18.6298 31.3757L27.7914 25.0497C29.7023 23.7321 28.3307 21.8289 26.3505 22.977L18.8071 27.3304C18.7146 27.3767 18.6144 27.3998 18.4989 27.3844L13.3286 26.5522C12.7199 26.452 12.8663 25.5274 13.475 25.6276L18.4757 26.4366C18.8764 26.167 19.1076 25.8433 19.2 25.512C19.3002 25.1499 19.2231 24.7569 19.0305 24.4333C18.7839 24.0172 18.3756 23.6859 17.8285 23.5395L12.2037 22.0292C11.9571 21.9676 11.7337 21.9907 11.5102 22.1217L4.59092 26.113L8.26631 32.4775L8.32795 32.5931ZM7.44185 32.9167L3.70481 26.452C3.02675 25.3117 1.33161 25.5428 0.992575 26.8142C0.892407 27.1763 0.930933 27.5924 1.13897 27.9392L4.89142 34.4347C5.54636 35.5596 7.26463 35.367 7.61137 34.0725C7.70383 33.7104 7.67301 33.3251 7.48808 32.9784C7.46497 32.9553 7.44956 32.9398 7.44185 32.9167Z" fill="#006CA9"></path>
</svg>
