<?xml version="1.0" encoding="UTF-8"?>
<svg xmlns="http://www.w3.org/2000/svg" width="35" height="36" viewBox="0 0 35 36" fill="none">
  <path fill-rule="evenodd" clip-rule="evenodd" d="M20.5263 29.4876L19.6778 30.2824H28.4842C28.7379 30.2821 28.9812 30.1783 29.1606 29.9937C29.34 29.8092 29.4409 29.559 29.4412 29.298V20.098C29.4412 19.9862 29.4844 19.879 29.5613 19.7999C29.6381 19.7208 29.7424 19.6764 29.8511 19.6764C29.9598 19.6764 30.0641 19.7208 30.1409 19.7999C30.2178 19.879 30.261 19.9862 30.261 20.098V29.298C30.2606 29.7826 30.0733 30.2473 29.7401 30.59C29.407 30.9327 28.9553 31.1255 28.4842 31.126H19.6778L20.5263 31.92C20.5662 31.9573 20.5985 32.0023 20.6214 32.0525C20.6443 32.1027 20.6574 32.157 20.6599 32.2123C20.6624 32.2677 20.6543 32.323 20.636 32.3752C20.6177 32.4273 20.5896 32.4752 20.5534 32.5162C20.5171 32.5572 20.4733 32.5904 20.4245 32.614C20.3758 32.6375 20.323 32.651 20.2691 32.6536C20.2153 32.6562 20.1615 32.6478 20.1108 32.629C20.0601 32.6102 20.0136 32.5813 19.9737 32.544L18.3404 31.0152C18.2981 30.9757 18.2644 30.9276 18.2412 30.8739C18.2181 30.8202 18.2062 30.7621 18.2062 30.7034C18.2062 30.6447 18.2181 30.5866 18.2412 30.5329C18.2644 30.4792 18.2981 30.4311 18.3404 30.3916L19.9737 28.8628C20.0546 28.7904 20.1597 28.7535 20.2667 28.7599C20.3737 28.7662 20.474 28.8154 20.5462 28.8969C20.6184 28.9784 20.6568 29.0857 20.6531 29.1958C20.6493 29.306 20.6038 29.4103 20.5263 29.4864V29.4876ZM6.51583 4.874H14.3998L13.5501 4.08C13.4721 4.00407 13.4261 3.89973 13.4221 3.78936C13.4181 3.679 13.4563 3.5714 13.5285 3.48968C13.6007 3.40795 13.7012 3.35861 13.8084 3.35224C13.9156 3.34587 14.021 3.38298 14.1019 3.4556L15.7352 4.9844C15.7774 5.02402 15.8111 5.07224 15.8341 5.12599C15.8572 5.17975 15.8691 5.23785 15.8691 5.2966C15.8691 5.35535 15.8572 5.41345 15.8341 5.46721C15.8111 5.52096 15.7774 5.56918 15.7352 5.6088L14.1019 7.1376C14.062 7.1749 14.0154 7.20375 13.9647 7.22252C13.914 7.24128 13.8602 7.2496 13.8064 7.24698C13.7526 7.24436 13.6998 7.23086 13.651 7.20726C13.6023 7.18365 13.5585 7.1504 13.5223 7.1094C13.486 7.0684 13.4579 7.02046 13.4397 6.96831C13.4214 6.91616 13.4134 6.86082 13.4159 6.80546C13.4185 6.7501 13.4316 6.69579 13.4545 6.64565C13.4775 6.5955 13.5098 6.5505 13.5497 6.5132L14.3994 5.7184H6.51583C6.2621 5.71872 6.01885 5.82253 5.83943 6.00707C5.66002 6.19162 5.55909 6.44182 5.55878 6.7028V16.852C5.5555 16.9616 5.51085 17.0656 5.4343 17.142C5.35776 17.2183 5.25532 17.261 5.14869 17.261C5.04207 17.261 4.93963 17.2183 4.86308 17.142C4.78654 17.0656 4.74189 16.9616 4.73861 16.852V6.702C4.73913 6.21735 4.92653 5.7527 5.25972 5.40999C5.5929 5.06729 6.04464 4.87453 6.51583 4.874ZM25.3614 11.1228C24.7758 11.1229 24.2034 10.9443 23.7165 10.6097C23.2296 10.2751 22.8501 9.79948 22.626 9.24301C22.402 8.68653 22.3434 8.07421 22.4578 7.4835C22.5721 6.89278 22.8542 6.35022 23.2684 5.92444C23.6825 5.49865 24.2102 5.20878 24.7845 5.09149C25.3589 4.9742 25.9542 5.03476 26.4951 5.26551C27.036 5.49626 27.4982 5.88683 27.8233 6.38781C28.1483 6.8888 28.3216 7.47769 28.3212 8.08C28.3204 8.8872 28.0083 9.66111 27.4534 10.2319C26.8985 10.8027 26.1462 11.1238 25.3614 11.1248V11.1228ZM31.556 16.3628C32.8008 15.0991 33.6522 13.4831 34.0018 11.7204C34.3515 9.95771 34.1836 8.12788 33.5196 6.46356C32.8555 4.79924 31.7253 3.37562 30.2727 2.37369C28.82 1.37176 27.1104 0.836792 25.3614 0.836792C23.6123 0.836792 21.9028 1.37176 20.4501 2.37369C18.9974 3.37562 17.8672 4.79924 17.2032 6.46356C16.5392 8.12788 16.3713 9.95771 16.7209 11.7204C17.0706 13.4831 17.9219 15.0991 19.1668 16.3628C19.3879 15.2223 19.9017 14.1635 20.6549 13.2962C21.408 12.4289 22.3731 11.7847 23.45 11.4304C22.7341 10.9985 22.1763 10.3362 21.8627 9.54586C21.549 8.75548 21.497 7.88092 21.7146 7.0571C21.9321 6.23328 22.4073 5.50601 23.0666 4.98749C23.7259 4.46898 24.5328 4.18805 25.3627 4.18805C26.1927 4.18805 26.9996 4.46898 27.6589 4.98749C28.3182 5.50601 28.7934 6.23328 29.0109 7.0571C29.2285 7.88092 29.1765 8.75548 28.8628 9.54586C28.5492 10.3362 27.9914 10.9985 27.2755 11.4304C28.3518 11.7851 29.3163 12.4296 30.069 13.2968C30.8216 14.1641 31.3351 15.2227 31.556 16.3628ZM19.8975 17.0284C20.0382 15.6387 20.6746 14.3519 21.6836 13.4165C22.6927 12.481 24.003 11.9633 25.3614 11.9633C26.7198 11.9633 28.0301 12.481 29.0391 13.4165C30.0482 14.3519 30.6846 15.6387 30.8253 17.0284C29.2704 18.2952 27.345 18.9845 25.3614 18.9845C23.3778 18.9845 21.4524 18.2952 19.8975 17.0284ZM25.3614 8.07249e-09C23.4549 -7.91042e-05 21.5913 0.581333 20.0061 1.67071C18.4209 2.76009 17.1854 4.3085 16.4558 6.12014C15.7262 7.93177 15.5353 9.92526 15.9072 11.8485C16.2791 13.7717 17.1971 15.5384 18.5452 16.9249C19.8933 18.3115 21.6108 19.2558 23.4806 19.6383C25.3504 20.0209 27.2886 19.8245 29.0499 19.074C30.8112 18.3236 32.3166 17.0528 33.3757 15.4223C34.4348 13.7918 35.0001 11.8749 35 9.914C34.9971 7.28555 33.9807 4.76561 32.1737 2.90702C30.3668 1.04842 27.9168 0.00296438 25.3614 8.07249e-09ZM9.63861 22.332C10.3605 22.332 11.0661 22.5522 11.6663 22.9647C12.2665 23.3772 12.7343 23.9635 13.0105 24.6494C13.2868 25.3354 13.359 26.0902 13.2182 26.8184C13.0774 27.5466 12.7298 28.2155 12.2194 28.7405C11.7089 29.2655 11.0586 29.623 10.3506 29.7679C9.64266 29.9127 8.90882 29.8384 8.24192 29.5542C7.57502 29.2701 7.00501 28.789 6.60398 28.1716C6.20294 27.5543 5.98889 26.8285 5.98889 26.086C5.99043 25.0909 6.37545 24.1369 7.05957 23.4333C7.74369 22.7296 8.67112 22.3336 9.63861 22.332ZM9.63861 30.684C10.5228 30.6841 11.3871 30.4145 12.1223 29.9093C12.8575 29.4041 13.4305 28.686 13.7689 27.8459C14.1073 27.0057 14.1959 26.0812 14.0234 25.1892C13.851 24.2973 13.4253 23.4779 12.8001 22.8349C12.1749 22.1918 11.3784 21.7538 10.5113 21.5764C9.64409 21.3989 8.74525 21.49 7.92839 21.838C7.11153 22.186 6.41334 22.7753 5.92213 23.5314C5.43091 24.2876 5.16872 25.1766 5.16872 26.086C5.17016 27.3049 5.64155 28.4735 6.47949 29.3355C7.31743 30.1975 8.45353 30.6824 9.63861 30.684ZM3.06989 24.258C3.04853 24.3392 3.00405 24.412 2.94217 24.467C2.88029 24.5221 2.80383 24.5568 2.72261 24.5668L0.831833 24.8C0.830236 24.7999 0.828631 24.8001 0.827132 24.8007C0.825634 24.8013 0.824279 24.8022 0.823165 24.8034C0.82205 24.8046 0.821204 24.806 0.820686 24.8075C0.820168 24.8091 0.81999 24.8108 0.820167 24.8124V27.36C0.819927 27.3617 0.820057 27.3634 0.820547 27.365C0.821036 27.3666 0.821873 27.3681 0.822995 27.3693C0.824117 27.3705 0.825494 27.3715 0.827025 27.3721C0.828555 27.3727 0.830199 27.3729 0.831833 27.3728L2.72183 27.6056C2.80306 27.6154 2.87956 27.65 2.94146 27.705C3.00336 27.76 3.04783 27.8328 3.06911 27.914C3.22147 28.4933 3.44604 29.0499 3.73722 29.57C3.77798 29.643 3.79658 29.7269 3.79062 29.8109C3.78466 29.8948 3.75442 29.975 3.70378 30.0412L2.52778 31.582C2.52641 31.583 2.5253 31.5844 2.52453 31.586C2.52377 31.5875 2.52337 31.5893 2.52337 31.591C2.52337 31.5928 2.52377 31.5945 2.52453 31.596C2.5253 31.5976 2.52641 31.599 2.52778 31.6L4.27778 33.4C4.27884 33.4013 4.28015 33.4023 4.28163 33.403C4.2831 33.4037 4.28471 33.404 4.28633 33.404C4.28796 33.404 4.28956 33.4037 4.29104 33.403C4.29252 33.4023 4.29383 33.4013 4.29489 33.4L5.79444 32.19C5.86692 32.1316 5.95634 32.0999 6.04839 32.1C6.12035 32.0998 6.19108 32.1193 6.25333 32.1564C6.75859 32.4552 7.29919 32.6858 7.86178 32.8424C7.94083 32.8643 8.01172 32.91 8.0653 32.9736C8.11887 33.0373 8.15269 33.116 8.16239 33.1996L8.38872 35.1444C8.38865 35.146 8.38893 35.1477 8.38955 35.1492C8.39016 35.1507 8.3911 35.1521 8.39229 35.1532C8.39348 35.1543 8.39489 35.1552 8.39642 35.1556C8.39796 35.1561 8.39958 35.1562 8.40117 35.156H10.8784C10.8862 35.156 10.8901 35.1528 10.8904 35.1444L11.1172 33.2004C11.1268 33.1169 11.1605 33.0383 11.2139 32.9746C11.2674 32.911 11.3381 32.8652 11.417 32.8432C11.9802 32.6867 12.5214 32.4559 13.027 32.1564C13.0979 32.1143 13.1795 32.095 13.2612 32.1011C13.3429 32.1073 13.4209 32.1385 13.4851 32.1908L14.9816 33.4C14.9826 33.4013 14.9839 33.4023 14.9854 33.403C14.9869 33.4037 14.9885 33.404 14.9901 33.404C14.9917 33.404 14.9933 33.4037 14.9948 33.403C14.9963 33.4023 14.9976 33.4013 14.9987 33.4L16.7487 31.6C16.7499 31.5989 16.7509 31.5976 16.7516 31.5961C16.7522 31.5947 16.7526 31.593 16.7526 31.5914C16.7526 31.5898 16.7522 31.5881 16.7516 31.5867C16.7509 31.5852 16.7499 31.5839 16.7487 31.5828L15.5727 30.04C15.5222 29.9738 15.492 29.8935 15.4862 29.8095C15.4804 29.7256 15.4991 29.6417 15.54 29.5688C15.8307 29.0489 16.0549 28.4926 16.2069 27.9136C16.2283 27.8323 16.2728 27.7595 16.3346 27.7044C16.3965 27.6493 16.473 27.6145 16.5542 27.6044L18.4454 27.3716C18.447 27.3717 18.4487 27.3715 18.4502 27.3709C18.4517 27.3703 18.4531 27.3693 18.4542 27.3681C18.4553 27.3669 18.4562 27.3654 18.4567 27.3638C18.4572 27.3622 18.4573 27.3605 18.4571 27.3588V24.812C18.4572 24.8104 18.4571 24.8087 18.4565 24.8071C18.456 24.8056 18.4552 24.8042 18.4541 24.803C18.4529 24.8018 18.4516 24.8009 18.4501 24.8003C18.4486 24.7997 18.447 24.7995 18.4454 24.7996L16.5554 24.5668C16.4741 24.5569 16.3976 24.5222 16.3357 24.4672C16.2738 24.4121 16.2294 24.3393 16.2081 24.258C16.0556 23.6787 15.831 23.1221 15.54 22.602C15.4992 22.529 15.4806 22.4451 15.4866 22.3611C15.4926 22.2772 15.5228 22.1969 15.5734 22.1308L16.7506 20.5904C16.7518 20.5893 16.7528 20.588 16.7535 20.5864C16.7542 20.5849 16.7545 20.5833 16.7545 20.5816C16.7545 20.5799 16.7542 20.5783 16.7535 20.5768C16.7528 20.5752 16.7518 20.5739 16.7506 20.5728L15.0006 18.7728C14.9996 18.7715 14.9982 18.7705 14.9968 18.7698C14.9953 18.7691 14.9937 18.7688 14.9921 18.7688C14.9904 18.7688 14.9888 18.7691 14.9873 18.7698C14.9859 18.7705 14.9846 18.7715 14.9835 18.7728L13.4859 19.9844C13.4213 20.0363 13.3432 20.0673 13.2615 20.0734C13.1797 20.0794 13.0981 20.0603 13.027 20.0184C12.5218 19.7188 11.9808 19.4879 11.4178 19.3316C11.3389 19.3097 11.2682 19.264 11.2148 19.2004C11.1613 19.1368 11.1276 19.0583 11.1179 18.9748L10.8889 17.0272C10.889 17.0256 10.8887 17.024 10.8881 17.0225C10.8875 17.0211 10.8866 17.0197 10.8854 17.0187C10.8843 17.0176 10.8829 17.0168 10.8814 17.0163C10.8799 17.0159 10.8784 17.0158 10.8768 17.016H8.4C8.39845 17.0158 8.39686 17.0159 8.39535 17.0163C8.39385 17.0168 8.39246 17.0176 8.39127 17.0187C8.39009 17.0197 8.38915 17.021 8.3885 17.0225C8.38786 17.024 8.38754 17.0256 8.38756 17.0272L8.16122 18.9728C8.15151 19.0562 8.11777 19.1348 8.06435 19.1984C8.01092 19.2619 7.94025 19.3076 7.86139 19.3296C7.2982 19.4861 6.75705 19.7168 6.25139 20.016C6.18048 20.058 6.09897 20.0773 6.01733 20.0713C5.9357 20.0653 5.85767 20.0344 5.79328 19.9824L4.29567 18.7708C4.29461 18.7695 4.2933 18.7685 4.29182 18.7678C4.29034 18.7671 4.28874 18.7668 4.28711 18.7668C4.28549 18.7668 4.28388 18.7671 4.2824 18.7678C4.28093 18.7685 4.27961 18.7695 4.27856 18.7708L2.52778 20.5728C2.52655 20.5739 2.52556 20.5752 2.52488 20.5768C2.5242 20.5783 2.52385 20.5799 2.52385 20.5816C2.52385 20.5833 2.5242 20.5849 2.52488 20.5864C2.52556 20.588 2.52655 20.5893 2.52778 20.5904L3.70572 22.1308C3.75609 22.1971 3.78611 22.2773 3.79192 22.3613C3.79774 22.4452 3.7791 22.529 3.73839 22.602C3.44754 23.1221 3.22324 23.6787 3.07106 24.258H3.06989ZM0.734222 23.96C0.531701 23.9851 0.345133 24.0856 0.209829 24.2426C0.0745254 24.3996 -0.000127173 24.6022 1.6263e-07 24.812V27.36C0.000231395 27.5696 0.0750282 27.7719 0.210283 27.9287C0.345538 28.0855 0.531901 28.186 0.734222 28.2112L2.3555 28.4112C2.49357 28.8705 2.67284 29.3156 2.891 29.7408L1.87989 31.0608C1.75408 31.2256 1.69137 31.4322 1.70363 31.6414C1.71588 31.8506 1.80225 32.0479 1.94639 32.196L3.69639 33.996C3.84065 34.1441 4.03262 34.2328 4.23608 34.2453C4.43954 34.2578 4.64042 34.1933 4.80083 34.064L6.08417 33.024C6.4974 33.2482 6.92987 33.4327 7.37606 33.5752L7.5705 35.2432C7.59469 35.4519 7.6925 35.6443 7.8454 35.7838C7.99829 35.9233 8.19563 36.0002 8.4 36H10.8772C11.0811 36.0001 11.278 35.9234 11.4307 35.7843C11.5833 35.6452 11.6811 35.4534 11.7056 35.2452L11.9 33.5772C12.3466 33.4352 12.7793 33.2509 13.1927 33.0264L14.476 34.0644C14.6361 34.194 14.8368 34.2588 15.0402 34.2464C15.2436 34.234 15.4356 34.1454 15.5797 33.9972L17.3297 32.1972C17.4739 32.0491 17.5603 31.8517 17.5724 31.6425C17.5845 31.4332 17.5215 31.2266 17.3954 31.062L16.3843 29.742C16.6021 29.3172 16.7815 28.8726 16.9202 28.414L18.5414 28.214C18.7445 28.1891 18.9316 28.0884 19.0673 27.931C19.2029 27.7735 19.2776 27.5704 19.2772 27.36V24.812C19.2773 24.6022 19.2027 24.3996 19.0674 24.2426C18.9321 24.0856 18.7455 23.9851 18.543 23.96L16.9217 23.76C16.7837 23.3007 16.6044 22.8556 16.3862 22.4304L17.3954 21.1104C17.5216 20.9457 17.5846 20.7391 17.5725 20.5297C17.5603 20.3204 17.474 20.1229 17.3297 19.9748L15.5797 18.1728C15.4356 18.0246 15.2437 17.9358 15.0403 17.9234C14.8369 17.9109 14.6361 17.9756 14.476 18.1052L13.1927 19.1452C12.7793 18.9211 12.3467 18.7367 11.9004 18.5944L11.7059 16.9264C11.6814 16.7182 11.5835 16.5264 11.4308 16.3874C11.2781 16.2484 11.0812 16.1717 10.8772 16.172H8.4C8.1962 16.1722 7.99953 16.2492 7.84708 16.3883C7.69463 16.5274 7.59695 16.7191 7.57244 16.9272L7.378 18.5952C6.93176 18.7374 6.49928 18.9218 6.08611 19.146L4.80278 18.106C4.64245 17.9765 4.44157 17.9119 4.23809 17.9244C4.03461 17.9368 3.8426 18.0255 3.69833 18.1736L1.94833 19.9756C1.80416 20.1238 1.71778 20.3212 1.70553 20.5304C1.69328 20.7397 1.756 20.9463 1.88183 21.1112L2.89294 22.4312C2.67497 22.8564 2.49558 23.3013 2.35706 23.7604L0.734222 23.96Z" fill="#006CA9"></path>
</svg>
