<?xml version="1.0" encoding="UTF-8"?>
<svg xmlns="http://www.w3.org/2000/svg" width="37" height="36" viewBox="0 0 37 36" fill="none">
  <path d="M35.2647 6.70941H34.6389C34.7809 6.4701 34.8562 6.19825 34.8572 5.92123C34.8583 5.64421 34.7851 5.3718 34.6449 5.13145C34.5048 4.8911 34.3027 4.69128 34.059 4.55213C33.8153 4.41297 33.5386 4.33939 33.2567 4.3388H29.8151C29.9574 4.10301 30.034 3.83445 30.0368 3.56027C30.0307 3.1492 29.8618 2.75665 29.5661 2.46594C29.2703 2.17523 28.8709 2.00925 28.4527 2.00322H23.906C22.9014 2.00161 21.9083 2.21249 20.9939 2.62153C20.0796 3.03057 19.2655 3.6282 18.6069 4.37383H14.5673C14.4381 4.16851 14.2581 3.9987 14.0441 3.88025C13.8301 3.76181 13.5891 3.6986 13.3435 3.69652C13.1161 3.69586 12.8919 3.74928 12.69 3.85222V2.76618C12.696 2.48393 12.6239 2.20538 12.4812 1.96033C12.3386 1.71529 12.1309 1.51296 11.8803 1.37501C11.6297 1.23706 11.3456 1.16867 11.0585 1.17717C10.7714 1.18566 10.4921 1.27071 10.2503 1.42322C10.2125 1.01026 10.0094 0.628982 9.68553 0.363258C9.3617 0.097534 8.94373 -0.0308684 8.52358 0.00629768C8.31554 0.0247004 8.11322 0.0831973 7.92819 0.178449C7.74315 0.2737 7.57901 0.40384 7.44515 0.561439C7.17479 0.879723 7.04415 1.29053 7.08197 1.70349V2.32242C6.84207 2.18247 6.56883 2.10728 6.28987 2.10443C5.87131 2.10948 5.47135 2.27514 5.17536 2.56606C4.87937 2.85698 4.71082 3.25009 4.70568 3.66148V7.05975C4.46134 6.91025 4.18058 6.82813 3.89283 6.82199C3.60508 6.81585 3.32096 6.88592 3.07025 7.02485C2.81953 7.16378 2.61147 7.36646 2.46789 7.61163C2.3243 7.85679 2.25047 8.13542 2.25415 8.41828V12.8715C2.25378 13.8592 2.47011 14.8354 2.88839 15.7336C3.30666 16.6317 3.91706 17.4306 4.67796 18.0759V23.1791C4.40353 23.2811 4.16714 23.4626 4.0002 23.6997C3.83325 23.9368 3.74365 24.2182 3.74329 24.5065C3.74455 24.7311 3.79878 24.9523 3.90171 25.1527H2.79674C2.37658 25.1527 1.97364 25.3168 1.67655 25.6088C1.37945 25.9008 1.21255 26.2968 1.21255 26.7098C1.21339 26.9993 1.29415 27.2832 1.44622 27.5311C1.02606 27.5688 0.63835 27.769 0.368367 28.0876C0.0983837 28.4063 -0.0317527 28.8173 0.00658622 29.2303C0.0449252 29.6432 0.248599 30.0243 0.572801 30.2896C0.897004 30.555 1.31518 30.6829 1.73533 30.6452H2.34524C2.20327 30.8845 2.12797 31.1564 2.12691 31.4334C2.12585 31.7104 2.19908 31.9828 2.33922 32.2232C2.47936 32.4635 2.68146 32.6634 2.92517 32.8025C3.16888 32.9417 3.4456 33.0152 3.72745 33.0158H7.1691C7.02671 33.2516 6.95021 33.5202 6.94731 33.7944C6.94731 34.2073 7.11421 34.6034 7.41131 34.8954C7.7084 35.1874 8.11135 35.3514 8.5315 35.3514H13.0781C14.0823 35.353 15.0752 35.1425 15.9894 34.7342C16.9037 34.3259 17.718 33.7292 18.3772 32.9847H23.5892V33.2533C23.5954 33.6677 23.767 34.0631 24.0671 34.3544C24.3671 34.6456 24.7715 34.8094 25.1932 34.8103C25.4871 34.8098 25.7751 34.729 26.0249 34.5768C26.0627 34.9897 26.2659 35.371 26.5897 35.6367C26.9135 35.9025 27.3315 36.0309 27.7517 35.9937C28.1718 35.9565 28.5597 35.7568 28.8301 35.4386C29.1004 35.1203 29.2311 34.7095 29.1933 34.2965V33.7515C29.4326 33.8927 29.7062 33.968 29.9854 33.9695C30.4073 33.9644 30.8102 33.7961 31.1068 33.501C31.4033 33.2059 31.5696 32.8078 31.5695 32.393V29.0142C31.813 29.1537 32.0896 29.2278 32.3715 29.2288C32.6533 29.2298 32.9305 29.1579 33.175 29.0201C33.4196 28.8824 33.6229 28.6837 33.7644 28.4442C33.906 28.2047 33.9809 27.9327 33.9815 27.6557V23.2025C33.9887 22.2189 33.7811 21.2453 33.3725 20.3474C32.9639 19.4496 32.3639 18.6484 31.6131 17.9981V14.2962H31.7913C32.0392 14.296 32.2829 14.2334 32.4992 14.1143C32.7154 13.9952 32.897 13.8236 33.0265 13.6158C33.156 13.4081 33.2292 13.1712 33.239 12.9277C33.2488 12.6843 33.1949 12.4424 33.0824 12.2253H34.1874C34.474 12.2307 34.7567 12.1597 35.0054 12.0197C35.2541 11.8797 35.4595 11.676 35.5997 11.4303C35.7399 11.1846 35.8097 10.9062 35.8016 10.6246C35.7935 10.343 35.7079 10.0688 35.5538 9.83131C35.9739 9.79363 36.3617 9.59344 36.6316 9.27479C36.9016 8.95614 37.0318 8.54513 36.9934 8.13217C36.9551 7.71922 36.7514 7.33814 36.4272 7.07278C36.103 6.80742 35.6848 6.67952 35.2647 6.7172V6.70941ZM14.7811 13.0894H18.7218L19.9099 13.5137C20.8078 13.8303 21.737 14.0534 22.6823 14.1794V18.1109L22.2506 19.2787C21.7251 20.7173 21.4571 22.2345 21.4585 23.763V24.2808H18.2624L17.0742 23.8565C15.9515 23.4573 14.7793 23.2085 13.589 23.1169V17.963L14.0207 16.7952C14.4533 15.6021 14.7094 14.3541 14.7811 13.0894ZM3.04625 12.8715V8.41828C3.04625 8.20716 3.13158 8.00468 3.28347 7.85539C3.43535 7.70611 3.64136 7.62224 3.85616 7.62224C4.07097 7.62224 4.27697 7.70611 4.42886 7.85539C4.58075 8.00468 4.66608 8.20716 4.66608 8.41828V11.1821C4.66608 11.2853 4.70781 11.3843 4.78208 11.4573C4.85635 11.5303 4.95709 11.5713 5.06213 11.5713C5.16716 11.5713 5.2679 11.5303 5.34217 11.4573C5.41645 11.3843 5.45817 11.2853 5.45817 11.1821V3.68094C5.45817 3.47034 5.54329 3.26836 5.69481 3.11943C5.84633 2.97051 6.05183 2.88685 6.26611 2.88685C6.48039 2.88685 6.68589 2.97051 6.83741 3.11943C6.98892 3.26836 7.07404 3.47034 7.07404 3.68094V9.77292C7.07404 9.87616 7.11577 9.97517 7.19004 10.0482C7.26432 10.1212 7.36505 10.1622 7.47009 10.1622C7.57513 10.1622 7.67587 10.1212 7.75014 10.0482C7.82441 9.97517 7.86614 9.87616 7.86614 9.77292V1.68792C7.86614 1.47679 7.95147 1.27431 8.10336 1.12503C8.25525 0.975741 8.46125 0.891872 8.67605 0.891872C8.89086 0.891872 9.09686 0.975741 9.24875 1.12503C9.40064 1.27431 9.48597 1.47679 9.48597 1.68792V9.60164C9.48597 9.70488 9.5277 9.80389 9.60197 9.87689C9.67624 9.94989 9.77698 9.9909 9.88202 9.9909C9.98706 9.9909 10.0878 9.94989 10.1621 9.87689C10.2363 9.80389 10.2781 9.70488 10.2781 9.60164V2.76618C10.2781 2.55505 10.3634 2.35257 10.5153 2.20329C10.6672 2.054 10.8732 1.97013 11.088 1.97013C11.3028 1.97013 11.5088 2.054 11.6607 2.20329C11.8126 2.35257 11.8979 2.55505 11.8979 2.76618V9.60164C11.8979 9.70488 11.9396 9.80389 12.0139 9.87689C12.0882 9.94989 12.1889 9.9909 12.2939 9.9909C12.399 9.9909 12.4997 9.94989 12.574 9.87689C12.6483 9.80389 12.69 9.70488 12.69 9.60164V5.12122C12.683 5.03241 12.6947 4.94313 12.7244 4.85898C12.7542 4.77484 12.8013 4.69765 12.8629 4.63226C12.9244 4.56688 12.9991 4.51471 13.0821 4.47903C13.1652 4.44335 13.2548 4.42493 13.3455 4.42493C13.4361 4.42493 13.5257 4.44335 13.6088 4.47903C13.6918 4.51471 13.7665 4.56688 13.828 4.63226C13.8896 4.69765 13.9367 4.77484 13.9665 4.85898C13.9962 4.94313 14.0079 5.03241 14.0009 5.12122V12.3031C14.0067 13.7411 13.7574 15.169 13.2643 16.5227L12.8088 17.7645C12.7931 17.8069 12.7851 17.8517 12.785 17.8968V23.0974H5.47005V17.8968C5.46967 17.8393 5.45633 17.7827 5.43099 17.7308C5.40565 17.679 5.36895 17.6333 5.32352 17.5971C4.61146 17.0244 4.03778 16.3034 3.64394 15.4861C3.2501 14.6688 3.04595 13.7758 3.04625 12.8715ZM18.1911 32.2607C18.1329 32.2606 18.0754 32.2731 18.0227 32.2973C17.97 32.3215 17.9234 32.3569 17.8861 32.4008C17.3025 33.0987 16.5684 33.6605 15.7369 34.0456C14.9054 34.4306 13.9973 34.6294 13.0781 34.6274H8.54734C8.33306 34.6274 8.12756 34.5437 7.97604 34.3948C7.82453 34.2459 7.7394 34.0439 7.7394 33.8333C7.7394 33.6227 7.82453 33.4207 7.97604 33.2718C8.12756 33.1229 8.33306 33.0392 8.54734 33.0392H11.3632C11.4683 33.0392 11.569 32.9982 11.6433 32.9252C11.7176 32.8522 11.7593 32.7532 11.7593 32.6499C11.7593 32.5467 11.7176 32.4477 11.6433 32.3747C11.569 32.3017 11.4683 32.2607 11.3632 32.2607H3.72745C3.51264 32.2607 3.30664 32.1768 3.15475 32.0275C3.00286 31.8782 2.91753 31.6758 2.91753 31.4646C2.91753 31.2535 3.00286 31.051 3.15475 30.9017C3.30664 30.7525 3.51264 30.6686 3.72745 30.6686H9.92558C10.0306 30.6686 10.1314 30.6276 10.2056 30.5546C10.2799 30.4816 10.3216 30.3826 10.3216 30.2793C10.3216 30.1761 10.2799 30.0771 10.2056 30.0041C10.1314 29.9311 10.0306 29.8901 9.92558 29.8901H1.71949C1.50469 29.8901 1.29868 29.8062 1.14679 29.6569C0.994904 29.5076 0.909573 29.3051 0.909573 29.094C0.909573 28.8829 0.994904 28.6804 1.14679 28.5311C1.29868 28.3818 1.50469 28.298 1.71949 28.298H9.75528C9.86032 28.298 9.96106 28.257 10.0353 28.184C10.1096 28.111 10.1513 28.0119 10.1513 27.9087C10.1513 27.8055 10.1096 27.7065 10.0353 27.6335C9.96106 27.5605 9.86032 27.5194 9.75528 27.5194H2.79674C2.58246 27.5194 2.37696 27.4358 2.22544 27.2869C2.07392 27.1379 1.9888 26.9359 1.9888 26.7253C1.9888 26.5147 2.07392 26.3128 2.22544 26.1638C2.37696 26.0149 2.58246 25.9312 2.79674 25.9312H9.75528C9.86032 25.9312 9.96106 25.8902 10.0353 25.8172C10.1096 25.7442 10.1513 25.6452 10.1513 25.542C10.1513 25.4387 10.1096 25.3397 10.0353 25.2667C9.96106 25.1937 9.86032 25.1527 9.75528 25.1527H5.19282C5.01846 25.1527 4.85124 25.0846 4.72794 24.9635C4.60465 24.8423 4.53538 24.6779 4.53538 24.5065C4.53538 24.3352 4.60465 24.1708 4.72794 24.0496C4.85124 23.9284 5.01846 23.8604 5.19282 23.8604L13.1692 23.8759C14.4064 23.9387 15.6274 24.18 16.793 24.5922L18.0564 25.0437C18.0996 25.0591 18.1452 25.067 18.1911 25.0671H21.4862V30.9527C21.4869 31.2303 21.5696 31.5016 21.7243 31.7338C21.879 31.966 22.099 32.1491 22.3575 32.2607H18.1911ZM23.5892 32.2607H23.4902L23.5892 32.2217V32.2607ZM33.2329 23.2025V27.6557C33.2329 27.8668 33.1476 28.0693 32.9957 28.2186C32.8438 28.3679 32.6378 28.4517 32.423 28.4517C32.2082 28.4517 32.0022 28.3679 31.8503 28.2186C31.6984 28.0693 31.6131 27.8668 31.6131 27.6557V24.8919C31.6131 24.7887 31.5714 24.6897 31.4971 24.6167C31.4228 24.5437 31.3221 24.5026 31.2171 24.5026C31.112 24.5026 31.0113 24.5437 30.937 24.6167C30.8627 24.6897 30.821 24.7887 30.821 24.8919V32.393C30.821 32.6036 30.7359 32.8056 30.5844 32.9545C30.4329 33.1035 30.2274 33.1871 30.0131 33.1871C29.7988 33.1871 29.5933 33.1035 29.4418 32.9545C29.2903 32.8056 29.2052 32.6036 29.2052 32.393V26.301C29.2052 26.1978 29.1634 26.0988 29.0892 26.0258C29.0149 25.9528 28.9141 25.9118 28.8091 25.9118C28.7041 25.9118 28.6033 25.9528 28.5291 26.0258C28.4548 26.0988 28.4131 26.1978 28.4131 26.301V34.386C28.4131 34.5951 28.3286 34.7956 28.1782 34.9434C28.0278 35.0913 27.8238 35.1743 27.6111 35.1743C27.3984 35.1743 27.1944 35.0913 27.044 34.9434C26.8936 34.7956 26.8091 34.5951 26.8091 34.386V26.4723C26.8091 26.3691 26.7673 26.2701 26.6931 26.1971C26.6188 26.1241 26.5181 26.0831 26.413 26.0831C26.308 26.0831 26.2072 26.1241 26.133 26.1971C26.0587 26.2701 26.017 26.3691 26.017 26.4723V33.3078C26.017 33.5189 25.9316 33.7214 25.7798 33.8707C25.6279 34.02 25.4219 34.1038 25.2071 34.1038C24.9923 34.1038 24.7862 34.02 24.6344 33.8707C24.4825 33.7214 24.3971 33.5189 24.3971 33.3078V26.4723C24.3971 26.3691 24.3554 26.2701 24.2811 26.1971C24.2069 26.1241 24.1061 26.0831 24.0011 26.0831C23.8961 26.0831 23.7953 26.1241 23.721 26.1971C23.6468 26.2701 23.605 26.3691 23.605 26.4723V30.9527C23.6121 31.0416 23.6003 31.1308 23.5706 31.215C23.5408 31.2991 23.4937 31.3763 23.4322 31.4417C23.3706 31.5071 23.296 31.5593 23.2129 31.5949C23.1299 31.6306 23.0402 31.649 22.9496 31.649C22.859 31.649 22.7693 31.6306 22.6863 31.5949C22.6032 31.5593 22.5286 31.5071 22.467 31.4417C22.4055 31.3763 22.3583 31.2991 22.3286 31.215C22.2988 31.1308 22.2871 31.0416 22.2941 30.9527V23.7708C22.2922 22.3322 22.5455 20.9043 23.0427 19.5512L23.4942 18.3095C23.5098 18.267 23.5179 18.2223 23.5179 18.1771V14.2572C23.8427 14.2806 24.1714 14.2962 24.4962 14.2962H30.8329V18.1888C30.8333 18.2463 30.8466 18.303 30.872 18.3548C30.8973 18.4066 30.934 18.4523 30.9794 18.4885C31.685 19.0628 32.2528 19.7831 32.6423 20.5979C33.0319 21.4128 33.2335 22.3022 33.2329 23.2025ZM35.2647 9.08392H27.2289C27.1238 9.08392 27.0231 9.12493 26.9488 9.19793C26.8746 9.27093 26.8328 9.36995 26.8328 9.47318C26.8328 9.57642 26.8746 9.67543 26.9488 9.74844C27.0231 9.82144 27.1238 9.86245 27.2289 9.86245H34.1874C34.4022 9.86245 34.6082 9.94632 34.7601 10.0956C34.912 10.2449 34.9973 10.4474 34.9973 10.6585C34.9973 10.8696 34.912 11.0721 34.7601 11.2214C34.6082 11.3707 34.4022 11.4545 34.1874 11.4545H27.2289C27.1238 11.4545 27.0231 11.4955 26.9488 11.5685C26.8746 11.6415 26.8328 11.7406 26.8328 11.8438C26.8328 11.947 26.8746 12.046 26.9488 12.1191C27.0231 12.1921 27.1238 12.2331 27.2289 12.2331H31.7913C31.9657 12.2331 32.1329 12.3011 32.2562 12.4223C32.3795 12.5435 32.4488 12.7079 32.4488 12.8792C32.4488 13.0506 32.3795 13.215 32.2562 13.3362C32.1329 13.4573 31.9657 13.5254 31.7913 13.5254H24.4803C23.0176 13.5227 21.5665 13.2712 20.1911 12.7819L18.9277 12.3343C18.8846 12.3189 18.839 12.311 18.7931 12.3109H14.8049V5.12122H18.7931C18.8513 5.12131 18.9087 5.1088 18.9615 5.08458C19.0142 5.06036 19.0608 5.02503 19.098 4.98108C19.6815 4.28265 20.4154 3.72027 21.2469 3.33454C22.0784 2.94882 22.9866 2.74937 23.906 2.7506H28.4368C28.6516 2.7506 28.8576 2.83447 29.0095 2.98376C29.1614 3.13305 29.2467 3.33552 29.2467 3.54665C29.2467 3.75777 29.1614 3.96025 29.0095 4.10954C28.8576 4.25882 28.6516 4.34269 28.4368 4.34269H25.6209C25.5159 4.34269 25.4152 4.3837 25.3409 4.45671C25.2666 4.52971 25.2249 4.62872 25.2249 4.73196C25.2249 4.8352 25.2666 4.93421 25.3409 5.00721C25.4152 5.08021 25.5159 5.12122 25.6209 5.12122H33.2567C33.4715 5.12122 33.6775 5.20509 33.8294 5.35438C33.9813 5.50366 34.0666 5.70614 34.0666 5.91726C34.0666 6.12839 33.9813 6.33086 33.8294 6.48015C33.6775 6.62944 33.4715 6.71331 33.2567 6.71331H27.0586C26.9535 6.71331 26.8528 6.75432 26.7785 6.82732C26.7043 6.90032 26.6625 6.99933 26.6625 7.10257C26.6625 7.20581 26.7043 7.30482 26.7785 7.37782C26.8528 7.45082 26.9535 7.49183 27.0586 7.49183H35.2647C35.4789 7.49183 35.6844 7.5755 35.836 7.72442C35.9875 7.87334 36.0726 8.07532 36.0726 8.28593C36.0726 8.49654 35.9875 8.69852 35.836 8.84744C35.6844 8.99636 35.4789 9.08003 35.2647 9.08003V9.08392Z" fill="#006CA9"></path>
</svg>
