<svg width="315" height="312" viewBox="0 0 315 312" fill="none" xmlns="http://www.w3.org/2000/svg">
    <path opacity="0.15" d="M313.825 271.103V246.558L290.697 233.194V259.47L269.156 271.921V246.105L246.425 259.24L224.488 246.566V222.483C225.154 222.308 225.646 221.704 225.646 220.981C225.646 220.838 225.622 220.703 225.583 220.576L246.616 208.418L246.814 208.307V181.578L224.091 194.712L201.756 181.8L179.422 194.704L157.484 182.022V156.667L180.215 143.533L157.484 130.399V104.122L134.554 117.375L134.356 117.487V142.842L113.918 131.026C113.95 130.899 113.982 130.764 113.982 130.621C113.982 129.898 113.49 129.294 112.823 129.119V79.2197L134.959 66.4269L135.158 66.3157V39.586L112.228 52.8396L112.029 52.9508V78.7668L90.0918 91.4483L68.5511 78.9972L90.2903 66.4349L90.4887 66.3236V39.5939L67.559 52.8475L67.3605 52.9588V104.13L46.923 92.3144C46.9547 92.1872 46.9865 92.0521 46.9865 91.9091C46.9865 91.1861 46.4944 90.5822 45.8277 90.4074V65.8628L23.9139 53.1892L45.4547 40.7381L45.8515 40.9686V40.5077L46.2484 40.2773L45.8515 40.0469V14.2309L24.6203 1.96261C24.652 1.83548 24.6838 1.70039 24.6838 1.55737C24.6838 0.699218 23.9853 0 23.1282 0C22.271 0 21.5725 0.699218 21.5725 1.55737C21.5725 2.28043 22.0646 2.8843 22.7313 3.05911V27.1429L0 40.2773L22.3345 53.1813L0.595268 65.7436L0.396845 65.8548V91.6708L0 91.9012L0.396845 92.1316V117.948L22.3186 130.621L0.571457 143.191L0.373035 143.303V170.032L23.3028 156.779L23.5012 156.667V131.304L23.5171 131.312V105.036L44.3435 92.9977C44.534 93.1884 44.78 93.3314 45.0499 93.4029V117.948L66.9875 130.621L45.2563 143.191L45.0578 143.303V169.126L24.2473 181.156C23.9615 180.87 23.5726 180.696 23.144 180.696C22.2868 180.696 21.5884 181.395 21.5884 182.253C21.5884 182.976 22.0805 183.58 22.7472 183.755V233.623L0.571457 246.439L0.373035 246.55V273.28L0.404782 273.256V298.635L22.7392 311.539V312L23.1361 311.77L23.5329 312V311.539L45.669 298.746L45.8674 298.635V271.905L24.2473 284.404C23.9615 284.118 23.5726 283.943 23.144 283.943C22.7075 283.943 22.3186 284.118 22.0408 284.404L1.58738 272.581L22.7472 260.352V260.376L45.4785 247.242L68.2098 260.376V234.091L90.322 221.307L90.5204 221.195V196.651C91.1871 196.476 91.6792 195.872 91.6792 195.149C91.6792 194.291 90.9808 193.592 90.1236 193.592C89.2664 193.592 88.568 194.291 88.568 195.149C88.568 195.292 88.5918 195.427 88.6314 195.554L67.5986 207.711L67.4002 207.823V233.17L45.8833 220.734V169.556L67.7971 156.89L90.5284 170.024V143.756L111.355 131.718C111.545 131.908 111.791 132.051 112.061 132.123V156.667L133.292 168.936C133.261 169.063 133.229 169.198 133.229 169.341C133.229 169.484 133.253 169.619 133.292 169.746L112.26 181.903L112.061 182.015V233.615L91.3617 245.581C91.076 245.184 90.6157 244.922 90.0918 244.922C89.2347 244.922 88.5362 245.621 88.5362 246.479C88.5362 247.202 89.0283 247.806 89.695 247.981V273.272L112.029 260.368V285.723L135.158 299.088V272.358L113.244 259.693L134.793 247.234L155.627 259.272C155.595 259.399 155.563 259.534 155.563 259.677C155.563 260.535 156.262 261.234 157.119 261.234C157.976 261.234 158.675 260.535 158.675 259.677C158.675 258.954 158.183 258.35 157.516 258.175V208.283L179.453 195.602L200.994 208.053L179.255 220.615L179.057 220.727V246.542L178.66 246.773L179.057 247.003V272.358L156.921 285.151L156.722 285.262V311.992L179.652 298.738L179.85 298.627V273.272L201.391 285.723V286.184L201.788 285.954L224.519 299.088V274.091C224.789 274.019 225.035 273.876 225.226 273.685L246.052 285.723V311.992L268.387 299.088V299.096L291.316 285.842L291.515 285.731V260.376L311.952 272.192C311.92 272.319 311.889 272.454 311.889 272.597C311.889 273.455 312.587 274.154 313.444 274.154C314.302 274.154 315 273.455 315 272.597C314.984 271.882 314.492 271.278 313.825 271.103ZM68.178 53.4117L89.7188 40.9606V65.8548L68.178 78.3059V53.4117ZM22.7075 156.215L1.16673 168.666V143.771L22.7075 131.32V156.215ZM45.0737 273.288V298.182L23.5329 310.633V287.01C24.1996 286.836 24.6917 286.232 24.6917 285.509C24.6917 285.366 24.6679 285.231 24.6282 285.103L45.0737 273.288ZM22.7392 287.01V310.633L1.20641 298.182V273.288L21.6439 285.103C21.6122 285.231 21.5805 285.366 21.5805 285.509C21.5805 286.232 22.0725 286.828 22.7392 287.01ZM268.371 272.366L246.83 284.817V259.923L268.371 247.472V272.366ZM223.702 271.103C223.432 271.174 223.186 271.31 222.995 271.508L202.566 259.701L223.71 247.48V271.103H223.702ZM202.169 233.654V208.76L222.606 220.576C222.575 220.703 222.543 220.838 222.543 220.981C222.543 221.704 223.035 222.308 223.702 222.483V246.105L202.169 233.654ZM223.702 219.471C223.432 219.543 223.186 219.686 222.995 219.876L202.566 208.069L223.71 195.848V219.471H223.702ZM201.772 234.346L223.313 246.797L213.527 252.454L201.772 259.248L180.231 246.797L190.018 241.139L201.772 234.346ZM202.169 260.384L222.606 272.199C222.575 272.327 222.543 272.462 222.543 272.605C222.543 272.748 222.567 272.883 222.606 273.01L202.169 284.825V260.384ZM246.036 207.838L225.21 219.876C225.019 219.686 224.773 219.543 224.503 219.471V195.387L246.044 182.936V207.838H246.036ZM135.173 167.847V144.224L156.714 156.675V181.57L136.277 169.754C136.308 169.627 136.34 169.492 136.34 169.349C136.332 168.626 135.84 168.022 135.173 167.847ZM135.173 170.851C135.443 170.779 135.689 170.636 135.88 170.445L156.309 182.253L135.173 194.474V170.851ZM157.111 155.984L135.57 143.533L146.134 137.431L157.111 131.09L178.652 143.541L157.111 155.984ZM135.173 117.948L156.714 105.496V130.391L135.173 142.842V117.948ZM112.839 53.4117L134.38 40.9606V65.8548L112.839 78.3059V53.4117ZM112.045 104.583L104.997 108.659L90.5046 117.034V92.1396L112.045 79.6885V104.583ZM89.7188 142.842L78.9484 136.62L68.178 130.399V105.504L78.9484 111.726L89.7188 117.948V142.842ZM68.178 79.6885L89.7188 92.1396V117.034L78.9484 110.812L68.178 104.591V79.6885ZM45.0578 90.4074C44.788 90.4789 44.5419 90.614 44.3514 90.8126L23.525 78.7747V53.8805L45.0658 66.3316V90.4074H45.0578ZM45.0578 14.6918V39.586L23.5171 27.1349V3.05118C23.7869 2.97967 24.033 2.84458 24.2234 2.64594L45.0578 14.6918ZM23.1202 27.8262L44.661 40.2773L23.5171 52.4979L23.1202 52.7283L22.7234 52.4979L1.57944 40.2773L23.1202 27.8262ZM1.1826 66.3236L22.7234 53.8725V78.7668L1.1826 91.2179V66.3236ZM1.1826 92.5925L22.7234 105.044V129.938L1.1826 117.487V92.5925ZM23.1202 104.36L1.57944 91.9091L11.3657 86.2517L23.1202 79.4581L43.9546 91.496C43.9228 91.6231 43.8911 91.7582 43.8911 91.9012C43.8911 92.0442 43.9149 92.1793 43.9546 92.3064L23.1202 104.36ZM45.8515 93.4109C46.1214 93.3394 46.3674 93.2043 46.5579 93.0057L67.3843 105.044V129.938L45.8436 117.487V93.4109H45.8515ZM45.8515 143.763L67.3923 131.312V156.207L45.8515 168.658V143.763ZM23.5329 183.755C24.1996 183.58 24.6917 182.976 24.6917 182.253C24.6917 182.11 24.6679 181.975 24.6282 181.848L45.0658 170.032V194.926L23.525 207.378V183.755H23.5329ZM45.0737 220.75L23.5329 233.201V208.307L45.0737 195.856V220.75ZM22.7075 259.462L1.16673 271.913V247.019L22.7075 234.568V259.462ZM23.5329 234.115L45.0737 221.664V246.558L23.5329 259.009V234.115ZM68.178 208.299L89.0045 196.261C89.195 196.452 89.441 196.595 89.7109 196.667V220.75L68.1701 233.201V208.299H68.178ZM67.4002 234.56V259.009L45.8595 246.558V221.664L67.3764 234.099V234.568L67.4002 234.56ZM89.7188 168.658L68.178 156.207V131.312L78.9484 137.534L89.7188 143.756V168.658ZM90.5125 142.85V117.948L102.823 110.836L112.053 105.504V129.127C111.387 129.302 110.894 129.906 110.894 130.629C110.894 130.772 110.918 130.907 110.958 131.034L90.5125 142.85ZM112.839 156.215V132.131C113.109 132.059 113.355 131.924 113.545 131.726L134.372 143.763V167.847C134.102 167.919 133.856 168.054 133.665 168.252L112.839 156.215ZM112.839 182.483L133.665 170.445C133.856 170.636 134.102 170.779 134.372 170.851V194.934L133.975 195.165L112.831 207.386V182.483H112.839ZM112.839 234.115L134.38 221.664V246.558L112.839 259.009V234.115ZM134.38 220.75L112.839 233.201V208.307L134.38 195.856V220.75ZM90.4728 271.913V248.004C91.1395 247.83 91.6316 247.226 91.6316 246.503C91.6316 246.455 91.6237 246.407 91.6157 246.36L112.006 234.576V259.47L90.4728 271.913ZM134.348 297.721L112.807 285.27V260.376L134.348 272.827V297.721ZM156.714 258.191C156.444 258.263 156.198 258.398 156.008 258.596L135.181 246.558V221.664L156.722 234.115V258.191H156.714ZM135.173 220.75V195.856L156.714 208.307V233.201L135.173 220.75ZM157.111 207.608L135.57 195.157L157.103 182.706L157.5 182.936L178.644 195.157L157.111 207.608ZM201.772 182.714L223.313 195.165L202.169 207.386L201.772 207.616L201.375 207.386L180.231 195.165L201.772 182.714ZM179.834 221.203L201.375 208.752V233.646L179.834 246.097V221.203ZM179.041 298.19L157.5 310.641V285.747L179.041 273.296V298.19ZM179.834 272.374V247.48L201.375 259.931V284.825L179.834 272.374ZM202.566 285.517L222.995 273.709C223.186 273.9 223.432 274.043 223.702 274.114V297.737L202.566 285.517ZM224.495 271.103V247.48L246.036 259.931V284.825L225.599 273.01C225.63 272.883 225.662 272.748 225.662 272.605C225.662 271.882 225.162 271.278 224.495 271.103ZM246.83 310.633V285.747L268.371 273.296V298.19L246.83 310.633ZM290.697 285.286L269.156 297.737V272.843L290.697 260.392V285.286ZM291.491 259.47V234.576L313.032 247.027V271.111C312.762 271.182 312.516 271.317 312.325 271.516L291.491 259.47Z" fill="url(#paint0_linear_4_2)"/>
    <defs>
        <linearGradient id="paint0_linear_4_2" x1="106.896" y1="378.734" x2="513.53" y2="-207.424" gradientUnits="userSpaceOnUse">
            <stop stop-color="#D2D2D1"/>
            <stop offset="0.1074" stop-color="#DADADA"/>
            <stop offset="0.3674" stop-color="#EAEAEA"/>
            <stop offset="0.5713" stop-color="#F0F0F0"/>
            <stop offset="0.7773" stop-color="#F4F4F4"/>
            <stop offset="0.976" stop-color="white"/>
        </linearGradient>
    </defs>
</svg>