<svg width="867" height="753" viewBox="0 0 867 753" fill="none" xmlns="http://www.w3.org/2000/svg">
    <g opacity="0.05">
        <path d="M371.567 401.341V405.99H378.944V408.39H371.567V414.24H368.729V398.961H379.882V401.341H371.567ZM382.151 402.585H384.88V414.24H382.151V402.585ZM383.526 400.664C383.032 400.664 382.617 400.511 382.282 400.206C381.948 399.885 381.78 399.493 381.78 399.027C381.78 398.561 381.948 398.176 382.282 397.87C382.617 397.55 383.032 397.39 383.526 397.39C384.021 397.39 384.436 397.543 384.771 397.848C385.105 398.139 385.273 398.51 385.273 398.961C385.273 399.442 385.105 399.849 384.771 400.184C384.45 400.504 384.036 400.664 383.526 400.664ZM395.074 402.454C396.544 402.454 397.722 402.883 398.61 403.741C399.498 404.6 399.941 405.873 399.941 407.561V414.24H397.213V407.91C397.213 406.892 396.973 406.128 396.493 405.619C396.013 405.095 395.329 404.833 394.441 404.833C393.437 404.833 392.644 405.138 392.062 405.749C391.48 406.346 391.189 407.212 391.189 408.347V414.24H388.461V402.585H391.058V404.091C391.509 403.552 392.077 403.145 392.76 402.868C393.444 402.592 394.216 402.454 395.074 402.454ZM407.855 402.454C409.572 402.454 410.882 402.868 411.784 403.698C412.701 404.513 413.159 405.749 413.159 407.408V414.24H410.583V412.821C410.249 413.331 409.768 413.723 409.143 414C408.532 414.262 407.79 414.393 406.916 414.393C406.043 414.393 405.279 414.247 404.625 413.956C403.97 413.651 403.461 413.236 403.097 412.712C402.748 412.174 402.573 411.57 402.573 410.901C402.573 409.853 402.959 409.016 403.73 408.39C404.516 407.75 405.745 407.43 407.418 407.43H410.431V407.255C410.431 406.441 410.183 405.815 409.688 405.378C409.208 404.942 408.488 404.724 407.528 404.724C406.873 404.724 406.225 404.825 405.585 405.029C404.959 405.233 404.428 405.517 403.992 405.88L402.922 403.894C403.533 403.429 404.268 403.072 405.127 402.825C405.985 402.577 406.895 402.454 407.855 402.454ZM407.484 412.407C408.168 412.407 408.772 412.254 409.296 411.948C409.834 411.628 410.212 411.177 410.431 410.595V409.242H407.615C406.043 409.242 405.258 409.758 405.258 410.791C405.258 411.286 405.454 411.679 405.847 411.97C406.24 412.261 406.786 412.407 407.484 412.407ZM423.274 402.454C424.743 402.454 425.922 402.883 426.81 403.741C427.697 404.6 428.141 405.873 428.141 407.561V414.24H425.413V407.91C425.413 406.892 425.173 406.128 424.692 405.619C424.212 405.095 423.528 404.833 422.641 404.833C421.637 404.833 420.844 405.138 420.262 405.749C419.68 406.346 419.389 407.212 419.389 408.347V414.24H416.66V402.585H419.258V404.091C419.709 403.552 420.276 403.145 420.96 402.868C421.644 402.592 422.415 402.454 423.274 402.454ZM437.056 414.393C435.848 414.393 434.764 414.138 433.804 413.629C432.844 413.12 432.094 412.414 431.556 411.512C431.018 410.595 430.748 409.562 430.748 408.412C430.748 407.263 431.018 406.237 431.556 405.335C432.094 404.433 432.836 403.727 433.782 403.218C434.743 402.708 435.834 402.454 437.056 402.454C438.206 402.454 439.21 402.686 440.068 403.152C440.941 403.618 441.596 404.287 442.033 405.16L439.937 406.382C439.603 405.844 439.181 405.444 438.671 405.182C438.177 404.906 437.631 404.767 437.034 404.767C436.016 404.767 435.172 405.102 434.502 405.771C433.833 406.426 433.498 407.306 433.498 408.412C433.498 409.518 433.826 410.406 434.481 411.075C435.15 411.73 436.001 412.057 437.034 412.057C437.631 412.057 438.177 411.926 438.671 411.664C439.181 411.388 439.603 410.981 439.937 410.442L442.033 411.664C441.582 412.538 440.92 413.214 440.046 413.694C439.188 414.16 438.191 414.393 437.056 414.393ZM444.391 402.585H447.119V414.24H444.391V402.585ZM445.766 400.664C445.271 400.664 444.857 400.511 444.522 400.206C444.187 399.885 444.02 399.493 444.02 399.027C444.02 398.561 444.187 398.176 444.522 397.87C444.857 397.55 445.271 397.39 445.766 397.39C446.261 397.39 446.676 397.543 447.01 397.848C447.345 398.139 447.512 398.51 447.512 398.961C447.512 399.442 447.345 399.849 447.01 400.184C446.69 400.504 446.275 400.664 445.766 400.664ZM455.153 402.454C456.87 402.454 458.18 402.868 459.082 403.698C459.998 404.513 460.457 405.749 460.457 407.408V414.24H457.881V412.821C457.547 413.331 457.066 413.723 456.441 414C455.83 414.262 455.087 414.393 454.214 414.393C453.341 414.393 452.577 414.247 451.923 413.956C451.268 413.651 450.759 413.236 450.395 412.712C450.046 412.174 449.871 411.57 449.871 410.901C449.871 409.853 450.257 409.016 451.028 408.39C451.813 407.75 453.043 407.43 454.716 407.43H457.728V407.255C457.728 406.441 457.481 405.815 456.986 405.378C456.506 404.942 455.786 404.724 454.826 404.724C454.171 404.724 453.523 404.825 452.883 405.029C452.257 405.233 451.726 405.517 451.29 405.88L450.22 403.894C450.831 403.429 451.566 403.072 452.425 402.825C453.283 402.577 454.193 402.454 455.153 402.454ZM454.782 412.407C455.466 412.407 456.07 412.254 456.594 411.948C457.132 411.628 457.51 411.177 457.728 410.595V409.242H454.913C453.341 409.242 452.556 409.758 452.556 410.791C452.556 411.286 452.752 411.679 453.145 411.97C453.538 412.261 454.083 412.407 454.782 412.407ZM463.958 398.045H466.687V414.24H463.958V398.045ZM473.869 414.393C472.923 414.393 471.999 414.269 471.097 414.022C470.195 413.774 469.474 413.462 468.936 413.083L469.984 411.01C470.508 411.359 471.133 411.643 471.861 411.861C472.603 412.065 473.33 412.166 474.043 412.166C475.673 412.166 476.488 411.737 476.488 410.879C476.488 410.471 476.277 410.188 475.855 410.027C475.448 409.867 474.786 409.715 473.869 409.569C472.909 409.424 472.123 409.256 471.512 409.067C470.915 408.878 470.391 408.551 469.94 408.085C469.504 407.605 469.285 406.943 469.285 406.099C469.285 404.993 469.744 404.112 470.66 403.458C471.592 402.788 472.843 402.454 474.415 402.454C475.215 402.454 476.015 402.548 476.815 402.737C477.616 402.912 478.271 403.152 478.78 403.458L477.732 405.531C476.743 404.949 475.63 404.658 474.393 404.658C473.592 404.658 472.981 404.782 472.559 405.029C472.152 405.262 471.948 405.575 471.948 405.968C471.948 406.404 472.166 406.717 472.603 406.906C473.054 407.081 473.745 407.248 474.676 407.408C475.608 407.554 476.372 407.721 476.968 407.91C477.565 408.099 478.074 408.42 478.496 408.871C478.933 409.322 479.151 409.962 479.151 410.791C479.151 411.883 478.678 412.756 477.732 413.411C476.786 414.065 475.499 414.393 473.869 414.393Z" fill="#676767"/>
        <path d="M531.719 40.3776C297.447 -33.3476 141.064 152.34 92.1562 254.399L99.4318 267.738L285.564 452.051L298.296 461.751C243.487 380.751 281.118 304.721 306.784 276.832L526.262 57.354L531.719 40.3776Z" fill="url(#paint0_linear_1_320)"/>
        <path d="M532.932 49.4717L332.855 252.58C421.617 191.465 499.586 234.795 527.475 264.099L744.528 481.152L754.835 486.609C814.858 222.871 660.254 97.3688 532.932 49.4717Z" fill="url(#paint1_linear_1_320)"/>
        <path d="M548.696 286.532L749.379 486.003C632.97 761.017 412.684 740.04 317.092 695.174L500.192 513.286L505.043 504.192C604.96 434.832 575.777 330.186 548.696 286.532Z" fill="url(#paint2_linear_1_320)"/>
        <path d="M92.1565 262.281L301.328 467.814C377.478 552.695 471.696 527.837 509.286 504.798L305.572 706.087C54.3238 588.224 58.6083 361.107 92.1565 262.281Z" fill="url(#paint3_linear_1_320)"/>
        <g filter="url(#filter0_d_1_320)">
            <path fill-rule="evenodd" clip-rule="evenodd" d="M740.593 481.463C696.134 614.131 570.827 709.725 423.192 709.725C388.36 709.725 354.77 704.404 323.192 694.53L529.9 487.822L529.87 487.791C559.758 459.501 578.402 419.453 578.402 375.051C578.402 347.786 571.372 322.162 559.025 299.895L740.593 481.463ZM498.156 510.991C475.933 523.272 450.379 530.262 423.191 530.262C379.406 530.262 339.855 512.132 311.637 482.968L311.634 482.971L103.714 275.051C93.8395 306.629 88.5182 340.219 88.5182 375.051C88.5182 522.662 184.082 647.953 316.716 692.431L498.156 510.991ZM287.25 450.013L105.812 268.575C150.29 135.941 275.581 40.3776 423.192 40.3776C458.001 40.3776 491.568 45.6917 523.127 55.5528L314.623 264.057L314.66 264.094C285.857 292.272 267.98 331.574 267.98 375.051C267.98 402.237 274.97 427.791 287.25 450.013ZM742.69 474.986L534.187 266.482L534.148 266.52C505.971 237.717 466.669 219.84 423.191 219.84C395.927 219.84 370.305 226.87 348.039 239.216L529.605 57.6499C662.272 102.109 757.866 227.417 757.866 375.051C757.866 409.86 752.552 443.427 742.69 474.986ZM794.243 375.051C794.243 579.977 628.118 746.102 423.192 746.102C218.266 746.102 52.1406 579.977 52.1406 375.051C52.1406 170.125 218.266 4 423.192 4C628.118 4 794.243 170.125 794.243 375.051ZM572.339 375.051C572.339 457.424 505.564 524.199 423.191 524.199C340.819 524.199 274.043 457.424 274.043 375.051C274.043 292.679 340.819 225.903 423.191 225.903C505.564 225.903 572.339 292.679 572.339 375.051Z" fill="white"/>
        </g>
        <path d="M612.288 177.692C612.288 177.837 612.23 177.976 612.128 178.079C612.025 178.181 611.886 178.239 611.741 178.239C611.596 178.239 611.457 178.181 611.354 178.079C611.251 177.976 611.194 177.837 611.194 177.692V174.626C603.887 183.389 595.335 189.997 585.751 194.275C584.384 194.886 582.977 195.456 581.569 195.97C581.501 195.996 581.429 196.008 581.357 196.005C581.284 196.003 581.213 195.986 581.147 195.956C581.081 195.926 581.022 195.883 580.973 195.83C580.924 195.777 580.886 195.714 580.861 195.646C580.836 195.578 580.825 195.506 580.828 195.434C580.832 195.362 580.849 195.291 580.88 195.225C580.911 195.16 580.955 195.101 581.008 195.052C581.062 195.004 581.125 194.967 581.193 194.943C582.577 194.437 583.961 193.876 585.305 193.276C594.838 189.021 603.339 182.419 610.589 173.644H607.206C607.061 173.644 606.922 173.586 606.82 173.483C606.717 173.381 606.659 173.242 606.659 173.097C606.659 172.951 606.717 172.812 606.82 172.71C606.922 172.607 607.061 172.549 607.206 172.549H611.741C611.747 172.549 611.753 172.55 611.76 172.55C611.77 172.55 611.781 172.551 611.792 172.552C611.8 172.553 611.808 172.554 611.817 172.555C611.825 172.556 611.835 172.558 611.845 172.56C611.854 172.561 611.863 172.564 611.871 172.566C611.88 172.568 611.888 172.57 611.896 172.572C611.905 172.575 611.915 172.578 611.924 172.581C611.933 172.585 611.94 172.587 611.947 172.59C611.955 172.593 611.965 172.598 611.974 172.602C611.981 172.606 611.989 172.609 611.996 172.613C612.005 172.617 612.014 172.623 612.023 172.628C612.029 172.632 612.036 172.636 612.042 172.64C612.051 172.646 612.06 172.653 612.069 172.659C612.074 172.663 612.079 172.666 612.084 172.67C612.085 172.671 612.085 172.672 612.086 172.672C612.094 172.679 612.102 172.686 612.11 172.693C612.116 172.699 612.122 172.704 612.127 172.709C612.133 172.715 612.136 172.718 612.14 172.723C612.171 172.756 612.198 172.793 612.22 172.833L612.222 172.836C612.227 172.845 612.231 172.854 612.235 172.863C612.239 172.87 612.242 172.877 612.246 172.885C612.247 172.888 612.248 172.892 612.25 172.896C612.265 172.934 612.275 172.974 612.281 173.014C612.283 173.022 612.284 173.03 612.285 173.038C612.286 173.046 612.286 173.052 612.286 173.059C612.287 173.07 612.288 173.082 612.288 173.093V173.097L612.288 177.692Z" fill="white"/>
        <path d="M581.381 202.002H591.035V195.386C591.035 195.241 591.093 195.102 591.195 194.999C591.298 194.897 591.437 194.839 591.582 194.839H602.622V187.293C602.622 187.148 602.679 187.009 602.782 186.906C602.885 186.803 603.024 186.746 603.169 186.746H613.839V178.718C613.839 178.573 613.897 178.434 614 178.331C614.102 178.229 614.241 178.171 614.386 178.171H624.801C624.945 178.171 625.084 178.228 625.186 178.329C625.289 178.431 625.347 178.569 625.348 178.713L625.693 214.121C625.694 214.193 625.68 214.265 625.653 214.332C625.626 214.399 625.586 214.46 625.535 214.511C625.484 214.563 625.423 214.603 625.357 214.631C625.29 214.659 625.218 214.673 625.146 214.673H581.381C581.236 214.673 581.097 214.616 580.994 214.513C580.892 214.411 580.834 214.271 580.834 214.126V202.549C580.834 202.404 580.892 202.264 580.994 202.162C581.097 202.059 581.236 202.002 581.381 202.002ZM592.129 195.933V202.549L592.27 213.579H602.622V195.933H592.129ZM603.716 187.84V213.579H613.839V187.84H603.716ZM624.259 179.265H614.933V213.579H624.594L624.259 179.265ZM581.928 213.579H591.176L591.042 203.096H581.928V213.579Z" fill="white"/>
        <path d="M258.272 517.284L258.047 517.405C257.139 516.303 255.566 515.877 254.368 516.484C254.364 516.486 254.36 516.488 254.356 516.49L253.825 516.776C253.192 516.24 252.41 515.913 251.584 515.838C250.759 515.764 249.93 515.945 249.211 516.359L246.355 517.913H242.554C241.73 517.912 240.918 517.725 240.177 517.368L239.654 517.115C238.165 516.391 236.505 516.093 234.857 516.253C233.209 516.414 231.638 517.028 230.318 518.027C230.305 518.036 230.293 518.046 230.282 518.057L229.019 519.181C228.542 519.604 227.978 519.919 227.367 520.102L226.65 517.748C226.614 517.631 226.542 517.529 226.444 517.457C226.346 517.384 226.228 517.345 226.106 517.345H220C219.92 517.345 219.84 517.362 219.767 517.395C219.693 517.428 219.628 517.477 219.574 517.537C219.521 517.597 219.481 517.668 219.457 517.745C219.433 517.822 219.426 517.903 219.436 517.982L221.471 534.671C221.488 534.808 221.554 534.935 221.658 535.027C221.762 535.119 221.896 535.17 222.035 535.17H231.194C231.282 535.17 231.37 535.149 231.449 535.109C231.529 535.07 231.597 535.012 231.65 534.94C231.703 534.869 231.739 534.786 231.754 534.698C231.769 534.611 231.763 534.521 231.737 534.436L230.534 530.488L234.281 528.12C234.783 527.842 235.371 527.766 235.926 527.907C235.938 527.91 235.95 527.913 235.962 527.915L243.584 529.318C245.655 529.689 247.791 529.387 249.679 528.458C249.703 528.446 249.726 528.432 249.748 528.417L262.932 519.365C263.051 519.283 263.135 519.158 263.165 519.017C263.196 518.875 263.172 518.727 263.097 518.603C262.617 517.804 261.848 517.221 260.949 516.975C260.05 516.73 259.091 516.84 258.272 517.284V517.284ZM254.888 517.495C255.581 517.148 256.453 517.432 257.011 517.964L252.011 520.661L251.718 520.816C251.559 520.366 251.328 519.946 251.033 519.572L254.888 517.495ZM249.762 517.354C249.766 517.352 249.771 517.349 249.775 517.346C250.223 517.088 250.732 516.954 251.249 516.958C251.766 516.963 252.272 517.107 252.715 517.374L250.174 518.743C249.689 518.389 249.136 518.14 248.55 518.012L249.762 517.354ZM222.538 534.033L220.642 518.482H225.685L230.426 534.033H222.538ZM249.138 527.456C247.478 528.264 245.604 528.524 243.787 528.2L236.184 526.799C235.348 526.593 234.464 526.713 233.713 527.134C233.704 527.139 233.695 527.144 233.687 527.15L230.189 529.361L227.698 521.19C228.466 520.958 229.175 520.562 229.774 520.029L231.019 518.92C232.172 518.053 233.542 517.521 234.978 517.383C236.414 517.245 237.861 517.506 239.158 518.137L239.681 518.39C240.577 518.822 241.558 519.047 242.553 519.048H247.623C248.369 519.049 249.09 519.31 249.664 519.785C250.238 520.26 250.629 520.921 250.769 521.653L247.093 521.486C245.757 521.426 244.419 521.488 243.094 521.671C242.946 521.693 242.812 521.773 242.722 521.893C242.633 522.012 242.594 522.163 242.614 522.311C242.635 522.46 242.713 522.594 242.832 522.685C242.951 522.776 243.101 522.816 243.25 522.797C244.506 522.623 245.775 522.565 247.042 522.622L251.367 522.818C251.376 522.818 251.384 522.818 251.393 522.818C251.544 522.818 251.688 522.758 251.795 522.652C251.901 522.545 251.961 522.401 251.961 522.25C251.961 522.158 251.957 522.067 251.952 521.976L252.545 521.663L258.811 518.284C259.293 518.023 259.847 517.929 260.387 518.015C260.927 518.102 261.424 518.365 261.8 518.763L249.138 527.456Z" fill="white"/>
        <path d="M224.345 531.682C224.345 532.036 224.45 532.382 224.646 532.676C224.843 532.971 225.122 533.2 225.449 533.335C225.776 533.471 226.136 533.506 226.483 533.437C226.83 533.368 227.149 533.198 227.4 532.947C227.65 532.697 227.82 532.378 227.889 532.031C227.958 531.684 227.923 531.324 227.787 530.997C227.652 530.67 227.423 530.391 227.128 530.194C226.834 529.998 226.488 529.893 226.134 529.893C225.66 529.893 225.205 530.082 224.869 530.417C224.534 530.753 224.345 531.208 224.345 531.682V531.682ZM226.134 531.029C226.263 531.029 226.389 531.068 226.497 531.139C226.604 531.211 226.688 531.313 226.737 531.432C226.787 531.552 226.8 531.683 226.774 531.809C226.749 531.936 226.687 532.052 226.596 532.144C226.504 532.235 226.388 532.297 226.262 532.322C226.135 532.347 226.004 532.335 225.884 532.285C225.765 532.236 225.663 532.152 225.591 532.045C225.52 531.937 225.481 531.811 225.481 531.682C225.482 531.509 225.551 531.343 225.673 531.221C225.795 531.099 225.961 531.03 226.134 531.03V531.029Z" fill="white"/>
        <path d="M245.627 497.589V495.716C245.622 494.575 245.165 493.483 244.356 492.678C243.548 491.873 242.453 491.421 241.313 491.421C240.172 491.421 239.077 491.873 238.269 492.678C237.46 493.483 237.003 494.575 236.998 495.716V497.589C237.003 498.73 237.46 499.822 238.269 500.627C239.077 501.431 240.172 501.883 241.313 501.883C242.453 501.883 243.548 501.431 244.356 500.627C245.165 499.822 245.622 498.73 245.627 497.589ZM238.135 497.589V495.716C238.139 494.876 238.476 494.072 239.072 493.48C239.667 492.888 240.473 492.555 241.313 492.555C242.152 492.555 242.958 492.888 243.553 493.48C244.149 494.072 244.486 494.876 244.49 495.716V497.589C244.486 498.429 244.149 499.232 243.553 499.825C242.958 500.417 242.152 500.749 241.313 500.749C240.473 500.749 239.667 500.417 239.072 499.825C238.476 499.232 238.139 498.429 238.135 497.589V497.589Z" fill="white"/>
        <path d="M234.358 513.61H248.267C248.418 513.61 248.562 513.55 248.669 513.443C248.775 513.337 248.835 513.192 248.835 513.042V511.737H258.357C258.508 511.737 258.652 511.677 258.759 511.57C258.865 511.464 258.925 511.319 258.925 511.168V507.479C258.925 506.397 258.512 505.355 257.771 504.566C257.03 503.776 256.017 503.299 254.936 503.23C254.633 503.208 254.477 503.399 254.351 503.554C254.099 503.861 253.781 504.107 253.42 504.272C253.059 504.438 252.666 504.519 252.269 504.509C251.872 504.499 251.482 504.399 251.13 504.216C250.778 504.033 250.472 503.772 250.236 503.453C250.181 503.38 250.11 503.32 250.028 503.28C249.946 503.24 249.856 503.22 249.764 503.223C249.026 503.239 248.305 503.45 247.673 503.833C247.256 503.348 246.747 502.952 246.174 502.668C245.601 502.383 244.977 502.217 244.339 502.179C244.045 502.167 243.897 502.345 243.753 502.52C243.458 502.88 243.084 503.169 242.661 503.363C242.237 503.557 241.775 503.653 241.309 503.641C240.843 503.63 240.386 503.512 239.973 503.297C239.559 503.083 239.201 502.776 238.923 502.402C238.869 502.328 238.798 502.269 238.716 502.229C238.634 502.189 238.543 502.169 238.452 502.171C237.206 502.2 236.02 502.717 235.151 503.611C235.079 503.685 235.011 503.761 234.945 503.838C234.358 503.481 233.693 503.272 233.007 503.23C232.705 503.207 232.548 503.399 232.422 503.553C232.17 503.861 231.852 504.106 231.491 504.272C231.13 504.438 230.736 504.519 230.339 504.509C229.942 504.499 229.553 504.399 229.201 504.216C228.848 504.033 228.542 503.772 228.306 503.453C228.252 503.38 228.181 503.32 228.099 503.28C228.017 503.24 227.926 503.22 227.835 503.222C226.725 503.251 225.669 503.712 224.894 504.507C224.119 505.302 223.685 506.369 223.685 507.479V511.168C223.685 511.319 223.744 511.464 223.851 511.57C223.958 511.677 224.102 511.737 224.253 511.737H233.79V513.042C233.79 513.192 233.849 513.337 233.956 513.443C234.063 513.55 234.207 513.61 234.358 513.61V513.61ZM249.522 504.377C249.872 504.775 250.303 505.094 250.786 505.313C251.268 505.532 251.792 505.646 252.322 505.647C252.852 505.648 253.377 505.537 253.861 505.321C254.345 505.105 254.777 504.788 255.13 504.392C255.869 504.504 256.544 504.876 257.031 505.443C257.519 506.009 257.788 506.732 257.789 507.479V510.6H248.835V506.954C248.836 506.197 248.656 505.451 248.31 504.777C248.681 504.561 249.094 504.424 249.522 504.377V504.377ZM238.207 503.325C238.6 503.78 239.086 504.146 239.633 504.396C240.179 504.647 240.773 504.778 241.374 504.779C241.975 504.781 242.57 504.653 243.117 504.405C243.665 504.156 244.153 503.794 244.548 503.34C245.421 503.461 246.22 503.893 246.8 504.557C247.379 505.222 247.698 506.073 247.699 506.954V512.473H234.926V506.954C234.932 506.051 235.27 505.183 235.875 504.514C236.48 503.845 237.31 503.422 238.207 503.325V503.325ZM224.821 510.6V507.479C224.826 506.713 225.11 505.976 225.621 505.405C226.131 504.833 226.832 504.468 227.593 504.378C227.943 504.775 228.374 505.094 228.857 505.313C229.339 505.532 229.863 505.645 230.393 505.647C230.923 505.648 231.447 505.537 231.931 505.321C232.415 505.104 232.848 504.788 233.2 504.392C233.591 504.451 233.968 504.583 234.309 504.784C233.967 505.456 233.788 506.199 233.79 506.954V510.6H224.821Z" fill="white"/>
        <path d="M256.116 499.283V497.643C256.116 496.623 255.711 495.644 254.99 494.923C254.268 494.201 253.29 493.796 252.269 493.796C251.249 493.796 250.27 494.201 249.549 494.923C248.827 495.644 248.422 496.623 248.422 497.643V499.283C248.422 500.303 248.827 501.281 249.549 502.003C250.27 502.724 251.249 503.13 252.269 503.13C253.29 503.13 254.268 502.724 254.99 502.003C255.711 501.281 256.116 500.303 256.116 499.283V499.283ZM249.559 499.283V497.643C249.559 496.924 249.844 496.235 250.353 495.726C250.861 495.218 251.55 494.932 252.269 494.932C252.988 494.932 253.677 495.218 254.186 495.726C254.694 496.235 254.98 496.924 254.98 497.643V499.283C254.98 500.001 254.694 500.691 254.186 501.199C253.677 501.707 252.988 501.993 252.269 501.993C251.55 501.993 250.861 501.707 250.353 501.199C249.844 500.691 249.559 500.001 249.559 499.283V499.283Z" fill="white"/>
        <path d="M234.188 499.283V497.643C234.188 497.138 234.088 496.637 233.895 496.171C233.702 495.704 233.418 495.28 233.061 494.923C232.704 494.565 232.28 494.282 231.813 494.089C231.346 493.895 230.846 493.796 230.34 493.796C229.835 493.796 229.335 493.895 228.868 494.089C228.401 494.282 227.977 494.565 227.62 494.923C227.263 495.28 226.979 495.704 226.786 496.171C226.593 496.637 226.493 497.138 226.493 497.643V499.283C226.493 499.788 226.593 500.288 226.786 500.755C226.979 501.222 227.263 501.646 227.62 502.003C227.977 502.36 228.401 502.644 228.868 502.837C229.335 503.03 229.835 503.13 230.34 503.13C230.846 503.13 231.346 503.03 231.813 502.837C232.28 502.644 232.704 502.36 233.061 502.003C233.418 501.646 233.702 501.222 233.895 500.755C234.088 500.288 234.188 499.788 234.188 499.283V499.283ZM227.63 499.283V497.643C227.63 496.924 227.916 496.235 228.424 495.726C228.932 495.218 229.622 494.932 230.34 494.932C231.059 494.932 231.749 495.218 232.257 495.726C232.765 496.235 233.051 496.924 233.051 497.643V499.283C233.051 499.638 232.981 499.991 232.845 500.32C232.708 500.649 232.509 500.947 232.257 501.199C232.005 501.451 231.707 501.65 231.378 501.787C231.049 501.923 230.696 501.993 230.34 501.993C229.984 501.993 229.632 501.923 229.303 501.787C228.974 501.65 228.676 501.451 228.424 501.199C228.172 500.947 227.972 500.649 227.836 500.32C227.7 499.991 227.63 499.638 227.63 499.283V499.283Z" fill="white"/>
        <path d="M194.193 564.601L191.072 560.126C190.941 560.141 190.744 560.148 190.482 560.148H187.034V564.601H184.196V549.322H190.482C191.807 549.322 192.956 549.54 193.931 549.977C194.92 550.413 195.677 551.039 196.201 551.854C196.725 552.669 196.987 553.636 196.987 554.757C196.987 555.906 196.703 556.896 196.135 557.725C195.583 558.555 194.782 559.173 193.735 559.58L197.249 564.601H194.193ZM194.127 554.757C194.127 553.782 193.807 553.033 193.167 552.509C192.527 551.985 191.588 551.723 190.351 551.723H187.034V557.813H190.351C191.588 557.813 192.527 557.551 193.167 557.027C193.807 556.488 194.127 555.732 194.127 554.757ZM210.856 558.838C210.856 559.028 210.842 559.297 210.813 559.646H201.667C201.827 560.504 202.242 561.188 202.911 561.698C203.595 562.192 204.439 562.44 205.443 562.44C206.724 562.44 207.779 562.018 208.608 561.174L210.071 562.854C209.547 563.48 208.885 563.953 208.084 564.273C207.284 564.593 206.382 564.753 205.378 564.753C204.097 564.753 202.97 564.499 201.995 563.989C201.02 563.48 200.263 562.774 199.725 561.872C199.201 560.956 198.939 559.922 198.939 558.773C198.939 557.638 199.194 556.619 199.703 555.717C200.227 554.8 200.947 554.087 201.864 553.578C202.78 553.069 203.814 552.814 204.963 552.814C206.098 552.814 207.109 553.069 207.997 553.578C208.899 554.073 209.598 554.779 210.092 555.695C210.602 556.598 210.856 557.645 210.856 558.838ZM204.963 554.997C204.09 554.997 203.348 555.259 202.737 555.783C202.14 556.292 201.776 556.976 201.645 557.834H208.259C208.143 556.99 207.786 556.306 207.189 555.783C206.593 555.259 205.851 554.997 204.963 554.997ZM218.825 564.753C217.617 564.753 216.533 564.499 215.572 563.989C214.612 563.48 213.863 562.774 213.324 561.872C212.786 560.956 212.517 559.922 212.517 558.773C212.517 557.623 212.786 556.598 213.324 555.695C213.863 554.793 214.605 554.087 215.551 553.578C216.511 553.069 217.602 552.814 218.825 552.814C219.974 552.814 220.978 553.047 221.837 553.513C222.71 553.978 223.364 554.648 223.801 555.521L221.706 556.743C221.371 556.205 220.949 555.804 220.44 555.543C219.945 555.266 219.399 555.128 218.803 555.128C217.784 555.128 216.94 555.463 216.271 556.132C215.601 556.787 215.267 557.667 215.267 558.773C215.267 559.879 215.594 560.766 216.249 561.436C216.918 562.091 217.77 562.418 218.803 562.418C219.399 562.418 219.945 562.287 220.44 562.025C220.949 561.749 221.371 561.341 221.706 560.803L223.801 562.025C223.35 562.898 222.688 563.575 221.815 564.055C220.956 564.521 219.959 564.753 218.825 564.753ZM228.757 554.648C229.543 553.425 230.925 552.814 232.904 552.814V555.412C232.671 555.368 232.46 555.346 232.271 555.346C231.209 555.346 230.379 555.659 229.783 556.285C229.186 556.896 228.888 557.783 228.888 558.948V564.601H226.159V552.945H228.757V554.648ZM246.609 552.945V564.601H244.012V563.116C243.575 563.64 243.03 564.048 242.375 564.339C241.72 564.615 241.014 564.753 240.258 564.753C238.701 564.753 237.471 564.324 236.569 563.466C235.681 562.593 235.238 561.305 235.238 559.602V552.945H237.966V559.231C237.966 560.279 238.199 561.065 238.664 561.589C239.145 562.098 239.821 562.352 240.694 562.352C241.669 562.352 242.44 562.054 243.008 561.458C243.59 560.846 243.881 559.973 243.881 558.838V552.945H246.609ZM250.181 552.945H252.91V564.601H250.181V552.945ZM251.556 551.024C251.062 551.024 250.647 550.872 250.312 550.566C249.978 550.246 249.81 549.853 249.81 549.387C249.81 548.922 249.978 548.536 250.312 548.231C250.647 547.911 251.062 547.75 251.556 547.75C252.051 547.75 252.466 547.903 252.801 548.209C253.135 548.5 253.303 548.871 253.303 549.322C253.303 549.802 253.135 550.21 252.801 550.544C252.48 550.864 252.066 551.024 251.556 551.024ZM263.497 563.968C263.177 564.23 262.784 564.426 262.318 564.557C261.867 564.688 261.387 564.753 260.878 564.753C259.597 564.753 258.608 564.419 257.909 563.749C257.211 563.08 256.862 562.105 256.862 560.825V555.215H254.941V553.033H256.862V550.37H259.59V553.033H262.711V555.215H259.59V560.759C259.59 561.327 259.728 561.763 260.005 562.069C260.281 562.36 260.681 562.505 261.205 562.505C261.816 562.505 262.326 562.345 262.733 562.025L263.497 563.968ZM265.741 552.945H268.47V564.601H265.741V552.945ZM267.116 551.024C266.622 551.024 266.207 550.872 265.872 550.566C265.538 550.246 265.37 549.853 265.37 549.387C265.37 548.922 265.538 548.536 265.872 548.231C266.207 547.911 266.622 547.75 267.116 547.75C267.611 547.75 268.026 547.903 268.361 548.209C268.695 548.5 268.863 548.871 268.863 549.322C268.863 549.802 268.695 550.21 268.361 550.544C268.04 550.864 267.626 551.024 267.116 551.024ZM278.664 552.814C280.134 552.814 281.312 553.244 282.2 554.102C283.088 554.961 283.531 556.234 283.531 557.922V564.601H280.803V558.271C280.803 557.252 280.563 556.488 280.083 555.979C279.603 555.455 278.919 555.193 278.031 555.193C277.027 555.193 276.234 555.499 275.652 556.11C275.07 556.707 274.779 557.572 274.779 558.707V564.601H272.051V552.945H274.648V554.451C275.099 553.913 275.667 553.505 276.35 553.229C277.034 552.952 277.806 552.814 278.664 552.814ZM298.667 552.945V562.833C298.667 566.936 296.572 568.988 292.381 568.988C291.261 568.988 290.198 568.842 289.194 568.551C288.19 568.275 287.361 567.867 286.706 567.329L287.928 565.277C288.438 565.699 289.078 566.034 289.849 566.281C290.635 566.543 291.428 566.674 292.228 566.674C293.509 566.674 294.447 566.383 295.044 565.801C295.64 565.219 295.939 564.331 295.939 563.138V562.527C295.473 563.036 294.906 563.422 294.236 563.684C293.567 563.946 292.832 564.077 292.032 564.077C290.926 564.077 289.922 563.844 289.02 563.378C288.132 562.898 287.426 562.229 286.903 561.37C286.393 560.512 286.139 559.53 286.139 558.424C286.139 557.318 286.393 556.343 286.903 555.499C287.426 554.64 288.132 553.978 289.02 553.513C289.922 553.047 290.926 552.814 292.032 552.814C292.876 552.814 293.64 552.952 294.324 553.229C295.022 553.505 295.604 553.927 296.07 554.495V552.945H298.667ZM292.446 561.763C293.48 561.763 294.324 561.458 294.978 560.846C295.648 560.221 295.982 559.413 295.982 558.424C295.982 557.449 295.648 556.656 294.978 556.045C294.324 555.433 293.48 555.128 292.446 555.128C291.399 555.128 290.54 555.433 289.871 556.045C289.216 556.656 288.889 557.449 288.889 558.424C288.889 559.413 289.216 560.221 289.871 560.846C290.54 561.458 291.399 561.763 292.446 561.763Z" fill="white"/>
        <path d="M194.954 217.073H197.792V229.951H205.78V232.352H194.954V217.073ZM218.609 226.59C218.609 226.779 218.594 227.048 218.565 227.397H209.42C209.58 228.256 209.995 228.94 210.664 229.449C211.348 229.944 212.192 230.191 213.196 230.191C214.476 230.191 215.531 229.769 216.361 228.925L217.823 230.606C217.299 231.232 216.637 231.705 215.837 232.025C215.037 232.345 214.134 232.505 213.13 232.505C211.85 232.505 210.722 232.25 209.747 231.741C208.772 231.232 208.016 230.526 207.477 229.624C206.953 228.707 206.692 227.674 206.692 226.524C206.692 225.389 206.946 224.371 207.455 223.469C207.979 222.552 208.7 221.839 209.616 221.33C210.533 220.82 211.566 220.566 212.716 220.566C213.851 220.566 214.862 220.82 215.75 221.33C216.652 221.824 217.35 222.53 217.845 223.447C218.354 224.349 218.609 225.397 218.609 226.59ZM212.716 222.748C211.843 222.748 211.1 223.01 210.489 223.534C209.893 224.043 209.529 224.727 209.398 225.586H216.011C215.895 224.742 215.539 224.058 214.942 223.534C214.345 223.01 213.603 222.748 212.716 222.748ZM225.362 220.566C227.079 220.566 228.389 220.98 229.291 221.81C230.208 222.625 230.666 223.862 230.666 225.52V232.352H228.091V230.933C227.756 231.443 227.276 231.835 226.65 232.112C226.039 232.374 225.297 232.505 224.424 232.505C223.551 232.505 222.787 232.359 222.132 232.068C221.477 231.763 220.968 231.348 220.604 230.824C220.255 230.286 220.08 229.682 220.08 229.013C220.08 227.965 220.466 227.128 221.237 226.503C222.023 225.862 223.253 225.542 224.926 225.542H227.938V225.368C227.938 224.553 227.691 223.927 227.196 223.49C226.716 223.054 225.995 222.836 225.035 222.836C224.38 222.836 223.733 222.938 223.092 223.141C222.467 223.345 221.936 223.629 221.499 223.992L220.43 222.006C221.041 221.541 221.776 221.184 222.634 220.937C223.493 220.689 224.402 220.566 225.362 220.566ZM224.991 230.519C225.675 230.519 226.279 230.366 226.803 230.06C227.341 229.74 227.72 229.289 227.938 228.707V227.354H225.122C223.551 227.354 222.765 227.87 222.765 228.903C222.765 229.398 222.962 229.791 223.354 230.082C223.747 230.373 224.293 230.519 224.991 230.519ZM245.69 216.157V232.352H243.07V230.846C242.619 231.399 242.059 231.814 241.39 232.09C240.735 232.367 240.007 232.505 239.207 232.505C238.087 232.505 237.075 232.257 236.173 231.763C235.286 231.268 234.587 230.57 234.078 229.667C233.569 228.751 233.314 227.703 233.314 226.524C233.314 225.346 233.569 224.305 234.078 223.403C234.587 222.501 235.286 221.803 236.173 221.308C237.075 220.813 238.087 220.566 239.207 220.566C239.978 220.566 240.684 220.697 241.324 220.959C241.965 221.221 242.51 221.613 242.961 222.137V216.157H245.69ZM239.535 230.169C240.189 230.169 240.779 230.024 241.302 229.733C241.826 229.427 242.241 228.998 242.547 228.445C242.852 227.892 243.005 227.252 243.005 226.524C243.005 225.797 242.852 225.157 242.547 224.604C242.241 224.051 241.826 223.629 241.302 223.338C240.779 223.032 240.189 222.879 239.535 222.879C238.88 222.879 238.29 223.032 237.767 223.338C237.243 223.629 236.828 224.051 236.522 224.604C236.217 225.157 236.064 225.797 236.064 226.524C236.064 227.252 236.217 227.892 236.522 228.445C236.828 228.998 237.243 229.427 237.767 229.733C238.29 230.024 238.88 230.169 239.535 230.169ZM260.216 226.59C260.216 226.779 260.201 227.048 260.172 227.397H251.027C251.187 228.256 251.601 228.94 252.271 229.449C252.955 229.944 253.799 230.191 254.803 230.191C256.083 230.191 257.138 229.769 257.968 228.925L259.43 230.606C258.906 231.232 258.244 231.705 257.444 232.025C256.643 232.345 255.741 232.505 254.737 232.505C253.457 232.505 252.329 232.25 251.354 231.741C250.379 231.232 249.623 230.526 249.084 229.624C248.56 228.707 248.298 227.674 248.298 226.524C248.298 225.389 248.553 224.371 249.062 223.469C249.586 222.552 250.306 221.839 251.223 221.33C252.14 220.82 253.173 220.566 254.323 220.566C255.457 220.566 256.469 220.82 257.356 221.33C258.259 221.824 258.957 222.53 259.452 223.447C259.961 224.349 260.216 225.397 260.216 226.59ZM254.323 222.748C253.449 222.748 252.707 223.01 252.096 223.534C251.5 224.043 251.136 224.727 251.005 225.586H257.618C257.502 224.742 257.145 224.058 256.549 223.534C255.952 223.01 255.21 222.748 254.323 222.748ZM265.434 222.399C266.22 221.177 267.602 220.566 269.581 220.566V223.163C269.348 223.119 269.137 223.098 268.948 223.098C267.886 223.098 267.056 223.41 266.46 224.036C265.863 224.647 265.565 225.535 265.565 226.699V232.352H262.836V220.697H265.434V222.399ZM275.539 232.505C274.593 232.505 273.669 232.381 272.767 232.134C271.865 231.886 271.145 231.574 270.606 231.195L271.654 229.122C272.178 229.471 272.804 229.755 273.531 229.973C274.273 230.177 275.001 230.279 275.714 230.279C277.344 230.279 278.158 229.849 278.158 228.991C278.158 228.583 277.947 228.3 277.525 228.14C277.118 227.979 276.456 227.827 275.539 227.681C274.579 227.536 273.793 227.368 273.182 227.179C272.585 226.99 272.062 226.663 271.611 226.197C271.174 225.717 270.956 225.055 270.956 224.211C270.956 223.105 271.414 222.225 272.331 221.57C273.262 220.9 274.513 220.566 276.085 220.566C276.885 220.566 277.686 220.66 278.486 220.849C279.286 221.024 279.941 221.264 280.45 221.57L279.403 223.643C278.413 223.061 277.3 222.77 276.063 222.77C275.263 222.77 274.652 222.894 274.23 223.141C273.822 223.374 273.619 223.687 273.619 224.08C273.619 224.516 273.837 224.829 274.273 225.018C274.724 225.193 275.416 225.36 276.347 225.52C277.278 225.666 278.042 225.833 278.639 226.022C279.235 226.212 279.745 226.532 280.167 226.983C280.603 227.434 280.821 228.074 280.821 228.903C280.821 229.995 280.348 230.868 279.403 231.523C278.457 232.177 277.169 232.505 275.539 232.505ZM289.784 220.566C291.254 220.566 292.433 220.995 293.32 221.853C294.208 222.712 294.652 223.985 294.652 225.673V232.352H291.923V226.022C291.923 225.004 291.683 224.24 291.203 223.731C290.723 223.207 290.039 222.945 289.151 222.945C288.147 222.945 287.354 223.25 286.772 223.862C286.19 224.458 285.899 225.324 285.899 226.459V232.352H283.171V216.157H285.899V222.05C286.35 221.57 286.903 221.206 287.558 220.959C288.227 220.697 288.969 220.566 289.784 220.566ZM298.113 220.697H300.841V232.352H298.113V220.697ZM299.488 218.776C298.993 218.776 298.578 218.623 298.244 218.318C297.909 217.997 297.742 217.605 297.742 217.139C297.742 216.673 297.909 216.288 298.244 215.982C298.578 215.662 298.993 215.502 299.488 215.502C299.983 215.502 300.397 215.655 300.732 215.96C301.067 216.251 301.234 216.622 301.234 217.073C301.234 217.554 301.067 217.961 300.732 218.296C300.412 218.616 299.997 218.776 299.488 218.776ZM310.883 220.566C312.018 220.566 313.029 220.813 313.916 221.308C314.819 221.803 315.524 222.501 316.034 223.403C316.543 224.305 316.798 225.346 316.798 226.524C316.798 227.703 316.543 228.751 316.034 229.667C315.524 230.57 314.819 231.268 313.916 231.763C313.029 232.257 312.018 232.505 310.883 232.505C309.311 232.505 308.067 231.981 307.15 230.933V236.586H304.422V220.697H307.019V222.225C307.47 221.672 308.023 221.257 308.678 220.98C309.347 220.704 310.082 220.566 310.883 220.566ZM310.577 230.169C311.581 230.169 312.403 229.835 313.043 229.165C313.698 228.496 314.026 227.616 314.026 226.524C314.026 225.433 313.698 224.553 313.043 223.883C312.403 223.214 311.581 222.879 310.577 222.879C309.922 222.879 309.333 223.032 308.809 223.338C308.285 223.629 307.871 224.051 307.565 224.604C307.259 225.157 307.107 225.797 307.107 226.524C307.107 227.252 307.259 227.892 307.565 228.445C307.871 228.998 308.285 229.427 308.809 229.733C309.333 230.024 309.922 230.169 310.577 230.169Z" fill="white"/>
        <path d="M523.208 600.978L523.186 590.851L518.166 599.232H516.9L511.88 590.982V600.978H509.173V585.7H511.509L517.577 595.827L523.535 585.7H525.871L525.892 600.978H523.208ZM534.21 589.192C535.927 589.192 537.237 589.607 538.139 590.436C539.056 591.251 539.514 592.488 539.514 594.147V600.978H536.938V599.56C536.604 600.069 536.124 600.462 535.498 600.738C534.887 601 534.145 601.131 533.272 601.131C532.398 601.131 531.635 600.986 530.98 600.695C530.325 600.389 529.816 599.974 529.452 599.45C529.103 598.912 528.928 598.308 528.928 597.639C528.928 596.591 529.314 595.754 530.085 595.129C530.871 594.489 532.1 594.168 533.774 594.168H536.786V593.994C536.786 593.179 536.538 592.553 536.044 592.117C535.563 591.68 534.843 591.462 533.883 591.462C533.228 591.462 532.58 591.564 531.94 591.767C531.314 591.971 530.783 592.255 530.347 592.619L529.277 590.632C529.888 590.167 530.623 589.81 531.482 589.563C532.34 589.316 533.25 589.192 534.21 589.192ZM533.839 599.145C534.523 599.145 535.127 598.992 535.651 598.686C536.189 598.366 536.567 597.915 536.786 597.333V595.98H533.97C532.398 595.98 531.613 596.497 531.613 597.53C531.613 598.024 531.809 598.417 532.202 598.708C532.595 598.999 533.141 599.145 533.839 599.145ZM545.613 591.025C546.399 589.803 547.781 589.192 549.76 589.192V591.789C549.527 591.746 549.316 591.724 549.127 591.724C548.065 591.724 547.235 592.037 546.639 592.662C546.042 593.274 545.744 594.161 545.744 595.325V600.978H543.015V589.323H545.613V591.025ZM556.832 595.98L554.803 597.901V600.978H552.074V584.783H554.803V594.561L560.456 589.323H563.73L558.862 594.212L564.188 600.978H560.87L556.832 595.98ZM576.417 595.216C576.417 595.405 576.402 595.674 576.373 596.024H567.228C567.388 596.882 567.803 597.566 568.472 598.075C569.156 598.57 570 598.817 571.004 598.817C572.284 598.817 573.339 598.395 574.169 597.552L575.631 599.232C575.107 599.858 574.445 600.331 573.645 600.651C572.845 600.971 571.943 601.131 570.939 601.131C569.658 601.131 568.53 600.876 567.555 600.367C566.58 599.858 565.824 599.152 565.285 598.25C564.762 597.333 564.5 596.3 564.5 595.151C564.5 594.016 564.754 592.997 565.264 592.095C565.787 591.178 566.508 590.465 567.424 589.956C568.341 589.447 569.374 589.192 570.524 589.192C571.659 589.192 572.67 589.447 573.558 589.956C574.46 590.451 575.158 591.156 575.653 592.073C576.162 592.975 576.417 594.023 576.417 595.216ZM570.524 591.375C569.651 591.375 568.909 591.637 568.298 592.16C567.701 592.67 567.337 593.354 567.206 594.212H573.82C573.703 593.368 573.347 592.684 572.75 592.16C572.154 591.637 571.411 591.375 570.524 591.375ZM586.044 600.345C585.724 600.607 585.331 600.804 584.865 600.935C584.414 601.066 583.934 601.131 583.425 601.131C582.144 601.131 581.155 600.796 580.456 600.127C579.758 599.458 579.409 598.483 579.409 597.202V591.593H577.488V589.41H579.409V586.747H582.137V589.41H585.258V591.593H582.137V597.137C582.137 597.704 582.275 598.141 582.552 598.446C582.828 598.737 583.228 598.883 583.752 598.883C584.363 598.883 584.873 598.723 585.28 598.403L586.044 600.345ZM588.288 589.323H591.017V600.978H588.288V589.323ZM589.663 587.402C589.169 587.402 588.754 587.249 588.419 586.944C588.085 586.624 587.917 586.231 587.917 585.765C587.917 585.3 588.085 584.914 588.419 584.608C588.754 584.288 589.169 584.128 589.663 584.128C590.158 584.128 590.573 584.281 590.908 584.587C591.242 584.878 591.41 585.249 591.41 585.7C591.41 586.18 591.242 586.587 590.908 586.922C590.587 587.242 590.173 587.402 589.663 587.402ZM601.211 589.192C602.681 589.192 603.859 589.621 604.747 590.48C605.635 591.338 606.078 592.611 606.078 594.299V600.978H603.35V594.649C603.35 593.63 603.11 592.866 602.63 592.357C602.15 591.833 601.466 591.571 600.578 591.571C599.574 591.571 598.781 591.877 598.199 592.488C597.617 593.084 597.326 593.95 597.326 595.085V600.978H594.598V589.323H597.195V590.829C597.646 590.291 598.214 589.883 598.897 589.607C599.581 589.33 600.353 589.192 601.211 589.192ZM621.214 589.323V599.21C621.214 603.314 619.119 605.365 614.928 605.365C613.808 605.365 612.745 605.22 611.741 604.929C610.737 604.652 609.908 604.245 609.253 603.707L610.475 601.655C610.985 602.077 611.625 602.412 612.396 602.659C613.182 602.921 613.975 603.052 614.775 603.052C616.056 603.052 616.994 602.761 617.591 602.179C618.187 601.597 618.486 600.709 618.486 599.516V598.905C618.02 599.414 617.453 599.8 616.783 600.062C616.114 600.323 615.379 600.454 614.579 600.454C613.473 600.454 612.469 600.222 611.567 599.756C610.679 599.276 609.973 598.606 609.45 597.748C608.94 596.889 608.686 595.907 608.686 594.801C608.686 593.695 608.94 592.721 609.45 591.877C609.973 591.018 610.679 590.356 611.567 589.89C612.469 589.425 613.473 589.192 614.579 589.192C615.423 589.192 616.187 589.33 616.871 589.607C617.569 589.883 618.151 590.305 618.617 590.873V589.323H621.214ZM614.994 598.141C616.027 598.141 616.871 597.835 617.525 597.224C618.195 596.598 618.529 595.791 618.529 594.801C618.529 593.826 618.195 593.033 617.525 592.422C616.871 591.811 616.027 591.506 614.994 591.506C613.946 591.506 613.087 591.811 612.418 592.422C611.763 593.033 611.436 593.826 611.436 594.801C611.436 595.791 611.763 596.598 612.418 597.224C613.087 597.835 613.946 598.141 614.994 598.141Z" fill="white"/>
        <path d="M580.392 244.696C579.214 244.696 578.072 244.529 576.966 244.194C575.874 243.86 575.009 243.416 574.368 242.863L575.351 240.658C575.976 241.153 576.74 241.561 577.642 241.881C578.559 242.186 579.476 242.339 580.392 242.339C581.527 242.339 582.371 242.157 582.924 241.793C583.492 241.43 583.776 240.949 583.776 240.353C583.776 239.916 583.616 239.56 583.295 239.283C582.99 238.992 582.597 238.767 582.117 238.607C581.637 238.447 580.982 238.265 580.152 238.061C578.988 237.785 578.042 237.508 577.315 237.232C576.602 236.955 575.984 236.526 575.46 235.944C574.95 235.347 574.696 234.547 574.696 233.543C574.696 232.699 574.921 231.935 575.372 231.251C575.838 230.553 576.529 230 577.446 229.592C578.377 229.185 579.512 228.981 580.851 228.981C581.782 228.981 582.699 229.098 583.601 229.33C584.503 229.563 585.282 229.898 585.936 230.334L585.042 232.539C584.372 232.146 583.674 231.848 582.946 231.644C582.219 231.44 581.513 231.338 580.829 231.338C579.709 231.338 578.872 231.528 578.319 231.906C577.781 232.284 577.511 232.786 577.511 233.412C577.511 233.848 577.664 234.205 577.97 234.481C578.29 234.758 578.69 234.976 579.17 235.136C579.65 235.296 580.305 235.478 581.135 235.682C582.27 235.944 583.201 236.22 583.928 236.511C584.656 236.788 585.274 237.217 585.784 237.799C586.307 238.381 586.569 239.167 586.569 240.156C586.569 241 586.337 241.764 585.871 242.448C585.42 243.132 584.729 243.678 583.797 244.085C582.866 244.493 581.731 244.696 580.392 244.696ZM593.574 232.692C595.291 232.692 596.6 233.106 597.502 233.936C598.419 234.751 598.878 235.988 598.878 237.646V244.478H596.302V243.059C595.967 243.569 595.487 243.961 594.861 244.238C594.25 244.5 593.508 244.631 592.635 244.631C591.762 244.631 590.998 244.485 590.343 244.194C589.689 243.889 589.179 243.474 588.815 242.95C588.466 242.412 588.292 241.808 588.292 241.139C588.292 240.091 588.677 239.254 589.448 238.629C590.234 237.988 591.464 237.668 593.137 237.668H596.149V237.494C596.149 236.679 595.902 236.053 595.407 235.616C594.927 235.18 594.207 234.962 593.246 234.962C592.591 234.962 591.944 235.064 591.304 235.267C590.678 235.471 590.147 235.755 589.71 236.118L588.641 234.132C589.252 233.667 589.987 233.31 590.845 233.063C591.704 232.815 592.613 232.692 593.574 232.692ZM593.203 242.645C593.887 242.645 594.49 242.492 595.014 242.186C595.553 241.866 595.931 241.415 596.149 240.833V239.48H593.334C591.762 239.48 590.976 239.996 590.976 241.029C590.976 241.524 591.173 241.917 591.566 242.208C591.958 242.499 592.504 242.645 593.203 242.645ZM602.379 228.283H605.107V244.478H602.379V228.283ZM619.645 238.716C619.645 238.905 619.631 239.174 619.601 239.523H610.456C610.616 240.382 611.031 241.066 611.7 241.575C612.384 242.07 613.228 242.317 614.232 242.317C615.513 242.317 616.568 241.895 617.397 241.051L618.859 242.732C618.336 243.358 617.673 243.831 616.873 244.151C616.073 244.471 615.171 244.631 614.167 244.631C612.886 244.631 611.758 244.376 610.784 243.867C609.809 243.358 609.052 242.652 608.514 241.75C607.99 240.833 607.728 239.8 607.728 238.65C607.728 237.515 607.982 236.497 608.492 235.595C609.016 234.678 609.736 233.965 610.653 233.456C611.569 232.946 612.602 232.692 613.752 232.692C614.887 232.692 615.898 232.946 616.786 233.456C617.688 233.95 618.386 234.656 618.881 235.573C619.39 236.475 619.645 237.523 619.645 238.716ZM613.752 234.874C612.879 234.874 612.137 235.136 611.526 235.66C610.929 236.169 610.565 236.853 610.434 237.712H617.048C616.931 236.868 616.575 236.184 615.978 235.66C615.382 235.136 614.64 234.874 613.752 234.874ZM625.867 244.631C624.921 244.631 623.997 244.507 623.095 244.26C622.193 244.012 621.473 243.7 620.934 243.321L621.982 241.248C622.506 241.597 623.132 241.881 623.859 242.099C624.601 242.303 625.329 242.405 626.042 242.405C627.672 242.405 628.486 241.975 628.486 241.117C628.486 240.709 628.275 240.426 627.853 240.266C627.446 240.105 626.784 239.953 625.867 239.807C624.907 239.662 624.121 239.494 623.51 239.305C622.913 239.116 622.39 238.789 621.938 238.323C621.502 237.843 621.284 237.181 621.284 236.337C621.284 235.231 621.742 234.351 622.659 233.696C623.59 233.026 624.841 232.692 626.413 232.692C627.213 232.692 628.014 232.786 628.814 232.975C629.614 233.15 630.269 233.39 630.778 233.696L629.731 235.769C628.741 235.187 627.628 234.896 626.391 234.896C625.591 234.896 624.98 235.02 624.558 235.267C624.15 235.5 623.946 235.813 623.946 236.206C623.946 236.642 624.165 236.955 624.601 237.144C625.052 237.319 625.744 237.486 626.675 237.646C627.606 237.792 628.37 237.959 628.967 238.148C629.563 238.337 630.072 238.658 630.494 239.109C630.931 239.56 631.149 240.2 631.149 241.029C631.149 242.121 630.676 242.994 629.731 243.649C628.785 244.303 627.497 244.631 625.867 244.631Z" fill="white"/>
        <path d="M378.082 722.117C379.112 722.117 380.006 722.287 380.765 722.626C381.534 722.966 382.123 723.453 382.53 724.086C382.938 724.72 383.141 725.473 383.141 726.344C383.141 727.204 382.938 727.957 382.53 728.602C382.123 729.236 381.534 729.722 380.765 730.062C380.006 730.402 379.112 730.571 378.082 730.571H375.4V734H373.193V722.117H378.082ZM377.981 728.704C378.942 728.704 379.672 728.5 380.17 728.093C380.668 727.685 380.917 727.102 380.917 726.344C380.917 725.586 380.668 725.003 380.17 724.596C379.672 724.188 378.942 723.985 377.981 723.985H375.4V728.704H377.981ZM387.079 726.259C387.69 725.309 388.765 724.833 390.304 724.833V726.854C390.123 726.82 389.959 726.803 389.812 726.803C388.986 726.803 388.341 727.046 387.877 727.533C387.413 728.008 387.181 728.698 387.181 729.604V734H385.059V724.935H387.079V726.259ZM396.096 734.119C395.179 734.119 394.353 733.921 393.617 733.525C392.882 733.129 392.304 732.58 391.886 731.878C391.478 731.165 391.274 730.362 391.274 729.468C391.274 728.574 391.478 727.776 391.886 727.074C392.304 726.373 392.882 725.824 393.617 725.428C394.353 725.031 395.179 724.833 396.096 724.833C397.024 724.833 397.856 725.031 398.591 725.428C399.327 725.824 399.898 726.373 400.306 727.074C400.725 727.776 400.934 728.574 400.934 729.468C400.934 730.362 400.725 731.165 400.306 731.878C399.898 732.58 399.327 733.129 398.591 733.525C397.856 733.921 397.024 734.119 396.096 734.119ZM396.096 732.303C396.877 732.303 397.522 732.043 398.031 731.522C398.54 731.001 398.795 730.317 398.795 729.468C398.795 728.619 398.54 727.934 398.031 727.414C397.522 726.893 396.877 726.633 396.096 726.633C395.315 726.633 394.67 726.893 394.16 727.414C393.662 727.934 393.413 728.619 393.413 729.468C393.413 730.317 393.662 731.001 394.16 731.522C394.67 732.043 395.315 732.303 396.096 732.303ZM411.842 721.404V734H409.805V732.829C409.454 733.259 409.018 733.582 408.497 733.797C407.988 734.012 407.422 734.119 406.8 734.119C405.928 734.119 405.142 733.927 404.44 733.542C403.75 733.157 403.206 732.614 402.81 731.912C402.414 731.199 402.216 730.385 402.216 729.468C402.216 728.551 402.414 727.742 402.81 727.04C403.206 726.339 403.75 725.795 404.44 725.411C405.142 725.026 405.928 724.833 406.8 724.833C407.4 724.833 407.948 724.935 408.446 725.139C408.944 725.343 409.369 725.648 409.72 726.056V721.404H411.842ZM407.054 732.303C407.564 732.303 408.022 732.19 408.429 731.963C408.837 731.726 409.159 731.392 409.397 730.962C409.635 730.532 409.754 730.034 409.754 729.468C409.754 728.902 409.635 728.404 409.397 727.974C409.159 727.544 408.837 727.216 408.429 726.989C408.022 726.752 407.564 726.633 407.054 726.633C406.545 726.633 406.087 726.752 405.679 726.989C405.272 727.216 404.949 727.544 404.712 727.974C404.474 728.404 404.355 728.902 404.355 729.468C404.355 730.034 404.474 730.532 404.712 730.962C404.949 731.392 405.272 731.726 405.679 731.963C406.087 732.19 406.545 732.303 407.054 732.303ZM423.394 724.935V734H421.374V732.846C421.035 733.254 420.61 733.57 420.101 733.797C419.592 734.012 419.043 734.119 418.454 734.119C417.243 734.119 416.287 733.785 415.585 733.118C414.895 732.439 414.55 731.437 414.55 730.113V724.935H416.672V729.824C416.672 730.639 416.853 731.25 417.215 731.658C417.589 732.054 418.115 732.252 418.794 732.252C419.552 732.252 420.152 732.02 420.593 731.556C421.046 731.081 421.272 730.402 421.272 729.519V724.935H423.394ZM430.332 734.119C429.393 734.119 428.549 733.921 427.802 733.525C427.056 733.129 426.473 732.58 426.054 731.878C425.635 731.165 425.426 730.362 425.426 729.468C425.426 728.574 425.635 727.776 426.054 727.074C426.473 726.373 427.05 725.824 427.785 725.428C428.532 725.031 429.381 724.833 430.332 724.833C431.226 724.833 432.007 725.014 432.675 725.377C433.354 725.739 433.863 726.259 434.203 726.938L432.573 727.889C432.312 727.47 431.984 727.159 431.588 726.955C431.203 726.74 430.779 726.633 430.315 726.633C429.523 726.633 428.866 726.893 428.346 727.414C427.825 727.923 427.565 728.608 427.565 729.468C427.565 730.328 427.819 731.018 428.329 731.539C428.849 732.048 429.511 732.303 430.315 732.303C430.779 732.303 431.203 732.201 431.588 731.997C431.984 731.782 432.312 731.465 432.573 731.047L434.203 731.997C433.852 732.676 433.337 733.203 432.658 733.576C431.99 733.938 431.215 734.119 430.332 734.119ZM441.602 733.508C441.353 733.712 441.048 733.865 440.686 733.967C440.335 734.068 439.961 734.119 439.565 734.119C438.569 734.119 437.8 733.859 437.256 733.338C436.713 732.818 436.442 732.06 436.442 731.064V726.701H434.948V725.003H436.442V722.932H438.564V725.003H440.991V726.701H438.564V731.013C438.564 731.454 438.671 731.794 438.886 732.031C439.101 732.258 439.412 732.371 439.82 732.371C440.295 732.371 440.691 732.246 441.008 731.997L441.602 733.508ZM443.348 724.935H445.47V734H443.348V724.935ZM444.417 723.441C444.033 723.441 443.71 723.322 443.45 723.085C443.189 722.836 443.059 722.53 443.059 722.168C443.059 721.806 443.189 721.506 443.45 721.268C443.71 721.019 444.033 720.895 444.417 720.895C444.802 720.895 445.125 721.014 445.385 721.251C445.645 721.478 445.775 721.766 445.775 722.117C445.775 722.491 445.645 722.808 445.385 723.068C445.136 723.317 444.814 723.441 444.417 723.441ZM456.743 724.935L452.856 734H450.666L446.778 724.935H448.985L451.803 731.658L454.706 724.935H456.743ZM458.069 724.935H460.191V734H458.069V724.935ZM459.139 723.441C458.754 723.441 458.432 723.322 458.171 723.085C457.911 722.836 457.781 722.53 457.781 722.168C457.781 721.806 457.911 721.506 458.171 721.268C458.432 721.019 458.754 720.895 459.139 720.895C459.524 720.895 459.846 721.014 460.107 721.251C460.367 721.478 460.497 721.766 460.497 722.117C460.497 722.491 460.367 722.808 460.107 723.068C459.858 723.317 459.535 723.441 459.139 723.441ZM468.426 733.508C468.177 733.712 467.871 733.865 467.509 733.967C467.158 734.068 466.785 734.119 466.389 734.119C465.393 734.119 464.623 733.859 464.08 733.338C463.537 732.818 463.265 732.06 463.265 731.064V726.701H461.771V725.003H463.265V722.932H465.387V725.003H467.815V726.701H465.387V731.013C465.387 731.454 465.495 731.794 465.71 732.031C465.925 732.258 466.236 732.371 466.643 732.371C467.119 732.371 467.515 732.246 467.832 731.997L468.426 733.508ZM478.494 724.935L474.25 734.73C473.854 735.715 473.373 736.405 472.807 736.802C472.241 737.209 471.556 737.413 470.753 737.413C470.3 737.413 469.853 737.339 469.412 737.192C468.97 737.045 468.608 736.841 468.325 736.581L469.174 735.019C469.378 735.211 469.615 735.364 469.887 735.477C470.17 735.591 470.453 735.647 470.736 735.647C471.109 735.647 471.415 735.551 471.653 735.359C471.902 735.166 472.128 734.844 472.332 734.391L472.484 734.034L468.529 724.935H470.736L473.588 731.641L476.457 724.935H478.494Z" fill="#676767"/>
        <path d="M9.31533 700.788C7.77292 700.788 6.37602 700.453 5.12463 699.784C3.8878 699.1 2.91288 698.161 2.19988 696.968C1.50143 695.775 1.1522 694.429 1.1522 692.93C1.1522 691.432 1.5087 690.086 2.2217 688.892C2.9347 687.699 3.90962 686.768 5.14646 686.099C6.39785 685.415 7.79475 685.073 9.33716 685.073C10.5885 685.073 11.7308 685.291 12.7639 685.728C13.797 686.164 14.6701 686.797 15.3831 687.626L13.5497 689.351C12.4438 688.158 11.0833 687.561 9.46811 687.561C8.42044 687.561 7.4819 687.794 6.65249 688.259C5.82308 688.71 5.17556 689.343 4.70993 690.158C4.2443 690.973 4.01148 691.897 4.01148 692.93C4.01148 693.963 4.2443 694.887 4.70993 695.702C5.17556 696.517 5.82308 697.157 6.65249 697.623C7.4819 698.074 8.42044 698.3 9.46811 698.3C11.0833 698.3 12.4438 697.696 13.5497 696.488L15.3831 698.234C14.6701 699.064 13.7898 699.697 12.7421 700.133C11.709 700.57 10.5667 700.788 9.31533 700.788ZM22.186 688.783C23.903 688.783 25.2126 689.198 26.1148 690.027C27.0315 690.842 27.4898 692.079 27.4898 693.738V700.57H24.9143V699.151C24.5796 699.66 24.0995 700.053 23.4738 700.329C22.8626 700.591 22.1205 700.722 21.2475 700.722C20.3744 700.722 19.6105 700.577 18.9557 700.286C18.3009 699.98 17.7916 699.566 17.4278 699.042C17.0786 698.503 16.904 697.899 16.904 697.23C16.904 696.182 17.2896 695.346 18.0608 694.72C18.8465 694.08 20.0761 693.76 21.7495 693.76H24.7615V693.585C24.7615 692.77 24.5142 692.145 24.0194 691.708C23.5392 691.271 22.819 691.053 21.8586 691.053C21.2038 691.053 20.5563 691.155 19.916 691.359C19.2903 691.562 18.7592 691.846 18.3227 692.21L17.2532 690.224C17.8643 689.758 18.5992 689.402 19.4577 689.154C20.3162 688.907 21.2256 688.783 22.186 688.783ZM21.8149 698.736C22.4988 698.736 23.1027 698.583 23.6266 698.278C24.1649 697.958 24.5433 697.507 24.7615 696.925V695.571H21.9459C20.3744 695.571 19.5886 696.088 19.5886 697.121C19.5886 697.616 19.7851 698.009 20.178 698.3C20.5708 698.591 21.1165 698.736 21.8149 698.736ZM37.452 688.783C38.5869 688.783 39.5982 689.031 40.4859 689.525C41.388 690.02 42.0937 690.719 42.603 691.621C43.1123 692.523 43.367 693.563 43.367 694.742C43.367 695.921 43.1123 696.968 42.603 697.885C42.0937 698.787 41.388 699.486 40.4859 699.98C39.5982 700.475 38.5869 700.722 37.452 700.722C35.8804 700.722 34.6363 700.199 33.7196 699.151V704.804H30.9913V688.914H33.5887V690.442C34.0397 689.889 34.5927 689.474 35.2475 689.198C35.9168 688.921 36.6517 688.783 37.452 688.783ZM37.1464 698.387C38.1504 698.387 38.9725 698.052 39.6128 697.383C40.2676 696.714 40.595 695.833 40.595 694.742C40.595 693.651 40.2676 692.77 39.6128 692.101C38.9725 691.432 38.1504 691.097 37.1464 691.097C36.4916 691.097 35.9023 691.25 35.3784 691.555C34.8546 691.846 34.4399 692.268 34.1343 692.821C33.8288 693.374 33.676 694.014 33.676 694.742C33.676 695.469 33.8288 696.11 34.1343 696.663C34.4399 697.216 34.8546 697.645 35.3784 697.95C35.9023 698.241 36.4916 698.387 37.1464 698.387ZM50.2578 688.783C51.9749 688.783 53.2844 689.198 54.1866 690.027C55.1033 690.842 55.5617 692.079 55.5617 693.738V700.57H52.9862V699.151C52.6515 699.66 52.1713 700.053 51.5456 700.329C50.9345 700.591 50.1924 700.722 49.3193 700.722C48.4462 700.722 47.6823 700.577 47.0275 700.286C46.3727 699.98 45.8634 699.566 45.4996 699.042C45.1504 698.503 44.9758 697.899 44.9758 697.23C44.9758 696.182 45.3614 695.346 46.1326 694.72C46.9184 694.08 48.1479 693.76 49.8213 693.76H52.8334V693.585C52.8334 692.77 52.586 692.145 52.0913 691.708C51.6111 691.271 50.8908 691.053 49.9304 691.053C49.2756 691.053 48.6281 691.155 47.9879 691.359C47.3622 691.562 46.8311 691.846 46.3945 692.21L45.325 690.224C45.9362 689.758 46.671 689.402 47.5295 689.154C48.388 688.907 49.2975 688.783 50.2578 688.783ZM49.8868 698.736C50.5707 698.736 51.1745 698.583 51.6984 698.278C52.2368 697.958 52.6151 697.507 52.8334 696.925V695.571H50.0177C48.4462 695.571 47.6605 696.088 47.6605 697.121C47.6605 697.616 47.8569 698.009 48.2498 698.3C48.6427 698.591 49.1883 698.736 49.8868 698.736ZM64.5172 700.722C63.3095 700.722 62.2254 700.468 61.2651 699.958C60.3047 699.449 59.5553 698.743 59.0169 697.841C58.4785 696.925 58.2093 695.891 58.2093 694.742C58.2093 693.592 58.4785 692.567 59.0169 691.664C59.5553 690.762 60.2974 690.056 61.2432 689.547C62.2036 689.038 63.2949 688.783 64.5172 688.783C65.6667 688.783 66.6708 689.016 67.5293 689.482C68.4023 689.947 69.0571 690.617 69.4937 691.49L67.3983 692.712C67.0636 692.174 66.6417 691.773 66.1324 691.512C65.6376 691.235 65.092 691.097 64.4954 691.097C63.4768 691.097 62.6329 691.432 61.9635 692.101C61.2942 692.756 60.9595 693.636 60.9595 694.742C60.9595 695.848 61.2869 696.735 61.9417 697.405C62.611 698.06 63.4623 698.387 64.4954 698.387C65.092 698.387 65.6376 698.256 66.1324 697.994C66.6417 697.718 67.0636 697.31 67.3983 696.772L69.4937 697.994C69.0426 698.867 68.3805 699.544 67.5075 700.024C66.6489 700.49 65.6522 700.722 64.5172 700.722ZM71.8521 688.914H74.5804V700.57H71.8521V688.914ZM73.2272 686.993C72.7325 686.993 72.3178 686.841 71.9831 686.535C71.6484 686.215 71.4811 685.822 71.4811 685.356C71.4811 684.891 71.6484 684.505 71.9831 684.2C72.3178 683.88 72.7325 683.719 73.2272 683.719C73.7219 683.719 74.1366 683.872 74.4713 684.178C74.806 684.469 74.9733 684.84 74.9733 685.291C74.9733 685.771 74.806 686.179 74.4713 686.513C74.1512 686.833 73.7365 686.993 73.2272 686.993ZM85.1677 699.937C84.8476 700.199 84.4547 700.395 83.9891 700.526C83.538 700.657 83.0578 700.722 82.5485 700.722C81.268 700.722 80.2785 700.388 79.5801 699.718C78.8816 699.049 78.5324 698.074 78.5324 696.794V691.184H76.6117V689.002H78.5324V686.339H81.2607V689.002H84.3819V691.184H81.2607V696.728C81.2607 697.296 81.399 697.732 81.6754 698.038C81.9519 698.329 82.3521 698.474 82.8759 698.474C83.487 698.474 83.9963 698.314 84.4038 697.994L85.1677 699.937ZM98.1122 688.914L92.6556 701.508C92.1463 702.774 91.5278 703.662 90.8003 704.171C90.0727 704.695 89.1924 704.957 88.1593 704.957C87.5772 704.957 87.0025 704.862 86.435 704.673C85.8675 704.484 85.4019 704.222 85.0381 703.887L86.1294 701.879C86.3913 702.127 86.6969 702.323 87.0461 702.468C87.4099 702.614 87.7737 702.687 88.1375 702.687C88.6176 702.687 89.0105 702.563 89.3161 702.316C89.6362 702.068 89.9272 701.654 90.1892 701.072L90.3856 700.613L85.3 688.914H88.1375L91.8043 697.536L95.493 688.914H98.1122Z" fill="#676767"/>
        <path d="M794.979 117.831H797.664V123.92C796.878 124.546 795.961 125.026 794.914 125.361C793.866 125.695 792.789 125.863 791.683 125.863C790.126 125.863 788.722 125.528 787.471 124.859C786.219 124.175 785.237 123.236 784.524 122.043C783.811 120.85 783.455 119.504 783.455 118.005C783.455 116.506 783.811 115.161 784.524 113.967C785.237 112.774 786.219 111.843 787.471 111.174C788.737 110.49 790.156 110.148 791.727 110.148C793.008 110.148 794.172 110.359 795.219 110.781C796.267 111.203 797.147 111.821 797.86 112.636L796.071 114.382C794.906 113.218 793.502 112.636 791.858 112.636C790.781 112.636 789.821 112.861 788.977 113.313C788.147 113.764 787.493 114.397 787.012 115.211C786.547 116.026 786.314 116.958 786.314 118.005C786.314 119.024 786.547 119.941 787.012 120.755C787.493 121.57 788.147 122.21 788.977 122.676C789.821 123.142 790.774 123.375 791.836 123.375C793.029 123.375 794.077 123.113 794.979 122.589V117.831ZM803.742 115.692C804.527 114.469 805.91 113.858 807.889 113.858V116.456C807.656 116.412 807.445 116.39 807.256 116.39C806.194 116.39 805.364 116.703 804.768 117.329C804.171 117.94 803.873 118.827 803.873 119.991V125.645H801.144V113.989H803.742V115.692ZM815.335 125.797C814.156 125.797 813.094 125.543 812.148 125.033C811.203 124.524 810.46 123.818 809.922 122.916C809.398 121.999 809.136 120.966 809.136 119.817C809.136 118.667 809.398 117.641 809.922 116.739C810.46 115.837 811.203 115.131 812.148 114.622C813.094 114.113 814.156 113.858 815.335 113.858C816.528 113.858 817.598 114.113 818.543 114.622C819.489 115.131 820.224 115.837 820.748 116.739C821.286 117.641 821.556 118.667 821.556 119.817C821.556 120.966 821.286 121.999 820.748 122.916C820.224 123.818 819.489 124.524 818.543 125.033C817.598 125.543 816.528 125.797 815.335 125.797ZM815.335 123.462C816.339 123.462 817.168 123.127 817.823 122.458C818.478 121.789 818.805 120.908 818.805 119.817C818.805 118.726 818.478 117.845 817.823 117.176C817.168 116.506 816.339 116.172 815.335 116.172C814.331 116.172 813.502 116.506 812.847 117.176C812.207 117.845 811.886 118.726 811.886 119.817C811.886 120.908 812.207 121.789 812.847 122.458C813.502 123.127 814.331 123.462 815.335 123.462ZM842.026 113.989L837.726 125.645H835.107L832.095 117.612L829.04 125.645H826.42L822.142 113.989H824.718L827.795 122.589L831.004 113.989H833.296L836.439 122.632L839.604 113.989H842.026ZM851.228 125.012C850.908 125.273 850.515 125.47 850.05 125.601C849.599 125.732 849.118 125.797 848.609 125.797C847.329 125.797 846.339 125.463 845.641 124.793C844.942 124.124 844.593 123.149 844.593 121.869V116.259H842.672V114.076H844.593V111.414H847.321V114.076H850.442V116.259H847.321V121.803C847.321 122.371 847.46 122.807 847.736 123.113C848.012 123.404 848.413 123.549 848.936 123.549C849.548 123.549 850.057 123.389 850.464 123.069L851.228 125.012ZM860.086 113.858C861.556 113.858 862.734 114.287 863.622 115.146C864.51 116.004 864.953 117.278 864.953 118.966V125.645H862.225V119.315C862.225 118.296 861.985 117.532 861.505 117.023C861.025 116.499 860.341 116.237 859.453 116.237C858.449 116.237 857.656 116.543 857.074 117.154C856.492 117.751 856.201 118.616 856.201 119.751V125.645H853.473V109.449H856.201V115.342C856.652 114.862 857.205 114.498 857.86 114.251C858.529 113.989 859.271 113.858 860.086 113.858Z" fill="#676767"/>
        <path d="M154.576 639.345L149.626 639.345V644.295H154.576V639.345ZM118.04 676.738L152.53 642.249L151.672 641.391L117.183 675.881L118.04 676.738Z" fill="#676767"/>
        <path d="M739.628 169.499H744.579V164.548H739.628V169.499ZM742.532 167.452L777.022 132.963L776.164 132.105L741.675 166.595L742.532 167.452Z" fill="#676767"/>
        <path d="M408.461 385.033C408.559 385.08 408.667 385.098 408.774 385.086C408.881 385.074 408.983 385.032 409.068 384.965L412.335 382.359L415.601 384.965C415.701 385.046 415.826 385.09 415.955 385.09C416.084 385.09 416.21 385.046 416.31 384.965L419.575 382.359L422.839 384.965C422.94 385.046 423.065 385.09 423.194 385.09C423.323 385.09 423.448 385.046 423.548 384.965L426.812 382.359L430.076 384.965C430.177 385.046 430.302 385.09 430.431 385.09C430.56 385.09 430.685 385.046 430.786 384.965L434.049 382.359L437.313 384.965C437.413 385.046 437.538 385.09 437.667 385.09C437.756 385.09 437.843 385.07 437.923 385.033C438.021 384.987 438.103 384.915 438.162 384.825C438.221 384.734 438.253 384.629 438.255 384.521V348.045C438.251 347.898 438.191 347.757 438.087 347.652L431.648 340.934C431.594 340.879 431.53 340.834 431.459 340.804C431.387 340.774 431.311 340.758 431.233 340.758H408.718C408.565 340.758 408.418 340.817 408.308 340.924C408.198 341.031 408.134 341.176 408.13 341.329V384.521C408.132 384.629 408.164 384.734 408.223 384.825C408.281 384.915 408.364 384.987 408.461 385.033V385.033ZM431.813 342.744L436.335 347.484H431.813V342.744ZM409.267 341.894H430.676V348.045C430.675 348.12 430.688 348.194 430.715 348.263C430.743 348.332 430.783 348.395 430.835 348.449C430.887 348.502 430.949 348.545 431.017 348.574C431.085 348.604 431.159 348.619 431.233 348.62H437.118V383.34L434.413 381.188C434.312 381.107 434.186 381.064 434.056 381.064C433.927 381.064 433.801 381.107 433.699 381.188L430.433 383.794L427.168 381.188C427.067 381.108 426.942 381.064 426.813 381.064C426.684 381.064 426.559 381.108 426.458 381.188L423.194 383.794L419.93 381.188C419.829 381.107 419.704 381.064 419.575 381.064C419.446 381.064 419.321 381.107 419.22 381.188L415.956 383.794L412.692 381.188C412.591 381.107 412.466 381.064 412.337 381.064C412.205 381.064 412.077 381.107 411.973 381.188L409.267 383.34V341.894Z" fill="#676767"/>
        <path d="M414.477 360.462H424.329V361.599H414.477V360.462Z" fill="#676767"/>
        <path d="M417.946 355.631H417.638C417.262 355.589 416.915 355.413 416.66 355.134C416.405 354.855 416.261 354.493 416.254 354.115H415.117C415.121 354.707 415.32 355.28 415.684 355.746C416.048 356.213 416.556 356.545 417.129 356.692V357.904H418.266V356.733C418.923 356.614 419.513 356.254 419.919 355.723C420.324 355.192 420.516 354.528 420.456 353.863C420.397 353.197 420.091 352.578 419.597 352.127C419.104 351.676 418.46 351.426 417.792 351.426C417.384 351.423 416.993 351.258 416.706 350.969C416.418 350.679 416.257 350.287 416.257 349.879C416.257 349.471 416.418 349.079 416.706 348.789C416.993 348.5 417.384 348.335 417.792 348.332C417.993 348.33 418.193 348.368 418.379 348.443C418.565 348.518 418.735 348.63 418.878 348.771C419.021 348.913 419.135 349.081 419.212 349.266C419.29 349.452 419.33 349.651 419.33 349.852H420.467C420.467 348.621 419.515 347.48 418.266 347.256V345.968H417.129V347.296C416.498 347.458 415.947 347.844 415.581 348.383C415.214 348.922 415.057 349.576 415.138 350.222C415.22 350.868 415.534 351.463 416.023 351.894C416.511 352.325 417.14 352.563 417.792 352.563C418.187 352.562 418.566 352.714 418.852 352.986C419.138 353.258 419.309 353.629 419.329 354.023C419.349 354.417 419.216 354.804 418.959 355.103C418.702 355.403 418.339 355.591 417.946 355.631V355.631Z" fill="#676767"/>
        <path d="M414.477 364.251H431.907V365.388H414.477V364.251Z" fill="#676767"/>
        <path d="M414.477 368.041H431.907V369.178H414.477V368.041Z" fill="#676767"/>
        <path d="M414.477 371.83H431.907V372.967H414.477V371.83Z" fill="#676767"/>
        <path d="M414.477 375.619H431.907V376.756H414.477V375.619Z" fill="#676767"/>
        <path d="M546.049 553.909C546.141 553.909 546.233 553.91 546.325 553.91V564.068C546.325 564.218 546.385 564.363 546.491 564.47C546.598 564.576 546.742 564.636 546.893 564.636C548.322 564.634 549.692 564.066 550.702 563.056C551.713 562.045 552.281 560.675 552.283 559.246V554.572C554.487 555.041 556.632 555.759 558.676 556.71L570.639 562.293C570.726 562.333 570.821 562.351 570.916 562.345C571.012 562.338 571.104 562.308 571.185 562.257C571.265 562.206 571.332 562.135 571.378 562.051C571.424 561.967 571.448 561.873 571.448 561.777V553.863C572.747 553.696 573.941 553.061 574.806 552.078C575.671 551.094 576.149 549.829 576.149 548.519C576.149 547.209 575.671 545.944 574.806 544.96C573.941 543.976 572.747 543.342 571.448 543.175V535.26C571.448 535.164 571.424 535.07 571.378 534.987C571.332 534.903 571.265 534.832 571.185 534.781C571.104 534.729 571.012 534.699 570.916 534.693C570.821 534.687 570.726 534.705 570.639 534.745L558.676 540.328C554.72 542.167 550.411 543.123 546.049 543.129C545.26 543.13 544.502 543.444 543.944 544.003C543.385 544.561 543.071 545.318 543.07 546.108V550.929C543.071 551.719 543.385 552.477 543.944 553.035C544.502 553.593 545.26 553.908 546.049 553.909V553.909ZM575.011 548.519C575.01 549.527 574.651 550.502 573.999 551.27C573.346 552.039 572.442 552.551 571.447 552.715V544.322C572.442 544.487 573.346 544.999 573.999 545.767C574.651 546.536 575.01 547.511 575.011 548.519V548.519ZM551.146 559.246C551.145 560.275 550.771 561.269 550.094 562.044C549.416 562.819 548.481 563.322 547.461 563.461V553.943C548.697 554.003 549.927 554.14 551.146 554.352V559.246ZM570.311 560.885L567.471 559.559V537.478L570.311 536.152L570.311 560.885ZM559.156 541.358L566.334 538.009V559.029L559.156 555.679C556.961 554.658 554.654 553.896 552.283 553.41V543.627C554.654 543.141 556.961 542.38 559.156 541.358ZM544.207 546.108C544.208 545.62 544.402 545.151 544.747 544.806C545.093 544.461 545.561 544.266 546.05 544.266C547.757 544.265 549.462 544.122 551.146 543.84V553.199C549.462 552.916 547.757 552.774 546.05 552.773C545.561 552.772 545.092 552.578 544.747 552.232C544.401 551.887 544.207 551.418 544.207 550.929L544.207 546.108Z" fill="white"/>
        <path d="M575.464 556.696C575.325 556.755 575.216 556.867 575.159 557.007C575.103 557.147 575.105 557.303 575.164 557.442C575.223 557.58 575.334 557.69 575.474 557.746C575.614 557.803 575.771 557.801 575.909 557.742C577.718 556.972 579.261 555.687 580.345 554.047C581.429 552.407 582.008 550.485 582.008 548.519C582.008 546.552 581.429 544.63 580.345 542.99C579.261 541.35 577.718 540.065 575.909 539.295C575.771 539.236 575.614 539.234 575.474 539.291C575.334 539.347 575.223 539.457 575.164 539.595C575.105 539.734 575.103 539.891 575.159 540.03C575.216 540.17 575.325 540.282 575.464 540.341C577.068 541.024 578.436 542.163 579.397 543.617C580.358 545.071 580.871 546.775 580.871 548.519C580.871 550.262 580.358 551.966 579.397 553.42C578.436 554.874 577.068 556.013 575.464 556.696V556.696Z" fill="white"/>
        <path d="M577.947 534.737C577.809 534.678 577.652 534.676 577.512 534.733C577.372 534.789 577.261 534.899 577.202 535.037C577.143 535.176 577.141 535.333 577.197 535.472C577.254 535.612 577.363 535.724 577.502 535.783C580 536.846 582.13 538.62 583.627 540.885C585.124 543.149 585.922 545.804 585.922 548.519C585.922 551.233 585.124 553.888 583.627 556.152C582.13 558.417 580 560.191 577.502 561.254C577.363 561.313 577.254 561.425 577.197 561.565C577.141 561.704 577.143 561.861 577.202 562C577.261 562.138 577.372 562.248 577.512 562.304C577.652 562.361 577.809 562.359 577.947 562.3C580.65 561.149 582.955 559.23 584.575 556.779C586.195 554.329 587.059 551.456 587.059 548.519C587.059 545.581 586.195 542.708 584.575 540.258C582.955 537.807 580.65 535.888 577.947 534.737V534.737Z" fill="white"/>
        <g clip-path="url(#clip0_1_320)">
            <path d="M279.266 186.295C279.266 181.237 275.046 177.122 269.859 177.122C265.807 177.122 262.345 179.634 261.025 183.145C258.794 182.092 256.359 181.547 253.892 181.55C249.393 181.55 245.206 183.297 242.102 186.47C238.959 189.685 237.227 194.083 237.227 198.855C237.227 199.241 237.54 199.553 237.925 199.553H263.268V205.803C263.268 206.081 263.432 206.332 263.687 206.443C263.941 206.554 264.237 206.505 264.441 206.316L269.859 201.297L275.278 206.316C275.482 206.505 275.778 206.554 276.032 206.443C276.287 206.332 276.452 206.081 276.452 205.803V192.832C278.244 191.129 279.262 188.767 279.266 186.295V186.295ZM269.859 178.519C274.276 178.519 277.869 182.007 277.869 186.295C277.863 188.418 276.975 190.444 275.417 191.886C275.322 191.939 275.24 192.012 275.178 192.101C272.118 194.727 267.601 194.727 264.541 192.101C264.479 192.012 264.397 191.938 264.302 191.886C262.744 190.444 261.855 188.418 261.85 186.295C261.85 182.007 265.443 178.519 269.859 178.519V178.519ZM238.637 198.156C238.796 194.023 240.367 190.242 243.101 187.447C245.94 184.545 249.772 182.947 253.892 182.947C256.229 182.944 258.535 183.477 260.633 184.506C260.015 187.55 261.011 190.698 263.268 192.832V198.156H238.637ZM275.054 204.203L270.334 199.831C270.066 199.583 269.652 199.583 269.384 199.831L264.665 204.203V193.938C267.827 195.977 271.891 195.977 275.053 193.938L275.054 204.203Z" fill="white"/>
            <path d="M264.652 185.522L267.197 187.322L266.227 190.226C266.132 190.512 266.231 190.828 266.473 191.008C266.716 191.188 267.047 191.192 267.293 191.017L269.859 189.204L272.424 191.017C272.671 191.192 273.002 191.188 273.244 191.008C273.487 190.828 273.586 190.512 273.49 190.226L272.521 187.322L275.065 185.522C275.314 185.346 275.42 185.03 275.328 184.74C275.236 184.45 274.966 184.253 274.662 184.253H271.496L270.521 181.334C270.426 181.049 270.159 180.857 269.858 180.857C269.558 180.857 269.291 181.049 269.196 181.334L268.221 184.253H265.055C264.751 184.253 264.481 184.45 264.389 184.74C264.297 185.03 264.403 185.346 264.652 185.522H264.652ZM268.725 185.65C269.026 185.65 269.292 185.458 269.388 185.173L269.859 183.761L270.331 185.174C270.426 185.459 270.693 185.651 270.993 185.651H272.465L271.29 186.481C271.039 186.658 270.933 186.98 271.031 187.272L271.49 188.646L270.262 187.778C270.021 187.607 269.697 187.607 269.456 187.778L268.228 188.646L268.687 187.272C268.785 186.98 268.68 186.659 268.428 186.481L267.254 185.651L268.725 185.65Z" fill="white"/>
            <path d="M243.612 168.277C243.612 173.954 248.215 178.556 253.891 178.556C259.568 178.556 264.17 173.954 264.17 168.277C264.17 162.6 259.568 157.998 253.891 157.998C248.217 158.005 243.619 162.603 243.612 168.277ZM262.773 168.277C262.773 173.182 258.797 177.159 253.891 177.159C248.986 177.159 245.009 173.182 245.009 168.277C245.009 163.372 248.986 159.395 253.891 159.395C258.794 159.401 262.767 163.374 262.773 168.277Z" fill="white"/>
        </g>
    </g>
    <defs>
        <filter id="filter0_d_1_320" x="47.2903" y="0.362243" width="751.803" height="751.803" filterUnits="userSpaceOnUse" color-interpolation-filters="sRGB">
            <feFlood flood-opacity="0" result="BackgroundImageFix"/>
            <feColorMatrix in="SourceAlpha" type="matrix" values="0 0 0 0 0 0 0 0 0 0 0 0 0 0 0 0 0 0 127 0" result="hardAlpha"/>
            <feOffset dy="1.21259"/>
            <feGaussianBlur stdDeviation="2.42517"/>
            <feComposite in2="hardAlpha" operator="out"/>
            <feColorMatrix type="matrix" values="0 0 0 0 0 0 0 0 0 0 0 0 0 0 0 0 0 0 0.15 0"/>
            <feBlend mode="normal" in2="BackgroundImageFix" result="effect1_dropShadow_1_320"/>
            <feBlend mode="normal" in="SourceGraphic" in2="effect1_dropShadow_1_320" result="shape"/>
        </filter>
        <linearGradient id="paint0_linear_1_320" x1="488.672" y1="59.7791" x2="146.723" y2="358.075" gradientUnits="userSpaceOnUse">
            <stop stop-color="#12757B"/>
            <stop offset="1" stop-color="#118B93"/>
        </linearGradient>
        <linearGradient id="paint1_linear_1_320" x1="493.523" y1="79.18" x2="697.237" y2="438.105" gradientUnits="userSpaceOnUse">
            <stop stop-color="#0A878E"/>
            <stop offset="1" stop-color="#0FA3AC"/>
        </linearGradient>
        <linearGradient id="paint2_linear_1_320" x1="668.135" y1="430.83" x2="352.863" y2="678.198" gradientUnits="userSpaceOnUse">
            <stop stop-color="#09919B"/>
            <stop offset="1" stop-color="#0EC1CE"/>
        </linearGradient>
        <linearGradient id="paint3_linear_1_320" x1="137.022" y1="343.524" x2="418.342" y2="649.096" gradientUnits="userSpaceOnUse">
            <stop stop-color="#35CBD6"/>
            <stop offset="1" stop-color="#0CA1AC"/>
        </linearGradient>
        <clipPath id="clip0_1_320">
            <rect width="48.5034" height="48.5034" fill="white" transform="translate(234.029 157.998)"/>
        </clipPath>
    </defs>
</svg>
