<svg width="446" height="390" viewBox="0 0 446 390" fill="none" xmlns="http://www.w3.org/2000/svg">
    <path opacity="0.3" d="M443.52 273.22L438.032 242.622L406.162 231.142L412.037 263.899L387.921 284.245L382.149 252.063L356.699 273.528L326.469 262.643L321.084 232.62C321.878 232.253 322.357 231.39 322.196 230.488C322.164 230.31 322.104 230.147 322.026 229.997L345.573 210.131L345.796 209.948L339.82 176.627L314.38 198.09L283.601 186.997L258.595 208.085L228.364 197.19L222.695 165.583L248.145 144.118L216.822 132.836L210.946 100.079L185.275 121.737L185.052 121.92L190.722 153.528L162.557 143.377C162.569 143.211 162.578 143.035 162.546 142.857C162.384 141.956 161.635 141.313 160.763 141.245L149.606 79.0398L174.389 58.1342L174.612 57.9511L168.636 24.6299L142.964 46.2878L142.741 46.4709L148.514 78.6529L123.953 99.3754L94.2694 88.6787L118.608 68.1493L118.831 67.9662L112.855 34.645L87.1837 56.3028L86.9608 56.486L98.4021 120.276L70.238 110.124C70.2492 109.959 70.2587 109.783 70.2267 109.605C70.065 108.703 69.3155 108.061 68.4438 107.992L62.9558 77.3951L32.7563 66.5046L56.8724 46.1583L57.4195 46.3567L57.3164 45.7822L57.7605 45.4061L57.2134 45.2077L51.4412 13.0256L22.1846 2.48742C22.1958 2.32182 22.2052 2.14631 22.1733 1.96802C21.9814 0.898252 20.9528 0.18305 19.8824 0.375048C18.8119 0.567045 18.096 1.59513 18.2879 2.6649C18.4496 3.56627 19.1991 4.20884 20.0708 4.27742L25.4557 34.3002L0.00564955 55.765L30.7821 66.8485L6.44306 87.3779L6.22014 87.561L11.9924 119.743L11.5483 120.119L12.0954 120.318L17.8676 152.5L48.0771 163.388L23.73 183.93L23.507 184.113L29.4836 217.434L55.1548 195.776L55.3777 195.593L49.7067 163.975L49.7283 163.982L43.8531 131.225L67.1695 111.554C67.45 111.749 67.7893 111.872 68.1422 111.901L73.6302 142.498L103.86 153.383L79.5322 173.921L79.3093 174.104L85.0833 206.296L61.7849 225.954C61.3641 225.661 60.8394 225.53 60.3041 225.626C59.2337 225.818 58.5178 226.846 58.7097 227.916C58.8713 228.817 59.6209 229.46 60.4926 229.529L71.6426 291.694L46.8153 312.638L46.5923 312.821L52.5689 346.142L52.6032 346.106L58.2777 377.743L89.0541 388.826L89.1572 389.401L89.6012 389.025L90.1483 389.223L90.0453 388.649L114.828 367.743L115.051 367.56L109.075 334.239L84.8702 354.662C84.4494 354.37 83.9247 354.239 83.3894 354.335C82.8443 354.433 82.3977 354.738 82.1148 355.156L53.929 344.999L77.6191 325.015L77.6244 325.045L103.074 303.58L134.398 314.862L128.521 282.095L153.276 261.205L153.499 261.022L148.011 230.425C148.805 230.057 149.284 229.194 149.122 228.293C148.93 227.223 147.902 226.508 146.831 226.7C145.761 226.892 145.045 227.92 145.237 228.99C145.269 229.168 145.329 229.331 145.407 229.481L121.859 249.347L121.636 249.53L127.304 281.128L97.6532 270.445L86.21 206.646L110.744 185.949L142.068 197.23L136.194 164.484L159.51 144.812C159.791 145.008 160.13 145.131 160.483 145.159L165.971 175.757L195.228 186.295C195.217 186.46 195.207 186.636 195.239 186.814C195.271 186.993 195.331 187.156 195.409 187.305L171.861 207.171L171.639 207.354L183.176 271.679L160.002 291.233C159.556 290.801 158.923 290.578 158.269 290.695C157.198 290.887 156.482 291.915 156.674 292.985C156.836 293.886 157.585 294.529 158.457 294.597L164.112 326.126L189.118 305.037L194.787 336.644L226.658 348.125L220.681 314.803L190.484 303.923L214.608 283.565L243.317 293.905C243.306 294.07 243.297 294.246 243.329 294.424C243.52 295.494 244.549 296.209 245.619 296.017C246.69 295.825 247.406 294.797 247.214 293.727C247.052 292.826 246.303 292.183 245.431 292.115L234.276 229.92L258.836 209.197L288.52 219.894L264.181 240.423L263.958 240.607L269.73 272.789L269.286 273.165L269.833 273.363L275.502 304.971L250.719 325.876L250.496 326.059L256.473 359.381L282.144 337.723L282.367 337.54L276.698 305.932L306.382 316.629L306.485 317.203L306.929 316.827L338.252 328.109L332.663 296.947C332.984 296.798 333.26 296.564 333.455 296.284L362.154 306.625L368.028 339.372L393.034 318.283L393.036 318.293L418.707 296.635L418.93 296.452L413.26 264.845L441.425 274.996C441.413 275.162 441.404 275.337 441.436 275.516C441.628 276.585 442.656 277.3 443.727 277.108C444.797 276.916 445.513 275.888 445.321 274.819C445.142 273.931 444.392 273.288 443.52 273.22ZM88.0829 56.8675L112.199 36.5211L117.765 67.5542L93.649 87.9005L88.0829 56.8675ZM54.2853 195.206L30.1692 215.552L24.603 184.519L48.7191 164.173L54.2853 195.206ZM108.393 336.14L113.959 367.173L89.8427 387.519L84.5609 358.071C85.3543 357.704 85.8339 356.841 85.6722 355.939C85.6402 355.761 85.5803 355.598 85.5023 355.449L108.393 336.14ZM83.5697 358.249L88.8516 387.697L59.1775 376.999L53.6114 345.966L81.7755 356.117C81.7643 356.283 81.7549 356.458 81.7868 356.636C81.9485 357.538 82.6963 358.17 83.5697 358.249ZM387.039 284.976L362.923 305.322L357.357 274.289L381.473 253.943L387.039 284.976ZM330.974 293.406C330.653 293.556 330.376 293.779 330.183 294.069L302.03 283.926L325.702 263.956L330.984 293.404L330.974 293.406ZM295.711 251.546L290.145 220.513L318.309 230.664C318.298 230.829 318.288 231.005 318.32 231.183C318.482 232.085 319.232 232.727 320.103 232.796L325.385 262.244L295.711 251.546ZM319.43 229.042C319.109 229.191 318.834 229.425 318.638 229.705L290.486 219.562L314.158 199.592L319.44 229.04L319.43 229.042ZM295.37 252.496L325.054 263.193L314.098 272.437L300.938 283.539L271.254 272.843L282.21 263.598L295.37 252.496ZM301.688 284.867L329.852 295.018C329.84 295.184 329.831 295.359 329.863 295.537C329.895 295.716 329.955 295.879 330.033 296.028L307.152 315.335L301.688 284.867ZM344.72 209.538L321.404 229.209C321.123 229.014 320.784 228.891 320.431 228.862L315.046 198.839L339.162 178.493L344.73 209.536L344.72 209.538ZM197.333 184.517L192.052 155.068L221.736 165.765L227.302 196.798L199.137 186.647C199.149 186.481 199.158 186.306 199.126 186.127C198.955 185.228 198.205 184.585 197.333 184.517ZM198.005 188.261C198.326 188.111 198.601 187.878 198.796 187.597L226.949 197.741L203.287 217.709L198.005 188.261ZM222.077 164.814L192.393 154.118L204.22 144.144L216.51 133.781L246.194 144.478L222.077 164.814ZM186.176 122.312L210.292 101.965L215.859 132.998L191.742 153.345L186.176 122.312ZM143.855 46.8641L167.972 26.5177L173.538 57.5508L149.422 77.8971L143.855 46.8641ZM154.306 110.831L146.416 117.492L130.19 131.178L124.623 100.145L148.74 79.7984L154.306 110.831ZM134.979 163.526L120.138 158.183L105.297 152.839L99.7304 121.806L114.571 127.15L129.413 132.493L134.979 163.526ZM93.9582 89.624L123.642 100.321L129.208 131.354L114.367 126.01L99.5261 120.667L93.9582 89.624ZM67.4824 108.165C67.1614 108.314 66.8843 108.538 66.6909 108.828L37.9913 98.4866L32.4252 67.4535L62.1091 78.1502L67.4923 108.163L67.4824 108.165ZM50.553 13.7779L56.1192 44.8109L26.4352 34.1143L21.0503 4.09154C21.3713 3.94195 21.6483 3.71844 21.8418 3.42814L50.553 13.7779ZM26.0941 35.0649L55.7782 45.7616L32.1061 65.7318L31.662 66.1079L31.115 65.9095L1.97806 55.4113L26.0941 35.0649ZM7.30621 87.9695L31.4223 67.6231L36.9884 98.6562L12.8723 119.003L7.30621 87.9695ZM13.1797 120.716L42.8637 131.413L48.4298 162.446L18.7458 151.749L13.1797 120.716ZM43.2065 130.472L13.5225 119.775L24.4785 110.531L37.6386 99.4291L66.3481 109.769C66.3368 109.935 66.3274 110.11 66.3594 110.288C66.3914 110.467 66.4513 110.63 66.5293 110.779L43.2065 130.472ZM69.1451 111.731C69.4661 111.582 69.7432 111.358 69.9366 111.068L98.6362 121.409L104.202 152.443L74.5183 141.746L69.1352 111.733L69.1451 111.731ZM80.4035 174.501L104.52 154.154L110.086 185.187L85.9696 205.534L80.4035 174.501ZM61.4738 229.353C62.2673 228.985 62.7468 228.122 62.5851 227.221C62.5531 227.043 62.4932 226.88 62.4152 226.73L85.2957 207.423L90.8618 238.456L66.7458 258.803L61.4639 229.354L61.4738 229.353ZM96.6457 270.647L72.5296 290.993L66.9635 259.96L91.0796 239.614L96.6457 270.647ZM77.3705 323.915L53.2544 344.261L47.6883 313.228L71.8044 292.881L77.3705 323.915ZM72.734 292.132L96.8501 271.786L102.416 302.819L78.3001 323.165L72.734 292.132ZM122.714 249.95L146.031 230.279C146.311 230.474 146.651 230.597 147.004 230.626L152.389 260.649L128.272 280.995L122.705 249.952L122.714 249.95ZM127.615 282.861L133.081 313.339L103.397 302.643L97.8313 271.61L127.482 282.292L127.587 282.876L127.615 282.861ZM140.751 195.708L111.067 185.011L105.501 153.978L120.342 159.322L135.183 164.665L140.751 195.708ZM135.972 163.358L130.404 132.315L144.187 120.693L154.522 111.979L159.804 141.427C159.01 141.794 158.531 142.657 158.692 143.559C158.724 143.737 158.784 143.9 158.862 144.05L135.972 163.358ZM166.841 175.018L161.456 144.995C161.777 144.846 162.054 144.622 162.248 144.332L190.947 154.673L196.332 184.696C196.011 184.846 195.734 185.069 195.541 185.359L166.841 175.018ZM172.715 207.765L196.031 188.093C196.312 188.288 196.651 188.412 197.004 188.44L202.389 218.463L201.945 218.839L178.273 238.809L172.705 207.766L172.715 207.765ZM184.259 272.129L208.375 251.782L213.941 282.815L189.825 303.162L184.259 272.129ZM208.171 250.643L184.055 270.99L178.489 239.957L202.605 219.61L208.171 250.643ZM164.78 324.258L159.434 294.453C160.227 294.086 160.707 293.223 160.545 292.321C160.534 292.262 160.514 292.204 160.493 292.146L183.321 272.89L188.888 303.923L164.78 324.258ZM225.341 346.602L195.657 335.906L190.091 304.873L219.775 315.569L225.341 346.602ZM244.434 292.314C244.113 292.464 243.835 292.687 243.642 292.977L214.942 282.636L209.376 251.603L239.06 262.3L244.443 292.312L244.434 292.314ZM209.162 250.466L203.596 219.432L233.28 230.129L238.846 261.162L209.162 250.466ZM233.619 229.169L203.935 218.472L228.041 198.127L228.588 198.326L257.725 208.824L233.619 229.169ZM283.826 188.132L313.51 198.829L289.838 218.799L289.393 219.175L288.846 218.977L259.709 208.478L283.826 188.132ZM265.036 241.027L289.152 220.68L294.718 251.713L270.602 272.06L265.036 241.027ZM281.258 337.176L257.142 357.523L251.576 326.489L275.692 306.143L281.258 337.176ZM276.477 304.816L270.911 273.783L300.595 284.48L306.161 315.513L276.477 304.816ZM307.803 316.108L330.675 296.813C330.955 297.008 331.295 297.131 331.648 297.16L336.93 326.608L307.803 316.108ZM331.965 293.228L326.684 263.78L356.368 274.477L361.934 305.51L333.77 295.358C333.781 295.193 333.79 295.017 333.758 294.839C333.597 293.937 332.837 293.297 331.965 293.228ZM368.695 337.504L363.131 306.481L387.247 286.135L392.813 317.168L368.695 337.504ZM417.809 296.081L393.693 316.427L388.127 285.394L412.243 265.048L417.809 296.081ZM413.028 263.721L407.462 232.688L437.146 243.384L442.531 273.407C442.21 273.557 441.933 273.78 441.739 274.071L413.028 263.721Z" fill="url(#paint0_linear_105_3)"/>
    <defs>
        <linearGradient id="paint0_linear_105_3" x1="209.173" y1="453.741" x2="584.56" y2="-368.661" gradientUnits="userSpaceOnUse">
            <stop stop-color="#2d6aa4"/>
            <stop offset="0.1074" stop-color="#3DCFDA"/>
            <stop offset="0.3674" stop-color="#61D9E2"/>
            <stop offset="0.5713" stop-color="#90E8EE"/>
            <stop offset="0.7773" stop-color="#ABF2F8"/>
            <stop offset="0.976" stop-color="#DAF6F9"/>
        </linearGradient>
    </defs>
</svg>