<svg width="554" height="500" viewBox="0 0 554 500" fill="none" xmlns="http://www.w3.org/2000/svg">
    <path opacity="0.3" d="M2.50193 127.653L7.67566 166.894L47.5348 183.378L41.9959 141.367L73.8709 116.912L79.3126 158.186L112.95 132.387L150.757 148.017L155.834 186.521C154.803 186.941 154.142 188.011 154.294 189.167C154.324 189.396 154.391 189.606 154.481 189.801L123.358 213.679L123.064 213.899L128.698 256.634L162.323 230.836L200.815 246.763L233.866 221.417L271.674 237.059L277.019 277.596L243.381 303.395L282.556 319.594L288.095 361.605L322.025 335.574L322.32 335.354L316.975 294.817L352.198 309.391C352.174 309.601 352.152 309.824 352.182 310.053C352.335 311.209 353.25 312.07 354.355 312.209L364.873 391.987L332.117 417.114L331.822 417.334L337.456 460.069L371.387 434.037L371.681 433.818L366.24 392.544L398.702 367.637L435.826 382.994L403.656 407.669L403.362 407.889L408.996 450.624L442.927 424.592L443.221 424.373L432.435 342.562L467.658 357.136C467.634 357.346 467.612 357.569 467.642 357.798C467.794 358.954 468.71 359.815 469.814 359.954L474.988 399.195L512.756 414.83L480.881 439.285L480.197 439L480.294 439.737L479.707 440.189L480.392 440.474L485.833 481.748L522.423 496.879C522.399 497.089 522.377 497.312 522.407 497.54C522.588 498.912 523.854 499.883 525.227 499.702C526.599 499.521 527.571 498.255 527.39 496.883C527.237 495.727 526.322 494.866 525.217 494.727L520.141 456.222L553.779 430.424L515.288 414.509L547.457 389.834L547.752 389.615L542.31 348.341L542.897 347.889L542.213 347.604L536.771 306.33L498.99 290.697L531.17 266.008L531.465 265.788L525.83 223.053L491.9 249.085L491.605 249.304L496.952 289.854L496.925 289.845L502.463 331.855L471.645 355.499C471.3 355.234 470.876 355.058 470.429 355L465.255 315.759L427.448 300.129L459.603 275.443L459.898 275.224L454.454 233.937L485.249 210.31C485.766 210.707 486.426 210.904 487.113 210.813C488.485 210.632 489.457 209.367 489.276 207.995C489.123 206.839 488.208 205.977 487.103 205.839L476.592 126.111L509.407 100.938L509.701 100.718L504.067 57.9832L504.021 58.0281L498.671 17.4529L460.181 1.53847L460.083 0.801641L459.496 1.25386L458.812 0.969237L458.909 1.70607L426.153 26.833L425.859 27.0528L431.493 69.7876L463.485 45.2396C464.003 45.6366 464.663 45.8339 465.349 45.7434C466.048 45.6512 466.634 45.2896 467.019 44.7736L502.269 59.3576L470.957 83.3765L470.952 83.3383L437.315 109.137L398.14 92.9382L403.68 134.962L370.96 160.071L370.666 160.291L375.84 199.532C374.809 199.952 374.148 201.022 374.3 202.178C374.481 203.55 375.747 204.52 377.12 204.339C378.493 204.158 379.464 202.893 379.283 201.521C379.253 201.292 379.187 201.081 379.096 200.886L410.22 177.008L410.514 176.789L405.171 136.264L442.254 151.602L453.042 233.425L420.614 258.302L381.44 242.103L386.977 284.101L356.159 307.745C355.813 307.48 355.389 307.303 354.942 307.246L349.768 268.005L313.178 252.874C313.202 252.664 313.225 252.441 313.195 252.212C313.164 251.984 313.098 251.773 313.007 251.578L344.131 227.7L344.425 227.48L333.549 144.983L364.178 121.481C364.72 122.056 365.512 122.378 366.351 122.267C367.724 122.086 368.695 120.821 368.514 119.449C368.362 118.293 367.447 117.431 366.342 117.293L361.011 76.8572L327.96 102.204L322.615 61.6669L282.756 45.1833L288.391 87.9181L326.157 103.54L294.271 128.01L258.366 113.163C258.39 112.953 258.412 112.73 258.382 112.502C258.201 111.13 256.935 110.159 255.562 110.34C254.189 110.521 253.218 111.787 253.399 113.159C253.551 114.315 254.467 115.176 255.571 115.315L266.088 195.081L233.626 219.988L196.502 204.63L228.671 179.955L228.966 179.735L223.524 138.462L224.111 138.009L223.427 137.725L218.082 97.1878L250.839 72.0608L251.133 71.841L245.499 29.1063L211.568 55.1377L211.274 55.3575L216.618 95.8945L179.494 80.5366L179.397 79.7997L178.81 80.252L139.635 64.053L144.904 104.018C144.487 104.19 144.123 104.47 143.858 104.815L107.965 89.9672L102.428 47.9692L69.3776 73.316L69.3759 73.3033L35.4455 99.3346L35.1511 99.5544L40.4957 140.091L5.27245 125.517C5.2965 125.307 5.31888 125.084 5.28873 124.856C5.10785 123.484 3.84184 122.513 2.46897 122.694C1.09611 122.875 0.124854 124.141 0.305741 125.513C0.481905 126.652 1.3973 127.514 2.50193 127.653ZM441.816 423.821L409.941 448.276L404.694 408.476L436.569 384.021L441.816 423.821ZM492.972 249.861L524.847 225.406L530.095 265.206L498.219 289.661L492.972 249.861ZM432.473 67.4095L427.225 27.6093L459.1 3.15435L464.08 40.922C463.049 41.3422 462.388 42.4115 462.54 43.5676C462.571 43.7962 462.637 44.0071 462.727 44.202L432.473 67.4095ZM465.351 40.7544L460.371 2.98675L497.483 18.3463L502.73 58.1465L467.507 43.5719C467.531 43.3619 467.554 43.1393 467.523 42.9106C467.371 41.7546 466.457 40.9058 465.351 40.7544ZM75.0356 116.035L106.911 91.5797L112.158 131.38L80.2831 155.835L75.0356 116.035ZM146.843 108.622C147.261 108.451 147.626 108.183 147.889 107.825L183.098 122.389L151.81 146.392L146.831 108.624L146.843 108.622ZM189.224 163.947L194.471 203.747L159.248 189.173C159.272 188.963 159.295 188.74 159.265 188.512C159.112 187.356 158.197 186.494 157.092 186.355L152.113 148.588L189.224 163.947ZM157.727 191.17C158.144 190.999 158.508 190.718 158.773 190.373L193.982 204.936L162.694 228.939L157.714 191.172L157.727 191.17ZM189.714 162.758L152.59 147.4L167.071 136.289L184.465 122.945L221.589 138.303L207.108 149.415L189.714 162.758ZM183.59 121.213L148.367 106.638C148.391 106.428 148.413 106.205 148.383 105.977C148.353 105.748 148.286 105.537 148.196 105.342L178.438 82.1364L183.59 121.213ZM124.408 214.484L155.226 190.841C155.572 191.105 155.996 191.282 156.443 191.339L161.52 229.844L129.645 254.299L124.395 214.486L124.408 214.484ZM310.395 255.011L315.374 292.779L278.25 277.421L273.003 237.621L308.226 252.195C308.202 252.405 308.18 252.628 308.21 252.857C308.375 254.011 309.29 254.873 310.395 255.011ZM309.762 250.209C309.345 250.381 308.981 250.661 308.716 251.006L273.507 236.443L304.783 212.442L309.762 250.209ZM277.76 278.61L314.885 293.968L299.252 305.955L283.008 318.41L245.884 303.052L277.76 278.61ZM320.913 334.79L289.038 359.245L283.791 319.444L315.666 294.989L320.913 334.79ZM370.288 433.252L338.412 457.707L333.165 417.907L365.04 393.451L370.288 433.252ZM360.772 351.273L371.201 343.268L392.647 326.818L397.895 366.618L366.02 391.073L360.772 351.273ZM388.466 285.391L407.027 293.064L425.588 300.736L430.836 340.537L412.275 332.864L393.713 325.191L388.466 285.391ZM436.278 381.81L399.153 366.453L393.906 326.652L412.467 334.325L431.028 341.997L436.278 381.81ZM471.047 359.791C471.464 359.62 471.83 359.352 472.093 358.994L507.986 373.842L513.234 413.643L476.109 398.285L471.035 359.793L471.047 359.791ZM487.007 480.843L481.76 441.043L518.884 456.401L523.961 494.906C523.543 495.077 523.178 495.345 522.915 495.703L487.007 480.843ZM519.374 455.212L482.25 439.854L513.538 415.851L514.125 415.399L514.809 415.684L551.249 430.757L519.374 455.212ZM546.394 389.031L514.519 413.486L509.272 373.686L541.147 349.231L546.394 389.031ZM540.857 347.033L503.733 331.675L498.485 291.875L535.61 307.233L540.857 347.033ZM503.241 332.851L540.366 348.209L525.884 359.321L508.49 372.664L472.585 357.818C472.609 357.608 472.631 357.385 472.601 357.157C472.571 356.928 472.504 356.717 472.414 356.522L503.241 332.851ZM469.143 355.157C468.726 355.328 468.36 355.596 468.097 355.954L432.204 341.106L426.957 301.306L464.081 316.663L469.156 355.155L469.143 355.157ZM458.529 274.654L426.654 299.109L421.407 259.309L453.282 234.854L458.529 274.654ZM485.845 206.005C484.814 206.425 484.153 207.494 484.306 208.65C484.336 208.879 484.402 209.09 484.493 209.285L454.251 232.491L449.003 192.69L480.878 168.235L485.858 206.003L485.845 206.005ZM443.547 151.405L475.422 126.95L480.669 166.751L448.794 191.206L443.547 151.405ZM471.209 84.7909L503.084 60.3359L508.331 100.136L476.456 124.591L471.209 84.7909ZM475.229 125.49L443.354 149.945L438.107 110.144L469.982 85.6893L475.229 125.49ZM409.168 176.191L378.35 199.834C378.004 199.57 377.58 199.393 377.133 199.336L372.056 160.831L403.931 136.376L409.18 176.189L409.168 176.191ZM404.878 134.041L399.724 94.9523L436.849 110.31L442.096 150.11L405.013 134.773L404.914 134.023L404.878 134.041ZM383.024 244.117L420.148 259.475L425.396 299.275L406.835 291.603L388.273 283.93L383.024 244.117ZM387.193 285.546L392.442 325.359L374.225 339.328L360.565 349.801L355.586 312.034C356.617 311.613 357.278 310.544 357.125 309.388C357.095 309.159 357.029 308.948 356.938 308.753L387.193 285.546ZM348.618 268.893L353.694 307.398C353.277 307.569 352.912 307.837 352.649 308.195L316.756 293.346L311.679 254.842C312.096 254.671 312.462 254.403 312.725 254.045L348.618 268.893ZM343.081 226.895L312.263 250.539C311.917 250.274 311.493 250.097 311.046 250.04L305.969 211.536L306.556 211.083L337.844 187.08L343.093 226.893L343.081 226.895ZM332.197 144.347L300.322 168.802L295.075 129.002L326.95 104.547L332.197 144.347ZM300.515 170.263L332.39 145.808L337.637 185.609L305.762 210.064L300.515 170.263ZM360.051 79.1938L365.091 117.419C364.06 117.839 363.399 118.908 363.552 120.064C363.562 120.141 363.585 120.215 363.607 120.29L333.435 143.435L328.187 103.634L360.051 79.1938ZM284.341 47.1973L321.465 62.5553L326.713 102.355L289.588 86.9976L284.341 47.1973ZM256.852 115.12C257.269 114.949 257.635 114.681 257.898 114.323L293.791 129.172L299.038 168.972L261.914 153.614L256.839 115.122L256.852 115.12ZM299.244 170.431L304.491 210.231L267.367 194.873L262.12 155.073L299.244 170.431ZM266.879 196.075L304.003 211.433L272.141 235.886L271.456 235.602L235.016 220.528L266.879 196.075ZM200.597 245.306L163.473 229.948L194.761 205.945L195.348 205.493L196.032 205.778L232.472 220.851L200.597 245.306ZM227.619 179.137L195.744 203.593L190.497 163.792L222.372 139.337L227.619 179.137ZM212.663 55.8852L244.538 31.4302L249.785 71.2304L217.91 95.6854L212.663 55.8852ZM216.833 97.3266L222.081 137.127L184.956 121.769L179.709 81.9688L216.833 97.3266ZM177.656 81.1149L147.425 104.306C147.08 104.042 146.656 103.865 146.209 103.808L141.229 66.0399L177.656 81.1149ZM145.572 108.79L150.552 146.558L113.428 131.2L108.18 91.3994L143.403 105.974C143.379 106.184 143.357 106.407 143.387 106.635C143.54 107.791 144.468 108.651 145.572 108.79ZM101.469 50.3059L106.715 90.0933L74.8397 114.548L69.5922 74.7481L101.469 50.3059ZM36.5542 100.093L68.4292 75.6382L73.6766 115.438L41.8016 139.893L36.5542 100.093ZM40.7247 141.535L45.9722 181.335L8.84802 165.977L3.77144 127.473C4.18857 127.301 4.5542 127.033 4.81741 126.675L40.7247 141.535Z" fill="url(#paint0_linear_105_2)"/>
    <defs>
        <linearGradient id="paint0_linear_105_2" x1="311.231" y1="-88.1199" x2="-214.787" y2="935.747" gradientUnits="userSpaceOnUse">
            <stop stop-color="#2d6aa4"/>
            <stop offset="0.1074" stop-color="#3DCFDA"/>
            <stop offset="0.3674" stop-color="#61D9E2"/>
            <stop offset="0.5713" stop-color="#90E8EE"/>
            <stop offset="0.7773" stop-color="#ABF2F8"/>
            <stop offset="0.976" stop-color="#DAF6F9"/>
        </linearGradient>
    </defs>
</svg>