<svg width="865" height="650" viewBox="0 0 865 650" fill="none" xmlns="http://www.w3.org/2000/svg">
    <path d="M864.935 522.756L821.908 497.932L863.788 473.765L864.17 473.551V423.873L864.935 423.429L864.17 422.986V373.323L821.939 348.942L863.834 324.76L864.216 324.546V273.125L820.043 298.622L819.661 298.836V347.628L819.63 347.612V398.162L779.509 421.32C779.142 420.953 778.668 420.678 778.148 420.54V323.675L735.121 298.851V249.188L694.22 225.586C694.296 225.327 694.342 225.067 694.342 224.792C694.342 224.516 694.296 224.257 694.22 224.012L734.739 200.625L735.121 200.411V151.649L776.573 175.572V275.769L818.223 251.725C818.774 252.275 819.523 252.612 820.349 252.612C822 252.612 823.345 251.266 823.345 249.616C823.345 248.225 822.398 247.063 821.113 246.727V150.793L863.819 126.138L864.201 125.924V74.5025L821.113 99.3724V99.3265L777.322 124.594L733.546 99.3265V149.892L690.948 174.486L690.566 174.7V221.918C689.281 222.254 688.333 223.416 688.333 224.807C688.333 226.198 689.281 227.36 690.566 227.696V274.913L733.592 299.737V348.514L692.095 372.467V323.69L649.068 298.866V297.98L648.304 298.423L647.539 297.98V298.866L604.895 323.446L604.512 323.66V375.081L646.163 351.036C646.713 351.587 647.463 351.923 648.288 351.923C649.114 351.923 649.878 351.587 650.414 351.036L690.535 374.194V474.407L734.326 449.14L776.588 473.521L818.85 497.917L777.353 521.869L776.588 521.426V522.313L775.824 522.756L776.588 523.199V572.862L819.615 597.686V644.017C818.33 644.354 817.382 645.515 817.382 646.906C817.382 648.557 818.728 649.902 820.379 649.902C822.031 649.902 823.376 648.557 823.376 646.906C823.376 646.631 823.33 646.371 823.254 646.127L863.773 622.74L864.155 622.526V571.104L821.129 595.929V548.038L864.935 522.756ZM821.174 299.722L862.672 275.769V323.66L821.174 347.612V299.722ZM862.641 472.649L821.144 496.602V448.712L862.641 424.759V472.649ZM862.641 422.099L821.144 398.147V350.257L862.641 374.209V422.099ZM820.379 399.477L861.877 423.429L843.024 434.313L820.379 447.382L780.243 424.209C780.304 423.964 780.365 423.704 780.365 423.429C780.365 423.154 780.319 422.894 780.243 422.65L820.379 399.477ZM776.604 374.209V420.525C776.084 420.663 775.61 420.938 775.243 421.305L755.87 410.115L735.121 398.147V350.257L755.87 362.225L776.604 374.209ZM778.087 175.572L819.584 151.619V199.509L778.087 223.462V175.572ZM778.087 273.125V225.235L819.584 201.282V246.727C818.3 247.063 817.352 248.225 817.352 249.616C817.352 249.891 817.398 250.151 817.474 250.395L778.087 273.125ZM821.174 101.1L862.672 77.147V125.037L821.174 148.99V101.1ZM819.584 149.861L778.087 173.814V125.924L819.584 101.971V149.861ZM735.075 101.971L776.573 125.924V173.814L735.121 149.892V148.99L735.091 149.005V101.971H735.075ZM733.577 151.634V199.524L693.455 222.682C693.088 222.315 692.614 222.04 692.095 221.903V175.572L733.577 151.634ZM692.079 274.012V227.681C692.599 227.543 693.073 227.283 693.44 226.901L733.577 250.074V297.964L692.079 274.012ZM776.604 324.561V372.452L755.855 360.483L735.106 348.514V300.624L776.604 324.561ZM606.042 372.436V324.546L647.539 300.593V346.038C646.255 346.374 645.307 347.536 645.307 348.927C645.307 349.202 645.353 349.462 645.429 349.706L606.042 372.436ZM649.068 346.053V300.609L690.566 324.561V372.452L651.193 349.737C651.255 349.492 651.316 349.233 651.316 348.957C651.301 347.551 650.352 346.389 649.068 346.053ZM692.079 374.209L733.577 350.257V398.147L692.079 422.099V374.209ZM692.079 423.873L733.577 399.92V447.81L692.079 471.763V423.873ZM735.106 447.81V399.92L755.855 411.889L774.478 422.634C774.417 422.879 774.356 423.139 774.356 423.414C774.356 424.805 775.304 425.967 776.588 426.303V471.747L735.106 447.81ZM778.133 426.318C778.652 426.181 779.126 425.921 779.493 425.539L819.615 448.697V496.587L778.117 472.634V426.318H778.133ZM819.615 499.246L820.379 498.803L821.144 499.246L861.877 522.756L820.379 546.709L778.882 522.756L819.615 499.246ZM778.133 524.07L819.63 548.023V595.913L778.133 571.961V524.07ZM862.641 573.734V621.624L822.52 644.782C822.153 644.415 821.679 644.14 821.159 644.002V597.671L862.641 573.734ZM608.289 274.455C608.289 274.18 608.243 273.92 608.167 273.675L648.686 250.288L649.068 250.074V150.793L688.945 127.773C689.495 128.537 690.382 129.042 691.391 129.042C693.043 129.042 694.388 127.697 694.388 126.046C694.388 124.655 693.44 123.493 692.156 123.157V74.5025L649.129 99.3265V50.5498L604.589 24.8393V76.2604L646.805 100.626L605.277 124.594L565.14 101.421C565.201 101.176 565.263 100.916 565.263 100.641C565.263 98.9902 563.917 97.6451 562.266 97.6451C560.614 97.6451 559.269 98.9902 559.269 100.641C559.269 102.032 560.217 103.194 561.501 103.53V148.974V199.524L519.239 223.92L477.742 199.968L519.621 175.801L520.004 175.587V125.908L520.768 125.465L520.004 125.022V76.2451L562.648 51.6351L563.03 51.4211V0L518.857 25.4966L518.475 25.7106V74.4872L476.977 50.5345V49.648L476.213 50.0913L432.421 24.824V72.9128C431.902 73.0504 431.428 73.3255 431.061 73.6924L390.939 50.5345V0L347.913 24.824V24.8087L303.739 50.3053L303.357 50.5193V99.2959L261.86 75.3432V74.4567L261.095 74.9L260.331 74.4567V75.3432L218.099 99.7545L174.308 74.4872V125.022L132.81 148.974V100.198L88.2549 74.4872L45.2284 49.6633V100.213L5.12219 123.356C4.57175 122.805 3.82253 122.469 2.99686 122.469C1.34552 122.469 0 123.814 0 125.465C0 127.116 1.34552 128.461 2.99686 128.461C3.83782 128.461 4.58704 128.125 5.12219 127.574L45.2436 150.732V201.282L89.417 175.786L89.7992 175.572V126.795L131.297 150.748V201.282L172.947 177.238C173.314 177.605 173.788 177.88 174.308 178.017V225.235L218.864 250.945V201.282L261.89 226.106V174.685L219.628 150.304L261.11 126.367L304.901 151.634V101.084L346.399 77.1317V174.685L303.755 199.295L303.372 199.509V250.93L345.023 226.886C345.573 227.436 346.322 227.772 347.148 227.772C348.8 227.772 350.145 226.427 350.145 224.776C350.145 223.385 349.197 222.224 347.913 221.887V175.572L390.557 150.962L390.939 150.748V101.971L432.437 125.924V172.255C431.152 172.591 430.204 173.753 430.204 175.144C430.204 175.419 430.25 175.679 430.327 175.923L389.808 199.31L389.426 199.524V250.945L433.217 225.678L476.243 250.502L519.27 225.678L562.296 250.502L604.558 226.106V271.551C603.274 271.887 602.326 273.049 602.326 274.44C602.326 276.09 603.672 277.436 605.323 277.436C606.944 277.451 608.289 276.106 608.289 274.455ZM647.539 249.172L607.418 272.33C607.051 271.963 606.577 271.688 606.057 271.551V225.235L606.821 224.792L647.554 201.282V249.172H647.539ZM563.03 151.619L604.528 175.572V223.462L563.03 199.509V151.619ZM606.042 175.572L647.539 151.619V199.509L606.042 223.462V175.572ZM647.539 149.861L606.042 173.814V125.924L647.539 101.971V149.861ZM690.627 77.147V123.142C689.342 123.478 688.394 124.64 688.394 126.031C688.394 126.122 688.41 126.214 688.425 126.306L649.145 148.974V101.1L690.627 77.147ZM606.118 27.4837L647.615 51.4364V99.3265L606.118 75.3891V27.4837ZM563.03 103.53C563.55 103.393 564.024 103.133 564.391 102.751L604.512 125.908V173.798L563.015 149.846V103.53H563.03ZM476.228 149.418L434.73 125.465L453.583 114.582L476.228 101.512L517.725 125.465L498.873 136.348L476.228 149.418ZM433.966 78.7061C434.486 78.5685 434.96 78.3087 435.327 77.9265L474.684 100.641L433.966 124.15V78.7061ZM475.448 99.3112L436.091 76.5967C436.152 76.3521 436.213 76.0922 436.213 75.8171C436.213 75.542 436.168 75.2821 436.091 75.0375L475.463 52.3077V99.3112H475.448ZM475.448 150.748V198.638L436.091 175.908C436.152 175.663 436.213 175.403 436.213 175.128C436.213 173.737 435.265 172.576 433.981 172.239V126.795L475.448 150.748ZM433.966 178.017C434.486 177.88 434.96 177.605 435.327 177.238L474.684 199.952L433.95 223.462V178.017H433.966ZM518.475 174.685L476.977 198.638V150.748L518.475 126.795V174.685ZM520.004 26.5971L561.501 2.64442V50.5345L520.004 74.4872V26.5971ZM518.475 76.2451V124.15L476.977 100.198V52.3077L518.475 76.2451ZM474.684 50.9778L435.327 73.6924C434.96 73.3255 434.486 73.0504 433.966 72.9128V27.4684L474.684 50.9778ZM389.41 2.65971V50.5498L347.913 74.5025V26.6277L389.41 2.65971ZM260.346 77.1317V125.022L218.848 148.974V101.084L260.346 77.1317ZM175.837 77.1317L217.335 101.084V148.974L196.586 137.006L175.837 125.037V77.1317ZM217.335 198.638L196.586 186.669L177.962 175.923C178.024 175.679 178.085 175.419 178.085 175.144C178.085 173.753 177.137 172.591 175.852 172.255V126.795L196.601 138.764L217.35 150.732V198.638H217.335ZM131.297 148.974L89.7992 125.022V77.1317L131.297 101.084V148.974ZM46.7879 52.2924L88.2855 76.2451V124.15L46.7879 100.198V52.2924ZM5.88672 124.686L46.0234 101.528L87.521 125.48L68.6682 136.364L46.0234 149.433L5.88672 126.275C5.94788 126.031 6.00903 125.771 6.00903 125.496C5.99374 125.19 5.94788 124.93 5.88672 124.686ZM88.2702 174.685L46.7726 198.638V150.748L88.2702 126.795V174.685ZM132.826 198.638V150.732L174.323 126.78V172.224C173.039 172.56 172.091 173.722 172.091 175.113C172.091 175.388 172.137 175.648 172.213 175.893L132.826 198.638ZM217.335 248.286L175.837 224.333V178.017C176.357 177.88 176.831 177.62 177.198 177.238L196.57 188.427L217.319 200.396V248.286H217.335ZM260.346 223.462L218.848 199.509V151.619L260.346 175.572V223.462ZM303.372 148.974L261.875 125.022V77.1317L303.372 101.084V148.974ZM304.901 99.3112V51.4211L346.399 27.4684V75.3585L304.901 99.3112ZM389.41 52.323V100.198L347.928 124.15V76.2757L389.41 52.323ZM304.901 248.301V200.411L346.399 176.458V221.903C345.115 222.239 344.167 223.401 344.167 224.792C344.167 225.067 344.212 225.327 344.289 225.571L304.901 248.301ZM389.41 149.861L347.913 173.814V125.908L389.41 101.956V149.861ZM390.939 52.3077L430.311 75.0222C430.25 75.2668 430.189 75.5267 430.189 75.8018C430.189 77.1928 431.137 78.3545 432.421 78.6908V124.15L390.939 100.198V52.3077ZM390.939 200.411L431.061 177.253C431.428 177.62 431.902 177.895 432.421 178.033V224.364L390.924 248.316V200.411H390.939ZM476.213 248.744L434.715 224.792L475.448 201.282L476.213 200.839L476.977 201.282L517.71 224.792L476.213 248.744ZM520.768 224.792L562.266 200.839L603.763 224.792L562.266 248.744L520.768 224.792Z" fill="url(#paint0_linear_6_2)"/>
    <defs>
        <linearGradient id="paint0_linear_6_2" x1="-93.7707" y1="1040.81" x2="688.102" y2="-87.8391" gradientUnits="userSpaceOnUse">
            <stop stop-color="#D2D2D1"/>
            <stop offset="0.1074" stop-color="#DADADA"/>
            <stop offset="0.3674" stop-color="#EAEAEA"/>
            <stop offset="0.5713" stop-color="#F0F0F0"/>
            <stop offset="0.7773" stop-color="#F4F4F4"/>
            <stop offset="0.976" stop-color="white"/>
        </linearGradient>
    </defs>
</svg>