<svg width="355" height="351" viewBox="0 0 355 351" fill="none" xmlns="http://www.w3.org/2000/svg">
    <path opacity="0.3" d="M1.32382 46.0092V73.6219L27.3889 88.6573V59.096L51.665 45.0885V74.1314L77.2828 59.3552L102.006 73.6129V100.707C101.255 100.904 100.7 101.583 100.7 102.397C100.7 102.558 100.727 102.709 100.772 102.853L77.0681 116.529L76.8445 116.654V146.725L102.453 131.949L127.624 146.475L152.795 131.958L177.518 146.225V174.749L151.9 189.525L177.518 204.302V233.863L203.359 218.953L203.583 218.827V190.303L226.616 203.595C226.58 203.738 226.544 203.89 226.544 204.051C226.544 204.865 227.099 205.544 227.85 205.741V261.878L202.903 276.27L202.68 276.395V306.466L228.521 291.555L228.745 291.43V262.387L253.468 248.121L277.744 262.128L253.244 276.261L253.021 276.386V306.457L278.862 291.547L279.086 291.421V233.854L302.119 247.146C302.083 247.289 302.047 247.441 302.047 247.602C302.047 248.416 302.602 249.095 303.353 249.292V276.904L328.049 291.162L303.773 305.17L303.326 304.91V305.429L302.879 305.688L303.326 305.947V334.99L327.253 348.792C327.218 348.935 327.182 349.087 327.182 349.248C327.182 350.213 327.969 351 328.935 351C329.901 351 330.688 350.213 330.688 349.248C330.688 348.435 330.134 347.755 329.382 347.558V320.464L355 305.688L329.829 291.171L354.329 277.038L354.553 276.913V247.87L355 247.611L354.553 247.352V218.309L329.847 204.051L354.356 189.91L354.58 189.785V159.714L328.738 174.624L328.515 174.749V203.283L328.497 203.274V232.835L305.026 246.378C304.811 246.163 304.534 246.002 304.229 245.922V218.309L279.506 204.051L303.997 189.91L304.221 189.785V160.733L327.674 147.199C327.996 147.521 328.434 147.717 328.917 147.717C329.883 147.717 330.67 146.931 330.67 145.965C330.67 145.152 330.116 144.473 329.364 144.276V88.1746L354.356 73.756L354.58 73.6308V43.5599L354.544 43.5867V15.0355L329.373 0.51849V7.09486e-06L328.926 0.259249L328.479 7.09486e-06V0.51849L303.532 14.9103L303.308 15.0355V45.1064L327.674 31.0453C327.996 31.3671 328.434 31.5637 328.917 31.5637C329.409 31.5637 329.847 31.3671 330.16 31.0453L353.211 44.3466L329.364 58.1037V58.0769L303.746 72.8531L278.129 58.0769V87.6472L253.209 102.03L252.985 102.155V129.768C252.234 129.965 251.679 130.644 251.679 131.457C251.679 132.423 252.466 133.209 253.432 133.209C254.398 133.209 255.185 132.423 255.185 131.457C255.185 131.297 255.158 131.145 255.114 131.002L278.817 117.325L279.041 117.2V88.6841L303.29 102.674V160.25L278.594 174.499L252.976 159.723V189.275L229.505 202.818C229.29 202.603 229.013 202.442 228.709 202.362V174.749L204.782 160.947C204.817 160.804 204.853 160.652 204.853 160.491C204.853 160.33 204.826 160.178 204.782 160.035L228.485 146.359L228.709 146.234V88.1835L252.037 74.7214C252.359 75.1683 252.878 75.4633 253.468 75.4633C254.434 75.4633 255.221 74.6767 255.221 73.7113C255.221 72.8979 254.667 72.2184 253.915 72.0218V43.5689L228.745 58.0858V29.5614L202.68 14.526V44.5969L227.376 58.8457L203.091 72.8621L179.611 59.3194C179.647 59.1764 179.683 59.0244 179.683 58.8635C179.683 57.8981 178.895 57.1115 177.929 57.1115C176.963 57.1115 176.176 57.8981 176.176 58.8635C176.176 59.677 176.731 60.3564 177.482 60.553V116.681L152.759 130.948L128.483 116.94L152.982 102.808L153.206 102.683V73.6398L153.653 73.3805L153.206 73.1213V44.5969L178.153 30.205L178.377 30.0798V0.00896463L152.535 14.9193L152.312 15.0444V43.5689L128.035 29.5614V29.0429L127.588 29.3022L101.97 14.526V42.6482C101.666 42.7286 101.389 42.8895 101.174 43.104L77.7032 29.5614V0.00896463L52.5326 14.526V14.517L26.6912 29.4273L26.4676 29.5524V58.0769L3.4348 44.7846C3.47058 44.6415 3.50636 44.4895 3.50636 44.3286C3.50636 43.3632 2.71922 42.5766 1.75319 42.5766C0.787152 42.5766 1.18179e-05 43.3632 1.18179e-05 44.3286C0.0179014 45.1331 0.572457 45.8125 1.32382 46.0092ZM278.164 290.912L253.888 304.919V276.913L278.164 262.906V290.912ZM329.409 175.259L353.685 161.251V189.257L329.409 203.265V175.259ZM304.203 43.551V15.545L328.479 1.53759V28.1133C327.727 28.31 327.173 28.9893 327.173 29.8027C327.173 29.9636 327.2 30.1156 327.244 30.2586L304.203 43.551ZM329.373 28.1133V1.53759L353.64 15.545V43.551L330.608 30.2586C330.643 30.1156 330.679 29.9636 330.679 29.8027C330.679 28.9893 330.125 28.3189 329.373 28.1133ZM52.5505 44.5879L76.8266 30.5805V58.5864L52.5505 72.5939V44.5879ZM102.892 46.0092C103.196 45.9288 103.473 45.7768 103.688 45.5533L126.712 58.8367L102.883 72.585V46.0092H102.892ZM127.159 88.1388V116.145L104.126 102.853C104.162 102.709 104.198 102.558 104.198 102.397C104.198 101.583 103.643 100.904 102.892 100.707V74.1314L127.159 88.1388ZM102.892 104.095C103.196 104.015 103.473 103.854 103.688 103.639L126.712 116.923L102.883 130.671V104.095H102.892ZM127.606 87.3612L103.33 73.3537L114.359 66.9891L127.606 59.3463L151.882 73.3537L140.853 79.7183L127.606 87.3612ZM127.159 58.068L104.126 44.7756C104.162 44.6326 104.198 44.4807 104.198 44.3198C104.198 44.1589 104.171 44.0069 104.126 43.8639L127.159 30.5715V58.068ZM77.7211 117.182L101.192 103.639C101.407 103.854 101.684 104.015 101.988 104.095V131.189L77.7122 145.197V117.182H77.7211ZM202.662 162.172V188.748L178.386 174.74V146.734L201.418 160.027C201.383 160.17 201.347 160.322 201.347 160.482C201.356 161.296 201.91 161.975 202.662 162.172ZM202.662 158.793C202.358 158.873 202.08 159.034 201.866 159.249L178.842 145.965L202.662 132.217V158.793ZM177.938 175.518L202.214 189.525L190.309 196.391L177.938 203.524L153.662 189.516L177.938 175.518ZM202.662 218.309L178.386 232.317V204.31L202.662 190.303V218.309ZM227.832 290.912L203.556 304.919V276.913L227.832 262.906V290.912ZM228.727 233.344L236.67 228.759L253.003 219.337V247.343L228.727 261.35V233.344ZM253.888 190.303L266.026 197.302L278.164 204.302V232.308L266.026 225.308L253.888 218.309V190.303ZM278.164 261.35L253.888 247.343V219.337L266.026 226.336L278.164 233.336V261.35ZM304.221 249.292C304.525 249.211 304.802 249.059 305.017 248.836L328.488 262.378V290.384L304.212 276.377V249.292H304.221ZM304.221 334.472V306.466L328.497 320.473V347.567C328.193 347.648 327.915 347.8 327.701 348.023L304.221 334.472ZM328.944 319.696L304.668 305.688L328.497 291.94L328.944 291.681L329.391 291.94L353.22 305.688L328.944 319.696ZM353.667 276.386L329.391 290.393V262.387L353.667 248.38V276.386ZM353.667 246.833L329.391 232.826V204.82L353.667 218.827V246.833ZM328.944 233.595L353.22 247.602L342.191 253.967L328.944 261.61L305.464 248.067C305.5 247.924 305.535 247.772 305.535 247.611C305.535 247.45 305.509 247.298 305.464 247.155L328.944 233.595ZM303.326 245.913C303.022 245.993 302.745 246.145 302.53 246.369L279.059 232.826V204.82L303.335 218.827V245.913H303.326ZM303.326 189.266L279.05 203.274V175.268L303.326 161.26V189.266ZM328.479 144.276C327.727 144.473 327.173 145.152 327.173 145.965C327.173 146.126 327.2 146.278 327.244 146.421L304.212 159.714V131.708L328.488 117.7V144.276H328.479ZM304.203 102.656L328.479 88.6484V116.654L304.203 130.662V102.656ZM329.409 59.1049L353.685 45.0975V73.1034L329.409 87.1109V59.1049ZM328.479 87.6204L304.203 101.628V73.6219L328.479 59.6144V87.6204ZM278.164 116.663L254.693 130.206C254.479 129.991 254.201 129.83 253.897 129.75V102.656L278.173 88.6484V116.663H278.164ZM279.041 87.1198V59.6144L303.317 73.6219V101.628L279.068 87.6383V87.1109L279.041 87.1198ZM253.888 161.26L278.164 175.268V203.274L266.026 196.274L253.888 189.275V161.26ZM252.994 190.294V218.309L239.121 226.309L228.718 232.308V205.732C229.469 205.535 230.024 204.856 230.024 204.042C230.024 203.881 229.997 203.729 229.952 203.586L252.994 190.294ZM227.832 175.259V202.353C227.528 202.433 227.251 202.585 227.036 202.809L203.565 189.266V162.172C203.869 162.091 204.146 161.939 204.361 161.716L227.832 175.259ZM227.832 145.706L204.361 159.249C204.146 159.034 203.869 158.873 203.565 158.793V131.699L204.012 131.44L227.841 117.691V145.706H227.832ZM227.832 87.6204L203.556 101.628V73.6219L227.832 59.6144V87.6204ZM203.556 102.656L227.832 88.6484V116.654L203.556 130.662V102.656ZM253.039 45.0975V71.995C252.287 72.1916 251.733 72.871 251.733 73.6844C251.733 73.7381 251.742 73.7917 251.751 73.8453L228.771 87.1019V59.096L253.039 45.0975ZM203.592 16.0635L227.868 30.0709V58.0769L203.592 44.0694V16.0635ZM178.386 60.5351C178.69 60.4547 178.967 60.3028 179.182 60.0793L202.653 73.6219V101.628L178.377 87.6204V60.5351H178.386ZM202.662 102.656V130.662L178.386 116.654V88.6484L202.662 102.656ZM177.938 117.441L202.214 131.448L177.947 145.456L177.5 145.197L153.671 131.448L177.938 117.441ZM127.606 145.447L103.33 131.44L127.159 117.691L127.606 117.432L128.053 117.691L151.882 131.44L127.606 145.447ZM152.329 102.146L128.053 116.154V88.1478L152.329 74.1404V102.146ZM153.224 15.5361L177.5 1.52863V29.5346L153.224 43.5421V15.5361ZM152.329 44.579V72.585L128.053 58.5775V30.5715L152.329 44.579ZM126.712 29.7938L103.688 43.0772C103.473 42.8627 103.196 42.7018 102.892 42.6213V16.0456L126.712 29.7938ZM101.997 46.0092V72.585L77.7211 58.5775V30.5715L100.754 43.8639C100.718 44.0069 100.682 44.1589 100.682 44.3198C100.682 45.1332 101.246 45.8125 101.997 46.0092ZM76.8266 1.53759V29.5346L52.5505 43.5421V15.5361L76.8266 1.53759ZM27.3889 30.0531L51.665 16.0456V44.0515L27.3889 58.0591V30.0531ZM26.4944 59.096V87.1019L2.2183 73.0945V46.0003C2.52242 45.9198 2.79974 45.7679 3.01441 45.5444L26.4944 59.096Z" fill="url(#paint0_linear_7_2)"/>
    <defs>
        <linearGradient id="paint0_linear_7_2" x1="234.53" y1="-75.0754" x2="-222.651" y2="585.106" gradientUnits="userSpaceOnUse">
            <stop stop-color="#2d6aa4"/>
            <stop offset="0.1074" stop-color="#3DCFDA"/>
            <stop offset="0.3674" stop-color="#61D9E2"/>
            <stop offset="0.5713" stop-color="#90E8EE"/>
            <stop offset="0.7773" stop-color="#ABF2F8"/>
            <stop offset="0.976" stop-color="#DAF6F9"/>
        </linearGradient>
    </defs>
</svg>
