<svg width="569" height="445" viewBox="0 0 569 445" fill="none" xmlns="http://www.w3.org/2000/svg">
    <path d="M164.71 277.663C152.183 270.895 140.501 262.67 129.906 253.158C115.902 240.795 104.476 225.79 96.2797 209.004C92.5176 201.131 89.7577 192.816 88.0646 184.256C85.8233 172.953 85.9969 161.304 88.5741 150.074C101.45 96.0938 170.265 71.6772 242.228 95.5179C255.784 100.019 268.79 106.03 281.002 113.438C292.346 120.31 302.879 128.439 312.4 137.671C312.527 137.796 312.689 137.881 312.864 137.914C313.039 137.948 313.219 137.929 313.384 137.859C318.336 135.249 323.149 132.382 327.803 129.27C331.1 127.08 334.271 124.744 337.316 122.261C338.448 121.366 339.538 120.508 340.655 119.524C340.87 119.346 340.866 119.044 340.574 118.778C338.366 116.657 336.093 114.561 333.721 112.504C261.452 48.9563 151.43 33.5819 87.9785 78.1825C74.1511 87.466 62.9238 100.127 55.3607 114.965C47.7977 129.804 44.1495 146.328 44.7621 162.972C45.0038 171.257 46.126 179.493 48.1098 187.541C52.0363 203.034 58.4507 217.787 67.1029 231.226C85.9936 261.202 115.502 287.553 151.015 306.112C164.127 312.962 177.817 318.644 191.926 323.09C192.043 323.127 192.167 323.135 192.287 323.111C192.407 323.088 192.52 323.034 192.614 322.956L193.899 321.528C199.162 315.747 204.87 310.387 210.971 305.5C214.39 302.745 217.973 300.116 221.718 297.614C228.764 292.874 236.149 288.66 243.814 285.004C249.67 282.18 255.669 279.663 261.788 277.463C274.97 272.724 288.569 269.233 302.405 267.037L304.306 266.755C305.983 266.484 307.651 266.235 309.354 266.03L310.699 265.83C332.879 260.773 344.437 243.243 338.877 222.945C338.81 222.777 338.693 222.633 338.542 222.533C338.391 222.432 338.214 222.379 338.033 222.381L337.873 222.311C326.792 225.785 315.514 228.596 304.099 230.727C300.427 231.43 296.763 232.055 293.017 232.617C291.304 232.845 289.591 233.073 287.914 233.345C274.27 235.384 260.806 238.483 247.643 242.612C246.263 243.014 244.919 243.46 243.565 243.928C238.372 245.664 233.298 247.544 228.342 249.567C216.971 254.229 206.021 259.859 195.614 266.397C193.528 267.718 191.455 269.072 189.418 270.469C184.082 274.134 178.937 278.066 174 282.252V282.252C170.888 280.88 167.865 279.246 164.864 277.622" fill="white"/>
    <path d="M404.071 166.65C401.071 165.026 398.04 163.47 394.936 162.019C390.002 166.209 384.856 170.142 379.518 173.803C377.503 175.21 375.545 176.615 373.345 177.885C362.933 184.414 351.984 190.044 340.616 194.715C335.653 196.734 330.675 198.665 325.371 200.343L321.315 201.67C308.148 205.785 294.685 208.883 281.045 210.937C279.354 211.176 277.654 211.437 275.918 211.655C272.191 212.216 268.508 212.842 264.869 213.532C253.448 215.661 242.166 218.479 231.086 221.971C230.906 221.999 230.722 221.975 230.556 221.902C230.39 221.828 230.248 221.709 230.148 221.558C230.09 221.503 230.055 221.429 230.048 221.35C224.501 201.085 236.046 183.521 258.217 178.487L259.562 178.288C261.242 178.072 262.909 177.824 264.609 177.563L266.487 177.27C280.324 175.08 293.924 171.589 307.105 166.844C313.238 164.652 319.252 162.141 325.125 159.324C332.742 155.63 340.088 151.399 347.106 146.663C350.805 144.141 354.388 141.512 357.853 138.778C363.947 133.881 369.654 128.523 374.924 122.749L376.21 121.321C376.298 121.233 376.411 121.173 376.533 121.149C376.656 121.125 376.783 121.138 376.898 121.187C390.999 125.631 404.682 131.309 417.786 138.155C453.322 156.725 482.716 183.025 501.721 213.051C510.358 226.498 516.771 241.249 520.714 256.737C522.687 264.786 523.809 273.021 524.062 281.306C524.432 292.843 522.803 304.357 519.246 315.338C496.72 384.383 402.643 411.486 309.137 376.013C282.05 365.79 257.002 350.82 235.171 331.804C232.822 329.756 230.549 327.661 228.319 325.529C228.095 325.294 228.045 324.971 228.261 324.793C229.357 323.856 230.437 323.02 231.576 322.047C234.626 319.593 237.806 317.279 241.09 315.038C245.742 311.914 250.563 309.05 255.532 306.459C255.691 306.387 255.869 306.368 256.039 306.404C256.21 306.44 256.365 306.529 256.482 306.659C266.018 315.873 276.553 323.993 287.891 330.869C352.436 370.104 432.574 366.176 466.909 322.098C473.321 313.877 477.894 304.374 480.318 294.234C482.918 283.006 483.092 271.352 480.828 260.052C479.136 251.491 476.376 243.177 472.613 235.303C464.403 218.516 452.97 203.51 438.964 191.139C428.339 181.598 416.618 173.355 404.046 166.584" fill="white"/>
</svg>