<svg width="423" height="466" viewBox="0 0 423 466" fill="none" xmlns="http://www.w3.org/2000/svg">
    <path opacity="0.3" d="M104.783 463.853L137.928 459.75L152.102 426.229L116.618 430.621L96.1971 403.563L131.059 399.248L109.515 370.693L122.956 338.898L155.478 334.872C155.826 335.745 156.723 336.309 157.7 336.188C157.893 336.164 158.071 336.11 158.236 336.035L178.176 362.455L178.359 362.705L214.454 358.236L192.912 329.693L206.608 297.321L185.443 269.265L198.894 237.468L233.133 233.23L254.676 261.784L268.606 228.838L304.089 224.445L282.352 195.642L282.168 195.393L247.929 199.631L260.462 170.009C260.639 170.031 260.827 170.051 261.02 170.027C261.996 169.906 262.729 169.14 262.854 168.208L330.238 159.867L351.22 187.673L351.403 187.923L387.499 183.454L365.761 154.651L365.578 154.401L330.716 158.717L309.918 131.161L323.124 99.9397L343.728 127.248L343.912 127.497L380.007 123.029L358.27 94.2261L358.086 93.9762L288.986 102.531L301.519 72.9082C301.696 72.9299 301.883 72.9503 302.076 72.9264C303.053 72.8055 303.786 72.0389 303.91 71.1078L337.055 67.0046L350.499 35.2417L370.92 62.2998L370.676 62.8752L371.298 62.7981L371.676 63.2964L371.92 62.7211L406.782 58.4054L419.793 27.6336C419.97 27.6553 420.158 27.6756 420.351 27.6517C421.51 27.5083 422.337 26.4465 422.194 25.287C422.05 24.1274 420.989 23.2994 419.83 23.4429C418.854 23.5638 418.12 24.3304 417.996 25.2615L385.474 29.2877L363.931 0.733262L350.245 33.1037L329.641 5.79579L329.458 5.54596L294.596 9.86168L294.218 9.36337L293.974 9.93872L259.112 14.2544L245.669 46.0281L225.053 18.7107L224.869 18.4609L188.774 22.9294L210.511 51.7323L210.695 51.9821L244.945 47.7421L244.937 47.7649L280.42 43.3721L300.164 69.533C299.938 69.8226 299.786 70.1793 299.735 70.5563L266.59 74.6595L253.15 106.455L232.536 79.1588L232.353 78.9089L197.48 83.226L177.75 57.0852C178.089 56.6509 178.26 56.0956 178.188 55.5158C178.044 54.3562 176.983 53.5283 175.824 53.6717C174.848 53.7926 174.115 54.5592 173.99 55.4904L106.65 63.8269L85.6287 35.9709L85.4452 35.7211L49.3498 40.1896L49.3874 40.2285L15.1161 44.4712L1.43106 76.8417L0.808707 76.9187L1.18634 77.417L0.941625 77.9924L1.56398 77.9154L22.5462 105.722L22.7296 105.971L58.825 101.503L38.3262 74.3454C38.6646 73.9111 38.8355 73.3558 38.7637 72.776C38.6906 72.1855 38.3895 71.6886 37.9567 71.3606L50.4974 41.7154L70.5543 68.2954L70.5221 68.2994L92.0654 96.8538L78.1356 129.8L113.63 125.405L134.598 153.181L134.781 153.431L167.926 149.328C168.273 150.2 169.171 150.765 170.148 150.644C171.306 150.501 172.134 149.439 171.99 148.279C171.847 147.12 170.785 146.292 169.627 146.435C169.433 146.459 169.255 146.514 169.09 146.589L149.151 120.169L148.968 119.919L114.739 124.156L127.928 92.97L197.039 84.4143L217.813 111.941L203.883 144.887L239.356 140.496L259.099 166.657C258.874 166.946 258.722 167.303 258.67 167.68L225.526 171.783L212.514 202.555C212.337 202.533 212.15 202.513 211.956 202.537C211.763 202.561 211.585 202.615 211.42 202.69L191.481 176.27L191.297 176.02L121.618 184.646L101.992 158.645C102.48 158.192 102.757 157.526 102.67 156.817C102.526 155.658 101.465 154.83 100.306 154.973C99.3298 155.094 98.5967 155.861 98.4723 156.792L64.3191 161.02L85.4847 189.076L51.2457 193.315L37.0712 226.836L73.1666 222.367L86.6002 190.606L107.033 217.673L94.2666 247.87C94.0896 247.848 93.9018 247.828 93.7087 247.852C92.5499 247.995 91.7227 249.057 91.8662 250.216C92.0098 251.376 93.0709 252.204 94.2297 252.06C95.2062 251.94 95.9393 251.173 96.0637 250.242L163.437 241.901L184.235 269.458L171.029 300.679L150.424 273.371L150.241 273.121L115.38 277.437L115.002 276.938L114.757 277.514L80.5183 281.752L59.536 253.946L59.3525 253.696L23.2572 258.165L44.9947 286.968L45.1782 287.218L79.4172 282.979L66.2108 314.2L65.5885 314.277L65.9661 314.775L52.0364 347.721L85.7926 343.542C85.9344 343.895 86.1687 344.204 86.4581 344.43L73.6901 374.616L38.2171 379.007L59.3827 407.063L59.372 407.065L81.1094 435.868L81.2929 436.117L115.532 431.879L102.999 461.501C102.822 461.479 102.634 461.459 102.441 461.483C101.282 461.626 100.455 462.688 100.599 463.848C100.742 465.007 101.804 465.835 102.962 465.692C103.925 465.551 104.658 464.784 104.783 463.853ZM357.612 95.1579L378.033 122.216L344.416 126.378L323.995 99.3195L357.612 95.1579ZM211.174 50.8327L190.752 23.7746L224.369 19.613L244.79 46.6711L211.174 50.8327ZM56.825 100.66L23.2083 104.822L2.78725 77.7639L34.6872 73.8148C35.0349 74.6875 35.9327 75.2522 36.9091 75.1313C37.1022 75.1074 37.2807 75.0526 37.4457 74.9777L56.825 100.66ZM34.5542 72.7411L2.65433 76.6902L15.862 45.4799L49.4787 41.3183L36.9459 70.9407C36.7689 70.919 36.5812 70.8986 36.3881 70.9225C35.4117 71.0434 34.6894 71.8087 34.5542 72.7411ZM95.4647 402.575L75.0436 375.517L108.66 371.355L129.081 398.413L95.4647 402.575ZM89.6901 341.937C89.5484 341.584 89.3248 341.274 89.0246 341.049L101.548 311.439L121.591 337.999L89.6914 341.948L89.6901 341.937ZM136.654 306.548L170.271 302.386L157.738 332.008C157.561 331.987 157.373 331.966 157.18 331.99C156.204 332.111 155.471 332.878 155.346 333.809L123.446 337.758L136.654 306.548ZM159.413 333.306C159.271 332.952 159.037 332.643 158.747 332.418L171.271 302.807L191.314 329.367L159.414 333.316L159.413 333.306ZM135.654 306.126L122.448 337.347L113.169 325.055L102.027 310.289L115.233 279.068L124.511 291.361L135.654 306.126ZM100.559 311.016L88.026 340.639C87.849 340.617 87.6613 340.597 87.4682 340.62C87.275 340.644 87.0966 340.699 86.9315 340.774L67.5536 315.102L100.559 311.016ZM178.862 361.574L159.118 335.413C159.344 335.124 159.496 334.767 159.547 334.39L192.069 330.364L212.491 357.422L178.863 361.585L178.862 361.574ZM214.299 204.917L246.199 200.968L232.993 232.189L199.376 236.351L211.909 206.729C212.086 206.75 212.274 206.771 212.467 206.747C213.442 206.615 214.175 205.849 214.299 204.917ZM210.243 205.42C210.385 205.773 210.62 206.082 210.909 206.307L198.386 235.918L178.344 209.369L210.243 205.42ZM233.993 232.611L247.199 201.39L257.209 214.66L267.61 228.449L254.403 259.67L233.993 232.611ZM281.683 196.576L302.104 223.634L268.487 227.795L248.066 200.737L281.683 196.576ZM365.091 155.574L385.512 182.632L351.895 186.793L331.474 159.735L365.091 155.574ZM295.858 163.054L289.173 154.202L275.436 135.996L309.053 131.835L329.474 158.893L295.858 163.054ZM240.454 139.248L247.052 123.638L253.65 108.028L287.266 103.866L280.669 119.476L274.071 135.086L240.454 139.248ZM322.128 99.5506L308.922 130.772L275.305 134.933L281.903 119.323L288.5 103.714L322.128 99.5506ZM303.781 70.0663C303.64 69.7132 303.416 69.4029 303.116 69.1785L315.884 38.9928L349.501 34.8311L336.294 66.0522L303.783 70.077L303.781 70.0663ZM406.026 57.4087L372.41 61.5704L385.616 30.3493L418.138 26.3231C418.28 26.6762 418.504 26.9865 418.804 27.211L406.026 57.4087ZM384.616 29.928L371.41 61.1491L351.366 34.5893L350.989 34.091L351.233 33.5156L364.195 2.86988L384.616 29.928ZM328.956 6.68728L349.377 33.7454L315.76 37.907L295.339 10.8489L328.956 6.68728ZM293.483 11.0787L280.277 42.2998L246.66 46.4614L259.866 15.2403L293.483 11.0787ZM281.266 42.7224L294.472 11.5013L303.751 23.794L314.893 38.5594L302.127 68.7559C301.95 68.7342 301.762 68.7138 301.569 68.7377C301.376 68.7616 301.197 68.8164 301.032 68.8914L281.266 42.7224ZM299.858 71.6421C300 71.9952 300.224 72.3054 300.524 72.5299L287.756 102.716L254.139 106.877L267.346 75.6562L299.857 71.6314L299.858 71.6421ZM231.863 80.0597L252.284 107.118L218.667 111.279L198.246 84.2213L231.863 80.0597ZM174.122 56.5533C174.47 57.426 175.368 57.9907 176.344 57.8698C176.537 57.8459 176.716 57.7911 176.881 57.7162L196.259 83.3881L162.642 87.5498L142.221 60.4917L174.121 56.5426L174.122 56.5533ZM127.771 91.8776L107.35 64.8194L140.967 60.6578L161.388 87.7159L127.771 91.8776ZM71.7494 68.0929L51.3283 41.0348L84.945 36.8732L105.366 63.9313L71.7494 68.0929ZM106.116 64.9722L126.537 92.0303L92.9204 96.1919L72.4992 69.1338L106.116 64.9722ZM148.454 121.051L168.198 147.212C167.972 147.501 167.82 147.858 167.769 148.235L135.246 152.261L114.825 125.203L148.453 121.04L148.454 121.051ZM112.861 124.389L79.8456 128.476L93.0519 97.2549L126.669 93.0933L113.48 124.279L112.847 124.358L112.861 124.389ZM205.593 143.563L218.799 112.342L252.416 108.181L245.818 123.791L239.22 139.4L205.593 143.563ZM240.576 140.323L274.204 136.16L285.869 151.624L294.614 163.219L262.714 167.168C262.366 166.296 261.469 165.731 260.492 165.852C260.299 165.876 260.121 165.931 259.956 166.005L240.576 140.323ZM226.268 172.76L258.79 168.733C258.932 169.086 259.155 169.397 259.455 169.621L246.687 199.807L214.165 203.833C214.023 203.48 213.8 203.17 213.5 202.945L226.268 172.76ZM190.795 177.151L210.538 203.312C210.313 203.601 210.161 203.958 210.109 204.335L177.587 208.361L177.209 207.863L157.166 181.303L190.793 177.14L190.795 177.151ZM121.072 185.782L141.493 212.84L107.876 217.002L87.4551 189.944L121.072 185.782ZM142.727 212.688L122.306 185.63L155.922 181.468L176.344 208.526L142.727 212.688ZM66.2842 161.845L98.5704 157.848C98.9181 158.721 99.816 159.285 100.792 159.165C100.857 159.157 100.92 159.138 100.983 159.119L120.31 184.732L86.6932 188.894L66.2842 161.845ZM38.7812 225.512L51.9875 194.291L85.6042 190.13L72.3979 221.351L38.7812 225.512ZM95.9079 249.16C95.7662 248.807 95.5426 248.497 95.2425 248.272L108.01 218.087L141.627 213.925L128.421 245.146L95.9093 249.171L95.9079 249.16ZM142.86 213.761L176.477 209.6L163.27 240.821L129.653 244.982L142.86 213.761ZM164.281 241.241L177.487 210.02L197.907 237.067L197.662 237.642L184.701 268.288L164.281 241.241ZM205.377 297.495L192.171 328.716L172.127 302.156L171.749 301.658L171.994 301.083L184.956 270.437L205.377 297.495ZM149.727 274.253L170.149 301.311L136.532 305.473L116.111 278.415L149.727 274.253ZM45.6327 286.049L25.2116 258.991L58.8283 254.83L79.2494 281.888L45.6327 286.049ZM80.627 282.807L114.244 278.646L101.037 309.867L67.4207 314.028L80.627 282.807ZM66.6865 315.755L86.0524 341.417C85.8268 341.707 85.6749 342.063 85.6235 342.44L53.7236 346.389L66.6865 315.755ZM89.823 343.011L121.723 339.061L108.517 370.283L74.9 374.444L87.4326 344.822C87.6096 344.844 87.7974 344.864 87.9905 344.84C88.967 344.719 89.6986 343.942 89.823 343.011ZM40.1822 379.832L73.7882 375.672L94.2093 402.73L60.5925 406.892L40.1822 379.832ZM81.7569 434.937L61.3357 407.879L94.9524 403.717L115.374 430.775L81.7569 434.937ZM116.751 431.695L150.368 427.533L137.162 458.755L104.639 462.781C104.498 462.428 104.274 462.117 103.974 461.893L116.751 431.695Z" fill="url(#paint0_linear_104_2)"/>
    <defs>
        <linearGradient id="paint0_linear_104_2" x1="-75.2138" y1="201.919" x2="785.165" y2="652.59" gradientUnits="userSpaceOnUse">
            <stop stop-color="#2d6aa4"/>
            <stop offset="0.1074" stop-color="#3DCFDA"/>
            <stop offset="0.3674" stop-color="#61D9E2"/>
            <stop offset="0.5713" stop-color="#90E8EE"/>
            <stop offset="0.7773" stop-color="#ABF2F8"/>
            <stop offset="0.976" stop-color="#DAF6F9"/>
        </linearGradient>
    </defs>
</svg>