<svg width="640" height="481" viewBox="0 0 640 481" fill="none" xmlns="http://www.w3.org/2000/svg">
    <path d="M1.98355e-05 94.0712L31.8338 112.438L0.848444 130.318L0.565666 130.476V167.231L1.98355e-05 167.559L0.565666 167.887V204.631L31.8112 222.67L0.814485 240.561L0.531707 240.72V278.764L33.214 259.9L33.4968 259.742V223.642L33.5195 223.654V186.254L63.2039 169.12C63.4754 169.391 63.8261 169.595 64.2107 169.697V241.364L96.0445 259.731V296.475L126.306 313.936C126.249 314.129 126.215 314.321 126.215 314.524C126.215 314.728 126.249 314.92 126.306 315.101L96.3273 332.405L96.0445 332.563V368.64L65.3759 350.941V276.808L34.5602 294.597C34.1529 294.19 33.5986 293.941 32.9877 293.941C31.7659 293.941 30.7705 294.937 30.7705 296.158C30.7705 297.187 31.4719 298.047 32.4221 298.296V369.273L0.825865 387.515L0.542997 387.673V425.718L32.4221 407.318V407.352L64.8215 388.657L97.2097 407.352V369.94L128.727 351.744L129.01 351.585V316.651C129.96 316.402 130.661 315.542 130.661 314.513C130.661 313.484 129.96 312.625 129.01 312.376V277.441L97.1757 259.075V222.987L127.878 205.265V241.353L159.712 259.719V260.375L160.278 260.047L160.843 260.375V259.719L192.394 241.534L192.677 241.376V203.331L161.862 221.12C161.454 220.713 160.9 220.465 160.289 220.465C159.678 220.465 159.113 220.713 158.717 221.12L129.032 203.987V129.843L96.6328 148.537L65.3645 130.499L34.0963 112.449L64.7989 94.7271L65.3645 95.0551V94.3992L65.9302 94.0712L65.3645 93.7432V56.9991L33.5307 38.6327V4.35407C34.481 4.10527 35.1823 3.24577 35.1823 2.21662C35.1823 0.995208 34.1869 -4.08571e-05 32.9651 -4.08571e-05C31.7433 -4.08571e-05 30.7478 0.995208 30.7478 2.21662C30.7478 2.42019 30.7818 2.61242 30.8383 2.79337L0.859824 20.0967L0.576955 20.255V58.2997L32.4107 39.9333V75.3655L1.98355e-05 94.0712ZM32.3769 259.086L1.67429 276.808V241.376L32.3769 223.654V259.086ZM1.69696 131.143L32.3994 113.421V148.854L1.69696 166.575V131.143ZM1.69696 168.543L32.3994 186.265V221.697L1.69696 203.976V168.543ZM32.9651 185.281L2.26251 167.559L16.211 159.507L32.9651 149.838L62.6608 166.983C62.6156 167.164 62.5703 167.356 62.5703 167.559C62.5703 167.763 62.6043 167.955 62.6608 168.136L32.9651 185.281ZM65.3532 203.976V169.708C65.7379 169.606 66.0886 169.403 66.3601 169.131L80.6932 177.41L96.0445 186.265V221.697L80.6932 212.842L65.3532 203.976ZM64.2559 350.941L33.5533 368.662V333.23L64.2559 315.508V350.941ZM64.2559 278.764V314.196L33.5533 331.918V298.296C34.5036 298.047 35.205 297.187 35.205 296.158C35.205 295.955 35.1711 295.762 35.1145 295.581L64.2559 278.764ZM32.3769 406.04L1.67429 423.762V388.329L32.3769 370.608V406.04ZM33.5533 369.963L64.2559 352.241V387.673L33.5533 405.395V369.963ZM96.0785 405.395L65.3759 387.673V352.241L96.0445 369.94V370.608L96.0671 370.596V405.395H96.0785ZM97.1871 368.651V333.219L126.872 316.085C127.143 316.357 127.494 316.56 127.878 316.662V350.941L97.1871 368.651ZM127.89 278.108V312.387C127.505 312.489 127.154 312.681 126.883 312.964L97.1871 295.819V260.387L127.89 278.108ZM65.3532 240.708V205.276L80.7045 214.131L96.0558 222.987V258.419L65.3532 240.708ZM191.546 205.287V240.72L160.843 258.441V224.819C161.794 224.57 162.495 223.71 162.495 222.681C162.495 222.478 162.461 222.285 162.405 222.104L191.546 205.287ZM159.712 224.807V258.43L129.01 240.708V205.276L158.14 222.082C158.094 222.263 158.049 222.455 158.049 222.659C158.061 223.699 158.762 224.559 159.712 224.807ZM127.89 203.976L97.1871 221.697V186.265L127.89 168.543V203.976ZM127.89 167.231L97.1871 184.953V149.521L127.89 131.799V167.231ZM96.0558 149.521V184.953L80.7045 176.098L66.9257 168.147C66.971 167.967 67.0162 167.774 67.0162 167.571C67.0162 166.542 66.3148 165.682 65.3645 165.433V131.811L96.0558 149.521ZM64.2219 165.422C63.8373 165.524 63.4867 165.716 63.2152 165.999L33.5307 148.865V113.433L64.2333 131.155V165.422H64.2219ZM33.5307 111.465L32.9651 111.793L32.3994 111.465L2.26251 94.0712L32.9651 76.3494L63.6677 94.0712L33.5307 111.465ZM64.2219 93.0986L33.5195 75.3768V39.9446L64.2219 57.6664V93.0986ZM1.69696 56.3545V20.9223L31.3813 3.78861C31.6528 4.06003 32.0035 4.26358 32.3882 4.36536V38.644L1.69696 56.3545ZM189.883 277.78C189.883 277.984 189.917 278.176 189.974 278.357L159.995 295.66L159.712 295.819V369.273L130.209 386.305C129.802 385.739 129.145 385.366 128.399 385.366C127.177 385.366 126.181 386.361 126.181 387.583C126.181 388.612 126.883 389.472 127.833 389.72V425.718L159.667 407.352V443.44L192.621 462.462V424.417L161.386 406.39L192.112 388.657L221.807 405.802C221.762 405.983 221.717 406.175 221.717 406.379C221.717 407.6 222.712 408.596 223.934 408.596C225.156 408.596 226.151 407.6 226.151 406.379C226.151 405.35 225.45 404.49 224.5 404.242V370.619V333.219L255.768 315.169L286.471 332.891L255.485 350.771L255.202 350.929V387.685L254.637 388.013L255.202 388.341V424.429L223.651 442.637L223.369 442.795V480.84L256.051 461.976L256.334 461.818V425.729L287.036 443.451V444.107L287.602 443.779L320.001 462.473V426.894C320.386 426.792 320.737 426.589 321.008 426.317L350.693 443.451V480.84L382.526 462.473V462.485L415.209 443.621L415.492 443.462V407.374L446.194 425.096V425.752L446.76 425.424L447.325 425.752V425.096L478.571 407.035L510.97 425.729V388.341L541.673 370.619V406.707L574.638 425.729L606.472 444.096V406.696L636.145 389.573C636.552 389.98 637.107 390.229 637.718 390.229C638.939 390.229 639.935 389.234 639.935 388.013C639.935 386.791 638.939 385.796 637.718 385.796C637.095 385.796 636.541 386.045 636.145 386.452L606.461 369.318V331.918L573.778 350.782L573.496 350.941V387.029L542.793 369.307V331.918L511.977 349.708C511.706 349.436 511.355 349.233 510.97 349.131V314.196L478.005 295.174V331.918L446.172 313.552V351.597L477.44 369.635L446.748 387.345L414.349 368.651V406.051L383.646 423.773V351.597L415.197 333.388L415.48 333.23V295.185L384.665 312.975C384.257 312.568 383.703 312.319 383.092 312.319C381.87 312.319 380.875 313.314 380.875 314.536C380.875 315.565 381.576 316.424 382.526 316.673V350.941L350.975 369.149L350.693 369.307V405.395L319.99 387.673V353.395C320.94 353.146 321.642 352.286 321.642 351.257C321.642 351.054 321.608 350.861 321.551 350.68L351.53 333.377L351.813 333.219V295.174L319.413 313.869L287.579 295.502L255.745 313.869L223.912 295.502L192.643 313.552V279.929C193.594 279.68 194.295 278.821 194.295 277.792C194.295 276.57 193.3 275.575 192.078 275.575C190.879 275.564 189.883 276.559 189.883 277.78ZM160.843 296.486L190.528 279.352C190.799 279.624 191.15 279.827 191.535 279.929V314.196L190.969 314.524L160.832 331.918V296.486H160.843ZM223.369 368.662L192.666 350.941V315.508L223.369 333.23V368.662ZM191.546 350.941L160.843 368.662V333.23L191.546 315.508V350.941ZM160.843 369.963L191.546 352.241V387.673L160.843 405.395V369.963ZM128.964 423.762V389.732C129.915 389.483 130.616 388.623 130.616 387.594C130.616 387.526 130.605 387.458 130.593 387.391L159.656 370.619V406.04L128.964 423.762ZM191.489 460.506L160.787 442.784V407.352L191.489 425.062V460.506ZM223.369 404.242C222.984 404.343 222.633 404.536 222.362 404.818L192.677 387.685V352.252L223.38 369.974V404.242H223.369ZM287.591 370.291L318.293 388.013L304.345 396.065L287.591 405.734L256.888 388.013L270.837 379.96L287.591 370.291ZM318.859 422.608C318.474 422.71 318.123 422.902 317.852 423.185L288.733 406.379L318.859 388.985V422.608ZM288.168 407.363L317.286 424.169C317.241 424.35 317.196 424.542 317.196 424.745C317.196 424.949 317.23 425.141 317.286 425.322L288.156 442.139V407.363H288.168ZM288.168 369.307V333.875L317.286 350.692C317.241 350.873 317.196 351.065 317.196 351.269C317.196 352.298 317.897 353.157 318.847 353.406V387.029L288.168 369.307ZM318.859 349.131C318.474 349.233 318.123 349.436 317.852 349.708L288.733 332.902L318.87 315.508V349.131H318.859ZM256.334 351.597L287.036 333.875V369.307L256.334 387.029V351.597ZM255.202 461.162L224.5 478.883V443.451L255.202 425.729V461.162ZM256.334 424.429V388.985L287.036 406.707V442.139L256.334 424.429ZM288.733 443.123L317.852 426.317C318.123 426.589 318.474 426.792 318.859 426.894V460.517L288.733 443.123ZM351.824 478.872V443.44L382.526 425.718V461.139L351.824 478.872ZM447.314 423.773V388.341L478.017 370.619V406.051L447.314 423.773ZM509.839 423.773L479.137 406.051V370.619L494.488 379.474L509.839 388.329V423.773ZM479.137 333.875L494.488 342.73L508.267 350.68C508.221 350.861 508.176 351.054 508.176 351.257C508.176 352.286 508.878 353.146 509.828 353.395V387.029L494.477 378.174L479.125 369.318V333.875H479.137ZM542.793 370.619L573.496 388.341V423.773L542.793 406.051V370.619ZM605.318 442.151L574.615 424.429V388.985L605.318 406.707V442.151ZM635.579 388.589L605.884 405.723L575.181 388.001L589.13 379.949L605.884 370.28L635.579 387.413C635.534 387.594 635.489 387.786 635.489 387.99C635.5 388.216 635.534 388.408 635.579 388.589ZM574.627 351.597L605.329 333.875V369.307L574.627 387.029V351.597ZM541.662 333.875V369.318L510.959 387.04V353.417C511.909 353.169 512.611 352.309 512.611 351.28C512.611 351.076 512.577 350.884 512.52 350.703L541.662 333.875ZM479.137 297.142L509.839 314.864V349.131C509.455 349.233 509.104 349.425 508.832 349.708L494.499 341.429L479.148 332.574V297.142H479.137ZM447.314 315.508L478.017 333.23V368.662L447.314 350.941V315.508ZM415.48 370.619L446.183 388.341V423.773L415.48 406.051V370.619ZM414.349 407.363V442.795L383.646 460.517V425.085L414.349 407.363ZM351.824 442.128V406.707L382.515 388.985V424.406L351.824 442.128ZM414.349 297.131V332.563L383.646 350.285V316.662C384.597 316.413 385.298 315.554 385.298 314.524C385.298 314.321 385.264 314.129 385.208 313.948L414.349 297.131ZM351.824 369.963L382.526 352.241V387.685L351.824 405.406V369.963ZM350.693 442.139L321.563 425.334C321.608 425.153 321.653 424.96 321.653 424.757C321.653 423.728 320.952 422.868 320.001 422.619V388.985L350.693 406.707V442.139ZM350.693 332.563L321.008 349.697C320.737 349.425 320.386 349.222 320.001 349.12V314.841L350.704 297.119V332.563H350.693ZM287.602 296.803L318.305 314.524L288.168 331.918L287.602 332.246L287.036 331.918L256.899 314.524L287.602 296.803ZM254.637 314.524L223.934 332.246L193.232 314.524L223.934 296.803L254.637 314.524Z" fill="url(#paint0_linear_11_2)"/>
    <defs>
        <linearGradient id="paint0_linear_11_2" x1="709.312" y1="-289.221" x2="130.832" y2="545.829" gradientUnits="userSpaceOnUse">
            <stop stop-color="#2d6aa4"/>
            <stop offset="0.1074" stop-color="#1CBCC8"/>
            <stop offset="0.3674" stop-color="#50D5DF"/>
            <stop offset="0.5713" stop-color="#93EAF0"/>
            <stop offset="0.7773" stop-color="#BBF0F4"/>
            <stop offset="0.976" stop-color="#E2FDFF"/>
        </linearGradient>
    </defs>
</svg>