<svg width="566" height="483" viewBox="0 0 566 483" fill="none" xmlns="http://www.w3.org/2000/svg">
    <path opacity="0.3" d="M26.0936 12.7346L61.7053 0.458377L92.6845 27.3896L54.5597 40.5322L47.2873 78.0682L84.7435 65.1561L77.0762 104.764L106.456 130.311L141.399 118.265C141.318 117.209 141.948 116.191 142.997 115.83C143.205 115.758 143.413 115.725 143.617 115.719L150.717 79.0686L150.779 78.7246L189.561 65.3554L181.89 104.952L211.814 130.956L204.283 169.872L233.674 195.415L270.461 182.733L278.129 143.125L308.575 169.595L346.699 156.452L338.959 196.408L338.897 196.752L302.109 209.434L329.492 233.229C329.661 233.12 329.841 233.006 330.048 232.934C331.097 232.573 332.22 232.986 332.808 233.868L405.207 208.91L412.677 170.338L412.739 169.994L451.521 156.624L443.78 196.581L443.718 196.925L406.262 209.837L398.854 248.065L427.712 273.146L435.046 235.266L435.108 234.922L473.89 221.553L466.15 261.509L466.088 261.853L391.844 287.447L419.227 311.242C419.395 311.132 419.575 311.019 419.783 310.947C420.832 310.585 421.955 310.999 422.542 311.88L458.154 299.604L487.522 325.116L494.794 287.58L494.261 287.118L494.93 286.888L495.065 286.196L495.598 286.657L533.055 273.745L561.492 298.468C561.661 298.358 561.841 298.244 562.049 298.173C563.294 297.743 564.658 298.409 565.088 299.655C565.517 300.901 564.853 302.266 563.607 302.695C562.558 303.056 561.436 302.643 560.848 301.762L525.905 313.807L518.238 353.416L488.325 327.408L480.99 365.288L480.928 365.632L443.472 378.544L443.337 379.236L442.804 378.774L405.347 391.686L375.976 366.163L368.634 404.059L368.572 404.403L329.79 417.772L337.531 377.816L337.593 377.472L374.392 364.786L374.372 364.767L412.497 351.624L419.528 315.333C419.156 315.152 418.825 314.865 418.586 314.509L382.974 326.785L353.595 301.239L346.245 339.111L346.183 339.455L308.715 352.371L301.688 388.636C302.246 388.908 302.694 389.386 302.909 390.009C303.339 391.254 302.674 392.619 301.429 393.049C300.38 393.41 299.257 392.997 298.67 392.115L226.316 417.057L218.832 455.699L218.77 456.043L179.988 469.412L180.007 469.354L143.185 482.048L113.272 456.04L112.603 456.27L112.738 455.578L112.205 455.117L112.874 454.886L120.344 416.314L120.406 415.97L159.188 402.601L151.886 440.276C152.444 440.548 152.893 441.026 153.107 441.649C153.326 442.284 153.267 442.936 152.992 443.483L180.394 467.298L187.535 430.427L187.5 430.438L195.167 390.83L164.721 364.361L202.858 351.214L210.328 312.68L210.39 312.336L246.001 300.06C245.921 299.004 246.551 297.986 247.6 297.625C248.845 297.196 250.209 297.861 250.639 299.107C251.068 300.353 250.404 301.718 249.159 302.147C248.951 302.218 248.743 302.251 248.539 302.257L241.438 338.908L241.377 339.252L204.6 351.93L233.424 376.984L307.679 351.386L315.076 313.201L284.63 286.731L322.743 273.593L329.774 237.301C329.402 237.12 329.071 236.834 328.832 236.477L293.22 248.754L264.782 224.031C264.614 224.141 264.434 224.254 264.226 224.326C264.019 224.398 263.811 224.431 263.606 224.436L256.506 261.087L256.444 261.431L181.578 287.24L174.587 323.31C175.307 323.527 175.918 324.065 176.18 324.826C176.61 326.072 175.945 327.437 174.7 327.866C173.651 328.228 172.528 327.815 171.941 326.933L135.245 339.583L142.777 300.667L105.99 313.348L75.0104 286.417L113.792 273.048L143.149 298.564L150.429 261.012L122.524 236.751C122.355 236.861 122.175 236.975 121.968 237.046C120.723 237.476 119.358 236.81 118.929 235.564C118.499 234.318 119.164 232.954 120.409 232.524C121.458 232.163 122.581 232.576 123.168 233.457L195.556 208.504L202.964 170.275L174.106 145.194L166.771 183.074L166.709 183.419L129.253 196.331L129.118 197.023L128.585 196.561L91.7971 209.243L84.3272 247.815L84.2652 248.159L45.4833 261.528L53.2241 221.572L53.2861 221.228L90.0737 208.546L61.2156 183.465L60.5469 183.696L60.6824 183.004L30.2364 156.534L66.5052 144.031C66.4737 143.603 66.5579 143.174 66.7391 142.802L38.8385 118.553L0.725152 131.691L8.25698 92.7749L8.24543 92.7789L15.9862 52.8227L16.0482 52.4786L52.8357 39.797L25.4528 16.0016C25.2842 16.1113 25.1041 16.225 24.8966 16.2966C23.6515 16.7258 22.2871 16.0603 21.8576 14.8145C21.4281 13.5686 22.0926 12.2037 23.3377 11.7745C24.3832 11.4399 25.506 11.853 26.0936 12.7346ZM465.021 260.891L472.293 223.355L436.174 235.806L428.902 273.342L465.021 260.891ZM338.647 378.399L331.375 415.935L367.494 403.484L374.766 365.947L338.647 378.399ZM157.579 404.446L121.461 416.897L114.188 454.433L148.463 442.618C148.382 441.561 149.012 440.544 150.061 440.183C150.268 440.111 150.476 440.078 150.681 440.072L157.579 404.446ZM148.86 443.771L114.586 455.587L143.44 480.656L179.559 468.205L152.176 444.41C152.007 444.519 151.827 444.633 151.62 444.705C150.571 445.066 149.459 444.649 148.86 443.771ZM47.0354 79.4328L39.763 116.969L75.8819 104.518L83.1543 66.9817L47.0354 79.4328ZM71.2495 143.725C71.2809 144.153 71.2082 144.578 71.0154 144.955L98.383 168.742L105.52 131.898L71.2455 143.714L71.2495 143.725ZM136.372 156.292L172.491 143.841L145.108 120.045C144.94 120.155 144.76 120.269 144.552 120.34C143.503 120.702 142.38 120.289 141.793 119.407L107.518 131.222L136.372 156.292ZM146.162 117.901C146.193 118.329 146.109 118.758 145.928 119.13L173.295 142.918L180.432 106.074L146.158 117.889L146.162 117.901ZM135.568 157.214L106.71 132.133L103.405 149.187L99.4378 169.67L128.296 194.751L131.601 177.697L135.568 157.214ZM97.5904 169.661L70.2073 145.866C70.0387 145.975 69.8587 146.089 69.6512 146.161C69.4437 146.232 69.2358 146.265 69.0314 146.271L62.1286 181.886L97.5904 169.661ZM151.849 79.6207L144.818 115.912C145.19 116.093 145.521 116.379 145.76 116.736L180.703 104.69L187.976 67.154L151.845 79.6091L151.849 79.6207ZM265.419 220.753L299.694 208.937L270.836 183.856L234.717 196.307L262.1 220.103C262.268 219.993 262.448 219.879 262.656 219.808C263.709 219.458 264.832 219.871 265.419 220.753ZM261.061 222.255C261.03 221.827 261.114 221.398 261.295 221.025L233.928 197.238L226.787 234.07L261.061 222.255ZM271.64 182.934L300.498 208.015L304.059 189.608L307.759 170.483L278.9 145.402L271.64 182.934ZM337.818 195.795L345.091 158.259L308.972 170.71L301.7 208.246L337.818 195.795ZM442.644 195.979L449.916 158.442L413.797 170.894L406.525 208.43L442.644 195.979ZM368.798 222.726L366.415 235.009L361.525 260.262L397.644 247.811L404.917 210.275L368.798 222.726ZM324.474 274.312L338.898 286.855L353.321 299.397L389.44 286.946L375.016 274.404L360.593 261.861L324.474 274.312ZM426.896 274.034L398.038 248.953L361.919 261.404L376.342 273.946L390.766 286.489L426.896 274.034ZM422.928 312.999C422.96 313.427 422.887 313.852 422.694 314.229L450.595 338.478L486.714 326.027L457.856 300.946L422.924 312.988L422.928 312.999ZM532.784 275.129L496.665 287.58L525.523 312.661L560.466 300.616C560.434 300.188 560.507 299.762 560.7 299.386L532.784 275.129ZM524.719 313.584L495.861 288.503L488.724 325.347L488.588 326.039L489.121 326.501L517.446 351.12L524.719 313.584ZM479.855 364.724L487.127 327.188L451.008 339.639L443.736 377.175L479.855 364.724ZM441.741 377.863L412.883 352.782L376.764 365.233L405.622 390.314L441.741 377.863ZM413.676 351.863L442.534 376.944L445.839 359.891L449.806 339.408L421.902 315.147C421.733 315.257 421.553 315.371 421.345 315.442C421.138 315.514 420.93 315.547 420.726 315.553L413.676 351.863ZM418.173 313.348C418.141 312.92 418.214 312.495 418.407 312.118L390.506 287.869L354.387 300.32L383.245 325.401L418.177 313.359L418.173 313.348ZM345.116 338.532L352.389 300.996L316.27 313.447L308.997 350.983L345.116 338.532ZM298.276 390.973C298.195 389.917 298.825 388.9 299.874 388.538C300.082 388.466 300.29 388.434 300.494 388.428L307.397 352.813L271.278 365.264L264.005 402.8L298.28 390.985L298.276 390.973ZM233.806 378.169L226.534 415.705L262.653 403.254L269.925 365.718L233.806 378.169ZM188.846 430.039L181.573 467.575L217.692 455.124L224.964 417.588L188.846 430.039ZM225.208 416.162L232.48 378.626L196.361 391.077L189.089 428.613L225.208 416.162ZM240.295 338.36L247.326 302.069C246.954 301.887 246.623 301.601 246.384 301.245L211.441 313.291L204.169 350.827L240.299 338.372L240.295 338.36ZM202.583 352.625L167.11 364.854L195.968 389.935L232.087 377.484L203.264 352.429L202.583 352.664L202.583 352.625ZM287.018 287.224L315.876 312.305L351.995 299.854L337.572 287.312L323.149 274.769L287.018 287.224ZM324.065 273.163L360.196 260.707L364.346 239.258L367.456 223.175L333.182 234.991C333.262 236.047 332.633 237.064 331.584 237.426C331.376 237.497 331.168 237.53 330.964 237.536L324.065 273.163ZM293.488 247.397L328.431 235.351C328.399 234.923 328.472 234.498 328.665 234.121L300.764 209.872L265.821 221.918C265.852 222.346 265.78 222.771 265.587 223.147L293.488 247.397ZM255.374 260.535L262.405 224.244C262.033 224.062 261.702 223.776 261.463 223.42L226.52 235.466L226.385 236.158L219.248 273.002L255.378 260.547L255.374 260.535ZM180.462 286.359L187.734 248.823L151.615 261.274L144.343 298.81L180.462 286.359ZM189.06 248.366L181.788 285.902L217.906 273.451L225.179 235.915L189.06 248.366ZM136.827 337.773L171.516 325.815C171.436 324.758 172.066 323.741 173.115 323.379C173.184 323.355 173.257 323.343 173.33 323.331L180.211 287.801L144.092 300.252L136.827 337.773ZM77.3989 286.91L106.257 311.991L142.376 299.54L113.518 274.459L77.3989 286.91ZM123.547 234.63C123.578 235.058 123.506 235.484 123.313 235.86L151.214 260.109L187.333 247.658L158.474 222.577L123.543 234.619L123.547 234.63ZM188.662 247.213L224.781 234.762L195.923 209.681L159.804 222.132L188.662 247.213ZM196.739 208.754L225.597 233.835L232.873 196.311L232.34 195.849L204.015 171.229L196.739 208.754ZM210.481 131.39L181.623 106.309L174.486 143.153L174.35 143.845L174.883 144.307L203.208 168.926L210.481 131.39ZM165.628 182.526L172.9 144.99L136.782 157.442L129.509 194.978L165.628 182.526ZM54.3258 222.186L47.0535 259.722L83.1723 247.271L90.4447 209.735L54.3258 222.186ZM91.3843 208.12L127.503 195.669L98.6451 170.588L62.5263 183.039L91.3843 208.12ZM60.9267 181.655L67.822 146.055C67.4499 145.874 67.1191 145.588 66.8802 145.231L32.6058 157.047L60.9267 181.655ZM70.8518 142.572L105.126 130.756L76.268 105.675L40.1492 118.126L67.5322 141.922C67.7007 141.812 67.8809 141.698 68.0884 141.627C69.1375 141.265 70.2641 141.69 70.8518 142.572ZM2.30688 129.881L38.4142 117.434L45.6865 79.8978L9.56764 92.3489L2.30688 129.881ZM17.1034 53.4443L9.83106 90.9803L45.9499 78.5292L53.2224 40.9932L17.1034 53.4443ZM54.162 39.3786L90.2808 26.9275L61.4228 1.84645L26.4798 13.8922C26.5113 14.3202 26.4386 14.7454 26.2458 15.1216L54.162 39.3786Z" fill="url(#paint0_linear_102_2)"/>
    <defs>
        <linearGradient id="paint0_linear_102_2" x1="-26.387" y1="367.329" x2="621.783" y2="-515.798" gradientUnits="userSpaceOnUse">
            <stop stop-color="#2d6aa4"/>
            <stop offset="0.1074" stop-color="#3DCFDA"/>
            <stop offset="0.3674" stop-color="#61D9E2"/>
            <stop offset="0.5713" stop-color="#90E8EE"/>
            <stop offset="0.7773" stop-color="#ABF2F8"/>
            <stop offset="0.976" stop-color="#DAF6F9"/>
        </linearGradient>
    </defs>
</svg>