<svg width="533" height="408" viewBox="0 0 533 408" fill="none" xmlns="http://www.w3.org/2000/svg">
    <path opacity="0.3" d="M3.16113 187.655L17.3733 156.785L54.2574 153.393L39.0422 186.442L58.9776 214.599L73.9259 182.13L94.9658 211.837L129.949 208.625L143.895 178.334C143.156 177.727 142.885 176.682 143.304 175.773C143.387 175.593 143.495 175.437 143.619 175.3L124.153 147.807L123.968 147.552L139.445 113.934L160.475 143.636L196.097 140.354L216.77 169.542L251.758 166.319L266.439 134.429L245.4 104.722L281.65 101.39L296.865 68.3412L318.086 98.3135L318.272 98.5685L303.59 130.458L336.187 127.455C336.22 127.276 336.258 127.088 336.341 126.908C336.76 125.999 337.73 125.525 338.671 125.692L367.565 62.9315L347.077 33.9993L346.891 33.7443L362.369 0.125588L383.59 30.0979L383.776 30.3529L368.827 62.8223L389.129 91.4995L423.484 88.3365L403.363 59.9244L403.177 59.6693L418.655 26.0507L439.876 56.023L440.061 56.278L410.431 120.637L443.028 117.634C443.061 117.455 443.099 117.267 443.182 117.087C443.601 116.178 444.571 115.704 445.512 115.871L459.724 85.0002L494.678 81.7738L474.742 53.6166L474.109 53.6762L474.376 53.0966L474.009 52.5766L474.643 52.517L489.591 20.0476L523.45 16.9349C523.483 16.7566 523.522 16.5682 523.604 16.3883C524.101 15.309 525.386 14.8348 526.466 15.3321C527.547 15.8294 528.022 17.1141 527.525 18.1934C527.106 19.1028 526.137 19.5768 525.195 19.4099L511.25 49.7007L532.29 79.408L496.673 82.6801L516.794 111.092L516.979 111.347L502.031 143.817L502.398 144.337L501.764 144.396L486.816 176.866L451.852 180.088L471.979 208.514L472.164 208.769L456.687 242.388L435.466 212.416L435.28 212.161L449.966 180.261L449.942 180.262L465.157 147.213L445.883 119.99C445.532 120.119 445.139 120.156 444.758 120.089L430.546 150.96L395.562 154.172L415.668 182.59L415.854 182.845L400.901 215.324L420.16 242.528C420.686 242.334 421.277 242.34 421.817 242.589C422.898 243.086 423.373 244.371 422.876 245.45C422.457 246.359 421.487 246.833 420.546 246.666L391.671 309.387L412.195 338.372L412.38 338.627L396.903 372.245L396.877 372.197L382.181 404.117L346.564 407.389L346.297 407.969L345.931 407.449L345.297 407.508L345.564 406.929L325.076 377.996L324.891 377.741L340.368 344.123L360.376 372.386C360.902 372.192 361.493 372.198 362.033 372.446C362.583 372.699 362.972 373.145 363.157 373.666L395.777 370.662L376.193 343.005L376.18 343.035L355.14 313.328L318.889 316.66L334.109 283.601L313.647 254.692L313.461 254.437L327.673 223.567C326.934 222.96 326.664 221.915 327.082 221.006C327.579 219.926 328.864 219.452 329.945 219.95C331.025 220.447 331.5 221.731 331.003 222.811C330.92 222.991 330.812 223.147 330.689 223.284L350.154 250.776L350.34 251.031L335.663 282.911L369.978 279.754L399.613 215.385L379.331 186.742L343.081 190.074L358.291 157.034L339.017 129.811C338.666 129.941 338.274 129.978 337.892 129.911L323.68 160.782L289.821 163.894C289.788 164.073 289.749 164.261 289.667 164.441C289.584 164.621 289.476 164.777 289.352 164.914L308.817 192.406L309.003 192.661L279.125 257.56L298.281 284.62C298.871 284.286 299.603 284.223 300.263 284.527C301.343 285.024 301.818 286.309 301.321 287.388C300.903 288.298 299.933 288.772 298.991 288.605L284.347 320.415L263.674 291.227L248.992 323.117L212.108 326.508L227.585 292.89L262.534 289.673L242.594 261.502L209.368 264.555C209.335 264.733 209.297 264.921 209.214 265.101C208.717 266.181 207.432 266.655 206.352 266.157C205.271 265.66 204.796 264.376 205.293 263.296C205.712 262.387 206.682 261.913 207.623 262.08L236.512 199.33L216.21 170.652L181.855 173.815L201.976 202.228L202.162 202.483L187.214 234.952L187.58 235.472L186.947 235.532L172.265 267.421L192.753 296.354L192.939 296.609L177.461 330.227L156.24 300.255L156.055 300L170.736 268.11L136.381 271.273L136.115 271.853L135.748 271.333L99.4974 274.664L113.972 243.224C113.673 242.978 113.446 242.655 113.316 242.305L80.1011 245.363L64.8905 278.402L44.2173 249.214L44.2126 249.224L22.9917 219.252L22.806 218.997L37.4875 187.107L4.89126 190.111C4.85765 190.289 4.81943 190.478 4.73662 190.657C4.23972 191.737 2.95471 192.211 1.87451 191.714C0.794313 191.216 0.319 189.932 0.815898 188.852C1.24998 187.962 2.21976 187.488 3.16113 187.655ZM438.769 56.3734L418.833 28.2162L404.419 59.5263L424.354 87.6835L438.769 56.3734ZM436.543 212.051L456.478 240.209L470.893 208.898L450.957 180.741L436.543 212.051ZM340.568 346.322L326.153 377.632L346.089 405.789L359.767 376.078C359.028 375.471 358.758 374.426 359.176 373.517C359.259 373.337 359.367 373.181 359.491 373.044L340.568 346.322ZM360.767 376.539L347.089 406.25L381.433 403.082L395.848 371.772L363.252 374.776C363.218 374.954 363.18 375.142 363.097 375.322C362.678 376.232 361.713 376.695 360.767 376.539ZM59.7101 215.615L79.6455 243.772L94.0601 212.462L74.1247 184.305L59.7101 215.615ZM116.732 239.941C117.031 240.188 117.262 240.5 117.387 240.861L149.969 237.862L130.4 210.225L116.722 239.936L116.732 239.941ZM165.551 205.333L179.966 174.023L147.369 177.027C147.336 177.205 147.298 177.393 147.215 177.573C146.796 178.483 145.826 178.957 144.885 178.79L131.206 208.501L165.551 205.333ZM146.629 175.002C146.927 175.249 147.155 175.571 147.284 175.922L179.866 172.924L160.297 145.287L146.619 174.998L146.629 175.002ZM165.651 206.433L131.296 209.596L140.353 222.389L151.232 237.753L185.586 234.59L176.53 221.797L165.651 206.433ZM150.074 238.952L117.477 241.956C117.444 242.134 117.405 242.322 117.323 242.502C117.24 242.682 117.132 242.838 117.008 242.975L135.921 269.693L150.074 238.952ZM125.219 147.414L144.494 174.637C144.844 174.508 145.237 174.471 145.618 174.537L159.564 144.246L139.628 116.089L125.209 147.409L125.219 147.414ZM288.081 161.434L301.76 131.723L267.405 134.886L252.99 166.196L285.587 163.192C285.62 163.014 285.658 162.826 285.741 162.646C286.17 161.741 287.14 161.267 288.081 161.434ZM286.342 165.212C286.043 164.965 285.816 164.642 285.686 164.292L253.105 167.29L272.663 194.923L286.342 165.212ZM267.305 133.786L301.66 130.623L291.881 116.819L281.72 102.476L247.365 105.639L267.305 133.786ZM316.975 98.6738L297.039 70.5167L282.625 101.827L302.56 129.984L316.975 98.6738ZM382.488 30.4629L362.553 2.30577L348.139 33.6159L368.074 61.773L382.488 30.4629ZM353.859 95.2825L360.38 104.498L373.794 123.44L388.209 92.1295L368.273 63.9724L353.859 95.2825ZM359.841 156.355L377.016 154.778L394.191 153.202L408.605 121.892L391.43 123.468L374.255 125.045L359.841 156.355ZM423.554 89.4224L389.199 92.5854L374.784 123.896L391.959 122.319L409.134 120.743L423.554 89.4224ZM446.482 116.317C446.781 116.564 447.013 116.876 447.138 117.237L480.353 114.179L494.768 82.8689L460.413 86.0318L446.472 116.313L446.482 116.317ZM490.324 21.0877L475.91 52.3978L510.264 49.2348L524.21 18.944C523.911 18.6975 523.679 18.3849 523.554 18.0245L490.324 21.0877ZM510.364 50.3345L476.01 53.4975L495.578 81.1346L495.945 81.6546L496.578 81.595L530.299 78.4916L510.364 50.3345ZM515.718 111.481L495.782 83.3239L481.368 114.634L501.303 142.791L515.718 111.481ZM500.507 144.52L466.153 147.683L451.738 178.993L486.093 175.83L500.507 144.52ZM466.048 146.593L500.403 143.43L491.346 130.637L480.467 115.273L447.242 118.326C447.209 118.505 447.17 118.693 447.088 118.873C447.005 119.053 446.897 119.209 446.773 119.346L466.048 146.593ZM443.743 119.634C443.444 119.388 443.213 119.075 443.087 118.715L409.872 121.773L395.458 153.083L429.812 149.92L443.753 119.639L443.743 119.634ZM414.587 182.964L394.652 154.807L380.237 186.117L400.172 214.274L414.587 182.964ZM419.556 246.211C418.817 245.604 418.546 244.559 418.965 243.649C419.048 243.47 419.156 243.314 419.28 243.177L400.367 216.459L385.952 247.769L405.887 275.926L419.566 246.215L419.556 246.211ZM370.989 280.244L390.924 308.401L405.339 277.091L385.404 248.934L370.989 280.244ZM376.759 341.909L396.694 370.066L411.109 338.756L391.173 310.599L376.759 341.909ZM390.395 309.55L370.46 281.393L356.045 312.703L375.981 340.86L390.395 309.55ZM349.083 251.18L329.809 223.957C329.458 224.086 329.066 224.123 328.684 224.057L314.739 254.347L334.674 282.504L349.093 251.184L349.083 251.18ZM334.858 284.66L320.701 315.41L355.055 312.247L369.47 280.937L335.154 284.094L334.883 284.684L334.858 284.66ZM344.892 188.824L379.247 185.661L393.662 154.351L376.487 155.928L359.312 157.504L344.892 188.824ZM358.836 155.904L373.255 124.584L361.86 108.498L353.315 96.4372L339.637 126.148C340.376 126.755 340.646 127.8 340.227 128.709C340.145 128.889 340.036 129.045 339.913 129.182L358.836 155.904ZM322.962 159.761L336.907 129.47C336.609 129.224 336.377 128.911 336.252 128.551L303.037 131.608L289.091 161.899C289.39 162.146 289.622 162.458 289.747 162.819L322.962 159.761ZM307.751 192.8L288.477 165.577C288.126 165.706 287.734 165.743 287.352 165.677L273.407 195.967L273.773 196.487L293.342 224.125L307.761 192.804L307.751 192.8ZM277.855 257.739L257.919 229.581L243.505 260.892L263.44 289.049L277.855 257.739ZM258.448 228.432L278.384 256.589L292.798 225.279L272.863 197.122L258.448 228.432ZM284.153 318.254L297.998 288.183C297.259 287.577 296.988 286.532 297.407 285.622C297.434 285.562 297.472 285.507 297.51 285.452L278.638 258.802L264.223 290.112L284.153 318.254ZM213.92 325.259L248.274 322.096L262.689 290.786L228.334 293.949L213.92 325.259ZM208.624 262.565C208.923 262.811 209.154 263.124 209.279 263.484L242.495 260.427L256.909 229.116L222.555 232.279L208.614 262.56L208.624 262.565ZM257.448 227.972L271.863 196.662L237.508 199.825L223.094 231.135L257.448 227.972ZM237.413 198.715L271.768 195.552L251.842 167.399L251.209 167.459L217.488 170.562L237.413 198.715ZM195.547 141.494L161.193 144.657L180.762 172.294L181.128 172.814L181.762 172.755L215.483 169.651L195.547 141.494ZM200.906 202.631L180.97 174.474L166.556 205.784L186.491 233.941L200.906 202.631ZM157.328 299.92L177.263 328.077L191.678 296.767L171.742 268.61L157.328 299.92ZM171.276 266.99L185.691 235.68L151.336 238.843L136.921 270.153L171.276 266.99ZM135.021 270.332L116.113 243.629C115.763 243.758 115.37 243.795 114.988 243.729L101.31 273.44L135.021 270.332ZM115.732 239.481L129.41 209.769L95.0557 212.932L80.641 244.243L113.237 241.239C113.271 241.061 113.309 240.872 113.392 240.692C113.811 239.783 114.79 239.314 115.732 239.481ZM64.6971 276.241L79.1071 244.941L59.1718 216.784L44.7572 248.094L64.6971 276.241ZM24.0939 218.912L44.0292 247.069L58.4438 215.759L38.5085 187.602L24.0939 218.912ZM38.042 185.982L52.4566 154.672L18.1021 157.835L4.15674 188.125C4.45539 188.372 4.68727 188.685 4.81229 189.045L38.042 185.982Z" fill="url(#paint0_linear_101_2)"/>
    <defs>
        <linearGradient id="paint0_linear_101_2" x1="201.604" y1="443.077" x2="30.3505" y2="-530.372" gradientUnits="userSpaceOnUse">
            <stop stop-color="#2d6aa4"/>
            <stop offset="0.1074" stop-color="#3DCFDA"/>
            <stop offset="0.3674" stop-color="#61D9E2"/>
            <stop offset="0.5713" stop-color="#90E8EE"/>
            <stop offset="0.7773" stop-color="#ABF2F8"/>
            <stop offset="0.976" stop-color="#DAF6F9"/>
        </linearGradient>
    </defs>
</svg>