<svg width="622" height="580" viewBox="0 0 622 580" fill="none" xmlns="http://www.w3.org/2000/svg">
    <path opacity="0.3" d="M566.375 573.092L522.174 579.663L491.904 541.517L539.223 534.483L555.869 492.29L509.379 499.201L526.935 454.677L498.229 418.495L454.858 424.942C454.722 426.192 453.767 427.241 452.465 427.435C452.207 427.473 451.957 427.466 451.718 427.429L435.466 468.627L435.319 469.014L387.183 476.17L404.742 431.661L375.5 394.826L392.748 351.08L364.027 314.899L318.367 321.687L300.81 366.211L271.061 328.72L223.741 335.755L241.459 290.841L241.606 290.453L287.266 283.665L260.508 249.959C260.287 250.05 260.053 250.144 259.795 250.182C258.493 250.376 257.273 249.65 256.78 248.494L166.919 261.853L149.818 305.211L149.671 305.599L101.535 312.755L119.253 267.841L119.4 267.453L165.891 260.542L182.844 217.571L154.645 182.045L137.853 224.626L137.706 225.014L89.5699 232.17L107.288 187.256L107.435 186.868L199.585 173.169L172.827 139.463C172.606 139.554 172.372 139.647 172.114 139.686C170.812 139.879 169.592 139.153 169.099 137.997L124.898 144.568L96.1982 108.429L79.5529 150.622L80.0743 151.276L79.2443 151.399L78.9358 152.177L78.4144 151.523L31.9243 158.434L4.1372 123.417C3.91677 123.508 3.68201 123.602 3.42445 123.64C1.87907 123.87 0.432581 122.797 0.202694 121.251C-0.0271931 119.704 1.04467 118.257 2.59004 118.027C3.89217 117.834 5.11161 118.56 5.60521 119.716L48.976 113.268L66.5326 68.7445L95.7603 105.581L112.553 63.0006L112.7 62.6129L159.19 55.7015L159.498 54.9239L160.02 55.5782L206.51 48.6668L235.212 84.8209L252.017 42.2237L252.164 41.8359L300.299 34.68L282.581 79.5935L282.434 79.9813L236.76 86.7714L236.778 86.7979L189.458 93.8326L173.365 134.626C173.76 134.919 174.084 135.325 174.285 135.792L218.485 129.221L247.192 165.404L264.001 122.835L264.148 122.448L310.652 115.534L326.735 74.7711C326.143 74.3322 325.724 73.6774 325.609 72.9043C325.379 71.3579 326.451 69.9107 327.996 69.6809C329.299 69.4874 330.518 70.2134 331.012 71.3694L420.815 58.0189L437.948 14.5826L438.095 14.1949L486.231 7.03889L486.197 7.10255L531.9 0.308213L561.128 37.1451L561.958 37.0217L561.649 37.7993L562.17 38.4536L561.34 38.5769L544.239 81.9353L544.092 82.3231L495.957 89.479L512.667 47.13C512.075 46.6912 511.656 46.0364 511.541 45.2632C511.424 44.4757 511.634 43.7273 512.075 43.1496L485.298 9.41677L468.951 50.863L468.994 50.8566L451.437 95.3803L481.186 132.871L433.852 139.908L416.759 183.222L416.612 183.609L372.411 190.18C372.275 191.43 371.32 192.479 370.018 192.673C368.472 192.903 367.026 191.83 366.796 190.283C366.566 188.737 367.638 187.29 369.183 187.06C369.441 187.022 369.69 187.029 369.93 187.066L386.182 145.868L386.329 145.48L431.975 138.695L403.811 103.207L311.646 116.908L294.715 159.832L324.464 197.323L277.158 204.356L261.065 245.149C261.46 245.442 261.783 245.847 261.984 246.315L306.185 239.744L333.972 274.761C334.193 274.67 334.427 274.576 334.685 274.538C334.942 274.5 335.192 274.506 335.432 274.544L351.684 233.346L351.831 232.958L444.754 219.144L460.752 178.599C459.96 178.19 459.364 177.429 459.224 176.484C458.994 174.938 460.066 173.491 461.611 173.261C462.913 173.067 464.133 173.793 464.626 174.949L510.172 168.178L492.924 211.925L538.584 205.137L568.855 243.282L520.719 250.438L492.033 214.296L475.376 256.506L502.642 290.868C502.862 290.777 503.097 290.683 503.354 290.645C504.9 290.415 506.346 291.488 506.576 293.035C506.806 294.581 505.734 296.028 504.189 296.258C502.887 296.451 501.667 295.725 501.173 294.57L411.327 307.926L394.373 350.897L422.572 386.423L439.365 343.843L439.512 343.455L486.002 336.543L486.311 335.766L486.832 336.42L532.492 329.632L549.593 286.274L549.74 285.886L597.876 278.73L580.158 323.644L580.011 324.031L534.35 330.819L562.55 366.346L563.38 366.222L563.071 367L592.82 404.491L547.804 411.183C547.748 411.689 547.556 412.171 547.264 412.566L574.527 446.914L621.833 439.882L604.585 483.628L604.599 483.626L586.881 528.539L586.734 528.927L541.074 535.715L567.833 569.421C568.053 569.33 568.288 569.237 568.545 569.198C570.091 568.969 571.537 570.041 571.767 571.588C571.997 573.134 570.925 574.581 569.38 574.811C568.088 574.974 566.868 574.248 566.375 573.092ZM108.47 188.222L91.8247 230.415L136.655 223.75L153.3 181.557L108.47 188.222ZM281.406 78.6707L298.051 36.4777L253.221 43.1422L236.576 85.3353L281.406 78.6707ZM498.234 87.6771L543.064 81.0125L559.709 38.8195L517.168 45.1437C517.032 46.3932 516.077 47.4426 514.775 47.6362C514.517 47.6745 514.268 47.6677 514.028 47.6301L498.234 87.6771ZM516.956 43.7119L559.496 37.3876L531.299 1.87561L486.469 8.54017L513.228 42.2465C513.448 42.1551 513.683 42.0617 513.94 42.0234C515.243 41.8298 516.448 42.558 516.956 43.7119ZM556.459 490.753L573.105 448.56L528.274 455.225L511.629 497.418L556.459 490.753ZM542.205 410.508C542.261 410.002 542.438 409.522 542.745 409.125L516.003 375.431L499.666 416.847L542.207 410.523L542.205 410.508ZM468.991 381.688L424.161 388.353L450.92 422.059C451.14 421.968 451.375 421.875 451.632 421.836C452.934 421.643 454.154 422.369 454.648 423.525L497.188 417.201L468.991 381.688ZM449.224 424.331C449.281 423.825 449.472 423.343 449.765 422.948L423.022 389.254L406.686 430.669L449.227 424.345L449.224 424.331ZM470.13 380.788L498.329 416.314L505.892 397.145L514.974 374.121L486.775 338.594L479.211 357.763L470.13 380.788ZM517.127 374.533L543.886 408.239C544.106 408.148 544.341 408.054 544.598 408.016C544.856 407.977 545.105 407.984 545.345 408.022L561.141 367.989L517.127 374.533ZM434.266 467.737L450.359 426.943C449.964 426.65 449.641 426.245 449.439 425.777L406.069 432.225L389.423 474.418L434.268 467.751L434.266 467.737ZM332.516 278.446L289.975 284.77L318.175 320.296L363.005 313.632L336.246 279.926C336.026 280.017 335.791 280.11 335.534 280.149C334.229 280.328 333.01 279.602 332.516 278.446ZM337.925 277.642C337.869 278.148 337.677 278.63 337.385 279.025L364.127 312.719L380.466 271.318L337.925 277.642ZM317.036 321.197L288.837 285.671L280.681 306.362L272.206 327.862L300.405 363.388L317.036 321.197ZM242.655 291.805L226.01 333.998L270.84 327.333L287.486 285.14L242.655 291.805ZM120.448 268.791L103.802 310.984L148.632 304.319L165.278 262.126L120.448 268.791ZM212.385 253.659L217.835 239.854L229.03 211.466L184.2 218.131L167.555 260.324L212.385 253.659ZM275.295 203.14L261.203 185.375L247.11 167.611L202.28 174.276L216.373 192.04L230.465 209.804L275.295 203.14ZM155.79 181.187L183.989 216.713L228.82 210.049L214.727 192.285L200.635 174.52L155.79 181.187ZM168.892 136.608C168.949 136.103 169.126 135.622 169.433 135.226L142.169 100.877L97.3388 107.542L125.538 143.068L168.894 136.623L168.892 136.608ZM32.5414 156.879L77.3716 150.214L49.1724 114.688L5.80166 121.135C5.74525 121.641 5.56796 122.121 5.26132 122.518L32.5414 156.879ZM50.3109 113.787L78.5101 149.313L94.8469 107.898L95.1554 107.12L94.634 106.466L66.9562 71.5938L50.3109 113.787ZM113.755 63.9049L97.1095 106.098L141.94 99.4333L158.585 57.2403L113.755 63.9049ZM161.061 56.8723L189.26 92.3986L234.09 85.7341L205.891 50.2077L161.061 56.8723ZM188.136 93.2975L159.936 57.7711L152.373 76.9401L143.291 99.9642L170.557 134.327C170.777 134.236 171.012 134.142 171.27 134.104C171.527 134.065 171.777 134.072 172.016 134.11L188.136 93.2975ZM174.514 137.236C174.458 137.742 174.28 138.222 173.974 138.619L201.237 172.967L246.068 166.303L217.868 130.776L174.512 137.222L174.514 137.236ZM265.19 123.756L248.545 165.949L293.375 159.285L310.021 117.091L265.19 123.756ZM331.222 72.7869C331.086 74.0364 330.131 75.0858 328.829 75.2794C328.571 75.3177 328.321 75.3109 328.082 75.2733L312.285 115.306L357.116 108.641L373.761 66.4483L331.22 72.7725L331.222 72.7869ZM403.622 101.742L420.268 59.5492L375.437 66.2138L358.792 108.407L403.622 101.742ZM467.338 51.0296L483.983 8.8366L439.153 15.5012L422.507 57.6942L467.338 51.0296ZM421.913 59.3046L405.268 101.498L450.098 94.833L466.743 52.64L421.913 59.3046ZM387.396 146.756L371.303 187.55C371.698 187.842 372.022 188.248 372.223 188.716L415.593 182.268L432.239 140.075L387.394 146.742L387.396 146.756ZM434.479 138.322L478.508 131.777L450.309 96.2505L405.478 102.915L433.643 138.403L434.487 138.277L434.479 138.322ZM321.785 196.228L293.586 160.702L248.756 167.367L262.848 185.131L276.941 202.895L321.785 196.228ZM275.522 204.569L230.678 211.236L221.173 235.348L214.047 253.427L256.588 247.103C256.724 245.853 257.679 244.804 258.981 244.61C259.239 244.572 259.489 244.579 259.728 244.616L275.522 204.569ZM305.578 241.269L262.207 247.716C262.151 248.222 261.974 248.702 261.667 249.099L288.931 283.447L332.301 277C332.358 276.494 332.535 276.014 332.842 275.617L305.578 241.269ZM352.884 234.236L336.791 275.03C337.185 275.322 337.509 275.728 337.71 276.196L381.081 269.748L381.389 268.97L397.726 227.555L352.882 234.222L352.884 234.236ZM445.864 220.413L429.219 262.606L474.049 255.942L490.694 213.749L445.864 220.413ZM427.573 262.851L444.218 220.658L399.388 227.323L382.743 269.516L427.573 262.851ZM507.934 169.945L464.878 176.346C464.742 177.596 463.786 178.645 462.484 178.839C462.398 178.851 462.31 178.85 462.222 178.848L446.47 218.787L491.301 212.122L507.934 169.945ZM566.176 242.187L537.977 206.661L493.147 213.326L521.346 248.852L566.176 242.187ZM500.987 293.119C501.044 292.613 501.221 292.133 501.527 291.736L474.264 257.388L429.434 264.053L457.633 299.579L500.989 293.133L500.987 293.119ZM427.786 264.283L382.956 270.947L411.155 306.474L455.985 299.809L427.786 264.283ZM410.002 307.377L381.803 271.851L365.156 314.029L365.677 314.683L393.355 349.556L410.002 307.377ZM377.149 394.61L405.349 430.136L421.686 388.721L421.994 387.943L421.473 387.289L393.795 352.417L377.149 394.61ZM440.579 344.73L423.934 386.923L468.764 380.259L485.409 338.066L440.579 344.73ZM579.007 322.688L595.652 280.495L550.822 287.159L534.176 329.352L579.007 322.688ZM532.729 331.031L487.899 337.696L516.098 373.222L560.929 366.557L532.729 331.031ZM562.493 368.52L546.708 408.536C547.103 408.829 547.427 409.234 547.628 409.702L590.169 403.378L562.493 368.52ZM542.417 411.94L499.877 418.264L528.076 453.791L572.906 447.126L546.147 413.42C545.927 413.511 545.692 413.605 545.435 413.643C544.133 413.836 542.911 413.096 542.417 411.94ZM619.595 441.649L574.779 448.311L558.134 490.504L602.964 483.84L619.595 441.649ZM585.714 527.571L602.359 485.378L557.529 492.043L540.883 534.236L585.714 527.571ZM539.436 535.915L494.606 542.579L522.805 578.106L566.176 571.658C566.232 571.152 566.41 570.672 566.716 570.275L539.436 535.915Z" fill="url(#paint0_linear_108_2)"/>
    <defs>
        <linearGradient id="paint0_linear_108_2" x1="704.703" y1="170.976" x2="-243.279" y2="1059.91" gradientUnits="userSpaceOnUse">
            <stop stop-color="#2d6aa4"/>
            <stop offset="0.1074" stop-color="#3DCFDA"/>
            <stop offset="0.3674" stop-color="#61D9E2"/>
            <stop offset="0.5713" stop-color="#90E8EE"/>
            <stop offset="0.7773" stop-color="#ABF2F8"/>
            <stop offset="0.976" stop-color="#DAF6F9"/>
        </linearGradient>
    </defs>
</svg>