<svg width="24" height="24" viewBox="0 0 24 24" fill="none" xmlns="http://www.w3.org/2000/svg">
<path d="M21.0427 24H11.3915C9.75927 24 8.41713 22.7038 8.41713 21.0793V18.7076C8.41713 18.334 8.72423 18.0284 9.09959 18.0284C9.47494 18.0284 9.78205 18.334 9.78205 18.7076V21.0793C9.78205 21.951 10.5157 22.6415 11.3915 22.6415H21.0427C21.9185 22.6415 22.6351 21.9566 22.6351 21.0793V2.92074C22.6351 2.0434 21.9185 1.35847 21.0427 1.35847H11.3915C10.5157 1.35847 9.78205 2.04335 9.78205 2.92074V5.67733C9.78205 6.05091 9.47494 6.35657 9.09959 6.35657C8.72423 6.35657 8.41713 6.05091 8.41713 5.67733V2.92074C8.41713 1.29622 9.76499 0 11.3915 0H21.0427C22.6749 0 24 1.29622 24 2.92074V21.0844C24 22.7033 22.6749 23.9995 21.0427 23.9995V24Z" fill="#2d6aa4"/>
<path d="M14.0925 8.19051C13.8139 7.94145 13.7911 7.51691 14.0414 7.23957C14.2916 6.96224 14.7238 6.93958 15.0025 7.19429L20.0015 11.6886C20.1437 11.8188 20.229 11.9999 20.229 12.1924C20.229 12.3848 20.1494 12.5659 20.0015 12.6961L15.0025 17.1904C14.8717 17.3093 14.7067 17.3659 14.5475 17.3659C14.3598 17.3659 14.1778 17.2923 14.0413 17.1395C13.7911 16.8621 13.8082 16.4206 14.0925 16.1716L17.7778 12.849H0.682249C0.306892 12.849 -0.000211716 12.5433 -0.000211716 12.1697C-0.000211716 11.7962 0.306892 11.4905 0.682249 11.4905H17.7778L14.0925 8.19051Z" fill="#2d6aa4"/>
</svg>
