<svg width="640" height="481" viewBox="0 0 640 481" fill="none" xmlns="http://www.w3.org/2000/svg">
    <path d="M639.935 386.769L608.101 368.402L639.086 350.522L639.369 350.364V313.608L639.935 313.28L639.369 312.953V276.208L608.124 258.17L639.12 240.279L639.403 240.12V202.076L606.721 220.94L606.438 221.098V257.197L606.415 257.186V294.586L576.731 311.72C576.459 311.448 576.109 311.245 575.724 311.143V239.476L543.89 221.109V184.365L513.629 166.903C513.685 166.711 513.719 166.519 513.719 166.315C513.719 166.112 513.685 165.92 513.629 165.739L543.608 148.435L543.89 148.277V112.2L574.559 129.899V204.032L605.375 186.242C605.782 186.65 606.336 186.898 606.947 186.898C608.169 186.898 609.164 185.903 609.164 184.682C609.164 183.653 608.463 182.793 607.513 182.544V111.567L639.109 93.3248L639.392 93.1665V55.1218L607.513 73.5221V73.4882L575.113 92.1826L542.725 73.4882V110.9L511.208 129.096L510.925 129.255V164.189C509.975 164.438 509.274 165.298 509.274 166.327C509.274 167.356 509.975 168.215 510.925 168.464V203.399L542.759 221.765V257.853L512.056 275.575V239.487L480.223 221.121V220.465L479.657 220.793L479.091 220.465V221.121L447.54 239.306L447.257 239.464V277.509L478.073 259.719C478.48 260.126 479.035 260.375 479.646 260.375C480.256 260.375 480.822 260.126 481.218 259.719L510.903 276.853V350.997L543.302 332.303L574.57 350.341L605.839 368.391L575.136 386.113L574.57 385.785V386.441L574.005 386.769L574.57 387.097V423.841L606.404 442.207V476.486C605.454 476.735 604.752 477.594 604.752 478.623C604.752 479.845 605.748 480.84 606.97 480.84C608.191 480.84 609.187 479.845 609.187 478.623C609.187 478.42 609.153 478.227 609.096 478.046L639.075 460.743L639.358 460.585V422.54L607.524 440.907V405.474L639.935 386.769ZM607.558 221.754L638.261 204.032V239.464L607.558 257.186V221.754ZM638.238 349.697L607.535 367.418V331.986L638.238 314.264V349.697ZM638.238 312.297L607.535 294.575V259.143L638.238 276.864V312.297ZM606.97 295.559L637.672 313.28L623.724 321.333L606.97 331.002L577.274 313.857C577.319 313.676 577.364 313.484 577.364 313.28C577.364 313.077 577.331 312.885 577.274 312.704L606.97 295.559ZM574.582 276.864V311.132C574.197 311.233 573.846 311.437 573.575 311.708L559.242 303.43L543.89 294.575V259.143L559.242 267.998L574.582 276.864ZM575.679 129.899L606.381 112.177V147.61L575.679 165.331V129.899ZM575.679 202.076V166.643L606.381 148.922V182.544C605.431 182.793 604.73 183.653 604.73 184.682C604.73 184.885 604.764 185.078 604.82 185.259L575.679 202.076ZM607.558 74.8001L638.261 57.0783V92.5105L607.558 110.232V74.8001ZM606.381 110.877L575.679 128.599V93.1665L606.381 75.4447V110.877ZM543.856 75.4447L574.559 93.1665V128.599L543.89 110.9V110.232L543.868 110.244V75.4447H543.856ZM542.748 112.189V147.621L513.063 164.755C512.792 164.483 512.441 164.28 512.056 164.178V129.899L542.748 112.189ZM512.045 202.732V168.453C512.43 168.351 512.78 168.159 513.052 167.876L542.748 185.021V220.453L512.045 202.732ZM574.582 240.132V275.564L559.23 266.709L543.879 257.853V222.421L574.582 240.132ZM448.389 275.552V240.12L479.091 222.398V256.021C478.141 256.27 477.44 257.13 477.44 258.159C477.44 258.362 477.474 258.554 477.53 258.735L448.389 275.552ZM480.223 256.032V222.41L510.925 240.132V275.564L481.795 258.758C481.84 258.577 481.886 258.385 481.886 258.181C481.874 257.141 481.173 256.281 480.223 256.032ZM512.045 276.864L542.748 259.143V294.575L512.045 312.297V276.864ZM512.045 313.608L542.748 295.887V331.319L512.045 349.041V313.608ZM543.879 331.319V295.887L559.23 304.742L573.009 312.692C572.964 312.873 572.919 313.066 572.919 313.269C572.919 314.298 573.62 315.158 574.57 315.407V349.029L543.879 331.319ZM575.713 315.418C576.098 315.316 576.448 315.124 576.72 314.841L606.404 331.975V367.407L575.701 349.685V315.418H575.713ZM606.404 369.375L606.97 369.047L607.535 369.375L637.672 386.769L606.97 404.49L576.267 386.769L606.404 369.375ZM575.713 387.741L606.415 405.463V440.895L575.713 423.173V387.741ZM638.238 424.485V459.918L608.553 477.051C608.282 476.78 607.931 476.576 607.547 476.474V442.196L638.238 424.485ZM450.052 203.059C450.052 202.856 450.018 202.664 449.961 202.483L479.94 185.179L480.223 185.021V111.567L509.726 94.5349C510.133 95.1004 510.789 95.4736 511.536 95.4736C512.758 95.4736 513.753 94.4784 513.753 93.2569C513.753 92.2278 513.052 91.3683 512.102 91.1195V55.1218L480.268 73.4882V37.4L447.314 18.3777V56.4224L478.548 74.4495L447.823 92.1826L418.127 75.0376C418.173 74.8566 418.218 74.6644 418.218 74.4608C418.218 73.2394 417.222 72.2442 416.001 72.2442C414.779 72.2442 413.783 73.2394 413.783 74.4608C413.783 75.4899 414.485 76.3495 415.435 76.5983V110.221V147.621L384.167 165.671L353.464 147.949L384.45 130.069L384.732 129.911V93.1552L385.298 92.8272L384.732 92.4992V56.4111L416.283 38.203L416.566 38.0447V0L383.884 18.864L383.601 19.0223V55.1105L352.899 37.3887V36.7328L352.333 37.0608L319.933 18.3664V53.9456C319.549 54.0474 319.198 54.251 318.927 54.5224L289.242 37.3887V0L257.408 18.3664V18.3551L224.726 37.2191L224.443 37.3774V73.4656L193.741 55.7438V55.0879L193.175 55.4158L192.609 55.0879V55.7438L161.364 73.8048L128.964 55.1105V92.4992L98.2618 110.221V74.1328L65.2967 55.1105L33.4629 36.7441V74.1441L3.78973 91.2665C3.38247 90.8594 2.82815 90.6106 2.21727 90.6106C0.995501 90.6106 0 91.6058 0 92.8272C0 94.0486 0.995501 95.0438 2.21727 95.0438C2.83947 95.0438 3.39379 94.795 3.78973 94.3879L33.4742 111.522V148.922L66.1565 130.058L66.4393 129.899V93.8111L97.1418 111.533V148.922L127.958 131.132C128.229 131.403 128.58 131.607 128.964 131.709V166.643L161.929 185.666V148.922L193.763 167.288V129.243L162.495 111.205L193.186 93.4944L225.586 112.189V74.7888L256.288 57.067V129.243L224.737 147.451L224.455 147.61V185.654L255.27 167.865C255.678 168.272 256.232 168.521 256.843 168.521C258.064 168.521 259.06 167.525 259.06 166.304C259.06 165.275 258.359 164.415 257.408 164.167V129.899L288.959 111.691L289.242 111.533V75.4447L319.945 93.1665V127.445C318.994 127.694 318.293 128.553 318.293 129.583C318.293 129.786 318.327 129.978 318.384 130.159L288.405 147.463L288.122 147.621V185.666L320.522 166.971L352.356 185.338L384.189 166.971L416.023 185.338L447.291 167.288V200.911C446.341 201.159 445.64 202.019 445.64 203.048C445.64 204.27 446.635 205.265 447.857 205.265C449.056 205.276 450.052 204.281 450.052 203.059ZM479.091 184.354L449.407 201.487C449.135 201.216 448.785 201.012 448.4 200.911V166.643L448.966 166.315L479.103 148.922V184.354H479.091ZM416.566 112.177L447.269 129.899V165.331L416.566 147.61V112.177ZM448.389 129.899L479.091 112.177V147.61L448.389 165.331V129.899ZM479.091 110.877L448.389 128.599V93.1665L479.091 75.4447V110.877ZM510.97 57.0783V91.1082C510.02 91.357 509.319 92.2165 509.319 93.2456C509.319 93.3135 509.33 93.3813 509.341 93.4492L480.279 110.221V74.8001L510.97 57.0783ZM448.445 20.3342L479.148 38.056V73.4882L448.445 55.7777V20.3342ZM416.566 76.5983C416.951 76.4965 417.302 76.3042 417.573 76.0215L447.257 93.1552V128.587L416.555 110.866V76.5983H416.566ZM352.344 110.549L321.642 92.8272L335.59 84.7749L352.344 75.1054L383.047 92.8272L369.098 100.879L352.344 110.549ZM321.076 58.2319C321.461 58.1301 321.811 57.9378 322.083 57.6551L351.202 74.4608L321.076 91.8546V58.2319ZM351.767 73.4769L322.648 56.6712C322.694 56.4902 322.739 56.298 322.739 56.0944C322.739 55.8908 322.705 55.6986 322.648 55.5176L351.779 38.7006V73.4769H351.767ZM351.767 111.533V146.965L322.648 130.148C322.694 129.967 322.739 129.775 322.739 129.571C322.739 128.542 322.038 127.683 321.087 127.434V93.8111L351.767 111.533ZM321.076 131.709C321.461 131.607 321.811 131.403 322.083 131.132L351.202 147.938L321.065 165.331V131.709H321.076ZM383.601 129.243L352.899 146.965V111.533L383.601 93.8111V129.243ZM384.732 19.6783L415.435 1.95651V37.3887L384.732 55.1105V19.6783ZM383.601 56.4111V91.8546L352.899 74.1328V38.7006L383.601 56.4111ZM351.202 37.7167L322.083 54.5224C321.811 54.251 321.461 54.0474 321.076 53.9456V20.3229L351.202 37.7167ZM288.111 1.96783V37.4L257.408 55.1218V19.7009L288.111 1.96783ZM192.621 57.067V92.4992L161.918 110.221V74.7888L192.621 57.067ZM130.096 57.067L160.798 74.7888V110.221L145.447 101.366L130.096 92.5105V57.067ZM160.798 146.965L145.447 138.11L131.668 130.159C131.713 129.978 131.759 129.786 131.759 129.583C131.759 128.553 131.057 127.694 130.107 127.445V93.8111L145.458 102.666L160.81 111.522V146.965H160.798ZM97.1418 110.221L66.4393 92.4992V57.067L97.1418 74.7888V110.221ZM34.6167 38.6893L65.3193 56.4111V91.8546L34.6167 74.1328V38.6893ZM4.35538 92.2504L34.0511 75.1167L64.7537 92.8385L50.8052 100.891L34.0511 110.56L4.35538 93.4266C4.40063 93.2456 4.44587 93.0534 4.44587 92.8498C4.43456 92.6236 4.40063 92.4314 4.35538 92.2504ZM65.308 129.243L34.6054 146.965V111.533L65.308 93.8111V129.243ZM98.2731 146.965V111.522L128.976 93.7998V127.423C128.025 127.671 127.324 128.531 127.324 129.56C127.324 129.764 127.358 129.956 127.415 130.137L98.2731 146.965ZM160.798 183.698L130.096 165.976V131.709C130.48 131.607 130.831 131.415 131.102 131.132L145.436 139.41L160.787 148.266V183.698H160.798ZM192.621 165.331L161.918 147.61V112.177L192.621 129.899V165.331ZM224.455 110.221L193.752 92.4992V57.067L224.455 74.7888V110.221ZM225.586 73.4769V38.0447L256.288 20.3229V55.7551L225.586 73.4769ZM288.111 38.7119V74.1328L257.42 91.8546V56.4337L288.111 38.7119ZM225.586 183.709V148.277L256.288 130.555V164.178C255.338 164.427 254.637 165.286 254.637 166.315C254.637 166.519 254.671 166.711 254.727 166.892L225.586 183.709ZM288.111 110.877L257.408 128.599V93.1552L288.111 75.4334V110.877ZM289.242 38.7006L318.372 55.5063C318.327 55.6873 318.282 55.8795 318.282 56.0831C318.282 57.1122 318.983 57.9718 319.933 58.2206V91.8546L289.242 74.1328V38.7006ZM289.242 148.277L318.927 131.143C319.198 131.415 319.549 131.618 319.933 131.72V165.999L289.231 183.72V148.277H289.242ZM352.333 184.037L321.63 166.315L351.767 148.922L352.333 148.594L352.899 148.922L383.036 166.315L352.333 184.037ZM385.298 166.315L416.001 148.594L446.703 166.315L416.001 184.037L385.298 166.315Z" fill="url(#paint0_linear_1_156)"/>
    <defs>
        <linearGradient id="paint0_linear_1_156" x1="-69.3776" y1="770.061" x2="509.102" y2="-64.989" gradientUnits="userSpaceOnUse">
            <stop stop-color="#D2D2D1"/>
            <stop offset="0.1074" stop-color="#DADADA"/>
            <stop offset="0.3674" stop-color="#EAEAEA"/>
            <stop offset="0.5713" stop-color="#F0F0F0"/>
            <stop offset="0.7773" stop-color="#F4F4F4"/>
            <stop offset="0.976" stop-color="white"/>
        </linearGradient>
    </defs>
</svg>