<svg width="23" height="23" viewBox="0 0 23 23" fill="none" xmlns="http://www.w3.org/2000/svg">
    <path d="M15.2185 1.96959L7.41558 9.77249C4.15049 13.0458 1.67789 17.0229 0.187171 21.3994C0.116081 21.6064 0.104758 21.8292 0.154503 22.0423C0.204247 22.2555 0.313044 22.4503 0.468421 22.6044L0.472499 22.6085C0.580624 22.7174 0.709222 22.8039 0.850895 22.863C0.992569 22.9221 1.14452 22.9525 1.29801 22.9527C1.42717 22.9526 1.55544 22.9313 1.6777 22.8897C6.05413 21.3989 10.0313 18.9263 13.3046 15.6612L21.1073 7.85835C21.8882 7.07746 22.3269 6.01834 22.3269 4.91398C22.3269 3.80963 21.8882 2.75051 21.1073 1.96961C20.7206 1.58295 20.2616 1.27623 19.7564 1.06697C19.2512 0.857708 18.7097 0.750002 18.1629 0.75C17.0586 0.749996 15.9994 1.18869 15.2185 1.96959ZM12.2437 14.6006C9.29447 17.5421 5.74231 19.8089 1.8322 21.2447C3.26794 17.3346 5.53473 13.7824 8.47622 10.8331L13.1244 6.18496L16.8919 9.9524L12.2437 14.6006ZM20.0466 6.79771L17.9525 8.89176L14.1851 5.12432L16.2792 3.03023C16.5264 2.78226 16.8201 2.58547 17.1435 2.45112C17.4669 2.31677 17.8135 2.24748 18.1637 2.24723C18.5139 2.24697 18.8607 2.31576 19.1842 2.44965C19.5078 2.58353 19.8018 2.7799 20.0494 3.02751C20.297 3.27511 20.4933 3.56911 20.6272 3.89267C20.7611 4.21623 20.8299 4.56301 20.8296 4.91318C20.8294 5.26335 20.7601 5.61003 20.6257 5.9334C20.4914 6.25676 20.2946 6.55047 20.0466 6.79771Z" fill="white"/>
</svg>