<svg width="24" height="24" viewBox="0 0 24 24" fill="none" xmlns="http://www.w3.org/2000/svg">
    <path d="M12 0C8.8174 0 5.76516 1.26428 3.51472 3.51472C1.26428 5.76516 0 8.8174 0 12C0 15.1826 1.26428 18.2348 3.51472 20.4853C5.76516 22.7357 8.8174 24 12 24C15.1826 24 18.2348 22.7357 20.4853 20.4853C22.7357 18.2348 24 15.1826 24 12C24 8.8174 22.7357 5.76516 20.4853 3.51472C18.2348 1.26428 15.1826 0 12 0V0ZM6 6H18C18.2145 6 18.4215 6.0465 18.6135 6.132L12 13.8465L5.3865 6.132C5.57914 6.04444 5.78839 5.99942 6 6ZM4.5 16.5V7.5L4.503 7.4055L8.901 12.537L4.551 16.887C4.51664 16.7609 4.49949 16.6307 4.5 16.5ZM18 18H6C5.868 18 5.7375 17.982 5.613 17.949L9.882 13.68L12.0015 16.152L14.121 13.68L18.39 17.949C18.2639 17.9834 18.1337 18.0005 18.003 18H18ZM19.5 16.5C19.5 16.632 19.482 16.7625 19.449 16.887L15.099 12.537L19.497 7.4055L19.5 7.5V16.5Z" fill="#2d6aa4"/>
</svg>