<svg width="865" height="650" viewBox="0 0 865 650" fill="none" xmlns="http://www.w3.org/2000/svg">
    <path d="M864.935 127.146L821.908 151.97L863.788 176.137L864.17 176.351V226.03L864.935 226.473L864.17 226.916V276.58L821.939 300.96L863.834 325.142L864.216 325.356V376.777L820.043 351.281L819.661 351.067V302.275L819.63 302.29V251.74L779.509 228.582C779.142 228.949 778.668 229.224 778.148 229.362V326.228L735.121 351.052V400.715L694.22 424.316C694.296 424.576 694.342 424.836 694.342 425.111C694.342 425.386 694.296 425.646 694.22 425.89L734.739 449.277L735.121 449.491V498.253L776.573 474.331V374.133L818.223 398.177C818.774 397.627 819.523 397.291 820.349 397.291C822 397.291 823.345 398.636 823.345 400.287C823.345 401.678 822.398 402.839 821.113 403.176V499.109L863.819 523.765L864.201 523.979V575.4L821.113 550.53V550.576L777.322 525.309L733.546 550.576V500.011L690.948 475.416L690.566 475.202V427.984C689.281 427.648 688.333 426.486 688.333 425.095C688.333 423.704 689.281 422.543 690.566 422.206V374.989L733.592 350.165V301.388L692.095 277.436V326.212L649.068 351.036V351.923L648.304 351.48L647.539 351.923V351.036L604.895 326.457L604.512 326.243V274.822L646.163 298.866C646.713 298.316 647.463 297.98 648.288 297.98C649.114 297.98 649.878 298.316 650.414 298.866L690.535 275.708V175.495L734.326 200.762L776.588 176.382L818.85 151.986L777.353 128.033L776.588 128.476V127.59L775.824 127.146L776.588 126.703V77.0399L819.615 52.2159V5.88501C818.33 5.54872 817.382 4.38703 817.382 2.99603C817.382 1.34518 818.728 0 820.379 0C822.031 0 823.376 1.34518 823.376 2.99603C823.376 3.27118 823.33 3.531 823.254 3.77557L863.773 27.1627L864.155 27.3767V78.7979L821.129 53.9738V101.864L864.935 127.146ZM821.174 350.18L862.672 374.133V326.243L821.174 302.29V350.18ZM862.641 177.253L821.144 153.3V201.19L862.641 225.143V177.253ZM862.641 227.803L821.144 251.756V299.646L862.641 275.693V227.803ZM820.379 250.426L861.877 226.473L843.024 215.59L820.379 202.52L780.243 225.693C780.304 225.938 780.365 226.198 780.365 226.473C780.365 226.748 780.319 227.008 780.243 227.253L820.379 250.426ZM776.604 275.693V229.377C776.084 229.24 775.61 228.965 775.243 228.598L755.87 239.787L735.121 251.756V299.646L755.87 287.677L776.604 275.693ZM778.087 474.331L819.584 498.283V450.393L778.087 426.441V474.331ZM778.087 376.777V424.667L819.584 448.62V403.176C818.3 402.839 817.352 401.678 817.352 400.287C817.352 400.012 817.398 399.752 817.474 399.507L778.087 376.777ZM821.174 548.803L862.672 572.755V524.865L821.174 500.913V548.803ZM819.584 500.041L778.087 476.089V523.979L819.584 547.931V500.041ZM735.075 547.931L776.573 523.979V476.089L735.121 500.011V500.913L735.091 500.897V547.931H735.075ZM733.577 498.268V450.378L693.455 427.22C693.088 427.587 692.614 427.862 692.095 428V474.331L733.577 498.268ZM692.079 375.891V422.222C692.599 422.359 693.073 422.619 693.44 423.001L733.577 399.828V351.938L692.079 375.891ZM776.604 325.341V277.451L755.855 289.42L735.106 301.388V349.278L776.604 325.341ZM606.042 277.466V325.356L647.539 349.309V303.865C646.255 303.528 645.307 302.367 645.307 300.976C645.307 300.7 645.353 300.441 645.429 300.196L606.042 277.466ZM649.068 303.849V349.294L690.566 325.341V277.451L651.193 300.165C651.255 300.41 651.316 300.67 651.316 300.945C651.301 302.351 650.352 303.513 649.068 303.849ZM692.079 275.693L733.577 299.646V251.756L692.079 227.803V275.693ZM692.079 226.03L733.577 249.982V202.092L692.079 178.14V226.03ZM735.106 202.092V249.982L755.855 238.014L774.478 227.268C774.417 227.023 774.356 226.763 774.356 226.488C774.356 225.097 775.304 223.936 776.588 223.599V178.155L735.106 202.092ZM778.133 223.584C778.652 223.722 779.126 223.981 779.493 224.364L819.615 201.206V153.316L778.117 177.268V223.584H778.133ZM819.615 150.656L820.379 151.099L821.144 150.656L861.877 127.146L820.379 103.194L778.882 127.146L819.615 150.656ZM778.133 125.832L819.63 101.879V53.9891L778.133 77.9418V125.832ZM862.641 76.1687V28.2786L822.52 5.12073C822.153 5.48758 821.679 5.7627 821.159 5.90027V52.2313L862.641 76.1687ZM608.289 375.448C608.289 375.723 608.243 375.982 608.167 376.227L648.686 399.614L649.068 399.828V499.109L688.945 522.129C689.495 521.365 690.382 520.86 691.391 520.86C693.043 520.86 694.388 522.206 694.388 523.856C694.388 525.247 693.44 526.409 692.156 526.745V575.4L649.129 550.576V599.353L604.589 625.063V573.642L646.805 549.277L605.277 525.309L565.14 548.482C565.201 548.726 565.263 548.986 565.263 549.261C565.263 550.912 563.917 552.257 562.266 552.257C560.614 552.257 559.269 550.912 559.269 549.261C559.269 547.87 560.217 546.709 561.501 546.372V500.928V450.378L519.239 425.982L477.742 449.935L519.621 474.101L520.004 474.315V523.994L520.768 524.437L520.004 524.881V573.657L562.648 598.267L563.03 598.481V649.902L518.857 624.406L518.475 624.192V575.415L476.977 599.368V600.254L476.213 599.811L432.421 625.078V576.99C431.902 576.852 431.428 576.577 431.061 576.21L390.939 599.368V649.902L347.913 625.078V625.094L303.739 599.597L303.357 599.383V550.606L261.86 574.559V575.446L261.095 575.002L260.331 575.446V574.559L218.099 550.148L174.308 575.415V524.881L132.81 500.928V549.705L88.2549 575.415L45.2284 600.239V549.689L5.12219 526.547C4.57175 527.097 3.82253 527.433 2.99686 527.433C1.34552 527.433 0 526.088 0 524.437C0 522.786 1.34552 521.441 2.99686 521.441C3.83782 521.441 4.58704 521.778 5.12219 522.328L45.2436 499.17V448.62L89.417 474.117L89.7992 474.331V523.107L131.297 499.155V448.62L172.947 472.665C173.314 472.298 173.788 472.023 174.308 471.885V424.667L218.864 398.957V448.62L261.89 423.796V475.217L219.628 499.598L261.11 523.535L304.901 498.268V548.818L346.399 572.771V475.217L303.755 450.607L303.372 450.393V398.972L345.023 423.017C345.573 422.466 346.322 422.13 347.148 422.13C348.8 422.13 350.145 423.475 350.145 425.126C350.145 426.517 349.197 427.679 347.913 428.015V474.331L390.557 498.941L390.939 499.155V547.931L432.437 523.979V477.648C431.152 477.311 430.204 476.15 430.204 474.759C430.204 474.484 430.25 474.224 430.327 473.979L389.808 450.592L389.426 450.378V398.957L433.217 424.224L476.243 399.4L519.27 424.224L562.296 399.4L604.558 423.796V378.352C603.274 378.016 602.326 376.854 602.326 375.463C602.326 373.812 603.672 372.467 605.323 372.467C606.944 372.452 608.289 373.797 608.289 375.448ZM647.539 400.73L607.418 377.572C607.051 377.939 606.577 378.214 606.057 378.352V424.667L606.821 425.111L647.554 448.62V400.73H647.539ZM563.03 498.283L604.528 474.331V426.441L563.03 450.393V498.283ZM606.042 474.331L647.539 498.283V450.393L606.042 426.441V474.331ZM647.539 500.041L606.042 476.089V523.979L647.539 547.931V500.041ZM690.627 572.755V526.761C689.342 526.424 688.394 525.263 688.394 523.872C688.394 523.78 688.41 523.688 688.425 523.597L649.145 500.928V548.803L690.627 572.755ZM606.118 622.419L647.615 598.466V550.576L606.118 574.513V622.419ZM563.03 546.372C563.55 546.51 564.024 546.77 564.391 547.152L604.512 523.994V476.104L563.015 500.057V546.372H563.03ZM476.228 500.485L434.73 524.437L453.583 535.321L476.228 548.39L517.725 524.437L498.873 513.554L476.228 500.485ZM433.966 571.196C434.486 571.334 434.96 571.594 435.327 571.976L474.684 549.261L433.966 525.752V571.196ZM475.448 550.591L436.091 573.306C436.152 573.55 436.213 573.81 436.213 574.085C436.213 574.36 436.168 574.62 436.091 574.865L475.463 597.595V550.591H475.448ZM475.448 499.155V451.265L436.091 473.994C436.152 474.239 436.213 474.499 436.213 474.774C436.213 476.165 435.265 477.327 433.981 477.663V523.107L475.448 499.155ZM433.966 471.885C434.486 472.023 434.96 472.298 435.327 472.665L474.684 449.95L433.95 426.441V471.885H433.966ZM518.475 475.217L476.977 451.265V499.155L518.475 523.107V475.217ZM520.004 623.305L561.501 647.258V599.368L520.004 575.415V623.305ZM518.475 573.657V525.752L476.977 549.705V597.595L518.475 573.657ZM474.684 598.925L435.327 576.21C434.96 576.577 434.486 576.852 433.966 576.99V622.434L474.684 598.925ZM389.41 647.243V599.353L347.913 575.4V623.275L389.41 647.243ZM260.346 572.771V524.881L218.848 500.928V548.818L260.346 572.771ZM175.837 572.771L217.335 548.818V500.928L196.586 512.897L175.837 524.865V572.771ZM217.335 451.265L196.586 463.233L177.962 473.979C178.024 474.224 178.085 474.484 178.085 474.759C178.085 476.15 177.137 477.311 175.852 477.648V523.107L196.601 511.139L217.35 499.17V451.265H217.335ZM131.297 500.928L89.7992 524.881V572.771L131.297 548.818V500.928ZM46.7879 597.61L88.2855 573.657V525.752L46.7879 549.705V597.61ZM5.88672 525.217L46.0234 548.375L87.521 524.422L68.6682 513.539L46.0234 500.469L5.88672 523.627C5.94788 523.872 6.00903 524.132 6.00903 524.407C5.99374 524.712 5.94788 524.972 5.88672 525.217ZM88.2702 475.217L46.7726 451.265V499.155L88.2702 523.107V475.217ZM132.826 451.265V499.17L174.323 523.123V477.678C173.039 477.342 172.091 476.18 172.091 474.789C172.091 474.514 172.137 474.254 172.213 474.01L132.826 451.265ZM217.335 401.617L175.837 425.569V471.885C176.357 472.023 176.831 472.282 177.198 472.665L196.57 461.475L217.319 449.507V401.617H217.335ZM260.346 426.441L218.848 450.393V498.283L260.346 474.331V426.441ZM303.372 500.928L261.875 524.881V572.771L303.372 548.818V500.928ZM304.901 550.591V598.481L346.399 622.434V574.544L304.901 550.591ZM389.41 597.579V549.705L347.928 525.752V573.627L389.41 597.579ZM304.901 401.601V449.491L346.399 473.444V428C345.115 427.663 344.167 426.502 344.167 425.111C344.167 424.836 344.212 424.576 344.289 424.331L304.901 401.601ZM389.41 500.041L347.913 476.089V523.994L389.41 547.947V500.041ZM390.939 597.595L430.311 574.88C430.25 574.636 430.189 574.376 430.189 574.101C430.189 572.71 431.137 571.548 432.421 571.212V525.752L390.939 549.705V597.595ZM390.939 449.491L431.061 472.649C431.428 472.282 431.902 472.007 432.421 471.87V425.539L390.924 401.586V449.491H390.939ZM476.213 401.158L434.715 425.111L475.448 448.62L476.213 449.063L476.977 448.62L517.71 425.111L476.213 401.158ZM520.768 425.111L562.266 449.063L603.763 425.111L562.266 401.158L520.768 425.111Z" fill="url(#paint0_linear_6_4)"/>
    <defs>
        <linearGradient id="paint0_linear_6_4" x1="-93.7707" y1="-390.91" x2="688.102" y2="737.741" gradientUnits="userSpaceOnUse">
            <stop stop-color="#D2D2D1"/>
            <stop offset="0.1074" stop-color="#DADADA"/>
            <stop offset="0.3674" stop-color="#EAEAEA"/>
            <stop offset="0.5713" stop-color="#F0F0F0"/>
            <stop offset="0.7773" stop-color="#F4F4F4"/>
            <stop offset="0.976" stop-color="white"/>
        </linearGradient>
    </defs>
</svg>