<svg width="677" height="508" viewBox="0 0 677 508" fill="none" xmlns="http://www.w3.org/2000/svg">
    <path d="M676.081 408.615L642.449 389.211L675.185 370.321L675.484 370.154V331.323L676.081 330.976L675.484 330.63V291.81L642.473 272.753L675.221 253.851L675.52 253.683V213.49L640.991 233.419L640.693 233.587V271.725L640.669 271.713V311.226L609.307 329.327C609.021 329.04 608.65 328.825 608.244 328.718V253.002L574.612 233.599V194.779L542.641 176.331C542.701 176.128 542.737 175.925 542.737 175.71C542.737 175.495 542.701 175.291 542.641 175.1L574.313 156.82L574.612 156.652V118.538L607.013 137.237V215.557L639.569 196.762C639.999 197.192 640.585 197.455 641.23 197.455C642.521 197.455 643.573 196.404 643.573 195.113C643.573 194.026 642.832 193.118 641.828 192.855V117.869L675.209 98.5962L675.508 98.429V58.2353L641.828 77.675V77.6392L607.598 97.3895L573.381 77.6392V117.164L540.083 136.388L539.785 136.556V173.463C538.781 173.726 538.04 174.634 538.04 175.722C538.04 176.809 538.781 177.717 539.785 177.98V214.888L573.417 234.292V272.418L540.98 291.141V253.014L507.348 233.61V232.917L506.75 233.264L506.153 232.917V233.61L472.82 252.823L472.521 252.99V293.184L505.077 274.39C505.507 274.82 506.093 275.083 506.738 275.083C507.384 275.083 507.981 274.82 508.4 274.39L539.761 292.491V370.823L573.99 351.073L607.025 370.13L640.059 389.199L607.622 407.922L607.025 407.576V408.269L606.427 408.615L607.025 408.962V447.781L640.657 467.185V503.4C639.653 503.663 638.912 504.571 638.912 505.658C638.912 506.949 639.963 508 641.254 508C642.545 508 643.597 506.949 643.597 505.658C643.597 505.443 643.561 505.24 643.501 505.049L675.173 486.768L675.472 486.601V446.407L641.84 465.811V428.377L676.081 408.615ZM641.876 234.28L674.313 215.557V252.99L641.876 271.713V234.28ZM674.289 369.449L641.852 388.172V350.738L674.289 332.016V369.449ZM674.289 329.937L641.852 311.214V273.78L674.289 292.503V329.937ZM641.254 312.253L673.691 330.976L658.955 339.483L641.254 349.699L609.881 331.585C609.929 331.394 609.977 331.191 609.977 330.976C609.977 330.761 609.941 330.558 609.881 330.367L641.254 312.253ZM607.037 292.503V328.706C606.63 328.813 606.26 329.028 605.973 329.315L590.83 320.569L574.612 311.214V273.78L590.83 283.136L607.037 292.503ZM608.196 137.237L640.633 118.514V155.947L608.196 174.67V137.237ZM608.196 213.49V176.056L640.633 157.333V192.855C639.629 193.118 638.888 194.026 638.888 195.113C638.888 195.329 638.924 195.532 638.983 195.723L608.196 213.49ZM641.876 79.0251L674.313 60.3024V97.736L641.876 116.459V79.0251ZM640.633 117.14L608.196 135.863V98.429L640.633 79.7062V117.14ZM574.576 79.7062L607.013 98.429V135.863L574.612 117.164V116.459L574.588 116.471V79.7062H574.576ZM573.405 118.526V155.959L542.044 174.061C541.757 173.774 541.386 173.559 540.98 173.451V137.237L573.405 118.526ZM540.968 214.183V177.968C541.374 177.86 541.745 177.657 542.032 177.359L573.405 195.472V232.906L540.968 214.183ZM607.037 253.695V291.129L590.818 281.773L574.6 272.418V234.984L607.037 253.695ZM473.716 291.117V253.683L506.153 234.961V270.482C505.149 270.745 504.408 271.653 504.408 272.741C504.408 272.956 504.444 273.159 504.503 273.35L473.716 291.117ZM507.348 270.494V234.973L539.785 253.695V291.129L509.009 273.374C509.057 273.183 509.105 272.98 509.105 272.765C509.093 271.665 508.352 270.757 507.348 270.494ZM540.968 292.503L573.405 273.78V311.214L540.968 329.937V292.503ZM540.968 331.323L573.405 312.6V350.033L540.968 368.756V331.323ZM574.6 350.033V312.6L590.818 321.955L605.375 330.355C605.328 330.546 605.28 330.749 605.28 330.964C605.28 332.051 606.021 332.959 607.025 333.222V368.744L574.6 350.033ZM608.232 333.234C608.638 333.127 609.009 332.924 609.295 332.625L640.657 350.726V388.16L608.22 369.437V333.234H608.232ZM640.657 390.239L641.254 389.892L641.852 390.239L673.691 408.615L641.254 427.338L608.817 408.615L640.657 390.239ZM608.232 409.643L640.669 428.366V465.799L608.232 447.076V409.643ZM674.289 448.462V485.896L642.927 503.997C642.641 503.711 642.27 503.496 641.864 503.388V467.173L674.289 448.462ZM475.473 214.529C475.473 214.314 475.437 214.111 475.377 213.92L507.049 195.639L507.348 195.472V117.869L538.518 99.8747C538.948 100.472 539.641 100.866 540.43 100.866C541.721 100.866 542.773 99.8149 542.773 98.5245C542.773 97.4373 542.032 96.5292 541.028 96.2663V58.2353L507.396 77.6392V39.5126L472.581 19.4158V59.6094L505.579 78.6548L473.118 97.3895L441.745 79.2761C441.793 79.0849 441.841 78.8818 441.841 78.6667C441.841 77.3763 440.789 76.3249 439.498 76.3249C438.208 76.3249 437.156 77.3763 437.156 78.6667C437.156 79.754 437.897 80.662 438.901 80.9249V116.447V155.959L405.866 175.029L373.43 156.306L406.165 137.416L406.464 137.249V98.417L407.061 98.0705L406.464 97.724V59.5974L439.797 40.3609L440.096 40.1936V0L405.568 19.9295L405.269 20.0968V58.2234L372.832 39.5006V38.8076L372.234 39.1541L338.005 19.4038V56.9927C337.598 57.1003 337.228 57.3153 336.941 57.6021L305.58 39.5006V0L271.948 19.4038V19.3919L237.42 39.3214L237.121 39.4887V77.6153L204.684 58.8925V58.1995L204.086 58.546L203.489 58.1995V58.8925L170.478 77.9737L136.249 58.2234V97.724L103.812 116.447V78.3202L68.985 58.2234L35.353 38.8196V78.3321L4.00379 96.4217C3.57353 95.9915 2.9879 95.7287 2.34251 95.7287C1.05173 95.7287 0 96.7801 0 98.0705C0 99.3609 1.05173 100.412 2.34251 100.412C2.99985 100.412 3.58548 100.149 4.00379 99.7194L35.3649 117.821V157.333L69.8933 137.404L70.1921 137.237V99.11L102.629 117.833V157.333L135.185 138.539C135.472 138.826 135.842 139.041 136.249 139.148V176.056L171.076 196.153V157.333L204.708 176.737V136.544L171.674 117.486L204.098 98.7754L238.328 118.526V79.0132L270.765 60.2904V136.544L237.432 155.78L237.133 155.947V196.141L269.689 177.347C270.119 177.777 270.705 178.04 271.35 178.04C272.641 178.04 273.693 176.988 273.693 175.698C273.693 174.61 272.952 173.702 271.948 173.44V137.237L305.281 118L305.58 117.833V79.7062L338.017 98.429V134.644C337.013 134.907 336.272 135.815 336.272 136.902C336.272 137.117 336.308 137.32 336.367 137.511L304.696 155.792L304.397 155.959V196.153L338.626 176.403L372.258 195.806L405.89 176.403L439.522 195.806L472.557 176.737V212.259C471.553 212.522 470.812 213.43 470.812 214.517C470.812 215.808 471.863 216.859 473.154 216.859C474.421 216.871 475.473 215.82 475.473 214.529ZM506.153 194.767L474.792 212.868C474.505 212.582 474.134 212.367 473.728 212.259V176.056L474.325 175.71L506.165 157.333V194.767H506.153ZM440.096 118.514L472.533 137.237V174.67L440.096 155.947V118.514ZM473.716 137.237L506.153 118.514V155.947L473.716 174.67V137.237ZM506.153 117.14L473.716 135.863V98.429L506.153 79.7062V117.14ZM539.832 60.3024V96.2544C538.828 96.5172 538.088 97.4253 538.088 98.5126C538.088 98.5843 538.099 98.656 538.111 98.7277L507.408 116.447V79.0251L539.832 60.3024ZM473.776 21.4828L506.212 40.2056V77.6392L473.776 58.9283V21.4828ZM440.096 80.9249C440.502 80.8174 440.873 80.6142 441.16 80.3155L472.521 98.417V135.851L440.084 117.128V80.9249H440.096ZM372.246 116.793L339.809 98.0705L354.546 89.5634L372.246 79.3477L404.683 98.0705L389.947 106.578L372.246 116.793ZM339.212 61.5211C339.618 61.4135 339.989 61.2104 340.276 60.9117L371.039 78.6667L339.212 97.043V61.5211ZM371.637 77.6272L340.873 59.8722C340.921 59.6811 340.969 59.4779 340.969 59.2629C340.969 59.0478 340.933 58.8447 340.873 58.6535L371.649 40.8866V77.6272H371.637ZM371.637 117.833V155.266L340.873 137.499C340.921 137.308 340.969 137.105 340.969 136.89C340.969 135.803 340.228 134.895 339.224 134.632V99.11L371.637 117.833ZM339.212 139.148C339.618 139.041 339.989 138.826 340.276 138.539L371.039 156.294L339.2 174.67V139.148H339.212ZM405.269 136.544L372.832 155.266V117.833L405.269 99.11V136.544ZM406.464 20.7898L438.901 2.06703V39.5006L406.464 58.2234V20.7898ZM405.269 59.5974V97.043L372.832 78.3202V40.8866L405.269 59.5974ZM371.039 39.8471L340.276 57.6021C339.989 57.3153 339.618 57.1003 339.212 56.9927V21.4708L371.039 39.8471ZM304.385 2.07898V39.5126L271.948 58.2353V20.8137L304.385 2.07898ZM203.501 60.2904V97.724L171.064 116.447V79.0132L203.501 60.2904ZM137.444 60.2904L169.881 79.0132V116.447L153.662 107.091L137.444 97.736V60.2904ZM169.881 155.266L153.662 145.911L139.105 137.511C139.153 137.32 139.201 137.117 139.201 136.902C139.201 135.815 138.46 134.907 137.456 134.644V99.11L153.674 108.465L169.893 117.821V155.266H169.881ZM102.629 116.447L70.1921 97.724V60.2904L102.629 79.0132V116.447ZM36.5721 40.8747L69.0089 59.5974V97.043L36.5721 78.3202V40.8747ZM4.60139 97.4612L35.9745 79.3597L68.4113 98.0825L53.6749 106.59L35.9745 116.805L4.60139 98.7038C4.64919 98.5126 4.697 98.3095 4.697 98.0944C4.68504 97.8554 4.64919 97.6523 4.60139 97.4612ZM68.9969 136.544L36.5601 155.266V117.833L68.9969 99.11V136.544ZM103.824 155.266V117.821L136.261 99.0981V134.62C135.257 134.883 134.516 135.791 134.516 136.878C134.516 137.093 134.552 137.296 134.611 137.487L103.824 155.266ZM169.881 194.074L137.444 175.351V139.148C137.85 139.041 138.221 138.838 138.508 138.539L153.65 147.285L169.869 156.64V194.074H169.881ZM203.501 174.67L171.064 155.947V118.514L203.501 137.237V174.67ZM237.133 116.447L204.696 97.724V60.2904L237.133 79.0132V116.447ZM238.328 77.6272V40.1936L270.765 21.4708V58.9044L238.328 77.6272ZM304.385 40.8986V78.3202L271.96 97.043V59.6213L304.385 40.8986ZM238.328 194.086V156.652L270.765 137.93V173.451C269.761 173.714 269.02 174.622 269.02 175.71C269.02 175.925 269.056 176.128 269.115 176.319L238.328 194.086ZM304.385 117.14L271.948 135.863V98.417L304.385 79.6942V117.14ZM305.58 40.8866L336.355 58.6416C336.308 58.8327 336.26 59.0359 336.26 59.2509C336.26 60.3382 337.001 61.2463 338.005 61.5091V97.043L305.58 78.3202V40.8866ZM305.58 156.652L336.941 138.551C337.228 138.838 337.598 139.053 338.005 139.16V175.375L305.568 194.098V156.652H305.58ZM372.234 194.432L339.798 175.71L371.637 157.333L372.234 156.987L372.832 157.333L404.671 175.71L372.234 194.432ZM407.061 175.71L439.498 156.987L471.935 175.71L439.498 194.432L407.061 175.71Z" fill="url(#paint0_linear_1_154)"/>
    <defs>
        <linearGradient id="paint0_linear_1_154" x1="-73.2964" y1="813.557" x2="537.859" y2="-68.6599" gradientUnits="userSpaceOnUse">
            <stop stop-color="#2d6aa4"/>
            <stop offset="0.1074" stop-color="#1CBCC8"/>
            <stop offset="0.3674" stop-color="#50D5DF"/>
            <stop offset="0.5713" stop-color="#93EAF0"/>
            <stop offset="0.7773" stop-color="#BBF0F4"/>
            <stop offset="0.976" stop-color="#E2FDFF"/>
        </linearGradient>
    </defs>
</svg>