<svg width="24" height="20" viewBox="0 0 24 20" fill="none" xmlns="http://www.w3.org/2000/svg">
    <path fill-rule="evenodd" clip-rule="evenodd" d="M11.25 3.61644C11.1134 3.51583 10.9268 3.3851 10.6967 3.23951C10.1589 2.89927 9.39385 2.48458 8.48158 2.18049C6.74836 1.60275 4.51798 1.42911 2.25 2.89681V17.656C4.69058 16.3681 7.06586 16.4295 8.89247 16.8644C9.8443 17.091 10.6508 17.419 11.25 17.7108V3.61644ZM12.75 3.61644V17.7108C13.3492 17.419 14.1557 17.091 15.1075 16.8644C16.9341 16.4295 19.3094 16.3681 21.75 17.656V2.89681C19.482 1.42911 17.2516 1.60275 15.5184 2.18049C14.6061 2.48458 13.8411 2.89927 13.3033 3.23951C13.0732 3.3851 12.8866 3.51583 12.75 3.61644ZM11.5616 19.6088C11.6849 19.6978 11.8363 19.7502 12 19.7502C12.1637 19.7502 12.3151 19.6978 12.4384 19.6088L12.4418 19.6064C12.4487 19.6017 12.4605 19.5936 12.4769 19.5826C12.5098 19.5606 12.5615 19.5269 12.6306 19.4841C12.769 19.3985 12.9765 19.277 13.2432 19.141C13.7781 18.8681 14.5418 18.541 15.455 18.3236C17.2708 17.8913 19.6588 17.8925 22.0641 19.6105C22.2927 19.7738 22.5934 19.7957 22.8432 19.6671C23.093 19.5386 23.25 19.2812 23.25 19.0002V2.50023C23.25 2.25802 23.133 2.03071 22.9359 1.88993C20.0611 -0.163489 17.1684 0.049357 15.0441 0.757466C13.9876 1.10962 13.112 1.58556 12.5014 1.97189C12.3078 2.09435 12.1398 2.20847 12 2.30776C11.8602 2.20847 11.6922 2.09435 11.4986 1.97189C10.888 1.58556 10.0124 1.10962 8.95592 0.757466C6.83159 0.049357 3.93886 -0.163489 1.06407 1.88993C0.866974 2.03071 0.75 2.25802 0.75 2.50023V19.0002C0.75 19.2812 0.907011 19.5386 1.15681 19.6671C1.40662 19.7957 1.70732 19.7738 1.93593 19.6105C4.34121 17.8925 6.72923 17.8913 8.54503 18.3236C9.45818 18.541 10.2219 18.8681 10.7568 19.141C11.0235 19.277 11.231 19.3985 11.3694 19.4841C11.4385 19.5269 11.4902 19.5606 11.5231 19.5826C11.5395 19.5936 11.5513 19.6017 11.5582 19.6064L11.5616 19.6088Z" fill="white"/>
</svg>