<svg width="587" height="581" viewBox="0 0 587 581" fill="none" xmlns="http://www.w3.org/2000/svg">
    <path opacity="0.15" d="M584.811 504.842V459.136L541.712 434.248V483.18L501.571 506.366V458.292L459.211 482.751L418.331 459.151V414.302C419.573 413.977 420.49 412.852 420.49 411.506C420.49 411.24 420.446 410.988 420.372 410.751L459.566 388.113L459.936 387.905V338.13L417.591 362.589L375.971 338.544L334.351 362.574L293.47 338.959V291.743L335.83 267.284L293.47 242.826V193.894L250.741 218.574L250.371 218.781V265.997L212.286 243.995C212.345 243.758 212.404 243.506 212.404 243.24C212.404 241.893 211.487 240.769 210.245 240.443V147.521L251.495 123.699L251.865 123.492V73.7162L209.136 98.3968L208.766 98.604V146.678L167.885 170.293L127.744 147.107L168.255 123.714L168.625 123.507V73.731L125.896 98.4116L125.526 98.6188V193.908L87.4406 171.906C87.4998 171.669 87.559 171.418 87.559 171.151C87.559 169.805 86.642 168.68 85.3996 168.355V122.648L44.5634 99.0479L84.7044 75.8617L85.4439 76.2908V75.4326L86.1835 75.0036L85.4439 74.5744V26.5006L45.8797 3.65473C45.9389 3.41799 45.998 3.16643 45.998 2.90009C45.998 1.30207 44.6965 0 43.0991 0C41.5018 0 40.2002 1.30207 40.2002 2.90009C40.2002 4.24658 41.1172 5.37109 42.3596 5.69662V50.5449L0 75.0036L41.6201 99.0331L1.10928 122.426L0.739518 122.633V170.707L0 171.137L0.739518 171.566V219.639L41.5905 243.24L1.06491 266.648L0.695147 266.855V316.631L43.4245 291.95L43.7943 291.743V244.512L43.8239 244.527V195.595L82.6338 173.178C82.9887 173.533 83.4472 173.8 83.9501 173.933V219.639L124.831 243.24L84.3347 266.648L83.9649 266.855V314.944L45.1846 337.346C44.6521 336.813 43.9274 336.488 43.1287 336.488C41.5313 336.488 40.2298 337.79 40.2298 339.388C40.2298 340.734 41.1468 341.859 42.3892 342.184V435.047L1.06491 458.914L0.695147 459.121V508.897L0.754309 508.852V556.112L42.3744 580.142V581L43.1139 580.571L43.8534 581V580.142L85.1038 556.319L85.4735 556.112V506.337L45.1846 529.612C44.6521 529.079 43.9274 528.753 43.1287 528.753C42.3152 528.753 41.5905 529.079 41.0728 529.612L2.95807 507.594L42.3892 484.823V484.867L84.7488 460.408L127.108 484.867V435.92L168.314 412.113L168.684 411.905V366.199C169.926 365.873 170.843 364.749 170.843 363.402C170.843 361.804 169.542 360.502 167.945 360.502C166.347 360.502 165.046 361.804 165.046 363.402C165.046 363.669 165.09 363.92 165.164 364.157L125.97 386.796L125.6 387.003V434.204L85.5031 411.047V315.743L126.339 292.157L168.699 316.616V267.699L207.509 245.282C207.864 245.637 208.322 245.903 208.825 246.036V291.743L248.389 314.589C248.33 314.825 248.271 315.077 248.271 315.343C248.271 315.61 248.315 315.861 248.389 316.098L209.195 338.737L208.825 338.944V435.032L170.252 457.316C169.719 456.576 168.862 456.088 167.885 456.088C166.288 456.088 164.987 457.39 164.987 458.988C164.987 460.334 165.904 461.459 167.146 461.784V508.882L208.766 484.852V532.068L251.865 556.956V507.18L211.029 483.594L251.185 460.394L290.009 482.81C289.95 483.047 289.891 483.299 289.891 483.565C289.891 485.163 291.193 486.465 292.79 486.465C294.387 486.465 295.689 485.163 295.689 483.565C295.689 482.218 294.772 481.094 293.53 480.768V387.861L334.41 364.246L374.551 387.432L334.04 410.825L333.671 411.032V459.106L332.931 459.535L333.671 459.964V507.18L292.42 531.003L292.051 531.21V580.985L334.78 556.305L335.15 556.097V508.882L375.291 532.068V532.926L376.03 532.497L418.39 556.956V510.406C418.893 510.273 419.351 510.006 419.706 509.651L458.516 532.068V580.985L500.136 556.956V556.97L542.866 532.29L543.235 532.083V484.867L581.321 506.869C581.261 507.106 581.202 507.358 581.202 507.624C581.202 509.222 582.504 510.524 584.101 510.524C585.698 510.524 587 509.222 587 507.624C586.97 506.292 586.053 505.168 584.811 504.842ZM127.049 99.4622L167.19 76.276V122.633L127.049 145.82V99.4622ZM42.3152 290.9L2.17418 314.086V267.728L42.3152 244.542V290.9ZM83.9945 508.911V555.269L43.8534 578.455V534.465C45.0958 534.139 46.0128 533.015 46.0128 531.668C46.0128 531.402 45.9685 531.151 45.8945 530.914L83.9945 508.911ZM42.3744 534.465V578.455L2.24814 555.269V508.911L40.3333 530.914C40.2742 531.151 40.215 531.402 40.215 531.668C40.215 533.015 41.132 534.125 42.3744 534.465ZM500.107 507.195L459.966 530.381V484.024L500.107 460.837V507.195ZM416.866 504.842C416.364 504.975 415.905 505.227 415.55 505.597L377.48 483.609L416.881 460.852V504.842H416.866ZM376.74 435.106V388.749L414.825 410.751C414.766 410.988 414.707 411.24 414.707 411.506C414.707 412.852 415.624 413.977 416.866 414.302V458.292L376.74 435.106ZM416.866 408.695C416.364 408.828 415.905 409.094 415.55 409.449L377.48 387.462L416.881 364.705V408.695H416.866ZM376.001 436.394L416.142 459.58L397.905 470.115L376.001 482.766L335.86 459.58L354.096 449.045L376.001 436.394ZM376.74 484.882L414.825 506.884C414.766 507.121 414.707 507.372 414.707 507.639C414.707 507.905 414.751 508.157 414.825 508.393L376.74 530.396V484.882ZM458.487 387.032L419.677 409.449C419.322 409.094 418.863 408.828 418.36 408.695V363.846L458.501 340.66V387.032H458.487ZM251.895 312.562V268.572L292.036 291.758V338.115L253.951 316.113C254.01 315.876 254.069 315.624 254.069 315.358C254.054 314.012 253.137 312.887 251.895 312.562ZM251.895 318.155C252.398 318.022 252.856 317.755 253.211 317.4L291.281 339.388L251.895 362.145V318.155ZM292.775 290.47L252.634 267.284L272.32 255.921L292.775 244.113L332.916 267.299L292.775 290.47ZM251.895 219.639L292.036 196.453V242.811L251.895 265.997V219.639ZM210.275 99.4622L250.416 76.276V122.633L210.275 145.82V99.4622ZM208.796 194.752L195.662 202.342L168.655 217.938V171.58L208.796 148.394V194.752ZM167.19 265.997L147.12 254.411L127.049 242.826V196.468L147.12 208.054L167.19 219.639V265.997ZM127.049 148.394L167.19 171.58V217.938L147.12 206.352L127.049 194.767V148.394ZM83.9649 168.355C83.462 168.488 83.0035 168.739 82.6486 169.109L43.8386 146.693V100.335L83.9797 123.521V168.355H83.9649ZM83.9649 27.3587V73.7162L43.8239 50.5301V5.68185C44.3267 5.54868 44.7852 5.29712 45.1402 4.92721L83.9649 27.3587ZM43.0843 51.8174L83.2254 75.0036L43.8239 97.7606L43.0843 98.1896L42.3448 97.7606L2.94328 75.0036L43.0843 51.8174ZM2.20376 123.507L42.3448 100.32V146.678L2.20376 169.864V123.507ZM2.20376 172.424L42.3448 195.61V241.967L2.20376 218.781V172.424ZM43.0843 194.337L2.94328 171.151L21.1798 160.616L43.0843 147.965L81.909 170.382C81.8499 170.619 81.7907 170.87 81.7907 171.137C81.7907 171.403 81.8351 171.654 81.909 171.891L43.0843 194.337ZM85.4439 173.948C85.9468 173.815 86.4053 173.563 86.7603 173.193L125.57 195.61V241.967L85.4292 218.781V173.948H85.4439ZM85.4439 267.713L125.585 244.527V290.885L85.4439 314.071V267.713ZM43.8534 342.184C45.0958 341.859 46.0128 340.734 46.0128 339.388C46.0128 339.121 45.9685 338.87 45.8945 338.633L83.9797 316.631V362.988L43.8386 386.174V342.184H43.8534ZM83.9945 411.077L43.8534 434.263V387.905L83.9945 364.719V411.077ZM42.3152 483.165L2.17418 506.352V459.994L42.3152 436.808V483.165ZM43.8534 435.965L83.9945 412.778V459.136L43.8534 482.322V435.965ZM127.049 387.891L165.859 365.474C166.214 365.829 166.673 366.095 167.176 366.229V411.077L127.034 434.263V387.891H127.049ZM125.6 436.793V482.322L85.4587 459.136V412.778L125.555 435.935V436.808L125.6 436.793ZM167.19 314.071L127.049 290.885V244.527L147.12 256.113L167.19 267.699V314.071ZM168.669 266.012V219.639L191.609 206.397L208.81 196.468V240.458C207.568 240.784 206.651 241.908 206.651 243.255C206.651 243.521 206.695 243.773 206.769 244.009L168.669 266.012ZM210.275 290.9V246.051C210.777 245.918 211.236 245.667 211.591 245.297L250.401 267.713V312.562C249.898 312.695 249.44 312.946 249.085 313.316L210.275 290.9ZM210.275 339.817L249.085 317.4C249.44 317.755 249.898 318.022 250.401 318.155V363.003L249.661 363.432L210.26 386.189V339.817H210.275ZM210.275 435.965L250.416 412.778V459.136L210.275 482.322V435.965ZM250.416 411.077L210.275 434.263V387.905L250.416 364.719V411.077ZM168.595 506.352V461.829C169.838 461.503 170.755 460.379 170.755 459.032C170.755 458.944 170.74 458.855 170.725 458.766L208.722 436.823V483.18L168.595 506.352ZM250.357 554.411L210.215 531.224V484.867L250.357 508.053V554.411ZM292.036 480.798C291.533 480.931 291.074 481.183 290.719 481.553L251.91 459.136V412.778L292.051 435.965V480.798H292.036ZM251.895 411.077V364.719L292.036 387.905V434.263L251.895 411.077ZM292.775 386.603L252.634 363.417L292.76 340.231L293.5 340.66L332.902 363.417L292.775 386.603ZM376.001 340.246L416.142 363.432L376.74 386.189L376.001 386.618L375.261 386.189L335.86 363.432L376.001 340.246ZM335.12 411.92L375.261 388.734V435.092L335.12 458.278V411.92ZM333.641 555.284L293.5 578.47V532.112L333.641 508.926V555.284ZM335.12 507.21V460.852L375.261 484.038V530.396L335.12 507.21ZM377.48 531.683L415.55 509.696C415.905 510.051 416.364 510.317 416.866 510.45V554.44L377.48 531.683ZM418.345 504.842V460.852L458.487 484.038V530.396L420.401 508.393C420.461 508.157 420.52 507.905 420.52 507.639C420.52 506.292 419.588 505.168 418.345 504.842ZM459.966 578.455V532.112L500.107 508.926V555.284L459.966 578.455ZM541.712 531.254L501.571 554.44V508.083L541.712 484.897V531.254ZM543.191 483.18V436.823L583.332 460.009V504.857C582.829 504.99 582.371 505.242 582.016 505.612L543.191 483.18Z" fill="url(#paint0_linear_6_3)"/>
    <defs>
        <linearGradient id="paint0_linear_6_3" x1="199.2" y1="705.27" x2="956.239" y2="-386.76" gradientUnits="userSpaceOnUse">
            <stop stop-color="#D2D2D1"/>
            <stop offset="0.1074" stop-color="#DADADA"/>
            <stop offset="0.3674" stop-color="#EAEAEA"/>
            <stop offset="0.5713" stop-color="#F0F0F0"/>
            <stop offset="0.7773" stop-color="#F4F4F4"/>
            <stop offset="0.976" stop-color="white"/>
        </linearGradient>
    </defs>
</svg>