<svg width="24" height="24" viewBox="0 0 24 24" fill="none" xmlns="http://www.w3.org/2000/svg">
    <path d="M12 0C10.3414 0 8.78452 0.313325 7.32927 0.939975C5.87398 1.56664 4.6057 2.42115 3.52439 3.50356C2.44309 4.58597 1.58537 5.85553 0.951218 7.31231C0.31707 8.76908 0 10.3276 0 11.9878C0 13.6481 0.31707 15.2065 0.951218 16.6633C1.58537 18.1201 2.44309 19.3896 3.52439 20.472C4.6057 21.5544 5.87398 22.413 7.32927 23.0478C8.78452 23.6826 10.3414 24 12 24C13.6586 24 15.2155 23.6826 16.6707 23.0478C18.126 22.413 19.3943 21.5544 20.4756 20.472C21.5569 19.3896 22.4146 18.1201 23.0488 16.6633C23.6829 15.2065 24 13.6481 24 11.9878C24 10.3276 23.6829 8.76908 23.0488 7.31231C22.4146 5.85553 21.5569 4.58597 20.4756 3.50356C19.3943 2.42115 18.126 1.56664 16.6707 0.939975C15.2155 0.313325 13.6586 0 12 0ZM9.0732 16.9684H6.63415V9.15563H9.0732V16.9684ZM7.82925 8.17905C7.45529 8.17905 7.15448 8.061 6.92683 7.82505C6.69919 7.58903 6.58537 7.3001 6.58537 6.95828C6.58537 6.61648 6.70325 6.33163 6.93902 6.10376C7.1748 5.87588 7.4878 5.76196 7.87807 5.76196C8.2683 5.76196 8.57318 5.87588 8.7927 6.10376C9.01223 6.33163 9.13005 6.61648 9.14633 6.95828C9.14633 7.3001 9.02843 7.58903 8.7927 7.82505C8.5569 8.061 8.23575 8.17905 7.82925 8.17905ZM17.9268 16.9684H15.5122V12.6226C15.5122 12.118 15.4146 11.7111 15.2195 11.4018C15.0244 11.0926 14.7074 10.9379 14.2683 10.9379C13.9431 10.9379 13.6789 11.0356 13.4756 11.2309C13.2724 11.4262 13.1219 11.6297 13.0244 11.8413C12.9919 11.9227 12.9715 12.0163 12.9634 12.1221C12.9553 12.2278 12.9512 12.3377 12.9512 12.4516V16.9684H10.5122V11.646C10.5122 11.1577 10.5081 10.706 10.5 10.291C10.4919 9.87585 10.4797 9.49748 10.4634 9.15563H12.561L12.683 10.2299H12.7317C12.8943 9.96945 13.1708 9.69277 13.561 9.39983C13.9512 9.1068 14.4797 8.96033 15.1463 8.96033C15.9431 8.96033 16.6057 9.237 17.1341 9.79042C17.6626 10.3439 17.9268 11.1984 17.9268 12.354V16.9684Z" fill="#2d6aa4"/>
</svg>
