<svg width="24" height="24" viewBox="0 0 24 24" fill="none" xmlns="http://www.w3.org/2000/svg">
    <path d="M12 0C15.3125 0 18.1406 1.17186 20.4844 3.51562C22.8281 5.85939 24 8.68748 24 12C24 15.3125 22.8281 18.1406 20.4844 20.4844C18.1406 22.8281 15.3125 24 12 24C8.68748 24 5.85939 22.8281 3.51562 20.4844C1.17186 18.1406 0 15.3125 0 12C0 8.68748 1.17186 5.85939 3.51562 3.51562C5.85939 1.17186 8.68748 0 12 0ZM12.2143 4.5C10.6808 4.5 9.61942 4.51674 9.03015 4.55023C7.63725 4.61719 6.55915 5.03237 5.79576 5.79576C5.03237 6.55915 4.61719 7.63725 4.55022 9.03015C4.51674 9.61942 4.5 10.6808 4.5 12.2143C4.5 13.7478 4.51674 14.8091 4.55022 15.3984C4.61719 16.7913 5.03237 17.8694 5.79576 18.6329C6.55915 19.3962 7.63725 19.8114 9.03015 19.8784C9.61942 19.9118 10.6808 19.9286 12.2143 19.9286L12.48 19.9284C13.871 19.9265 14.8438 19.9099 15.3984 19.8784C16.7913 19.8114 17.8694 19.3962 18.6329 18.6329C19.3962 17.8694 19.8114 16.7913 19.8784 15.3984C19.9118 14.8091 19.9286 13.7478 19.9286 12.2143L19.9284 11.9486C19.9265 10.5575 19.9099 9.58477 19.8784 9.03015C19.8114 7.63725 19.3962 6.55915 18.6329 5.79576C17.8694 5.03237 16.7913 4.61719 15.3984 4.55023C14.8091 4.51674 13.7478 4.5 12.2143 4.5ZM10.3862 5.88114C10.6272 5.87779 10.9804 5.87779 11.4459 5.88114C11.9113 5.88448 12.1674 5.88616 12.2143 5.88616H12.9777C13.4465 5.87947 13.8013 5.87779 14.0424 5.88114C14.2835 5.88448 14.6066 5.89454 15.0117 5.91127C15.4169 5.92802 15.7617 5.96149 16.0463 6.01172C16.3309 6.06194 16.5703 6.12388 16.7645 6.19754C17.0993 6.33148 17.394 6.52567 17.6484 6.78014C17.9029 7.0346 18.0971 7.32924 18.231 7.6641C18.3047 7.85827 18.3666 8.09768 18.4168 8.38223C18.4671 8.66685 18.5005 9.0117 18.5173 9.41685C18.534 9.822 18.5441 10.1451 18.5474 10.3862C18.5508 10.6273 18.5508 10.9804 18.5474 11.4459C18.5451 11.7716 18.5436 11.9949 18.5429 12.1156V12.313C18.5436 12.4336 18.5451 12.6569 18.5474 12.9827C18.5508 13.4481 18.5508 13.8013 18.5474 14.0424C18.5441 14.2835 18.534 14.6066 18.5173 15.0117C18.5005 15.4169 18.4671 15.7617 18.4168 16.0463C18.3666 16.3309 18.3047 16.5703 18.231 16.7645C18.0971 17.0993 17.9029 17.394 17.6484 17.6484C17.394 17.9029 17.0993 18.0971 16.7645 18.231C16.5703 18.3047 16.3309 18.3666 16.0463 18.4168C15.7617 18.4671 15.4169 18.5005 15.0117 18.5173C14.6066 18.5341 14.2835 18.5441 14.0424 18.5474C13.8013 18.5508 13.4481 18.5508 12.9827 18.5474C12.6569 18.5451 12.4336 18.5436 12.313 18.5429H12.1156C11.9949 18.5436 11.7716 18.5451 11.4459 18.5474C10.9804 18.5508 10.6272 18.5508 10.3862 18.5474C10.1451 18.5441 9.822 18.5341 9.41685 18.5173C9.0117 18.5005 8.66685 18.4671 8.38223 18.4168C8.09768 18.3666 7.85827 18.3047 7.6641 18.231C7.32924 18.0971 7.0346 17.9029 6.78014 17.6484C6.52567 17.394 6.33148 17.0993 6.19754 16.7645C6.12388 16.5703 6.06194 16.3309 6.01171 16.0463C5.9615 15.7617 5.92802 15.4169 5.91127 15.0117C5.89454 14.6066 5.88448 14.2835 5.88114 14.0424C5.87779 13.8013 5.87779 13.4481 5.88114 12.9827C5.88448 12.5173 5.88616 12.2612 5.88616 12.2143L5.88611 12.194C5.88581 12.1141 5.88415 11.8647 5.88114 11.4459C5.87779 10.9804 5.87779 10.6273 5.88114 10.3862C5.88448 10.1451 5.89454 9.822 5.91127 9.41685C5.92802 9.0117 5.9615 8.66685 6.01171 8.38223C6.06194 8.09768 6.12388 7.85827 6.19754 7.6641C6.33148 7.32924 6.52567 7.0346 6.78014 6.78014C7.0346 6.52567 7.32924 6.33148 7.6641 6.19754C7.85827 6.12388 8.09768 6.06194 8.38223 6.01172C8.66685 5.96149 9.0117 5.92802 9.41685 5.91127C9.822 5.89454 10.1451 5.88448 10.3862 5.88114ZM12.2143 8.25667C11.116 8.25667 10.1819 8.64172 9.41183 9.41183C8.64172 10.1819 8.25667 11.116 8.25667 12.2143C8.25667 13.3125 8.64172 14.2466 9.41183 15.0167C10.1819 15.7868 11.116 16.1719 12.2143 16.1719C13.3125 16.1719 14.2466 15.7868 15.0167 15.0167C15.7868 14.2466 16.1719 13.3125 16.1719 12.2143C16.1719 11.116 15.7868 10.1819 15.0167 9.41183C14.2466 8.64172 13.3125 8.25667 12.2143 8.25667ZM12.2143 9.64282C12.9241 9.64282 13.5302 9.894 14.0324 10.3962C14.5346 10.8984 14.7857 11.5045 14.7857 12.2143C14.7857 12.9241 14.5346 13.5302 14.0324 14.0324C13.5302 14.5346 12.9241 14.7857 12.2143 14.7857C11.5045 14.7857 10.8985 14.5346 10.3962 14.0324C9.894 13.5302 9.64282 12.9241 9.64282 12.2143C9.64282 11.5045 9.894 10.8984 10.3962 10.3962C10.8985 9.894 11.5045 9.64282 12.2143 9.64282ZM16.3326 7.17188C16.0781 7.17188 15.8605 7.26228 15.6797 7.44308C15.4989 7.6239 15.4084 7.84155 15.4084 8.09595C15.4084 8.35042 15.4989 8.56808 15.6797 8.7489C15.8605 8.92965 16.0781 9.0201 16.3326 9.0201C16.5871 9.0201 16.8047 8.92965 16.9855 8.7489C17.1663 8.56808 17.2567 8.35042 17.2567 8.09595C17.2567 7.84155 17.1663 7.6239 16.9855 7.44308C16.8047 7.26228 16.5871 7.17188 16.3326 7.17188Z" fill="#2d6aa4"/>
</svg>
