<svg width="685" height="620" viewBox="0 0 685 620" fill="none" xmlns="http://www.w3.org/2000/svg">
<path d="M276.425 330.362V334.196H282.509V336.176H276.425V341H274.085V328.4H283.283V330.362H276.425ZM285.154 331.388H287.404V341H285.154V331.388ZM286.288 329.804C285.88 329.804 285.538 329.678 285.262 329.426C284.986 329.162 284.848 328.838 284.848 328.454C284.848 328.07 284.986 327.752 285.262 327.5C285.538 327.236 285.88 327.104 286.288 327.104C286.696 327.104 287.038 327.23 287.314 327.482C287.59 327.722 287.728 328.028 287.728 328.4C287.728 328.796 287.59 329.132 287.314 329.408C287.05 329.672 286.708 329.804 286.288 329.804ZM295.811 331.28C297.023 331.28 297.995 331.634 298.727 332.342C299.459 333.05 299.825 334.1 299.825 335.492V341H297.575V335.78C297.575 334.94 297.377 334.31 296.981 333.89C296.585 333.458 296.021 333.242 295.289 333.242C294.461 333.242 293.807 333.494 293.327 333.998C292.847 334.49 292.607 335.204 292.607 336.14V341H290.357V331.388H292.499V332.63C292.871 332.186 293.339 331.85 293.903 331.622C294.467 331.394 295.103 331.28 295.811 331.28ZM306.351 331.28C307.767 331.28 308.847 331.622 309.591 332.306C310.347 332.978 310.725 333.998 310.725 335.366V341H308.601V339.83C308.325 340.25 307.929 340.574 307.413 340.802C306.909 341.018 306.297 341.126 305.577 341.126C304.857 341.126 304.227 341.006 303.687 340.766C303.147 340.514 302.727 340.172 302.427 339.74C302.139 339.296 301.995 338.798 301.995 338.246C301.995 337.382 302.313 336.692 302.949 336.176C303.597 335.648 304.611 335.384 305.991 335.384H308.475V335.24C308.475 334.568 308.271 334.052 307.863 333.692C307.467 333.332 306.873 333.152 306.081 333.152C305.541 333.152 305.007 333.236 304.479 333.404C303.963 333.572 303.525 333.806 303.165 334.106L302.283 332.468C302.787 332.084 303.393 331.79 304.101 331.586C304.809 331.382 305.559 331.28 306.351 331.28ZM306.045 339.488C306.609 339.488 307.107 339.362 307.539 339.11C307.983 338.846 308.295 338.474 308.475 337.994V336.878H306.153C304.857 336.878 304.209 337.304 304.209 338.156C304.209 338.564 304.371 338.888 304.695 339.128C305.019 339.368 305.469 339.488 306.045 339.488ZM319.067 331.28C320.279 331.28 321.251 331.634 321.983 332.342C322.715 333.05 323.081 334.1 323.081 335.492V341H320.831V335.78C320.831 334.94 320.633 334.31 320.237 333.89C319.841 333.458 319.277 333.242 318.545 333.242C317.717 333.242 317.063 333.494 316.583 333.998C316.103 334.49 315.863 335.204 315.863 336.14V341H313.613V331.388H315.755V332.63C316.127 332.186 316.595 331.85 317.159 331.622C317.723 331.394 318.359 331.28 319.067 331.28ZM330.433 341.126C329.437 341.126 328.543 340.916 327.751 340.496C326.959 340.076 326.341 339.494 325.897 338.75C325.453 337.994 325.231 337.142 325.231 336.194C325.231 335.246 325.453 334.4 325.897 333.656C326.341 332.912 326.953 332.33 327.733 331.91C328.525 331.49 329.425 331.28 330.433 331.28C331.381 331.28 332.209 331.472 332.917 331.856C333.637 332.24 334.177 332.792 334.537 333.512L332.809 334.52C332.533 334.076 332.185 333.746 331.765 333.53C331.357 333.302 330.907 333.188 330.415 333.188C329.575 333.188 328.879 333.464 328.327 334.016C327.775 334.556 327.499 335.282 327.499 336.194C327.499 337.106 327.769 337.838 328.309 338.39C328.861 338.93 329.563 339.2 330.415 339.2C330.907 339.2 331.357 339.092 331.765 338.876C332.185 338.648 332.533 338.312 332.809 337.868L334.537 338.876C334.165 339.596 333.619 340.154 332.899 340.55C332.191 340.934 331.369 341.126 330.433 341.126ZM336.482 331.388H338.732V341H336.482V331.388ZM337.616 329.804C337.208 329.804 336.866 329.678 336.59 329.426C336.314 329.162 336.176 328.838 336.176 328.454C336.176 328.07 336.314 327.752 336.59 327.5C336.866 327.236 337.208 327.104 337.616 327.104C338.024 327.104 338.366 327.23 338.642 327.482C338.918 327.722 339.056 328.028 339.056 328.4C339.056 328.796 338.918 329.132 338.642 329.408C338.378 329.672 338.036 329.804 337.616 329.804ZM345.357 331.28C346.773 331.28 347.853 331.622 348.597 332.306C349.353 332.978 349.731 333.998 349.731 335.366V341H347.607V339.83C347.331 340.25 346.935 340.574 346.419 340.802C345.915 341.018 345.303 341.126 344.583 341.126C343.863 341.126 343.233 341.006 342.693 340.766C342.153 340.514 341.733 340.172 341.433 339.74C341.145 339.296 341.001 338.798 341.001 338.246C341.001 337.382 341.319 336.692 341.955 336.176C342.603 335.648 343.617 335.384 344.997 335.384H347.481V335.24C347.481 334.568 347.277 334.052 346.869 333.692C346.473 333.332 345.879 333.152 345.087 333.152C344.547 333.152 344.013 333.236 343.485 333.404C342.969 333.572 342.531 333.806 342.171 334.106L341.289 332.468C341.793 332.084 342.399 331.79 343.107 331.586C343.815 331.382 344.565 331.28 345.357 331.28ZM345.051 339.488C345.615 339.488 346.113 339.362 346.545 339.11C346.989 338.846 347.301 338.474 347.481 337.994V336.878H345.159C343.863 336.878 343.215 337.304 343.215 338.156C343.215 338.564 343.377 338.888 343.701 339.128C344.025 339.368 344.475 339.488 345.051 339.488ZM352.619 327.644H354.869V341H352.619V327.644ZM360.792 341.126C360.012 341.126 359.25 341.024 358.506 340.82C357.762 340.616 357.168 340.358 356.724 340.046L357.588 338.336C358.02 338.624 358.536 338.858 359.136 339.038C359.748 339.206 360.348 339.29 360.936 339.29C362.28 339.29 362.952 338.936 362.952 338.228C362.952 337.892 362.778 337.658 362.43 337.526C362.094 337.394 361.548 337.268 360.792 337.148C360 337.028 359.352 336.89 358.848 336.734C358.356 336.578 357.924 336.308 357.552 335.924C357.192 335.528 357.012 334.982 357.012 334.286C357.012 333.374 357.39 332.648 358.146 332.108C358.914 331.556 359.946 331.28 361.242 331.28C361.902 331.28 362.562 331.358 363.222 331.514C363.882 331.658 364.422 331.856 364.842 332.108L363.978 333.818C363.162 333.338 362.244 333.098 361.224 333.098C360.564 333.098 360.06 333.2 359.712 333.404C359.376 333.596 359.208 333.854 359.208 334.178C359.208 334.538 359.388 334.796 359.748 334.952C360.12 335.096 360.69 335.234 361.458 335.366C362.226 335.486 362.856 335.624 363.348 335.78C363.84 335.936 364.26 336.2 364.608 336.572C364.968 336.944 365.148 337.472 365.148 338.156C365.148 339.056 364.758 339.776 363.978 340.316C363.198 340.856 362.136 341.126 360.792 341.126Z" fill="#676767"/>
<path d="M408.5 32.9999C215.3 -27.8001 86.3333 125.333 46 209.5L52 220.5L205.5 372.5L216 380.5C170.8 313.7 201.833 251 223 228L404 47L408.5 32.9999Z" fill="url(#paint0_linear_808_1575)"/>
<path d="M409.501 40.5L244.501 208C317.701 157.6 382.001 193.333 405.001 217.5L584.001 396.5L592.501 401C642.001 183.5 514.501 80 409.501 40.5Z" fill="url(#paint1_linear_808_1575)"/>
<path d="M422.501 236L588.001 400.5C492.001 627.3 310.334 610 231.501 573L382.501 423L386.501 415.5C468.901 358.3 444.834 272 422.501 236Z" fill="url(#paint2_linear_808_1575)"/>
<path d="M46.0001 216L218.5 385.5C281.3 455.5 359 435 390 416L222 582C14.8001 484.8 18.3334 297.5 46.0001 216Z" fill="url(#paint3_linear_808_1575)"/>
<g filter="url(#filter0_d_808_1575)">
<path fill-rule="evenodd" clip-rule="evenodd" d="M580.756 396.757C544.091 506.165 440.752 585 319 585C290.274 585 262.574 580.612 236.532 572.469L407.001 402L406.976 401.975C431.624 378.644 447 345.618 447 309C447 286.515 441.202 265.384 431.021 247.021L580.756 396.757ZM380.822 421.108C362.495 431.236 341.421 437 319 437C282.891 437 250.274 422.048 227.003 397.997L227 398L55.5314 226.532C47.3884 252.574 43 280.274 43 309C43 430.733 121.81 534.058 231.191 570.738L380.822 421.108ZM206.892 370.821L57.2617 221.191C93.942 111.81 197.267 33 319 33C347.706 33 375.388 37.3824 401.415 45.5147L229.465 217.465L229.496 217.496C205.742 240.733 191 273.145 191 309C191 331.42 196.764 352.494 206.892 370.821ZM582.485 391.415L410.535 219.465L410.504 219.496C387.267 195.742 354.855 181 319 181C296.515 181 275.384 186.798 257.021 196.979L406.757 47.2441C516.165 83.9089 595 187.248 595 309C595 337.706 590.618 365.388 582.485 391.415ZM625 309C625 477.999 487.999 615 319 615C150.001 615 13 477.999 13 309C13 140.001 150.001 3 319 3C487.999 3 625 140.001 625 309ZM442 309C442 376.931 386.931 432 319 432C251.069 432 196 376.931 196 309C196 241.069 251.069 186 319 186C386.931 186 442 241.069 442 309Z" fill="white"/>
</g>
<path d="M474.945 146.241C474.945 146.361 474.898 146.475 474.813 146.56C474.728 146.644 474.614 146.692 474.494 146.692C474.374 146.692 474.26 146.644 474.175 146.56C474.09 146.475 474.043 146.361 474.043 146.241V143.713C468.017 150.939 460.964 156.389 453.061 159.916C451.933 160.42 450.773 160.89 449.612 161.315C449.556 161.336 449.496 161.346 449.437 161.344C449.377 161.342 449.318 161.328 449.264 161.303C449.21 161.278 449.161 161.243 449.12 161.199C449.08 161.155 449.048 161.104 449.028 161.048C449.007 160.992 448.998 160.932 449.001 160.872C449.004 160.813 449.018 160.754 449.044 160.7C449.069 160.646 449.105 160.598 449.149 160.558C449.194 160.518 449.246 160.487 449.302 160.467C450.443 160.05 451.584 159.588 452.693 159.093C460.554 155.584 467.565 150.139 473.544 142.902H470.755C470.635 142.902 470.52 142.855 470.436 142.77C470.351 142.686 470.304 142.571 470.304 142.451C470.304 142.332 470.351 142.217 470.436 142.132C470.52 142.048 470.635 142 470.755 142H474.494C474.499 142 474.504 142.001 474.51 142.001C474.518 142.001 474.527 142.001 474.536 142.002C474.543 142.003 474.55 142.004 474.556 142.005C474.563 142.006 474.572 142.007 474.58 142.008C474.587 142.01 474.595 142.012 474.602 142.013C474.609 142.015 474.616 142.017 474.622 142.019C474.629 142.021 474.637 142.024 474.645 142.026C474.653 142.029 474.658 142.031 474.664 142.033C474.671 142.036 474.679 142.04 474.686 142.043C474.692 142.046 474.698 142.049 474.704 142.052C474.712 142.056 474.719 142.06 474.727 142.065C474.732 142.068 474.737 142.071 474.743 142.075C474.75 142.08 474.758 142.085 474.765 142.091C474.769 142.094 474.773 142.096 474.777 142.099C474.778 142.1 474.778 142.101 474.779 142.101C474.786 142.107 474.792 142.113 474.798 142.119C474.803 142.123 474.808 142.127 474.813 142.132C474.817 142.136 474.82 142.139 474.823 142.143C474.849 142.17 474.871 142.201 474.89 142.234L474.891 142.236C474.895 142.244 474.899 142.251 474.902 142.259C474.905 142.265 474.908 142.27 474.91 142.277C474.912 142.279 474.912 142.283 474.914 142.286C474.926 142.317 474.935 142.35 474.94 142.383C474.941 142.39 474.942 142.397 474.943 142.403C474.944 142.41 474.944 142.415 474.944 142.42C474.945 142.43 474.945 142.439 474.945 142.449V142.451L474.945 146.241Z" fill="white"/>
<path d="M449.456 166.289H457.418V160.833C457.418 160.713 457.465 160.599 457.55 160.514C457.635 160.429 457.749 160.382 457.869 160.382H466.973V154.159C466.973 154.039 467.021 153.924 467.105 153.84C467.19 153.755 467.305 153.708 467.425 153.708H476.224V147.087C476.224 146.968 476.272 146.853 476.356 146.768C476.441 146.684 476.556 146.636 476.675 146.636H485.264C485.383 146.636 485.497 146.683 485.582 146.767C485.666 146.85 485.714 146.964 485.716 147.083L486 176.284C486.001 176.343 485.989 176.402 485.967 176.458C485.944 176.513 485.911 176.563 485.869 176.605C485.827 176.648 485.778 176.681 485.722 176.704C485.667 176.727 485.608 176.739 485.549 176.739H449.456C449.337 176.739 449.222 176.692 449.137 176.607C449.053 176.522 449.005 176.408 449.005 176.288V166.74C449.005 166.62 449.053 166.506 449.137 166.421C449.222 166.336 449.337 166.289 449.456 166.289ZM458.32 161.284V166.74L458.436 175.837H466.973V161.284H458.32ZM467.876 154.61V175.837H476.224V154.61H467.876ZM484.818 147.539H477.127V175.837H485.093L484.818 147.539ZM449.908 175.837H457.534L457.424 167.191H449.908V175.837Z" fill="white"/>
<path d="M182.993 426.297L182.807 426.397C182.059 425.488 180.762 425.136 179.774 425.637C179.77 425.639 179.767 425.641 179.763 425.643L179.326 425.878C178.804 425.436 178.158 425.166 177.478 425.105C176.797 425.043 176.113 425.193 175.521 425.534L173.165 426.816H170.03C169.351 426.815 168.682 426.661 168.07 426.367L167.639 426.158C166.411 425.561 165.042 425.315 163.683 425.447C162.324 425.58 161.028 426.086 159.939 426.91C159.929 426.918 159.919 426.926 159.91 426.934L158.868 427.861C158.475 428.211 158.01 428.47 157.506 428.621L156.914 426.68C156.885 426.584 156.826 426.5 156.745 426.44C156.664 426.38 156.567 426.348 156.466 426.348H151.431C151.364 426.348 151.299 426.362 151.238 426.389C151.178 426.416 151.124 426.456 151.08 426.506C151.036 426.555 151.003 426.614 150.983 426.677C150.963 426.741 150.957 426.807 150.965 426.873L152.644 440.636C152.658 440.749 152.713 440.854 152.798 440.93C152.884 441.006 152.995 441.048 153.109 441.048H160.662C160.735 441.048 160.807 441.031 160.873 440.998C160.938 440.965 160.995 440.917 161.038 440.858C161.082 440.799 161.111 440.731 161.124 440.659C161.136 440.586 161.131 440.512 161.11 440.442L160.118 437.186L163.208 435.233C163.622 435.005 164.107 434.942 164.565 435.058C164.574 435.06 164.584 435.062 164.594 435.064L170.88 436.222C172.588 436.527 174.349 436.279 175.906 435.512C175.926 435.502 175.945 435.491 175.964 435.478L186.836 428.013C186.934 427.946 187.003 427.843 187.029 427.726C187.054 427.61 187.034 427.487 186.972 427.385C186.576 426.726 185.942 426.245 185.201 426.043C184.459 425.84 183.668 425.931 182.993 426.297ZM180.202 426.471C180.774 426.185 181.493 426.419 181.953 426.858L177.83 429.082L177.588 429.21C177.457 428.839 177.266 428.492 177.023 428.184L180.202 426.471ZM175.975 426.355C175.978 426.353 175.982 426.351 175.986 426.349C176.355 426.135 176.775 426.025 177.201 426.029C177.628 426.033 178.045 426.151 178.41 426.371L176.314 427.5C175.915 427.208 175.459 427.003 174.975 426.897L175.975 426.355ZM153.524 440.11L151.96 427.285H156.119L160.029 440.11H153.524ZM175.46 434.686C174.091 435.352 172.546 435.567 171.048 435.299L164.777 434.144C164.088 433.974 163.359 434.073 162.739 434.421C162.732 434.425 162.725 434.429 162.718 434.433L159.834 436.257L157.779 429.518C158.413 429.327 158.997 429.001 159.491 428.561L160.518 427.647C161.469 426.932 162.599 426.493 163.783 426.379C164.967 426.265 166.16 426.48 167.23 427.001L167.661 427.21C168.4 427.566 169.21 427.751 170.03 427.752H174.211C174.826 427.753 175.421 427.968 175.894 428.36C176.368 428.752 176.69 429.296 176.805 429.9L173.774 429.763C172.672 429.713 171.568 429.764 170.476 429.915C170.354 429.933 170.243 429.999 170.169 430.098C170.095 430.197 170.063 430.321 170.08 430.443C170.097 430.565 170.162 430.676 170.26 430.751C170.358 430.826 170.482 430.859 170.604 430.844C171.64 430.701 172.687 430.652 173.732 430.699L177.299 430.861C177.306 430.861 177.313 430.861 177.32 430.861C177.444 430.861 177.563 430.812 177.651 430.724C177.739 430.636 177.789 430.517 177.789 430.392C177.789 430.317 177.785 430.241 177.781 430.167L178.27 429.909L183.438 427.122C183.835 426.907 184.292 426.829 184.737 426.9C185.183 426.972 185.592 427.188 185.902 427.517L175.46 434.686Z" fill="white"/>
<path d="M155.014 438.171C155.014 438.463 155.1 438.748 155.262 438.991C155.425 439.234 155.655 439.423 155.925 439.535C156.194 439.646 156.491 439.675 156.777 439.619C157.064 439.562 157.327 439.421 157.533 439.215C157.739 439.008 157.88 438.745 157.937 438.459C157.994 438.173 157.965 437.876 157.853 437.606C157.741 437.337 157.552 437.106 157.309 436.944C157.067 436.782 156.781 436.695 156.489 436.695C156.098 436.696 155.723 436.851 155.446 437.128C155.17 437.405 155.014 437.78 155.014 438.171ZM156.489 437.633C156.596 437.633 156.7 437.664 156.789 437.724C156.877 437.783 156.946 437.867 156.987 437.965C157.027 438.063 157.038 438.172 157.017 438.276C156.997 438.381 156.945 438.476 156.87 438.552C156.795 438.627 156.699 438.678 156.594 438.699C156.49 438.72 156.382 438.709 156.283 438.668C156.185 438.628 156.101 438.559 156.042 438.47C155.983 438.382 155.951 438.278 155.951 438.171C155.951 438.028 156.008 437.892 156.109 437.791C156.21 437.69 156.347 437.633 156.489 437.633V437.633Z" fill="white"/>
<path d="M172.564 410.055V408.51C172.56 407.569 172.183 406.669 171.516 406.005C170.85 405.341 169.947 404.969 169.006 404.969C168.066 404.969 167.163 405.341 166.496 406.005C165.829 406.669 165.453 407.569 165.448 408.51V410.055C165.453 410.996 165.829 411.896 166.496 412.56C167.163 413.224 168.066 413.596 169.006 413.596C169.947 413.596 170.85 413.224 171.516 412.56C172.183 411.896 172.56 410.996 172.564 410.055ZM166.386 410.055V408.51C166.39 407.818 166.667 407.155 167.158 406.666C167.649 406.178 168.314 405.904 169.006 405.904C169.699 405.904 170.363 406.178 170.854 406.666C171.345 407.155 171.623 407.818 171.627 408.51V410.055C171.623 410.747 171.345 411.41 170.854 411.899C170.363 412.387 169.699 412.661 169.006 412.661C168.314 412.661 167.649 412.387 167.158 411.899C166.667 411.41 166.39 410.747 166.386 410.055Z" fill="white"/>
<path d="M163.271 423.267H174.741C174.866 423.267 174.985 423.218 175.073 423.13C175.161 423.042 175.21 422.923 175.21 422.799V421.723H183.062C183.187 421.723 183.306 421.673 183.394 421.585C183.482 421.497 183.531 421.378 183.531 421.254V418.211C183.531 417.319 183.19 416.46 182.579 415.809C181.968 415.158 181.132 414.764 180.242 414.707C179.992 414.689 179.863 414.847 179.759 414.974C179.551 415.227 179.289 415.43 178.991 415.567C178.694 415.703 178.369 415.77 178.042 415.762C177.714 415.754 177.393 415.672 177.103 415.521C176.812 415.37 176.56 415.154 176.365 414.891C176.32 414.831 176.261 414.782 176.194 414.749C176.126 414.716 176.052 414.699 175.976 414.701C175.367 414.715 174.773 414.888 174.252 415.204C173.908 414.804 173.488 414.478 173.015 414.243C172.543 414.009 172.028 413.872 171.502 413.84C171.26 413.83 171.137 413.977 171.019 414.121C170.775 414.419 170.467 414.657 170.118 414.817C169.769 414.977 169.388 415.056 169.004 415.046C168.619 415.037 168.242 414.94 167.902 414.763C167.561 414.586 167.265 414.333 167.036 414.024C166.991 413.964 166.933 413.915 166.865 413.881C166.797 413.848 166.723 413.832 166.647 413.834C165.619 413.858 164.642 414.284 163.925 415.022C163.866 415.082 163.81 415.145 163.755 415.209C163.271 414.914 162.722 414.742 162.157 414.707C161.908 414.689 161.778 414.847 161.674 414.974C161.467 415.227 161.204 415.43 160.907 415.567C160.609 415.703 160.284 415.77 159.957 415.762C159.629 415.754 159.308 415.671 159.018 415.52C158.727 415.369 158.475 415.154 158.28 414.891C158.235 414.831 158.177 414.782 158.109 414.749C158.041 414.716 157.967 414.699 157.891 414.701C156.976 414.724 156.106 415.104 155.466 415.76C154.827 416.416 154.469 417.296 154.469 418.211V421.254C154.469 421.378 154.518 421.497 154.606 421.585C154.694 421.673 154.813 421.723 154.938 421.723H162.802V422.799C162.802 422.923 162.852 423.042 162.939 423.13C163.027 423.218 163.147 423.267 163.271 423.267ZM175.776 415.653C176.065 415.981 176.42 416.244 176.819 416.425C177.217 416.605 177.649 416.699 178.086 416.7C178.523 416.702 178.955 416.61 179.355 416.432C179.754 416.253 180.11 415.992 180.401 415.666C181.011 415.758 181.567 416.065 181.969 416.532C182.372 416.999 182.593 417.595 182.594 418.211V420.785H175.21V417.778C175.211 417.154 175.062 416.538 174.777 415.983C175.083 415.805 175.424 415.692 175.776 415.653ZM166.445 414.786C166.769 415.161 167.17 415.462 167.621 415.669C168.072 415.876 168.561 415.984 169.057 415.985C169.553 415.986 170.043 415.881 170.495 415.676C170.946 415.471 171.349 415.172 171.675 414.798C172.394 414.898 173.054 415.254 173.531 415.802C174.009 416.35 174.272 417.051 174.273 417.778V422.33H163.74V417.778C163.744 417.034 164.023 416.318 164.522 415.766C165.021 415.214 165.706 414.865 166.445 414.786ZM155.406 420.785V418.211C155.41 417.58 155.645 416.971 156.065 416.501C156.486 416.03 157.065 415.728 157.692 415.654C157.981 415.982 158.336 416.245 158.734 416.425C159.132 416.605 159.564 416.699 160.001 416.7C160.438 416.701 160.871 416.61 161.27 416.431C161.669 416.253 162.025 415.992 162.316 415.666C162.639 415.714 162.949 415.823 163.231 415.988C162.948 416.543 162.801 417.156 162.802 417.778V420.785H155.406Z" fill="white"/>
<path d="M181.215 411.452V410.1C181.215 409.258 180.88 408.451 180.285 407.856C179.69 407.261 178.883 406.927 178.042 406.927C177.2 406.927 176.393 407.261 175.798 407.856C175.203 408.451 174.869 409.258 174.869 410.1V411.452C174.869 412.293 175.203 413.1 175.798 413.695C176.393 414.29 177.2 414.624 178.042 414.624C178.883 414.624 179.69 414.29 180.285 413.695C180.88 413.1 181.215 412.293 181.215 411.452ZM175.807 411.452V410.1C175.807 409.507 176.042 408.938 176.461 408.519C176.881 408.1 177.449 407.864 178.042 407.864C178.635 407.864 179.203 408.1 179.623 408.519C180.042 408.938 180.277 409.507 180.277 410.1V411.452C180.277 412.045 180.042 412.613 179.623 413.032C179.203 413.451 178.635 413.687 178.042 413.687C177.449 413.687 176.881 413.451 176.461 413.032C176.042 412.613 175.807 412.045 175.807 411.452Z" fill="white"/>
<path d="M163.131 411.452V410.1C163.131 409.683 163.049 409.27 162.889 408.885C162.73 408.5 162.496 408.151 162.201 407.856C161.907 407.561 161.557 407.328 161.172 407.168C160.787 407.009 160.375 406.927 159.958 406.927C159.541 406.927 159.129 407.009 158.744 407.168C158.359 407.328 158.009 407.561 157.714 407.856C157.42 408.151 157.186 408.5 157.027 408.885C156.867 409.27 156.785 409.683 156.785 410.1V411.452C156.785 411.868 156.867 412.281 157.027 412.666C157.186 413.051 157.42 413.401 157.714 413.695C158.009 413.99 158.359 414.224 158.744 414.383C159.129 414.542 159.541 414.624 159.958 414.624C160.375 414.624 160.787 414.542 161.172 414.383C161.557 414.224 161.907 413.99 162.201 413.695C162.496 413.401 162.73 413.051 162.889 412.666C163.049 412.281 163.131 411.868 163.131 411.452ZM157.723 411.452V410.1C157.723 409.507 157.958 408.938 158.377 408.519C158.797 408.1 159.365 407.864 159.958 407.864C160.551 407.864 161.119 408.1 161.539 408.519C161.958 408.938 162.193 409.507 162.193 410.1V411.452C162.193 411.745 162.135 412.036 162.023 412.307C161.911 412.578 161.746 412.825 161.539 413.032C161.331 413.24 161.085 413.405 160.813 413.517C160.542 413.629 160.252 413.687 159.958 413.687C159.664 413.687 159.374 413.629 159.103 413.517C158.831 413.405 158.585 413.24 158.377 413.032C158.17 412.825 158.005 412.578 157.893 412.307C157.78 412.036 157.723 411.745 157.723 411.452Z" fill="white"/>
<path d="M130.148 465L127.574 461.31C127.466 461.322 127.304 461.328 127.088 461.328H124.244V465H121.904V452.4H127.088C128.18 452.4 129.128 452.58 129.932 452.94C130.748 453.3 131.372 453.816 131.804 454.488C132.236 455.16 132.452 455.958 132.452 456.882C132.452 457.83 132.218 458.646 131.75 459.33C131.294 460.014 130.634 460.524 129.77 460.86L132.668 465H130.148ZM130.094 456.882C130.094 456.078 129.83 455.46 129.302 455.028C128.774 454.596 128 454.38 126.98 454.38H124.244V459.402H126.98C128 459.402 128.774 459.186 129.302 458.754C129.83 458.31 130.094 457.686 130.094 456.882ZM143.89 460.248C143.89 460.404 143.878 460.626 143.854 460.914H136.312C136.444 461.622 136.786 462.186 137.338 462.606C137.902 463.014 138.598 463.218 139.426 463.218C140.482 463.218 141.352 462.87 142.036 462.174L143.242 463.56C142.81 464.076 142.264 464.466 141.604 464.73C140.944 464.994 140.2 465.126 139.372 465.126C138.316 465.126 137.386 464.916 136.582 464.496C135.778 464.076 135.154 463.494 134.71 462.75C134.278 461.994 134.062 461.142 134.062 460.194C134.062 459.258 134.272 458.418 134.692 457.674C135.124 456.918 135.718 456.33 136.474 455.91C137.23 455.49 138.082 455.28 139.03 455.28C139.966 455.28 140.8 455.49 141.532 455.91C142.276 456.318 142.852 456.9 143.26 457.656C143.68 458.4 143.89 459.264 143.89 460.248ZM139.03 457.08C138.31 457.08 137.698 457.296 137.194 457.728C136.702 458.148 136.402 458.712 136.294 459.42H141.748C141.652 458.724 141.358 458.16 140.866 457.728C140.374 457.296 139.762 457.08 139.03 457.08ZM150.461 465.126C149.465 465.126 148.571 464.916 147.779 464.496C146.987 464.076 146.369 463.494 145.925 462.75C145.481 461.994 145.259 461.142 145.259 460.194C145.259 459.246 145.481 458.4 145.925 457.656C146.369 456.912 146.981 456.33 147.761 455.91C148.553 455.49 149.453 455.28 150.461 455.28C151.409 455.28 152.237 455.472 152.945 455.856C153.665 456.24 154.205 456.792 154.565 457.512L152.837 458.52C152.561 458.076 152.213 457.746 151.793 457.53C151.385 457.302 150.935 457.188 150.443 457.188C149.603 457.188 148.907 457.464 148.355 458.016C147.803 458.556 147.527 459.282 147.527 460.194C147.527 461.106 147.797 461.838 148.337 462.39C148.889 462.93 149.591 463.2 150.443 463.2C150.935 463.2 151.385 463.092 151.793 462.876C152.213 462.648 152.561 462.312 152.837 461.868L154.565 462.876C154.193 463.596 153.647 464.154 152.927 464.55C152.219 464.934 151.397 465.126 150.461 465.126ZM158.652 456.792C159.3 455.784 160.44 455.28 162.072 455.28V457.422C161.88 457.386 161.706 457.368 161.55 457.368C160.674 457.368 159.99 457.626 159.498 458.142C159.006 458.646 158.76 459.378 158.76 460.338V465H156.51V455.388H158.652V456.792ZM173.375 455.388V465H171.233V463.776C170.873 464.208 170.423 464.544 169.883 464.784C169.343 465.012 168.761 465.126 168.137 465.126C166.853 465.126 165.839 464.772 165.095 464.064C164.363 463.344 163.997 462.282 163.997 460.878V455.388H166.247V460.572C166.247 461.436 166.439 462.084 166.823 462.516C167.219 462.936 167.777 463.146 168.497 463.146C169.301 463.146 169.937 462.9 170.405 462.408C170.885 461.904 171.125 461.184 171.125 460.248V455.388H173.375ZM176.321 455.388H178.571V465H176.321V455.388ZM177.455 453.804C177.047 453.804 176.705 453.678 176.429 453.426C176.153 453.162 176.015 452.838 176.015 452.454C176.015 452.07 176.153 451.752 176.429 451.5C176.705 451.236 177.047 451.104 177.455 451.104C177.863 451.104 178.205 451.23 178.481 451.482C178.757 451.722 178.895 452.028 178.895 452.4C178.895 452.796 178.757 453.132 178.481 453.408C178.217 453.672 177.875 453.804 177.455 453.804ZM187.302 464.478C187.038 464.694 186.714 464.856 186.33 464.964C185.958 465.072 185.562 465.126 185.142 465.126C184.086 465.126 183.27 464.85 182.694 464.298C182.118 463.746 181.83 462.942 181.83 461.886V457.26H180.246V455.46H181.83V453.264H184.08V455.46H186.654V457.26H184.08V461.832C184.08 462.3 184.194 462.66 184.422 462.912C184.65 463.152 184.98 463.272 185.412 463.272C185.916 463.272 186.336 463.14 186.672 462.876L187.302 464.478ZM189.153 455.388H191.403V465H189.153V455.388ZM190.287 453.804C189.879 453.804 189.537 453.678 189.261 453.426C188.985 453.162 188.847 452.838 188.847 452.454C188.847 452.07 188.985 451.752 189.261 451.5C189.537 451.236 189.879 451.104 190.287 451.104C190.695 451.104 191.037 451.23 191.313 451.482C191.589 451.722 191.727 452.028 191.727 452.4C191.727 452.796 191.589 453.132 191.313 453.408C191.049 453.672 190.707 453.804 190.287 453.804ZM199.81 455.28C201.022 455.28 201.994 455.634 202.726 456.342C203.458 457.05 203.824 458.1 203.824 459.492V465H201.574V459.78C201.574 458.94 201.376 458.31 200.98 457.89C200.584 457.458 200.02 457.242 199.288 457.242C198.46 457.242 197.806 457.494 197.326 457.998C196.846 458.49 196.606 459.204 196.606 460.14V465H194.356V455.388H196.498V456.63C196.87 456.186 197.338 455.85 197.902 455.622C198.466 455.394 199.102 455.28 199.81 455.28ZM216.306 455.388V463.542C216.306 466.926 214.578 468.618 211.122 468.618C210.198 468.618 209.322 468.498 208.494 468.258C207.666 468.03 206.982 467.694 206.442 467.25L207.45 465.558C207.87 465.906 208.398 466.182 209.034 466.386C209.682 466.602 210.336 466.71 210.996 466.71C212.052 466.71 212.826 466.47 213.318 465.99C213.81 465.51 214.056 464.778 214.056 463.794V463.29C213.672 463.71 213.204 464.028 212.652 464.244C212.1 464.46 211.494 464.568 210.834 464.568C209.922 464.568 209.094 464.376 208.35 463.992C207.618 463.596 207.036 463.044 206.604 462.336C206.184 461.628 205.974 460.818 205.974 459.906C205.974 458.994 206.184 458.19 206.604 457.494C207.036 456.786 207.618 456.24 208.35 455.856C209.094 455.472 209.922 455.28 210.834 455.28C211.53 455.28 212.16 455.394 212.724 455.622C213.3 455.85 213.78 456.198 214.164 456.666V455.388H216.306ZM211.176 462.66C212.028 462.66 212.724 462.408 213.264 461.904C213.816 461.388 214.092 460.722 214.092 459.906C214.092 459.102 213.816 458.448 213.264 457.944C212.724 457.44 212.028 457.188 211.176 457.188C210.312 457.188 209.604 457.44 209.052 457.944C208.512 458.448 208.242 459.102 208.242 459.906C208.242 460.722 208.512 461.388 209.052 461.904C209.604 462.408 210.312 462.66 211.176 462.66Z" fill="white"/>
<path d="M130.776 178.4H133.116V189.02H139.704V191H130.776V178.4ZM150.283 186.248C150.283 186.404 150.271 186.626 150.247 186.914H142.705C142.837 187.622 143.179 188.186 143.731 188.606C144.295 189.014 144.991 189.218 145.819 189.218C146.875 189.218 147.745 188.87 148.429 188.174L149.635 189.56C149.203 190.076 148.657 190.466 147.997 190.73C147.337 190.994 146.593 191.126 145.765 191.126C144.709 191.126 143.779 190.916 142.975 190.496C142.171 190.076 141.547 189.494 141.103 188.75C140.671 187.994 140.455 187.142 140.455 186.194C140.455 185.258 140.665 184.418 141.085 183.674C141.517 182.918 142.111 182.33 142.867 181.91C143.623 181.49 144.475 181.28 145.423 181.28C146.359 181.28 147.193 181.49 147.925 181.91C148.669 182.318 149.245 182.9 149.653 183.656C150.073 184.4 150.283 185.264 150.283 186.248ZM145.423 183.08C144.703 183.08 144.091 183.296 143.587 183.728C143.095 184.148 142.795 184.712 142.687 185.42H148.141C148.045 184.724 147.751 184.16 147.259 183.728C146.767 183.296 146.155 183.08 145.423 183.08ZM155.853 181.28C157.269 181.28 158.349 181.622 159.093 182.306C159.849 182.978 160.227 183.998 160.227 185.366V191H158.103V189.83C157.827 190.25 157.431 190.574 156.915 190.802C156.411 191.018 155.799 191.126 155.079 191.126C154.359 191.126 153.729 191.006 153.189 190.766C152.649 190.514 152.229 190.172 151.929 189.74C151.641 189.296 151.497 188.798 151.497 188.246C151.497 187.382 151.815 186.692 152.451 186.176C153.099 185.648 154.113 185.384 155.493 185.384H157.977V185.24C157.977 184.568 157.773 184.052 157.365 183.692C156.969 183.332 156.375 183.152 155.583 183.152C155.043 183.152 154.509 183.236 153.981 183.404C153.465 183.572 153.027 183.806 152.667 184.106L151.785 182.468C152.289 182.084 152.895 181.79 153.603 181.586C154.311 181.382 155.061 181.28 155.853 181.28ZM155.547 189.488C156.111 189.488 156.609 189.362 157.041 189.11C157.485 188.846 157.797 188.474 157.977 187.994V186.878H155.655C154.359 186.878 153.711 187.304 153.711 188.156C153.711 188.564 153.873 188.888 154.197 189.128C154.521 189.368 154.971 189.488 155.547 189.488ZM172.617 177.644V191H170.457V189.758C170.085 190.214 169.623 190.556 169.071 190.784C168.531 191.012 167.931 191.126 167.271 191.126C166.347 191.126 165.513 190.922 164.769 190.514C164.037 190.106 163.461 189.53 163.041 188.786C162.621 188.03 162.411 187.166 162.411 186.194C162.411 185.222 162.621 184.364 163.041 183.62C163.461 182.876 164.037 182.3 164.769 181.892C165.513 181.484 166.347 181.28 167.271 181.28C167.907 181.28 168.489 181.388 169.017 181.604C169.545 181.82 169.995 182.144 170.367 182.576V177.644H172.617ZM167.541 189.2C168.081 189.2 168.567 189.08 168.999 188.84C169.431 188.588 169.773 188.234 170.025 187.778C170.277 187.322 170.403 186.794 170.403 186.194C170.403 185.594 170.277 185.066 170.025 184.61C169.773 184.154 169.431 183.806 168.999 183.566C168.567 183.314 168.081 183.188 167.541 183.188C167.001 183.188 166.515 183.314 166.083 183.566C165.651 183.806 165.309 184.154 165.057 184.61C164.805 185.066 164.679 185.594 164.679 186.194C164.679 186.794 164.805 187.322 165.057 187.778C165.309 188.234 165.651 188.588 166.083 188.84C166.515 189.08 167.001 189.2 167.541 189.2ZM184.596 186.248C184.596 186.404 184.584 186.626 184.56 186.914H177.018C177.15 187.622 177.492 188.186 178.044 188.606C178.608 189.014 179.304 189.218 180.132 189.218C181.188 189.218 182.058 188.87 182.742 188.174L183.948 189.56C183.516 190.076 182.97 190.466 182.31 190.73C181.65 190.994 180.906 191.126 180.078 191.126C179.022 191.126 178.092 190.916 177.288 190.496C176.484 190.076 175.86 189.494 175.416 188.75C174.984 187.994 174.768 187.142 174.768 186.194C174.768 185.258 174.978 184.418 175.398 183.674C175.83 182.918 176.424 182.33 177.18 181.91C177.936 181.49 178.788 181.28 179.736 181.28C180.672 181.28 181.506 181.49 182.238 181.91C182.982 182.318 183.558 182.9 183.966 183.656C184.386 184.4 184.596 185.264 184.596 186.248ZM179.736 183.08C179.016 183.08 178.404 183.296 177.9 183.728C177.408 184.148 177.108 184.712 177 185.42H182.454C182.358 184.724 182.064 184.16 181.572 183.728C181.08 183.296 180.468 183.08 179.736 183.08ZM188.899 182.792C189.547 181.784 190.687 181.28 192.319 181.28V183.422C192.127 183.386 191.953 183.368 191.797 183.368C190.921 183.368 190.237 183.626 189.745 184.142C189.253 184.646 189.007 185.378 189.007 186.338V191H186.757V181.388H188.899V182.792ZM197.233 191.126C196.453 191.126 195.691 191.024 194.947 190.82C194.203 190.616 193.609 190.358 193.165 190.046L194.029 188.336C194.461 188.624 194.977 188.858 195.577 189.038C196.189 189.206 196.789 189.29 197.377 189.29C198.721 189.29 199.393 188.936 199.393 188.228C199.393 187.892 199.219 187.658 198.871 187.526C198.535 187.394 197.989 187.268 197.233 187.148C196.441 187.028 195.793 186.89 195.289 186.734C194.797 186.578 194.365 186.308 193.993 185.924C193.633 185.528 193.453 184.982 193.453 184.286C193.453 183.374 193.831 182.648 194.587 182.108C195.355 181.556 196.387 181.28 197.683 181.28C198.343 181.28 199.003 181.358 199.663 181.514C200.323 181.658 200.863 181.856 201.283 182.108L200.419 183.818C199.603 183.338 198.685 183.098 197.665 183.098C197.005 183.098 196.501 183.2 196.153 183.404C195.817 183.596 195.649 183.854 195.649 184.178C195.649 184.538 195.829 184.796 196.189 184.952C196.561 185.096 197.131 185.234 197.899 185.366C198.667 185.486 199.297 185.624 199.789 185.78C200.281 185.936 200.701 186.2 201.049 186.572C201.409 186.944 201.589 187.472 201.589 188.156C201.589 189.056 201.199 189.776 200.419 190.316C199.639 190.856 198.577 191.126 197.233 191.126ZM208.981 181.28C210.193 181.28 211.165 181.634 211.897 182.342C212.629 183.05 212.995 184.1 212.995 185.492V191H210.745V185.78C210.745 184.94 210.547 184.31 210.151 183.89C209.755 183.458 209.191 183.242 208.459 183.242C207.631 183.242 206.977 183.494 206.497 183.998C206.017 184.49 205.777 185.204 205.777 186.14V191H203.527V177.644H205.777V182.504C206.149 182.108 206.605 181.808 207.145 181.604C207.697 181.388 208.309 181.28 208.981 181.28ZM215.849 181.388H218.099V191H215.849V181.388ZM216.983 179.804C216.575 179.804 216.233 179.678 215.957 179.426C215.681 179.162 215.543 178.838 215.543 178.454C215.543 178.07 215.681 177.752 215.957 177.5C216.233 177.236 216.575 177.104 216.983 177.104C217.391 177.104 217.733 177.23 218.009 177.482C218.285 177.722 218.423 178.028 218.423 178.4C218.423 178.796 218.285 179.132 218.009 179.408C217.745 179.672 217.403 179.804 216.983 179.804ZM226.38 181.28C227.316 181.28 228.15 181.484 228.882 181.892C229.626 182.3 230.208 182.876 230.628 183.62C231.048 184.364 231.258 185.222 231.258 186.194C231.258 187.166 231.048 188.03 230.628 188.786C230.208 189.53 229.626 190.106 228.882 190.514C228.15 190.922 227.316 191.126 226.38 191.126C225.084 191.126 224.058 190.694 223.302 189.83V194.492H221.052V181.388H223.194V182.648C223.566 182.192 224.022 181.85 224.562 181.622C225.114 181.394 225.72 181.28 226.38 181.28ZM226.128 189.2C226.956 189.2 227.634 188.924 228.162 188.372C228.702 187.82 228.972 187.094 228.972 186.194C228.972 185.294 228.702 184.568 228.162 184.016C227.634 183.464 226.956 183.188 226.128 183.188C225.588 183.188 225.102 183.314 224.67 183.566C224.238 183.806 223.896 184.154 223.644 184.61C223.392 185.066 223.266 185.594 223.266 186.194C223.266 186.794 223.392 187.322 223.644 187.778C223.896 188.234 224.238 188.588 224.67 188.84C225.102 189.08 225.588 189.2 226.128 189.2Z" fill="white"/>
<path d="M401.481 495L401.463 486.648L397.323 493.56H396.279L392.139 486.756V495H389.907V482.4H391.833L396.837 490.752L401.751 482.4H403.677L403.695 495H401.481ZM410.554 485.28C411.97 485.28 413.05 485.622 413.794 486.306C414.55 486.978 414.928 487.998 414.928 489.366V495H412.804V493.83C412.528 494.25 412.132 494.574 411.616 494.802C411.112 495.018 410.5 495.126 409.78 495.126C409.06 495.126 408.43 495.006 407.89 494.766C407.35 494.514 406.93 494.172 406.63 493.74C406.342 493.296 406.198 492.798 406.198 492.246C406.198 491.382 406.516 490.692 407.152 490.176C407.8 489.648 408.814 489.384 410.194 489.384H412.678V489.24C412.678 488.568 412.474 488.052 412.066 487.692C411.67 487.332 411.076 487.152 410.284 487.152C409.744 487.152 409.21 487.236 408.682 487.404C408.166 487.572 407.728 487.806 407.368 488.106L406.486 486.468C406.99 486.084 407.596 485.79 408.304 485.586C409.012 485.382 409.762 485.28 410.554 485.28ZM410.248 493.488C410.812 493.488 411.31 493.362 411.742 493.11C412.186 492.846 412.498 492.474 412.678 491.994V490.878H410.356C409.06 490.878 408.412 491.304 408.412 492.156C408.412 492.564 408.574 492.888 408.898 493.128C409.222 493.368 409.672 493.488 410.248 493.488ZM419.958 486.792C420.606 485.784 421.746 485.28 423.378 485.28V487.422C423.186 487.386 423.012 487.368 422.856 487.368C421.98 487.368 421.296 487.626 420.804 488.142C420.312 488.646 420.066 489.378 420.066 490.338V495H417.816V485.388H419.958V486.792ZM429.211 490.878L427.537 492.462V495H425.287V481.644H427.537V489.708L432.199 485.388H434.899L430.885 489.42L435.277 495H432.541L429.211 490.878ZM445.362 490.248C445.362 490.404 445.35 490.626 445.326 490.914H437.784C437.916 491.622 438.258 492.186 438.81 492.606C439.374 493.014 440.07 493.218 440.898 493.218C441.954 493.218 442.824 492.87 443.508 492.174L444.714 493.56C444.282 494.076 443.736 494.466 443.076 494.73C442.416 494.994 441.672 495.126 440.844 495.126C439.788 495.126 438.858 494.916 438.054 494.496C437.25 494.076 436.626 493.494 436.182 492.75C435.75 491.994 435.534 491.142 435.534 490.194C435.534 489.258 435.744 488.418 436.164 487.674C436.596 486.918 437.19 486.33 437.946 485.91C438.702 485.49 439.554 485.28 440.502 485.28C441.438 485.28 442.272 485.49 443.004 485.91C443.748 486.318 444.324 486.9 444.732 487.656C445.152 488.4 445.362 489.264 445.362 490.248ZM440.502 487.08C439.782 487.08 439.17 487.296 438.666 487.728C438.174 488.148 437.874 488.712 437.766 489.42H443.22C443.124 488.724 442.83 488.16 442.338 487.728C441.846 487.296 441.234 487.08 440.502 487.08ZM453.301 494.478C453.037 494.694 452.713 494.856 452.329 494.964C451.957 495.072 451.561 495.126 451.141 495.126C450.085 495.126 449.269 494.85 448.693 494.298C448.117 493.746 447.829 492.942 447.829 491.886V487.26H446.245V485.46H447.829V483.264H450.079V485.46H452.653V487.26H450.079V491.832C450.079 492.3 450.193 492.66 450.421 492.912C450.649 493.152 450.979 493.272 451.411 493.272C451.915 493.272 452.335 493.14 452.671 492.876L453.301 494.478ZM455.152 485.388H457.402V495H455.152V485.388ZM456.286 483.804C455.878 483.804 455.536 483.678 455.26 483.426C454.984 483.162 454.846 482.838 454.846 482.454C454.846 482.07 454.984 481.752 455.26 481.5C455.536 481.236 455.878 481.104 456.286 481.104C456.694 481.104 457.036 481.23 457.312 481.482C457.588 481.722 457.726 482.028 457.726 482.4C457.726 482.796 457.588 483.132 457.312 483.408C457.048 483.672 456.706 483.804 456.286 483.804ZM465.809 485.28C467.021 485.28 467.993 485.634 468.725 486.342C469.457 487.05 469.823 488.1 469.823 489.492V495H467.573V489.78C467.573 488.94 467.375 488.31 466.979 487.89C466.583 487.458 466.019 487.242 465.287 487.242C464.459 487.242 463.805 487.494 463.325 487.998C462.845 488.49 462.605 489.204 462.605 490.14V495H460.355V485.388H462.497V486.63C462.869 486.186 463.337 485.85 463.901 485.622C464.465 485.394 465.101 485.28 465.809 485.28ZM482.305 485.388V493.542C482.305 496.926 480.577 498.618 477.121 498.618C476.197 498.618 475.321 498.498 474.493 498.258C473.665 498.03 472.981 497.694 472.441 497.25L473.449 495.558C473.869 495.906 474.397 496.182 475.033 496.386C475.681 496.602 476.335 496.71 476.995 496.71C478.051 496.71 478.825 496.47 479.317 495.99C479.809 495.51 480.055 494.778 480.055 493.794V493.29C479.671 493.71 479.203 494.028 478.651 494.244C478.099 494.46 477.493 494.568 476.833 494.568C475.921 494.568 475.093 494.376 474.349 493.992C473.617 493.596 473.035 493.044 472.603 492.336C472.183 491.628 471.973 490.818 471.973 489.906C471.973 488.994 472.183 488.19 472.603 487.494C473.035 486.786 473.617 486.24 474.349 485.856C475.093 485.472 475.921 485.28 476.833 485.28C477.529 485.28 478.159 485.394 478.723 485.622C479.299 485.85 479.779 486.198 480.163 486.666V485.388H482.305ZM477.175 492.66C478.027 492.66 478.723 492.408 479.263 491.904C479.815 491.388 480.091 490.722 480.091 489.906C480.091 489.102 479.815 488.448 479.263 487.944C478.723 487.44 478.027 487.188 477.175 487.188C476.311 487.188 475.603 487.44 475.051 487.944C474.511 488.448 474.241 489.102 474.241 489.906C474.241 490.722 474.511 491.388 475.051 491.904C475.603 492.408 476.311 492.66 477.175 492.66Z" fill="white"/>
<path d="M448.64 201.18C447.668 201.18 446.726 201.042 445.814 200.766C444.914 200.49 444.2 200.124 443.672 199.668L444.482 197.85C444.998 198.258 445.628 198.594 446.372 198.858C447.128 199.11 447.884 199.236 448.64 199.236C449.576 199.236 450.272 199.086 450.728 198.786C451.196 198.486 451.43 198.09 451.43 197.598C451.43 197.238 451.298 196.944 451.034 196.716C450.782 196.476 450.458 196.29 450.062 196.158C449.666 196.026 449.126 195.876 448.442 195.708C447.482 195.48 446.702 195.252 446.102 195.024C445.514 194.796 445.004 194.442 444.572 193.962C444.152 193.47 443.942 192.81 443.942 191.982C443.942 191.286 444.128 190.656 444.5 190.092C444.884 189.516 445.454 189.06 446.21 188.724C446.978 188.388 447.914 188.22 449.018 188.22C449.786 188.22 450.542 188.316 451.286 188.508C452.03 188.7 452.672 188.976 453.212 189.336L452.474 191.154C451.922 190.83 451.346 190.584 450.746 190.416C450.146 190.248 449.564 190.164 449 190.164C448.076 190.164 447.386 190.32 446.93 190.632C446.486 190.944 446.264 191.358 446.264 191.874C446.264 192.234 446.39 192.528 446.642 192.756C446.906 192.984 447.236 193.164 447.632 193.296C448.028 193.428 448.568 193.578 449.252 193.746C450.188 193.962 450.956 194.19 451.556 194.43C452.156 194.658 452.666 195.012 453.086 195.492C453.518 195.972 453.734 196.62 453.734 197.436C453.734 198.132 453.542 198.762 453.158 199.326C452.786 199.89 452.216 200.34 451.448 200.676C450.68 201.012 449.744 201.18 448.64 201.18ZM459.51 191.28C460.926 191.28 462.006 191.622 462.75 192.306C463.506 192.978 463.884 193.998 463.884 195.366V201H461.76V199.83C461.484 200.25 461.088 200.574 460.572 200.802C460.068 201.018 459.456 201.126 458.736 201.126C458.016 201.126 457.386 201.006 456.846 200.766C456.306 200.514 455.886 200.172 455.586 199.74C455.298 199.296 455.154 198.798 455.154 198.246C455.154 197.382 455.472 196.692 456.108 196.176C456.756 195.648 457.77 195.384 459.15 195.384H461.634V195.24C461.634 194.568 461.43 194.052 461.022 193.692C460.626 193.332 460.032 193.152 459.24 193.152C458.7 193.152 458.166 193.236 457.638 193.404C457.122 193.572 456.684 193.806 456.324 194.106L455.442 192.468C455.946 192.084 456.552 191.79 457.26 191.586C457.968 191.382 458.718 191.28 459.51 191.28ZM459.204 199.488C459.768 199.488 460.266 199.362 460.698 199.11C461.142 198.846 461.454 198.474 461.634 197.994V196.878H459.312C458.016 196.878 457.368 197.304 457.368 198.156C457.368 198.564 457.53 198.888 457.854 199.128C458.178 199.368 458.628 199.488 459.204 199.488ZM466.772 187.644H469.022V201H466.772V187.644ZM481.011 196.248C481.011 196.404 480.999 196.626 480.975 196.914H473.433C473.565 197.622 473.907 198.186 474.459 198.606C475.023 199.014 475.719 199.218 476.547 199.218C477.603 199.218 478.473 198.87 479.157 198.174L480.363 199.56C479.931 200.076 479.385 200.466 478.725 200.73C478.065 200.994 477.321 201.126 476.493 201.126C475.437 201.126 474.507 200.916 473.703 200.496C472.899 200.076 472.275 199.494 471.831 198.75C471.399 197.994 471.183 197.142 471.183 196.194C471.183 195.258 471.393 194.418 471.813 193.674C472.245 192.918 472.839 192.33 473.595 191.91C474.351 191.49 475.203 191.28 476.151 191.28C477.087 191.28 477.921 191.49 478.653 191.91C479.397 192.318 479.973 192.9 480.381 193.656C480.801 194.4 481.011 195.264 481.011 196.248ZM476.151 193.08C475.431 193.08 474.819 193.296 474.315 193.728C473.823 194.148 473.523 194.712 473.415 195.42H478.869C478.773 194.724 478.479 194.16 477.987 193.728C477.495 193.296 476.883 193.08 476.151 193.08ZM486.142 201.126C485.362 201.126 484.6 201.024 483.856 200.82C483.112 200.616 482.518 200.358 482.074 200.046L482.938 198.336C483.37 198.624 483.886 198.858 484.486 199.038C485.098 199.206 485.698 199.29 486.286 199.29C487.63 199.29 488.302 198.936 488.302 198.228C488.302 197.892 488.128 197.658 487.78 197.526C487.444 197.394 486.898 197.268 486.142 197.148C485.35 197.028 484.702 196.89 484.198 196.734C483.706 196.578 483.274 196.308 482.902 195.924C482.542 195.528 482.362 194.982 482.362 194.286C482.362 193.374 482.74 192.648 483.496 192.108C484.264 191.556 485.296 191.28 486.592 191.28C487.252 191.28 487.912 191.358 488.572 191.514C489.232 191.658 489.772 191.856 490.192 192.108L489.328 193.818C488.512 193.338 487.594 193.098 486.574 193.098C485.914 193.098 485.41 193.2 485.062 193.404C484.726 193.596 484.558 193.854 484.558 194.178C484.558 194.538 484.738 194.796 485.098 194.952C485.47 195.096 486.04 195.234 486.808 195.366C487.576 195.486 488.206 195.624 488.698 195.78C489.19 195.936 489.61 196.2 489.958 196.572C490.318 196.944 490.498 197.472 490.498 198.156C490.498 199.056 490.108 199.776 489.328 200.316C488.548 200.856 487.486 201.126 486.142 201.126Z" fill="white"/>
<path d="M281.798 595.2C282.648 595.2 283.385 595.34 284.01 595.62C284.645 595.9 285.13 596.301 285.466 596.824C285.802 597.347 285.97 597.967 285.97 598.686C285.97 599.395 285.802 600.016 285.466 600.548C285.13 601.071 284.645 601.472 284.01 601.752C283.385 602.032 282.648 602.172 281.798 602.172H279.586V605H277.766V595.2H281.798ZM281.714 600.632C282.508 600.632 283.11 600.464 283.52 600.128C283.931 599.792 284.136 599.311 284.136 598.686C284.136 598.061 283.931 597.58 283.52 597.244C283.11 596.908 282.508 596.74 281.714 596.74H279.586V600.632H281.714ZM289.217 598.616C289.721 597.832 290.608 597.44 291.877 597.44V599.106C291.728 599.078 291.593 599.064 291.471 599.064C290.79 599.064 290.258 599.265 289.875 599.666C289.493 600.058 289.301 600.627 289.301 601.374V605H287.551V597.524H289.217V598.616ZM296.654 605.098C295.898 605.098 295.216 604.935 294.61 604.608C294.003 604.281 293.527 603.829 293.182 603.25C292.846 602.662 292.678 601.999 292.678 601.262C292.678 600.525 292.846 599.867 293.182 599.288C293.527 598.709 294.003 598.257 294.61 597.93C295.216 597.603 295.898 597.44 296.654 597.44C297.419 597.44 298.105 597.603 298.712 597.93C299.318 598.257 299.79 598.709 300.126 599.288C300.471 599.867 300.644 600.525 300.644 601.262C300.644 601.999 300.471 602.662 300.126 603.25C299.79 603.829 299.318 604.281 298.712 604.608C298.105 604.935 297.419 605.098 296.654 605.098ZM296.654 603.6C297.298 603.6 297.83 603.385 298.25 602.956C298.67 602.527 298.88 601.962 298.88 601.262C298.88 600.562 298.67 599.997 298.25 599.568C297.83 599.139 297.298 598.924 296.654 598.924C296.01 598.924 295.478 599.139 295.058 599.568C294.647 599.997 294.442 600.562 294.442 601.262C294.442 601.962 294.647 602.527 295.058 602.956C295.478 603.385 296.01 603.6 296.654 603.6ZM309.639 594.612V605H307.959V604.034C307.67 604.389 307.31 604.655 306.881 604.832C306.461 605.009 305.994 605.098 305.481 605.098C304.762 605.098 304.114 604.939 303.535 604.622C302.966 604.305 302.518 603.857 302.191 603.278C301.864 602.69 301.701 602.018 301.701 601.262C301.701 600.506 301.864 599.839 302.191 599.26C302.518 598.681 302.966 598.233 303.535 597.916C304.114 597.599 304.762 597.44 305.481 597.44C305.976 597.44 306.428 597.524 306.839 597.692C307.25 597.86 307.6 598.112 307.889 598.448V594.612H309.639ZM305.691 603.6C306.111 603.6 306.489 603.507 306.825 603.32C307.161 603.124 307.427 602.849 307.623 602.494C307.819 602.139 307.917 601.729 307.917 601.262C307.917 600.795 307.819 600.385 307.623 600.03C307.427 599.675 307.161 599.405 306.825 599.218C306.489 599.022 306.111 598.924 305.691 598.924C305.271 598.924 304.893 599.022 304.557 599.218C304.221 599.405 303.955 599.675 303.759 600.03C303.563 600.385 303.465 600.795 303.465 601.262C303.465 601.729 303.563 602.139 303.759 602.494C303.955 602.849 304.221 603.124 304.557 603.32C304.893 603.507 305.271 603.6 305.691 603.6ZM319.166 597.524V605H317.5V604.048C317.22 604.384 316.87 604.645 316.45 604.832C316.03 605.009 315.578 605.098 315.092 605.098C314.094 605.098 313.305 604.823 312.726 604.272C312.157 603.712 311.872 602.886 311.872 601.794V597.524H313.622V601.556C313.622 602.228 313.772 602.732 314.07 603.068C314.378 603.395 314.812 603.558 315.372 603.558C315.998 603.558 316.492 603.367 316.856 602.984C317.23 602.592 317.416 602.032 317.416 601.304V597.524H319.166ZM324.888 605.098C324.113 605.098 323.418 604.935 322.802 604.608C322.186 604.281 321.705 603.829 321.36 603.25C321.014 602.662 320.842 601.999 320.842 601.262C320.842 600.525 321.014 599.867 321.36 599.288C321.705 598.709 322.181 598.257 322.788 597.93C323.404 597.603 324.104 597.44 324.888 597.44C325.625 597.44 326.269 597.589 326.82 597.888C327.38 598.187 327.8 598.616 328.08 599.176L326.736 599.96C326.521 599.615 326.25 599.358 325.924 599.19C325.606 599.013 325.256 598.924 324.874 598.924C324.22 598.924 323.679 599.139 323.25 599.568C322.82 599.988 322.606 600.553 322.606 601.262C322.606 601.971 322.816 602.541 323.236 602.97C323.665 603.39 324.211 603.6 324.874 603.6C325.256 603.6 325.606 603.516 325.924 603.348C326.25 603.171 326.521 602.909 326.736 602.564L328.08 603.348C327.79 603.908 327.366 604.342 326.806 604.65C326.255 604.949 325.616 605.098 324.888 605.098ZM334.182 604.594C333.977 604.762 333.725 604.888 333.426 604.972C333.137 605.056 332.829 605.098 332.502 605.098C331.681 605.098 331.046 604.883 330.598 604.454C330.15 604.025 329.926 603.399 329.926 602.578V598.98H328.694V597.58H329.926V595.872H331.676V597.58H333.678V598.98H331.676V602.536C331.676 602.9 331.765 603.18 331.942 603.376C332.119 603.563 332.376 603.656 332.712 603.656C333.104 603.656 333.431 603.553 333.692 603.348L334.182 604.594ZM335.622 597.524H337.372V605H335.622V597.524ZM336.504 596.292C336.186 596.292 335.92 596.194 335.706 595.998C335.491 595.793 335.384 595.541 335.384 595.242C335.384 594.943 335.491 594.696 335.706 594.5C335.92 594.295 336.186 594.192 336.504 594.192C336.821 594.192 337.087 594.29 337.302 594.486C337.516 594.673 337.624 594.911 337.624 595.2C337.624 595.508 337.516 595.769 337.302 595.984C337.096 596.189 336.83 596.292 336.504 596.292ZM346.669 597.524L343.463 605H341.657L338.451 597.524H340.271L342.595 603.068L344.989 597.524H346.669ZM347.762 597.524H349.512V605H347.762V597.524ZM348.644 596.292C348.327 596.292 348.061 596.194 347.846 595.998C347.632 595.793 347.524 595.541 347.524 595.242C347.524 594.943 347.632 594.696 347.846 594.5C348.061 594.295 348.327 594.192 348.644 594.192C348.962 594.192 349.228 594.29 349.442 594.486C349.657 594.673 349.764 594.911 349.764 595.2C349.764 595.508 349.657 595.769 349.442 595.984C349.237 596.189 348.971 596.292 348.644 596.292ZM356.303 604.594C356.098 604.762 355.846 604.888 355.547 604.972C355.258 605.056 354.95 605.098 354.623 605.098C353.802 605.098 353.167 604.883 352.719 604.454C352.271 604.025 352.047 603.399 352.047 602.578V598.98H350.815V597.58H352.047V595.872H353.797V597.58H355.799V598.98H353.797V602.536C353.797 602.9 353.886 603.18 354.063 603.376C354.24 603.563 354.497 603.656 354.833 603.656C355.225 603.656 355.552 603.553 355.813 603.348L356.303 604.594ZM364.606 597.524L361.106 605.602C360.779 606.414 360.383 606.983 359.916 607.31C359.449 607.646 358.885 607.814 358.222 607.814C357.849 607.814 357.48 607.753 357.116 607.632C356.752 607.511 356.453 607.343 356.22 607.128L356.92 605.84C357.088 605.999 357.284 606.125 357.508 606.218C357.741 606.311 357.975 606.358 358.208 606.358C358.516 606.358 358.768 606.279 358.964 606.12C359.169 605.961 359.356 605.695 359.524 605.322L359.65 605.028L356.388 597.524H358.208L360.56 603.054L362.926 597.524H364.606Z" fill="#676767"/>
<path d="M7.6822 612.311C6.4102 612.311 5.2582 612.035 4.2262 611.483C3.2062 610.919 2.4022 610.145 1.8142 609.161C1.2382 608.177 0.950203 607.067 0.950203 605.831C0.950203 604.595 1.2442 603.485 1.8322 602.501C2.4202 601.517 3.2242 600.749 4.2442 600.197C5.2762 599.633 6.4282 599.351 7.7002 599.351C8.7322 599.351 9.6742 599.531 10.5262 599.891C11.3782 600.251 12.0982 600.773 12.6862 601.457L11.1742 602.879C10.2622 601.895 9.1402 601.403 7.8082 601.403C6.9442 601.403 6.1702 601.595 5.4862 601.979C4.8022 602.351 4.2682 602.873 3.8842 603.545C3.5002 604.217 3.3082 604.979 3.3082 605.831C3.3082 606.683 3.5002 607.445 3.8842 608.117C4.2682 608.789 4.8022 609.317 5.4862 609.701C6.1702 610.073 6.9442 610.259 7.8082 610.259C9.1402 610.259 10.2622 609.761 11.1742 608.765L12.6862 610.205C12.0982 610.889 11.3722 611.411 10.5082 611.771C9.6562 612.131 8.7142 612.311 7.6822 612.311ZM18.2964 602.411C19.7124 602.411 20.7924 602.753 21.5364 603.437C22.2924 604.109 22.6704 605.129 22.6704 606.497V612.131H20.5464V610.961C20.2704 611.381 19.8744 611.705 19.3584 611.933C18.8544 612.149 18.2424 612.257 17.5224 612.257C16.8024 612.257 16.1724 612.137 15.6324 611.897C15.0924 611.645 14.6724 611.303 14.3724 610.871C14.0844 610.427 13.9404 609.929 13.9404 609.377C13.9404 608.513 14.2584 607.823 14.8944 607.307C15.5424 606.779 16.5564 606.515 17.9364 606.515H20.4204V606.371C20.4204 605.699 20.2164 605.183 19.8084 604.823C19.4124 604.463 18.8184 604.283 18.0264 604.283C17.4864 604.283 16.9524 604.367 16.4244 604.535C15.9084 604.703 15.4704 604.937 15.1104 605.237L14.2284 603.599C14.7324 603.215 15.3384 602.921 16.0464 602.717C16.7544 602.513 17.5044 602.411 18.2964 602.411ZM17.9904 610.619C18.5544 610.619 19.0524 610.493 19.4844 610.241C19.9284 609.977 20.2404 609.605 20.4204 609.125V608.009H18.0984C16.8024 608.009 16.1544 608.435 16.1544 609.287C16.1544 609.695 16.3164 610.019 16.6404 610.259C16.9644 610.499 17.4144 610.619 17.9904 610.619ZM30.886 602.411C31.822 602.411 32.656 602.615 33.388 603.023C34.132 603.431 34.714 604.007 35.134 604.751C35.554 605.495 35.764 606.353 35.764 607.325C35.764 608.297 35.554 609.161 35.134 609.917C34.714 610.661 34.132 611.237 33.388 611.645C32.656 612.053 31.822 612.257 30.886 612.257C29.59 612.257 28.564 611.825 27.808 610.961V615.623H25.558V602.519H27.7V603.779C28.072 603.323 28.528 602.981 29.068 602.753C29.62 602.525 30.226 602.411 30.886 602.411ZM30.634 610.331C31.462 610.331 32.14 610.055 32.668 609.503C33.208 608.951 33.478 608.225 33.478 607.325C33.478 606.425 33.208 605.699 32.668 605.147C32.14 604.595 31.462 604.319 30.634 604.319C30.094 604.319 29.608 604.445 29.176 604.697C28.744 604.937 28.402 605.285 28.15 605.741C27.898 606.197 27.772 606.725 27.772 607.325C27.772 607.925 27.898 608.453 28.15 608.909C28.402 609.365 28.744 609.719 29.176 609.971C29.608 610.211 30.094 610.331 30.634 610.331ZM41.4468 602.411C42.8628 602.411 43.9428 602.753 44.6868 603.437C45.4428 604.109 45.8208 605.129 45.8208 606.497V612.131H43.6968V610.961C43.4208 611.381 43.0248 611.705 42.5088 611.933C42.0048 612.149 41.3928 612.257 40.6728 612.257C39.9528 612.257 39.3228 612.137 38.7828 611.897C38.2428 611.645 37.8228 611.303 37.5228 610.871C37.2348 610.427 37.0908 609.929 37.0908 609.377C37.0908 608.513 37.4088 607.823 38.0448 607.307C38.6928 606.779 39.7068 606.515 41.0868 606.515H43.5708V606.371C43.5708 605.699 43.3668 605.183 42.9588 604.823C42.5628 604.463 41.9688 604.283 41.1768 604.283C40.6368 604.283 40.1028 604.367 39.5748 604.535C39.0588 604.703 38.6208 604.937 38.2608 605.237L37.3788 603.599C37.8828 603.215 38.4888 602.921 39.1968 602.717C39.9048 602.513 40.6548 602.411 41.4468 602.411ZM41.1408 610.619C41.7048 610.619 42.2028 610.493 42.6348 610.241C43.0788 609.977 43.3908 609.605 43.5708 609.125V608.009H41.2488C39.9528 608.009 39.3048 608.435 39.3048 609.287C39.3048 609.695 39.4668 610.019 39.7908 610.259C40.1148 610.499 40.5648 610.619 41.1408 610.619ZM53.2063 612.257C52.2103 612.257 51.3163 612.047 50.5243 611.627C49.7323 611.207 49.1143 610.625 48.6703 609.881C48.2263 609.125 48.0043 608.273 48.0043 607.325C48.0043 606.377 48.2263 605.531 48.6703 604.787C49.1143 604.043 49.7263 603.461 50.5063 603.041C51.2983 602.621 52.1983 602.411 53.2063 602.411C54.1543 602.411 54.9823 602.603 55.6903 602.987C56.4103 603.371 56.9503 603.923 57.3103 604.643L55.5823 605.651C55.3063 605.207 54.9583 604.877 54.5383 604.661C54.1303 604.433 53.6803 604.319 53.1883 604.319C52.3483 604.319 51.6523 604.595 51.1003 605.147C50.5483 605.687 50.2723 606.413 50.2723 607.325C50.2723 608.237 50.5423 608.969 51.0823 609.521C51.6343 610.061 52.3363 610.331 53.1883 610.331C53.6803 610.331 54.1303 610.223 54.5383 610.007C54.9583 609.779 55.3063 609.443 55.5823 608.999L57.3103 610.007C56.9383 610.727 56.3923 611.285 55.6723 611.681C54.9643 612.065 54.1423 612.257 53.2063 612.257ZM59.2553 602.519H61.5053V612.131H59.2553V602.519ZM60.3893 600.935C59.9813 600.935 59.6393 600.809 59.3633 600.557C59.0873 600.293 58.9493 599.969 58.9493 599.585C58.9493 599.201 59.0873 598.883 59.3633 598.631C59.6393 598.367 59.9813 598.235 60.3893 598.235C60.7973 598.235 61.1393 598.361 61.4153 598.613C61.6913 598.853 61.8293 599.159 61.8293 599.531C61.8293 599.927 61.6913 600.263 61.4153 600.539C61.1513 600.803 60.8093 600.935 60.3893 600.935ZM70.2364 611.609C69.9724 611.825 69.6484 611.987 69.2644 612.095C68.8924 612.203 68.4964 612.257 68.0764 612.257C67.0204 612.257 66.2044 611.981 65.6284 611.429C65.0524 610.877 64.7644 610.073 64.7644 609.017V604.391H63.1804V602.591H64.7644V600.395H67.0144V602.591H69.5884V604.391H67.0144V608.963C67.0144 609.431 67.1284 609.791 67.3564 610.043C67.5844 610.283 67.9144 610.403 68.3464 610.403C68.8504 610.403 69.2704 610.271 69.6064 610.007L70.2364 611.609ZM80.9115 602.519L76.4115 612.905C75.9915 613.949 75.4815 614.681 74.8815 615.101C74.2815 615.533 73.5555 615.749 72.7035 615.749C72.2235 615.749 71.7495 615.671 71.2815 615.515C70.8135 615.359 70.4295 615.143 70.1295 614.867L71.0295 613.211C71.2455 613.415 71.4975 613.577 71.7855 613.697C72.0855 613.817 72.3855 613.877 72.6855 613.877C73.0815 613.877 73.4055 613.775 73.6575 613.571C73.9215 613.367 74.1615 613.025 74.3775 612.545L74.5395 612.167L70.3455 602.519H72.6855L75.7095 609.629L78.7515 602.519H80.9115Z" fill="#676767"/>
<path d="M625.607 96.556H627.821V101.578C627.173 102.094 626.417 102.49 625.553 102.766C624.689 103.042 623.801 103.18 622.889 103.18C621.605 103.18 620.447 102.904 619.415 102.352C618.383 101.788 617.573 101.014 616.985 100.03C616.397 99.046 616.103 97.936 616.103 96.7C616.103 95.464 616.397 94.354 616.985 93.37C617.573 92.386 618.383 91.618 619.415 91.066C620.459 90.502 621.629 90.22 622.925 90.22C623.981 90.22 624.941 90.394 625.805 90.742C626.669 91.09 627.395 91.6 627.983 92.272L626.507 93.712C625.547 92.752 624.389 92.272 623.033 92.272C622.145 92.272 621.353 92.458 620.657 92.83C619.973 93.202 619.433 93.724 619.037 94.396C618.653 95.068 618.461 95.836 618.461 96.7C618.461 97.54 618.653 98.296 619.037 98.968C619.433 99.64 619.973 100.168 620.657 100.552C621.353 100.936 622.139 101.128 623.015 101.128C623.999 101.128 624.863 100.912 625.607 100.48V96.556ZM632.833 94.792C633.481 93.784 634.621 93.28 636.253 93.28V95.422C636.061 95.386 635.887 95.368 635.731 95.368C634.855 95.368 634.171 95.626 633.679 96.142C633.187 96.646 632.941 97.378 632.941 98.338V103H630.691V93.388H632.833V94.792ZM642.394 103.126C641.422 103.126 640.546 102.916 639.766 102.496C638.986 102.076 638.374 101.494 637.93 100.75C637.498 99.994 637.282 99.142 637.282 98.194C637.282 97.246 637.498 96.4 637.93 95.656C638.374 94.912 638.986 94.33 639.766 93.91C640.546 93.49 641.422 93.28 642.394 93.28C643.378 93.28 644.26 93.49 645.04 93.91C645.82 94.33 646.426 94.912 646.858 95.656C647.302 96.4 647.524 97.246 647.524 98.194C647.524 99.142 647.302 99.994 646.858 100.75C646.426 101.494 645.82 102.076 645.04 102.496C644.26 102.916 643.378 103.126 642.394 103.126ZM642.394 101.2C643.222 101.2 643.906 100.924 644.446 100.372C644.986 99.82 645.256 99.094 645.256 98.194C645.256 97.294 644.986 96.568 644.446 96.016C643.906 95.464 643.222 95.188 642.394 95.188C641.566 95.188 640.882 95.464 640.342 96.016C639.814 96.568 639.55 97.294 639.55 98.194C639.55 99.094 639.814 99.82 640.342 100.372C640.882 100.924 641.566 101.2 642.394 101.2ZM664.406 93.388L660.86 103H658.7L656.216 96.376L653.696 103H651.536L648.008 93.388H650.132L652.67 100.48L655.316 93.388H657.206L659.798 100.516L662.408 93.388H664.406ZM671.994 102.478C671.73 102.694 671.406 102.856 671.022 102.964C670.65 103.072 670.254 103.126 669.834 103.126C668.778 103.126 667.962 102.85 667.386 102.298C666.81 101.746 666.522 100.942 666.522 99.886V95.26H664.938V93.46H666.522V91.264H668.772V93.46H671.346V95.26H668.772V99.832C668.772 100.3 668.886 100.66 669.114 100.912C669.342 101.152 669.672 101.272 670.104 101.272C670.608 101.272 671.028 101.14 671.364 100.876L671.994 102.478ZM679.299 93.28C680.511 93.28 681.483 93.634 682.215 94.342C682.947 95.05 683.313 96.1 683.313 97.492V103H681.063V97.78C681.063 96.94 680.865 96.31 680.469 95.89C680.073 95.458 679.509 95.242 678.777 95.242C677.949 95.242 677.295 95.494 676.815 95.998C676.335 96.49 676.095 97.204 676.095 98.14V103H673.845V89.644H676.095V94.504C676.467 94.108 676.923 93.808 677.463 93.604C678.015 93.388 678.627 93.28 679.299 93.28Z" fill="#676767"/>
<path d="M127.476 561.959L123.394 561.959L123.394 566.041L127.476 566.041L127.476 561.959ZM97.3457 592.796L125.789 564.354L125.082 563.646L96.6386 592.089L97.3457 592.796Z" fill="#676767"/>
<path d="M579.96 139.484H584.042V135.402H579.96V139.484ZM582.355 137.796L610.797 109.354L610.09 108.646L581.647 137.089L582.355 137.796Z" fill="#676767"/>
<path d="M306.852 317.232C306.932 317.271 307.021 317.286 307.11 317.276C307.198 317.266 307.282 317.231 307.352 317.176L310.046 315.027L312.739 317.176C312.822 317.242 312.925 317.279 313.032 317.279C313.138 317.279 313.241 317.242 313.325 317.176L316.016 315.027L318.709 317.176C318.792 317.243 318.895 317.279 319.001 317.279C319.107 317.279 319.211 317.243 319.294 317.176L321.985 315.027L324.677 317.176C324.76 317.243 324.863 317.279 324.97 317.279C325.076 317.279 325.179 317.243 325.262 317.176L327.953 315.027L330.645 317.176C330.728 317.243 330.831 317.279 330.937 317.279C331.01 317.279 331.082 317.263 331.148 317.232C331.229 317.194 331.297 317.135 331.345 317.06C331.394 316.985 331.42 316.899 331.422 316.81V286.729C331.419 286.607 331.369 286.491 331.283 286.404L325.974 280.865C325.929 280.819 325.876 280.782 325.817 280.757C325.758 280.732 325.695 280.719 325.631 280.719H307.063C306.937 280.719 306.815 280.768 306.725 280.856C306.634 280.944 306.582 281.064 306.578 281.19V316.81C306.58 316.899 306.606 316.985 306.655 317.06C306.703 317.135 306.771 317.194 306.852 317.232ZM326.109 282.357L329.839 286.266H326.109V282.357ZM307.516 281.656H325.172V286.729C325.171 286.79 325.182 286.851 325.204 286.908C325.227 286.965 325.26 287.017 325.303 287.061C325.345 287.106 325.396 287.141 325.453 287.165C325.509 287.189 325.57 287.202 325.631 287.203H330.484V315.836L328.254 314.061C328.17 313.995 328.066 313.959 327.959 313.959C327.852 313.959 327.749 313.995 327.665 314.061L324.971 316.21L322.279 314.061C322.196 313.995 322.092 313.959 321.986 313.959C321.88 313.959 321.776 313.995 321.693 314.061L319.001 316.21L316.309 314.061C316.226 313.995 316.123 313.959 316.017 313.959C315.91 313.959 315.807 313.995 315.724 314.061L313.032 316.21L310.34 314.061C310.257 313.995 310.154 313.959 310.048 313.959C309.939 313.958 309.833 313.994 309.747 314.061L307.516 315.836V281.656Z" fill="#676767"/>
<path d="M311.812 296.969H319.938V297.906H311.812V296.969Z" fill="#676767"/>
<path d="M314.674 292.984H314.419C314.11 292.95 313.823 292.805 313.613 292.574C313.403 292.344 313.284 292.046 313.278 291.734H312.341C312.344 292.222 312.508 292.695 312.808 293.08C313.108 293.464 313.527 293.738 314 293.859V294.859H314.937V293.893C315.48 293.796 315.966 293.499 316.3 293.06C316.635 292.622 316.793 292.075 316.744 291.526C316.695 290.977 316.442 290.466 316.036 290.095C315.629 289.723 315.098 289.516 314.547 289.517C314.21 289.514 313.888 289.378 313.651 289.139C313.414 288.901 313.281 288.578 313.281 288.241C313.281 287.904 313.414 287.581 313.651 287.342C313.888 287.103 314.21 286.968 314.547 286.965C314.712 286.963 314.877 286.994 315.031 287.057C315.184 287.119 315.324 287.211 315.442 287.327C315.56 287.444 315.654 287.583 315.718 287.736C315.782 287.889 315.815 288.053 315.815 288.219H316.753C316.753 287.203 315.968 286.263 314.937 286.078V285.016H314V286.111C313.479 286.244 313.025 286.563 312.723 287.007C312.421 287.451 312.291 287.991 312.358 288.524C312.425 289.057 312.685 289.547 313.088 289.903C313.491 290.258 314.009 290.454 314.547 290.454C314.872 290.454 315.185 290.579 315.421 290.803C315.657 291.027 315.798 291.334 315.814 291.659C315.83 291.984 315.721 292.303 315.509 292.549C315.297 292.796 314.998 292.952 314.674 292.984Z" fill="#676767"/>
<path d="M311.812 300.094H326.188V301.031H311.812V300.094Z" fill="#676767"/>
<path d="M311.812 303.219H326.188V304.156H311.812V303.219Z" fill="#676767"/>
<path d="M311.812 306.344H326.188V307.281H311.812V306.344Z" fill="#676767"/>
<path d="M311.812 309.469H326.188V310.406H311.812V309.469Z" fill="#676767"/>
<path d="M420.318 456.501C420.394 456.501 420.469 456.502 420.545 456.502V464.879C420.545 465.003 420.595 465.122 420.682 465.21C420.77 465.298 420.89 465.347 421.014 465.347C422.192 465.346 423.322 464.877 424.155 464.044C424.989 463.211 425.457 462.081 425.459 460.903V457.048C427.277 457.435 429.045 458.026 430.731 458.811L440.597 463.415C440.668 463.448 440.747 463.463 440.826 463.458C440.904 463.453 440.98 463.428 441.047 463.385C441.113 463.343 441.168 463.285 441.206 463.216C441.244 463.146 441.264 463.069 441.264 462.99V456.463C442.335 456.325 443.32 455.802 444.033 454.991C444.747 454.18 445.141 453.136 445.141 452.056C445.141 450.975 444.747 449.932 444.033 449.121C443.32 448.31 442.335 447.786 441.264 447.649V441.122C441.264 441.043 441.244 440.965 441.206 440.896C441.168 440.827 441.113 440.769 441.047 440.726C440.98 440.684 440.904 440.659 440.826 440.654C440.747 440.649 440.668 440.663 440.597 440.697L430.731 445.301C427.469 446.817 423.915 447.606 420.318 447.611C419.667 447.612 419.042 447.871 418.582 448.331C418.121 448.792 417.862 449.416 417.861 450.068V454.044C417.862 454.695 418.121 455.32 418.582 455.78C419.042 456.241 419.667 456.5 420.318 456.501ZM444.203 452.056C444.202 452.887 443.906 453.691 443.367 454.325C442.829 454.959 442.084 455.381 441.264 455.517V448.595C442.084 448.731 442.829 449.153 443.367 449.787C443.906 450.42 444.202 451.224 444.203 452.056ZM424.521 460.903C424.52 461.751 424.212 462.571 423.653 463.21C423.095 463.849 422.324 464.264 421.483 464.379V456.529C422.502 456.579 423.516 456.691 424.521 456.866V460.903ZM440.326 462.254L437.984 461.161V442.951L440.327 441.857L440.326 462.254ZM431.127 446.151L437.046 443.388V460.723L431.127 457.961C429.317 457.119 427.415 456.491 425.459 456.09V448.022C427.415 447.621 429.317 446.993 431.127 446.151ZM418.799 450.068C418.799 449.665 418.96 449.279 419.244 448.994C419.529 448.709 419.915 448.549 420.318 448.549C421.727 448.548 423.132 448.43 424.521 448.197V455.916C423.132 455.683 421.727 455.565 420.318 455.564C419.915 455.564 419.529 455.403 419.244 455.118C418.959 454.833 418.799 454.447 418.799 454.044L418.799 450.068Z" fill="white"/>
<path d="M444.576 458.8C444.462 458.848 444.371 458.94 444.325 459.056C444.279 459.171 444.28 459.3 444.328 459.414C444.377 459.529 444.469 459.619 444.585 459.666C444.7 459.712 444.829 459.711 444.943 459.662C446.435 459.027 447.707 457.968 448.602 456.615C449.496 455.263 449.973 453.677 449.973 452.056C449.973 450.434 449.496 448.849 448.602 447.496C447.707 446.144 446.435 445.084 444.943 444.449C444.829 444.4 444.7 444.399 444.585 444.446C444.469 444.492 444.377 444.582 444.328 444.697C444.28 444.811 444.279 444.94 444.325 445.056C444.371 445.171 444.462 445.263 444.576 445.312C445.899 445.875 447.027 446.814 447.82 448.013C448.612 449.212 449.035 450.618 449.035 452.056C449.035 453.493 448.612 454.899 447.82 456.098C447.027 457.297 445.899 458.237 444.576 458.8Z" fill="white"/>
<path d="M446.624 440.69C446.51 440.642 446.381 440.64 446.265 440.687C446.15 440.733 446.058 440.824 446.009 440.938C445.96 441.052 445.959 441.181 446.006 441.297C446.052 441.412 446.142 441.504 446.257 441.553C448.317 442.43 450.073 443.893 451.308 445.76C452.543 447.628 453.201 449.817 453.201 452.056C453.201 454.294 452.543 456.484 451.308 458.351C450.073 460.218 448.317 461.682 446.257 462.558C446.142 462.607 446.052 462.699 446.006 462.814C445.959 462.93 445.96 463.059 446.009 463.173C446.058 463.288 446.15 463.378 446.265 463.424C446.381 463.471 446.51 463.47 446.624 463.421C448.853 462.472 450.754 460.889 452.09 458.868C453.426 456.847 454.138 454.478 454.138 452.056C454.138 449.633 453.426 447.264 452.09 445.243C450.754 443.222 448.853 441.639 446.624 440.69Z" fill="white"/>
<g clip-path="url(#clip0_808_1575)">
<path d="M200.306 153.336C200.306 149.165 196.826 145.771 192.548 145.771C189.207 145.771 186.352 147.843 185.263 150.738C183.423 149.87 181.415 149.421 179.381 149.423C175.67 149.423 172.217 150.864 169.658 153.48C167.065 156.131 165.637 159.758 165.637 163.694C165.637 164.012 165.895 164.27 166.213 164.27H187.112V169.424C187.112 169.653 187.248 169.86 187.458 169.952C187.668 170.044 187.912 170.002 188.08 169.847L192.548 165.708L197.017 169.847C197.185 170.002 197.43 170.044 197.639 169.952C197.849 169.86 197.985 169.653 197.985 169.424V158.727C199.463 157.323 200.302 155.375 200.306 153.336ZM192.548 146.923C196.19 146.923 199.153 149.8 199.153 153.336C199.149 155.087 198.417 156.757 197.132 157.947C197.053 157.99 196.986 158.051 196.935 158.124C194.411 160.289 190.686 160.289 188.162 158.124C188.112 158.051 188.044 157.99 187.965 157.947C186.68 156.757 185.948 155.087 185.944 153.336C185.944 149.8 188.906 146.923 192.548 146.923ZM166.8 163.117C166.931 159.709 168.227 156.591 170.481 154.286C172.823 151.893 175.983 150.575 179.381 150.575C181.308 150.572 183.21 151.012 184.94 151.861C184.43 154.371 185.251 156.967 187.112 158.727V163.117H166.8ZM196.832 168.104L192.94 164.499C192.719 164.295 192.378 164.295 192.157 164.499L188.264 168.104V159.639C190.873 161.321 194.224 161.321 196.832 159.639L196.832 168.104Z" fill="white"/>
<path d="M188.255 152.699L190.353 154.183L189.554 156.578C189.475 156.814 189.556 157.074 189.756 157.222C189.956 157.371 190.229 157.374 190.432 157.23L192.548 155.735L194.664 157.23C194.868 157.374 195.14 157.371 195.34 157.222C195.54 157.074 195.622 156.814 195.543 156.578L194.744 154.183L196.842 152.699C197.047 152.554 197.135 152.293 197.059 152.054C196.983 151.814 196.76 151.652 196.509 151.652H193.898L193.095 149.245C193.016 149.01 192.796 148.851 192.548 148.851C192.3 148.851 192.08 149.01 192.002 149.245L191.198 151.652H188.587C188.336 151.652 188.114 151.814 188.038 152.054C187.962 152.293 188.049 152.554 188.254 152.699H188.255ZM191.614 152.804C191.861 152.804 192.081 152.646 192.16 152.41L192.549 151.246L192.937 152.411C193.016 152.646 193.236 152.805 193.484 152.805H194.698L193.729 153.489C193.522 153.636 193.434 153.901 193.515 154.142L193.894 155.275L192.881 154.559C192.682 154.418 192.415 154.418 192.216 154.559L191.204 155.275L191.582 154.142C191.663 153.901 191.576 153.636 191.368 153.489L190.4 152.805L191.614 152.804Z" fill="white"/>
<path d="M170.903 138.477C170.903 143.158 174.699 146.954 179.38 146.954C184.062 146.954 187.857 143.158 187.857 138.477C187.857 133.795 184.062 130 179.38 130C174.701 130.005 170.909 133.797 170.903 138.477ZM186.705 138.477C186.705 142.522 183.426 145.801 179.38 145.801C175.335 145.801 172.056 142.522 172.056 138.477C172.056 134.432 175.335 131.152 179.38 131.152C183.424 131.157 186.7 134.434 186.705 138.477Z" fill="white"/>
</g>
<path d="M256.013 595.632L257.387 596.013C257.431 596.634 257.57 597.244 257.799 597.823L256.719 598.741C256.667 598.785 256.634 598.846 256.625 598.914C256.617 598.982 256.633 599.05 256.672 599.106L257.919 600.886C257.958 600.942 258.017 600.981 258.083 600.996C258.149 601.011 258.219 601.001 258.278 600.967L259.512 600.265C259.978 600.676 260.503 601.016 261.069 601.273L260.958 602.689C260.953 602.757 260.974 602.823 261.016 602.876C261.057 602.929 261.118 602.965 261.184 602.975L263.33 603.354C263.396 603.366 263.465 603.354 263.522 603.318C263.58 603.283 263.622 603.227 263.64 603.162L264.021 601.791C264.641 601.746 265.251 601.608 265.83 601.38L266.748 602.46C266.792 602.512 266.854 602.545 266.921 602.554C266.989 602.563 267.057 602.546 267.113 602.507L268.893 601.261C268.949 601.222 268.988 601.163 269.003 601.097C269.018 601.03 269.008 600.961 268.974 600.901L268.273 599.668C268.684 599.201 269.023 598.676 269.28 598.11L270.683 598.219C270.751 598.224 270.818 598.204 270.871 598.162C270.925 598.121 270.961 598.061 270.973 597.994L271.352 595.848C271.363 595.781 271.35 595.712 271.314 595.654C271.277 595.597 271.221 595.555 271.155 595.537L269.781 595.156C269.736 594.535 269.597 593.925 269.369 593.346L270.449 592.428C270.5 592.385 270.534 592.323 270.543 592.256C270.551 592.189 270.535 592.12 270.496 592.065L269.269 590.288C269.23 590.231 269.172 590.192 269.105 590.176C269.038 590.161 268.968 590.172 268.909 590.205L267.675 590.907C267.209 590.496 266.684 590.156 266.118 589.9L266.229 588.483C266.234 588.416 266.213 588.349 266.171 588.296C266.13 588.243 266.069 588.208 266.003 588.197L263.857 587.819C263.791 587.806 263.722 587.819 263.665 587.854C263.607 587.889 263.565 587.945 263.547 588.01L263.166 589.382C262.546 589.426 261.936 589.565 261.357 589.793L260.439 588.713C260.395 588.661 260.333 588.627 260.266 588.618C260.198 588.61 260.13 588.626 260.074 588.665L258.294 589.912C258.238 589.951 258.199 590.009 258.184 590.076C258.169 590.142 258.179 590.212 258.213 590.271L258.914 591.505C258.503 591.971 258.164 592.496 257.907 593.062L256.485 592.95C256.418 592.945 256.35 592.965 256.297 593.006C256.243 593.048 256.206 593.108 256.195 593.175L255.816 595.321C255.805 595.388 255.818 595.457 255.854 595.514C255.891 595.572 255.947 595.614 256.013 595.632ZM256.69 593.515L258.06 593.623C258.118 593.627 258.175 593.613 258.225 593.583C258.274 593.552 258.312 593.507 258.334 593.453C258.599 592.815 258.977 592.23 259.45 591.727C259.49 591.684 259.515 591.63 259.521 591.572C259.528 591.515 259.516 591.456 259.487 591.406L258.811 590.217L260.184 589.256L261.07 590.298C261.108 590.343 261.159 590.374 261.217 590.387C261.274 590.401 261.334 590.395 261.388 590.371C262.02 590.096 262.699 589.942 263.388 589.915C263.445 589.914 263.501 589.894 263.546 589.859C263.592 589.824 263.625 589.775 263.64 589.719L264.007 588.4L265.663 588.692L265.556 590.057C265.552 590.115 265.566 590.172 265.597 590.221C265.627 590.27 265.672 590.308 265.726 590.329C266.364 590.594 266.949 590.971 267.453 591.444C267.495 591.483 267.55 591.508 267.607 591.515C267.665 591.521 267.723 591.509 267.774 591.481L268.961 590.805L269.906 592.172L268.863 593.059C268.818 593.097 268.787 593.149 268.773 593.206C268.76 593.264 268.766 593.324 268.789 593.377C269.064 594.01 269.219 594.688 269.246 595.378C269.248 595.436 269.269 595.491 269.305 595.537C269.341 595.582 269.39 595.615 269.446 595.631L270.77 595.997L270.478 597.654L269.127 597.55C269.069 597.545 269.011 597.559 268.962 597.59C268.913 597.62 268.875 597.665 268.853 597.719C268.588 598.357 268.21 598.942 267.737 599.445C267.697 599.488 267.672 599.542 267.666 599.6C267.659 599.658 267.671 599.716 267.7 599.767L268.376 600.955L267.003 601.916L266.117 600.874C266.079 600.83 266.028 600.798 265.97 600.785C265.913 600.772 265.853 600.777 265.799 600.801C265.167 601.076 264.488 601.231 263.799 601.258C263.742 601.259 263.686 601.278 263.641 601.314C263.595 601.349 263.562 601.398 263.547 601.453L263.181 602.772L261.524 602.48L261.631 601.115C261.635 601.058 261.621 601 261.591 600.951C261.56 600.902 261.515 600.864 261.461 600.843C260.823 600.579 260.238 600.201 259.734 599.728C259.692 599.689 259.638 599.664 259.58 599.658C259.522 599.651 259.464 599.663 259.413 599.692L258.224 600.368L257.263 598.996L258.305 598.11C258.35 598.072 258.381 598.02 258.395 597.963C258.408 597.906 258.402 597.846 258.378 597.792C258.103 597.159 257.949 596.481 257.922 595.792C257.92 595.734 257.899 595.678 257.863 595.632C257.827 595.587 257.778 595.554 257.722 595.539L256.398 595.171L256.69 593.515Z" fill="#676767"/>
<path d="M262.809 600.033C263.689 600.188 264.595 600.079 265.412 599.719C266.23 599.36 266.922 598.766 267.402 598.012C267.882 597.259 268.128 596.38 268.108 595.488C268.089 594.595 267.805 593.728 267.293 592.996C266.78 592.264 266.063 591.701 265.23 591.378C264.398 591.054 263.488 590.984 262.616 591.178C261.744 591.371 260.949 591.818 260.332 592.464C259.714 593.109 259.302 593.922 259.147 594.802C258.94 595.981 259.21 597.194 259.896 598.175C260.583 599.156 261.631 599.824 262.809 600.033ZM264.283 591.678C265.056 591.814 265.771 592.176 266.338 592.719C266.905 593.262 267.298 593.961 267.468 594.727C267.638 595.494 267.577 596.293 267.292 597.025C267.008 597.756 266.513 598.387 265.87 598.837C265.227 599.287 264.465 599.537 263.68 599.554C262.895 599.571 262.123 599.355 261.461 598.933C260.799 598.512 260.277 597.903 259.961 597.185C259.645 596.466 259.549 595.67 259.685 594.897C259.869 593.861 260.456 592.94 261.318 592.337C262.18 591.733 263.246 591.496 264.283 591.678Z" fill="#676767"/>
<defs>
<filter id="filter0_d_808_1575" x="9" y="0" width="620" height="620" filterUnits="userSpaceOnUse" color-interpolation-filters="sRGB">
<feFlood flood-opacity="0" result="BackgroundImageFix"/>
<feColorMatrix in="SourceAlpha" type="matrix" values="0 0 0 0 0 0 0 0 0 0 0 0 0 0 0 0 0 0 127 0" result="hardAlpha"/>
<feOffset dy="1"/>
<feGaussianBlur stdDeviation="2"/>
<feComposite in2="hardAlpha" operator="out"/>
<feColorMatrix type="matrix" values="0 0 0 0 0 0 0 0 0 0 0 0 0 0 0 0 0 0 0.15 0"/>
<feBlend mode="normal" in2="BackgroundImageFix" result="effect1_dropShadow_808_1575"/>
<feBlend mode="normal" in="SourceGraphic" in2="effect1_dropShadow_808_1575" result="shape"/>
</filter>
<linearGradient id="paint0_linear_808_1575" x1="373" y1="49" x2="91" y2="295" gradientUnits="userSpaceOnUse">
<stop stop-color="#12757B"/>
<stop offset="1" stop-color="#118B93"/>
</linearGradient>
<linearGradient id="paint1_linear_808_1575" x1="377.001" y1="65" x2="545.001" y2="361" gradientUnits="userSpaceOnUse">
<stop stop-color="#0A878E"/>
<stop offset="1" stop-color="#0FA3AC"/>
</linearGradient>
<linearGradient id="paint2_linear_808_1575" x1="521.001" y1="355" x2="261.001" y2="559" gradientUnits="userSpaceOnUse">
<stop stop-color="#09919B"/>
<stop offset="1" stop-color="#0EC1CE"/>
</linearGradient>
<linearGradient id="paint3_linear_808_1575" x1="83" y1="283" x2="315" y2="535" gradientUnits="userSpaceOnUse">
<stop stop-color="#35CBD6"/>
<stop offset="1" stop-color="#0CA1AC"/>
</linearGradient>
<clipPath id="clip0_808_1575">
<rect width="40" height="40" fill="white" transform="translate(163 130)"/>
</clipPath>
</defs>
</svg>
