<svg width="40" height="40" viewBox="0 0 40 40" fill="none" xmlns="http://www.w3.org/2000/svg">
<path d="M8.10081 10.3257C8.04648 10.2968 7.98699 10.2788 7.92572 10.2728C7.86445 10.2669 7.80261 10.273 7.74372 10.291C7.68484 10.3089 7.63006 10.3383 7.58252 10.3774C7.53499 10.4165 7.49562 10.4646 7.46666 10.5189L7.17276 11.0705C7.11429 11.1802 7.10179 11.3086 7.13803 11.4276C7.17426 11.5465 7.25625 11.6462 7.36596 11.7046C7.47567 11.7631 7.60412 11.7756 7.72305 11.7394C7.84197 11.7031 7.94163 11.6211 8.0001 11.5114L8.29401 10.9599C8.32296 10.9055 8.34093 10.846 8.34689 10.7848C8.35285 10.7235 8.34668 10.6617 8.32874 10.6028C8.3108 10.5439 8.28144 10.4891 8.24233 10.4416C8.20322 10.394 8.15513 10.3547 8.10081 10.3257Z" fill="#006CA9"/>
<path d="M7.14557 12.1183C7.09125 12.0894 7.03176 12.0714 6.97049 12.0654C6.90922 12.0595 6.84738 12.0656 6.78849 12.0836C6.7296 12.1015 6.67483 12.1309 6.62729 12.17C6.57975 12.2091 6.54039 12.2572 6.51143 12.3115L4.04971 16.9308C3.99124 17.0405 3.97875 17.169 4.01498 17.2879C4.05121 17.4068 4.1332 17.5065 4.24292 17.565C4.35263 17.6234 4.48108 17.6359 4.6 17.5997C4.71892 17.5635 4.81858 17.4815 4.87706 17.3718L7.33878 12.7524C7.39723 12.6427 7.40971 12.5142 7.37348 12.3953C7.33724 12.2764 7.25527 12.1768 7.14557 12.1183Z" fill="#006CA9"/>
<path d="M34.3354 7.52819C34.283 7.41646 34.1887 7.32989 34.0729 7.28727C33.9571 7.24465 33.8292 7.24941 33.7168 7.30053L25.7676 10.9177C25.6288 10.9745 25.5029 11.0589 25.3977 11.1658C25.2925 11.2728 25.2102 11.4001 25.1558 11.5399C25.1014 11.6797 25.076 11.8291 25.0812 11.979C25.0864 12.1289 25.1221 12.2762 25.1861 12.4119L25.4343 12.9383L25.2986 12.9962C24.4922 13.164 23.9314 13.1404 23.0993 12.9065L21.0248 12.3235C20.4214 12.1534 19.7813 12.1637 19.1836 12.3533L17.1815 12.9865C16.777 13.1146 16.4019 13.3215 16.0778 13.5954C15.5078 13.4226 14.9087 13.3672 14.3167 13.4322L14.5177 13.0494C14.6479 12.8006 14.6786 12.5115 14.6036 12.2409C14.5286 11.9703 14.3536 11.7382 14.114 11.5918C14.1107 11.5898 14.1073 11.5878 14.104 11.5859L6.86959 7.42553C6.81484 7.39405 6.75429 7.37396 6.69158 7.36647C6.62887 7.35897 6.56529 7.36422 6.50467 7.38191C6.44404 7.3996 6.38761 7.42935 6.33877 7.46939C6.28993 7.50943 6.24968 7.55893 6.22045 7.61491L0.245291 19.0547C0.188811 19.1628 0.176702 19.2887 0.211537 19.4056C0.246372 19.5225 0.325405 19.6212 0.431854 19.6808L7.63365 23.7108C7.79847 23.8043 7.98469 23.8535 8.17419 23.8537C8.28075 23.8536 8.38673 23.8382 8.48888 23.8079C8.63091 23.7665 8.76308 23.6968 8.87745 23.603C8.99182 23.5091 9.08601 23.3931 9.15435 23.2619L9.22083 23.1354L9.92482 23.844L8.87794 25.2972C8.61584 25.661 8.509 26.1141 8.58093 26.5567C8.65285 26.9993 8.89764 27.3952 9.26146 27.6574L9.42771 27.7772C9.7148 27.9844 10.06 28.0957 10.414 28.0953C10.5187 28.0951 10.6232 28.0853 10.7261 28.066C10.7279 28.079 10.7283 28.0919 10.7304 28.105C10.7655 28.3244 10.8436 28.5347 10.9604 28.7236C11.0773 28.9126 11.2304 29.0765 11.411 29.2058L11.5772 29.3256C11.8643 29.5329 12.2094 29.6443 12.5634 29.644C12.6681 29.6438 12.7726 29.634 12.8754 29.6147C12.8772 29.6276 12.8777 29.6406 12.8798 29.6537C12.9148 29.8731 12.993 30.0833 13.1098 30.2723C13.2266 30.4612 13.3798 30.6251 13.5604 30.7545L13.7266 30.8743C14.0136 31.0815 14.3587 31.1929 14.7127 31.1926C14.8176 31.1924 14.9222 31.1826 15.0252 31.1632C15.056 31.3896 15.1325 31.6075 15.2502 31.8035C15.3678 31.9994 15.5241 32.1694 15.7095 32.303L15.8758 32.4228C16.2397 32.6845 16.6927 32.7911 17.1352 32.7192C17.5777 32.6473 17.9736 32.4028 18.236 32.0393L18.7172 31.3714L19.4883 31.9875C19.7564 32.2171 20.0826 32.3684 20.4311 32.4247C20.7795 32.481 21.1368 32.4401 21.4636 32.3066C21.7903 32.173 22.074 31.952 22.2833 31.6677C22.4926 31.3834 22.6195 31.047 22.65 30.6953C22.9257 30.7906 23.2195 30.8217 23.509 30.7864C23.7986 30.751 24.0762 30.6501 24.3209 30.4912C24.5656 30.3324 24.7708 30.1199 24.921 29.8698C25.0711 29.6197 25.1623 29.3387 25.1875 29.0481C25.458 29.1415 25.7459 29.1733 26.0303 29.141C26.3146 29.1088 26.5881 29.0133 26.8308 28.8616C27.0735 28.71 27.2792 28.506 27.4328 28.2645C27.5865 28.0231 27.6841 27.7504 27.7187 27.4663C27.9605 27.5734 28.2221 27.6288 28.4865 27.629C28.535 27.629 28.5838 27.6272 28.6326 27.6235C28.8853 27.605 29.1317 27.5367 29.3579 27.4226C29.584 27.3084 29.7853 27.1507 29.9502 26.9584L29.9743 26.9306C30.1436 26.7356 30.2707 26.5075 30.3474 26.2609C30.4242 26.0143 30.4489 25.7544 30.4201 25.4977C30.3619 25.0134 30.1225 24.5691 29.7501 24.2541L29.2826 23.8505C29.6225 23.6147 29.9298 23.3351 30.1967 23.019C30.2945 23.1804 30.4322 23.3138 30.5966 23.4065C30.7609 23.4991 30.9464 23.5479 31.135 23.548C31.2873 23.5479 31.4378 23.5164 31.5774 23.4556L31.5898 23.4501L39.5382 19.7295C39.6221 19.6902 39.6924 19.6269 39.7405 19.5477C39.7885 19.4684 39.8121 19.3768 39.8082 19.2842C39.8046 19.2188 39.7879 19.1547 39.7591 19.0958L34.3354 7.52819ZM8.38084 22.718C8.36309 22.7518 8.33876 22.7817 8.30927 22.806C8.27978 22.8302 8.24574 22.8483 8.20914 22.8591C8.17255 22.87 8.13415 22.8734 8.09621 22.8692C8.05828 22.865 8.02157 22.8532 7.98826 22.8346L1.28709 19.0846L6.82513 8.48186L13.5283 12.3367C13.5911 12.3729 13.6375 12.432 13.6578 12.5017C13.678 12.5714 13.6705 12.6462 13.6368 12.7105L8.38084 22.718ZM11.0273 26.8454C10.9104 27.0073 10.734 27.1162 10.5368 27.1482C10.3397 27.1802 10.1379 27.1328 9.97568 27.0162L9.80943 26.8965C9.72914 26.8386 9.66103 26.7656 9.60899 26.6814C9.55695 26.5973 9.52199 26.5037 9.50613 26.406C9.49026 26.3084 9.49379 26.2085 9.51652 26.1122C9.53924 26.016 9.58071 25.9251 9.63857 25.8448L11.7564 22.9052C11.8733 22.7432 12.0497 22.6343 12.2469 22.6022C12.444 22.5702 12.6459 22.6177 12.808 22.7343L12.9743 22.8541C13.0546 22.9119 13.1227 22.985 13.1747 23.0691C13.2267 23.1533 13.2617 23.2468 13.2776 23.3445C13.2934 23.4422 13.2899 23.542 13.2672 23.6383C13.2445 23.7346 13.203 23.8254 13.1451 23.9057L11.0273 26.8454ZM13.1773 28.3939C13.0602 28.5558 12.8837 28.6647 12.6865 28.6968C12.4892 28.7288 12.2874 28.6813 12.1251 28.5647L11.9588 28.445C11.7967 28.3282 11.6876 28.1518 11.6556 27.9546C11.6236 27.7574 11.6712 27.5555 11.7879 27.3934L13.3563 25.2165C13.4733 25.0546 13.6496 24.9456 13.8468 24.9136C14.0439 24.8815 14.2457 24.929 14.4079 25.0455L14.5742 25.1653C14.7362 25.2821 14.8452 25.4585 14.8774 25.6556C14.9095 25.8528 14.8622 26.0547 14.7457 26.2169L13.1773 28.3939ZM15.3258 29.9424C15.2088 30.1043 15.0324 30.2132 14.8353 30.2453C14.6381 30.2773 14.4363 30.2299 14.2741 30.1133L14.1079 29.9935C13.9458 29.8767 13.8367 29.7003 13.8047 29.5031C13.7726 29.3059 13.8202 29.104 13.937 28.9419L15.0558 27.3889C15.1728 27.227 15.3492 27.1181 15.5463 27.0861C15.7435 27.0541 15.9453 27.1016 16.1075 27.2181L16.2737 27.3379C16.4356 27.4548 16.5446 27.6312 16.5766 27.8284C16.6086 28.0255 16.5612 28.2273 16.4446 28.3895L15.3258 29.9424ZM18.1443 30.562L17.4751 31.4909C17.3582 31.6528 17.1818 31.7618 16.9846 31.7938C16.7875 31.8258 16.5857 31.7784 16.4235 31.6618L16.2572 31.5421C16.0953 31.4251 15.9864 31.2487 15.9544 31.0516C15.9224 30.8544 15.9698 30.6526 16.0864 30.4904L16.7557 29.5615C16.8726 29.3996 17.049 29.2907 17.2461 29.2586C17.4432 29.2266 17.6451 29.274 17.8072 29.3906L17.9735 29.5104C18.1354 29.6273 18.2444 29.8036 18.2765 30.0008C18.3086 30.1979 18.2612 30.3998 18.1447 30.562H18.1443ZM28.528 23.1928L28.5808 23.2451L27.18 22.0359C27.0082 21.8875 26.8415 21.7335 26.68 21.5738L23.9297 18.8541C23.888 18.8131 23.8351 18.7853 23.7777 18.7742C23.7203 18.7631 23.6609 18.7692 23.607 18.7917C23.553 18.8142 23.5069 18.8522 23.4745 18.9008C23.442 18.9495 23.4246 19.0066 23.4245 19.0651C23.4454 19.4496 23.5981 19.8152 23.8568 20.1004L26.0336 22.2526C26.1944 22.4116 26.3604 22.5649 26.5315 22.7127L29.1676 24.9897C29.2648 25.0731 29.3438 25.1756 29.3998 25.2908C29.4557 25.406 29.4874 25.5315 29.4929 25.6594C29.5005 25.9095 29.4121 26.1531 29.2457 26.34L29.241 26.3454C29.1562 26.4445 29.0526 26.5259 28.9363 26.5848C28.8199 26.6437 28.693 26.6789 28.5629 26.6886C28.434 26.6987 28.3044 26.683 28.1817 26.6425C28.0589 26.6019 27.9455 26.5373 27.848 26.4523L25.0266 24.0148C24.9338 23.9322 24.8126 23.8886 24.6884 23.8932C24.5641 23.8978 24.4465 23.9502 24.36 24.0395C24.3176 24.0857 24.2849 24.14 24.2638 24.1992C24.2427 24.2583 24.2338 24.321 24.2374 24.3837C24.241 24.4464 24.2572 24.5077 24.285 24.564C24.3128 24.6202 24.3516 24.6704 24.3991 24.7114L24.4045 24.716L26.4592 26.4912C26.6562 26.6623 26.7773 26.9046 26.7957 27.1649C26.814 27.4251 26.7283 27.6821 26.5572 27.8791C26.3862 28.0762 26.1439 28.1972 25.8836 28.2156C25.6233 28.234 25.3664 28.1482 25.1693 27.9772L23.1125 26.2004C23.0662 26.1589 23.012 26.1271 22.9531 26.1068C22.8943 26.0865 22.8321 26.0781 22.77 26.0821C22.7079 26.0861 22.6472 26.1025 22.5915 26.1302C22.5358 26.1579 22.4861 26.1964 22.4455 26.2435C22.4048 26.2906 22.3739 26.3453 22.3546 26.4044C22.3353 26.4636 22.3279 26.526 22.333 26.588C22.3381 26.65 22.3554 26.7104 22.3841 26.7656C22.4127 26.8209 22.452 26.8699 22.4998 26.9097L23.9183 28.135C24.017 28.2193 24.098 28.3221 24.1568 28.4378C24.2155 28.5534 24.2508 28.6795 24.2606 28.8088C24.2705 28.9382 24.2546 29.0682 24.214 29.1914C24.1735 29.3145 24.1089 29.4285 24.0241 29.5266C23.9393 29.6248 23.836 29.7052 23.72 29.7633C23.604 29.8213 23.4777 29.8559 23.3483 29.8649C23.2189 29.874 23.089 29.8574 22.9661 29.816C22.8431 29.7747 22.7296 29.7095 22.6319 29.6241L21.2283 28.4118C21.1355 28.3291 21.0143 28.2855 20.8901 28.2901C20.7659 28.2947 20.6483 28.3472 20.5618 28.4365C20.5194 28.4827 20.4867 28.537 20.4656 28.5961C20.4445 28.6552 20.4356 28.718 20.4392 28.7807C20.4428 28.8433 20.459 28.9046 20.4868 28.9609C20.5146 29.0172 20.5534 29.0673 20.6009 29.1083L21.3814 29.7825C21.5788 29.9533 21.7003 30.1955 21.7192 30.4558C21.738 30.7162 21.6527 30.9734 21.482 31.1708C21.3112 31.3682 21.069 31.4897 20.8087 31.5086C20.5483 31.5275 20.2912 31.4421 20.0937 31.2714L19.1718 30.5342C19.2544 30.2059 19.2365 29.8604 19.1207 29.5423C19.0048 29.2243 18.7962 28.9483 18.5218 28.75L18.3556 28.6302C18.1 28.4463 17.7978 28.338 17.4835 28.3177C17.5553 27.9947 17.5309 27.6578 17.4133 27.3486C17.2958 27.0393 17.0902 26.7713 16.822 26.5775L16.6558 26.4578C16.4001 26.2739 16.0979 26.1656 15.7836 26.1453C15.8554 25.8223 15.8311 25.4854 15.7135 25.1762C15.596 24.867 15.3904 24.5989 15.1222 24.4052L14.9559 24.2854C14.7173 24.1135 14.4376 24.0073 14.145 23.9776C14.2531 23.638 14.2511 23.273 14.1392 22.9347C14.0274 22.5964 13.8115 22.3021 13.5223 22.094L13.3561 21.9742C12.992 21.7126 12.5391 21.606 12.0966 21.6779C11.6541 21.7498 11.2582 21.9943 10.9958 22.3577L10.4801 23.0732L9.67771 22.2654L13.7679 14.4776C14.2997 14.3363 14.8551 14.3072 15.3987 14.3921C15.3178 14.5255 15.2465 14.6646 15.1855 14.8082L13.5347 19.3252C13.4985 19.4355 13.5046 19.5552 13.5517 19.6613C13.5987 19.7673 13.6834 19.8522 13.7894 19.8994L13.9208 19.9579C14.3993 20.1769 14.9255 20.2705 15.4501 20.2302C15.9747 20.1898 16.4804 20.0167 16.9197 19.7272C17.2993 19.4765 17.618 19.1441 17.8525 18.7544C18.087 18.3647 18.2314 17.9274 18.2751 17.4747V17.4736C18.2825 17.3921 18.2975 17.3114 18.3197 17.2326C18.39 16.988 18.5615 16.5373 18.901 16.3889C18.9897 16.3508 19.0888 16.3447 19.1815 16.3715L19.9448 16.5869C20.2723 16.6792 20.5709 16.8531 20.8129 17.0923L21.9779 18.2442C22.2547 18.5176 22.5258 18.5453 22.7134 18.3983C22.7661 18.3574 22.8095 18.3057 22.8407 18.2467C22.8718 18.1876 22.89 18.1226 22.8939 18.056C22.8979 17.9894 22.8876 17.9227 22.8638 17.8603C22.8399 17.798 22.803 17.7415 22.7555 17.6946L21.4725 16.4262C21.1173 16.0755 20.6793 15.8203 20.199 15.6844L19.2607 15.4197C19.2188 15.4073 19.1752 15.4013 19.1315 15.4021C18.5201 15.4046 17.9979 15.7494 17.6614 16.3729C17.5311 16.6183 17.4343 16.88 17.3734 17.1511C17.3624 17.2009 17.3546 17.2515 17.35 17.3023L17.3422 17.385C17.3116 17.6992 17.2111 18.0025 17.0482 18.2729C16.8852 18.5432 16.6639 18.7737 16.4004 18.9475C16.1313 19.1216 15.8272 19.2345 15.5097 19.278C15.1921 19.3215 14.8689 19.2946 14.5629 19.1993L16.0512 15.169C16.1794 14.8649 16.3722 14.5923 16.6162 14.37C16.8602 14.1477 17.1496 13.9812 17.4643 13.8819L19.4665 13.2485C19.89 13.1142 20.3435 13.1069 20.7711 13.2274L22.8456 13.8105C23.8471 14.0918 24.5518 14.1166 25.5393 13.9049L25.8345 13.7883L29.7356 22.0599C29.4385 22.5361 29.0224 22.9265 28.5283 23.1928H28.528ZM31.4854 22.4635C31.3718 22.5167 31.2416 22.5227 31.1236 22.4801C31.0055 22.4375 30.9091 22.3498 30.8555 22.2363L26.1907 12.3451C26.1548 12.2689 26.1375 12.1854 26.1402 12.1013C26.1429 12.0171 26.1656 11.9349 26.2063 11.8612C26.265 11.7588 26.3553 11.6781 26.4636 11.631L33.6823 8.34584L38.7146 19.0794L31.4854 22.4635Z" fill="#006CA9"/>
</svg>
