<svg width="40" height="40" viewBox="0 0 40 40" fill="none" xmlns="http://www.w3.org/2000/svg">
<path d="M9.83795 24.2188H18.3778C18.5021 24.2188 18.6213 24.1694 18.7093 24.0815C18.7972 23.9935 18.8465 23.8743 18.8465 23.75C18.8465 23.6257 18.7972 23.5065 18.7093 23.4185C18.6213 23.3306 18.5021 23.2812 18.3778 23.2812H9.83795C9.71363 23.2812 9.5944 23.3306 9.50649 23.4185C9.41859 23.5065 9.3692 23.6257 9.3692 23.75C9.3692 23.8743 9.41859 23.9935 9.50649 24.0815C9.5944 24.1694 9.71363 24.2188 9.83795 24.2188Z" fill="#006CA9"/>
<path d="M26.8778 23.2812H21.5067C21.3823 23.2812 21.2631 23.3306 21.1752 23.4185C21.0873 23.5065 21.0379 23.6257 21.0379 23.75C21.0379 23.8743 21.0873 23.9935 21.1752 24.0815C21.2631 24.1694 21.3823 24.2188 21.5067 24.2188H26.8778C27.0021 24.2188 27.1214 24.1694 27.2093 24.0815C27.2972 23.9935 27.3466 23.8743 27.3466 23.75C27.3466 23.6257 27.2972 23.5065 27.2093 23.4185C27.1214 23.3306 27.0021 23.2812 26.8778 23.2812Z" fill="#006CA9"/>
<path d="M9.83795 27.5H13.0607C13.185 27.5 13.3042 27.4506 13.3921 27.3627C13.4801 27.2748 13.5294 27.1556 13.5294 27.0312C13.5294 26.9069 13.4801 26.7877 13.3921 26.6998C13.3042 26.6119 13.185 26.5625 13.0607 26.5625H9.83795C9.71363 26.5625 9.5944 26.6119 9.50649 26.6998C9.41859 26.7877 9.3692 26.9069 9.3692 27.0312C9.3692 27.1556 9.41859 27.2748 9.50649 27.3627C9.5944 27.4506 9.71363 27.5 9.83795 27.5Z" fill="#006CA9"/>
<path d="M26.8778 26.5625H16.1895C16.0652 26.5625 15.946 26.6119 15.8581 26.6998C15.7701 26.7877 15.7208 26.9069 15.7208 27.0312C15.7208 27.1556 15.7701 27.2748 15.8581 27.3627C15.946 27.4506 16.0652 27.5 16.1895 27.5H26.8778C27.0021 27.5 27.1213 27.4506 27.2093 27.3627C27.2972 27.2748 27.3465 27.1556 27.3465 27.0312C27.3465 26.9069 27.2972 26.7877 27.2093 26.6998C27.1213 26.6119 27.0021 26.5625 26.8778 26.5625Z" fill="#006CA9"/>
<path d="M15.0423 29.6875H9.83795C9.71363 29.6875 9.5944 29.7369 9.50649 29.8248C9.41859 29.9127 9.3692 30.0319 9.3692 30.1562C9.3692 30.2806 9.41859 30.3998 9.50649 30.4877C9.5944 30.5756 9.71363 30.625 9.83795 30.625H15.0423C15.1666 30.625 15.2859 30.5756 15.3738 30.4877C15.4617 30.3998 15.5111 30.2806 15.5111 30.1562C15.5111 30.0319 15.4617 29.9127 15.3738 29.8248C15.2859 29.7369 15.1666 29.6875 15.0423 29.6875Z" fill="#006CA9"/>
<path d="M26.8778 29.6875H18.2841C18.1597 29.6875 18.0405 29.7369 17.9526 29.8248C17.8647 29.9127 17.8153 30.0319 17.8153 30.1562C17.8153 30.2806 17.8647 30.3998 17.9526 30.4877C18.0405 30.5756 18.1597 30.625 18.2841 30.625H26.8778C27.0021 30.625 27.1214 30.5756 27.2093 30.4877C27.2972 30.3998 27.3466 30.2806 27.3466 30.1562C27.3466 30.0319 27.2972 29.9127 27.2093 29.8248C27.1214 29.7369 27.0021 29.6875 26.8778 29.6875Z" fill="#006CA9"/>
<path d="M10.3242 12.1898L12.4219 13.0129V17.2948C12.4252 17.3919 12.4577 17.4857 12.5151 17.5641C12.5725 17.6425 12.6521 17.7018 12.7436 17.7344C14.4072 18.3534 16.1679 18.6703 17.9429 18.6702C19.7148 18.6702 21.4725 18.3533 23.1328 17.7344C23.2224 17.701 23.2995 17.641 23.354 17.5625C23.4085 17.484 23.4376 17.3907 23.4375 17.2951V13.0129L24.9219 12.4385V13.2151L24.3919 14.4491C24.2265 14.8328 24.141 15.2462 24.1406 15.6641V17.3997C24.141 17.5269 24.1906 17.649 24.2789 17.7405C24.3673 17.832 24.4876 17.8858 24.6148 17.8906H26.1352C26.2656 17.887 26.3899 17.8346 26.4835 17.7437C26.5772 17.6528 26.6332 17.53 26.6406 17.3998V15.641C26.6345 15.2398 26.5505 14.8435 26.3932 14.4744L25.8594 13.2109L25.8602 11.7404C25.8591 11.6463 25.829 11.5547 25.7741 11.4783C25.7192 11.4019 25.6421 11.3442 25.5532 11.3131L18.113 8.57773C18.0086 8.53936 17.8939 8.53936 17.7895 8.57773L10.3493 11.3131C10.26 11.346 10.1827 11.4052 10.1279 11.483C10.0731 11.5608 10.0432 11.6535 10.0423 11.7487C10.0381 11.8423 10.0629 11.935 10.1133 12.0139C10.1638 12.0929 10.2375 12.1544 10.3242 12.1898ZM25.0781 15.6641C25.0787 15.3729 25.1386 15.0849 25.2542 14.8176L25.3815 14.5233L25.5248 14.828C25.6362 15.0847 25.6968 15.3606 25.7031 15.6405V16.9531H25.0781V15.6641ZM22.5 16.9651C19.539 17.9881 16.3204 17.9881 13.3594 16.9651V16.4615C16.3314 17.4164 19.5279 17.4164 22.5 16.4615V16.9651ZM22.5 15.473C19.539 16.4958 16.3204 16.4958 13.3594 15.473V13.3778L17.7645 15.0859C17.8216 15.107 17.882 15.1178 17.9429 15.1178C18.0008 15.1178 18.0583 15.107 18.1123 15.0859L22.5 13.3778V15.473ZM17.9513 9.51695L24.0671 11.7656L17.9513 14.1464L11.8354 11.7656L17.9513 9.51695Z" fill="#006CA9"/>
<path d="M33.523 8.59377H31.0938V7.3851C31.0959 7.32287 31.0854 7.26085 31.0628 7.20283C31.0402 7.14481 31.0059 7.09202 30.9622 7.04768L25.5716 1.84698C25.4861 1.76368 25.3711 1.71759 25.2518 1.71877H6.47706C6.41622 1.71822 6.35588 1.72981 6.29958 1.75287C6.24328 1.77593 6.19214 1.80999 6.14917 1.85307C6.1062 1.89614 6.07226 1.94735 6.04933 2.00371C6.02641 2.06007 6.01496 2.12043 6.01566 2.18127V35.1266C6.01566 35.3854 6.21816 35.6254 6.47706 35.6254H9.76566V37.8192C9.76641 37.8807 9.77928 37.9414 9.80353 37.998C9.82777 38.0545 9.86293 38.1057 9.90697 38.1487C9.95102 38.1916 10.0031 38.2255 10.0602 38.2483C10.1174 38.2711 10.1784 38.2825 10.24 38.2817H33.523C33.5839 38.2822 33.6443 38.2706 33.7006 38.2475C33.7569 38.2244 33.8081 38.1903 33.851 38.1472C33.894 38.1041 33.9279 38.0528 33.9508 37.9964C33.9738 37.94 33.9852 37.8796 33.9844 37.8188V9.06924C33.9862 8.94502 33.9386 8.82517 33.8521 8.73602C33.7656 8.64687 33.6472 8.5957 33.523 8.59377ZM25.7032 3.2844L29.5 6.95315H25.7032V3.2844ZM33.0469 37.3438H10.7032V35.625H30.6485C30.7666 35.625 30.8798 35.5781 30.9634 35.4946C31.0469 35.4111 31.0938 35.2978 31.0938 35.1797V16.1719C31.0938 16.0476 31.0444 15.9283 30.9565 15.8404C30.8686 15.7525 30.7494 15.7031 30.625 15.7031C30.5007 15.7031 30.3815 15.7525 30.2936 15.8404C30.2057 15.9283 30.1563 16.0476 30.1563 16.1719V34.6875H6.95316V2.65627H24.7657V7.39721C24.766 7.52796 24.8181 7.65325 24.9106 7.74571C25.003 7.83817 25.1283 7.89028 25.2591 7.89065H30.1563V12.8906C30.1563 13.015 30.2057 13.1342 30.2936 13.2221C30.3815 13.31 30.5007 13.3594 30.625 13.3594C30.7494 13.3594 30.8686 13.31 30.9565 13.2221C31.0444 13.1342 31.0938 13.015 31.0938 12.8906V9.53127H33.0469V37.3438Z" fill="#006CA9"/>
</svg>
