<svg width="40" height="40" viewBox="0 0 40 40" fill="none" xmlns="http://www.w3.org/2000/svg">
<path d="M28.4009 14.7476C29.0355 14.7466 29.6555 14.5575 30.1826 14.2042C30.7097 13.8509 31.1202 13.3493 31.3623 12.7628C31.6044 12.1762 31.6673 11.5311 31.5428 10.9088C31.4184 10.2866 31.1123 9.71524 30.6633 9.26692C30.2142 8.81859 29.6423 8.51344 29.0199 8.39002C28.3975 8.26661 27.7524 8.33047 27.1663 8.57354C26.5801 8.81661 26.0792 9.22798 25.7268 9.75565C25.3743 10.2833 25.1862 10.9036 25.1862 11.5382C25.1879 12.3898 25.5273 13.206 26.13 13.8076C26.7326 14.4093 27.5493 14.7474 28.4009 14.7476ZM28.4009 9.26623C28.8501 9.26727 29.2888 9.40139 29.6617 9.65167C30.0347 9.90194 30.325 10.2571 30.4962 10.6724C30.6674 11.0876 30.7116 11.5443 30.6233 11.9846C30.5351 12.425 30.3183 12.8293 30.0004 13.1465C29.6824 13.4638 29.2776 13.6796 28.837 13.7669C28.3964 13.8541 27.9399 13.8088 27.5251 13.6367C27.1102 13.4646 26.7557 13.1734 26.5063 12.7999C26.2569 12.4264 26.1237 11.9873 26.1237 11.5382C26.1251 10.9351 26.3657 10.3573 26.7926 9.93135C27.2195 9.50543 27.7979 9.26623 28.4009 9.26623Z" fill="#006CA9"/>
<path d="M36.1595 2.73438H3.84047C3.03006 2.73464 2.25285 3.05635 1.67934 3.62893C1.10582 4.2015 0.782843 4.97819 0.78125 5.78859V26.8004C0.782843 27.6108 1.10582 28.3875 1.67934 28.9601C2.25285 29.5326 3.03006 29.8543 3.84047 29.8546H14.5757V36.3281H12.0382C11.9139 36.3281 11.7947 36.3775 11.7067 36.4654C11.6188 36.5533 11.5695 36.6726 11.5695 36.7969C11.5695 36.9212 11.6188 37.0404 11.7067 37.1283C11.7947 37.2162 11.9139 37.2656 12.0382 37.2656H28.428C28.5523 37.2656 28.6715 37.2162 28.7594 37.1283C28.8473 37.0404 28.8967 36.9212 28.8967 36.7969C28.8967 36.6726 28.8473 36.5533 28.7594 36.4654C28.6715 36.3775 28.5523 36.3281 28.428 36.3281H25.4243V29.8546H36.1595C36.9699 29.8543 37.7472 29.5326 38.3207 28.9601C38.8942 28.3875 39.2172 27.6108 39.2188 26.8004V5.78859C39.2172 4.97819 38.8942 4.2015 38.3207 3.62893C37.7472 3.05635 36.9699 2.73464 36.1595 2.73438ZM3.84047 3.67188H36.1595C36.7214 3.67185 37.2603 3.8947 37.6581 4.29152C38.0558 4.68834 38.2799 5.22674 38.2812 5.78859V23.971H35.025L33.5016 18.2162C33.3173 17.4489 32.8806 16.7658 32.2614 16.2765C31.6423 15.7872 30.8766 15.5202 30.0875 15.5184H23.5078L18.8223 13.7326C18.8179 13.7309 18.8135 13.7293 18.8091 13.7278C18.5782 13.6483 18.3325 13.6216 18.09 13.6496C17.8474 13.6777 17.6143 13.7599 17.4077 13.8901C17.3277 13.9398 17.2519 13.9961 17.1812 14.0584L14.3014 10.9113C14.2171 10.821 14.1006 10.7677 13.9772 10.7628C13.8538 10.7579 13.7334 10.802 13.6423 10.8854C13.5512 10.9687 13.4967 11.0847 13.4906 11.2081C13.4845 11.3314 13.5273 11.4522 13.6098 11.5441L16.6719 14.8906C16.6554 14.9553 16.643 15.0209 16.6346 15.0871C16.6346 15.0902 16.6338 15.0932 16.6335 15.0962C16.5864 15.4842 16.6794 15.8762 16.8956 16.2017C17.1119 16.5273 17.4373 16.7649 17.8132 16.8719L22.2444 18.4674C22.8213 18.6755 23.4243 18.8028 24.0361 18.8456L24.037 23.9713H1.71875V5.78859C1.72005 5.22674 1.94417 4.68834 2.34193 4.29152C2.73969 3.8947 3.27861 3.67185 3.84047 3.67188ZM32.8269 23.971L32.14 21.2386C32.097 21.0678 31.9931 20.9185 31.8478 20.819C31.7025 20.7194 31.5258 20.6764 31.351 20.698C31.1761 20.7197 31.0153 20.8045 30.8986 20.9365C30.782 21.0685 30.7176 21.2385 30.7176 21.4147V23.971H24.9741L24.9732 18.3929C24.9732 18.2686 24.9238 18.1493 24.8359 18.0614C24.748 17.9735 24.6288 17.9241 24.5045 17.9241C23.8421 17.9244 23.1847 17.8097 22.5616 17.585L18.1126 15.983C18.0996 15.9783 18.0863 15.9742 18.0728 15.9706C17.9088 15.9257 17.7668 15.8225 17.6733 15.6805C17.5799 15.5384 17.5414 15.3671 17.565 15.1988C17.5752 15.1222 17.5982 15.0479 17.633 14.9789L17.6347 14.9751C17.6959 14.8561 17.7885 14.7561 17.9026 14.686C17.9897 14.6304 18.0882 14.5948 18.1908 14.5818C18.2934 14.5689 18.3976 14.5789 18.4959 14.6111L23.2545 16.4248C23.3078 16.4452 23.3644 16.4556 23.4215 16.4555H30.0877C30.6677 16.4578 31.23 16.655 31.6842 17.0155C32.1384 17.3761 32.4582 17.8789 32.592 18.4432C32.5927 18.4459 32.5934 18.4488 32.5941 18.4516L34.0551 23.9706L32.8269 23.971ZM31.8602 23.971H31.6551V23.1549L31.8602 23.971ZM24.4868 36.3281H15.5132V29.8546H24.4868V36.3281ZM36.1595 28.9171H3.84047C3.27861 28.9171 2.73969 28.6943 2.34193 28.2975C1.94417 27.9006 1.72005 27.3622 1.71875 26.8004V24.9085H38.2812V26.8004C38.2799 27.3622 38.0558 27.9006 37.6581 28.2975C37.2603 28.6943 36.7214 28.9171 36.1595 28.9171Z" fill="#006CA9"/>
<path d="M14.4201 8.1648H20.9732C21.0975 8.1648 21.2167 8.11541 21.3047 8.0275C21.3926 7.93959 21.4419 7.82037 21.4419 7.69605C21.4419 7.57172 21.3926 7.4525 21.3047 7.36459C21.2167 7.27668 21.0975 7.22729 20.9732 7.22729H14.4201C14.2958 7.22729 14.1765 7.27668 14.0886 7.36459C14.0007 7.4525 13.9513 7.57172 13.9513 7.69605C13.9513 7.82037 14.0007 7.93959 14.0886 8.0275C14.1765 8.11541 14.2958 8.1648 14.4201 8.1648Z" fill="#006CA9"/>
<path d="M12.7422 8.1648H12.767C12.8913 8.1648 13.0105 8.11541 13.0984 8.0275C13.1863 7.93959 13.2357 7.82037 13.2357 7.69605C13.2357 7.57172 13.1863 7.4525 13.0984 7.36459C13.0105 7.27668 12.8913 7.22729 12.767 7.22729H12.7422C12.6179 7.22729 12.4986 7.27668 12.4107 7.36459C12.3228 7.4525 12.2734 7.57172 12.2734 7.69605C12.2734 7.82037 12.3228 7.93959 12.4107 8.0275C12.4986 8.11541 12.6179 8.1648 12.7422 8.1648Z" fill="#006CA9"/>
<path d="M9.94592 8.1648H11.0397C11.164 8.1648 11.2832 8.11541 11.3711 8.0275C11.459 7.93959 11.5084 7.82037 11.5084 7.69605C11.5084 7.57172 11.459 7.4525 11.3711 7.36459C11.2832 7.27668 11.164 7.22729 11.0397 7.22729H9.94592C9.8216 7.22729 9.70237 7.27668 9.61447 7.36459C9.52656 7.4525 9.47717 7.57172 9.47717 7.69605C9.47717 7.82037 9.52656 7.93959 9.61447 8.0275C9.70237 8.11541 9.8216 8.1648 9.94592 8.1648Z" fill="#006CA9"/>
<path d="M5.03571 8.1648H8.07985C8.20417 8.1648 8.32339 8.11541 8.4113 8.0275C8.49921 7.93959 8.5486 7.82037 8.5486 7.69605C8.5486 7.57172 8.49921 7.4525 8.4113 7.36459C8.32339 7.27668 8.20417 7.22729 8.07985 7.22729H5.03571C4.97415 7.22729 4.91319 7.23942 4.85632 7.26298C4.79945 7.28653 4.74778 7.32106 4.70425 7.36459C4.66072 7.40812 4.62619 7.45979 4.60264 7.51666C4.57908 7.57353 4.56696 7.63449 4.56696 7.69605C4.56696 7.7576 4.57908 7.81856 4.60264 7.87543C4.62619 7.9323 4.66072 7.98397 4.70425 8.0275C4.74778 8.07103 4.79945 8.10556 4.85632 8.12911C4.91319 8.15267 4.97415 8.1648 5.03571 8.1648Z" fill="#006CA9"/>
<path d="M20.9732 11.4398H20.9679C20.8431 11.4405 20.7237 11.4907 20.6358 11.5793C20.5479 11.6679 20.4988 11.7878 20.4991 11.9125C20.4995 12.0373 20.5493 12.1569 20.6377 12.245C20.726 12.3331 20.8458 12.3826 20.9705 12.3826C21.0953 12.3826 21.215 12.3331 21.3034 12.245C21.3918 12.1569 21.4416 12.0373 21.4419 11.9125C21.4423 11.7878 21.3931 11.6679 21.3053 11.5793C21.2174 11.4907 21.098 11.4405 20.9732 11.4398Z" fill="#006CA9"/>
<path d="M19.1857 11.4398H16.8644C16.7401 11.4398 16.6209 11.4892 16.533 11.5771C16.4451 11.665 16.3957 11.7842 16.3957 11.9086C16.3957 12.0329 16.4451 12.1521 16.533 12.24C16.6209 12.3279 16.7401 12.3773 16.8644 12.3773H19.1857C19.31 12.3773 19.4292 12.3279 19.5171 12.24C19.6051 12.1521 19.6544 12.0329 19.6544 11.9086C19.6544 11.7842 19.6051 11.665 19.5171 11.5771C19.4292 11.4892 19.31 11.4398 19.1857 11.4398Z" fill="#006CA9"/>
<path d="M5.03571 12.3773H12.022C12.1464 12.3773 12.2656 12.3279 12.3535 12.24C12.4414 12.1521 12.4908 12.0329 12.4908 11.9086C12.4908 11.7842 12.4414 11.665 12.3535 11.5771C12.2656 11.4892 12.1464 11.4398 12.022 11.4398H5.03571C4.91139 11.4398 4.79216 11.4892 4.70425 11.5771C4.61634 11.665 4.56696 11.7842 4.56696 11.9086C4.56696 12.0329 4.61634 12.1521 4.70425 12.24C4.79216 12.3279 4.91139 12.3773 5.03571 12.3773Z" fill="#006CA9"/>
<path d="M14.5638 16.8523H15.7952C15.9195 16.8523 16.0387 16.8029 16.1266 16.715C16.2145 16.6271 16.2639 16.5079 16.2639 16.3835C16.2639 16.2592 16.2145 16.14 16.1266 16.0521C16.0387 15.9642 15.9195 15.9148 15.7952 15.9148H14.5638C14.4394 15.9148 14.3202 15.9642 14.2323 16.0521C14.1444 16.14 14.095 16.2592 14.095 16.3835C14.095 16.5079 14.1444 16.6271 14.2323 16.715C14.3202 16.8029 14.4394 16.8523 14.5638 16.8523Z" fill="#006CA9"/>
<path d="M12.7584 16.3835C12.7584 16.2592 12.7091 16.14 12.6212 16.0521C12.5332 15.9642 12.414 15.9148 12.2897 15.9148H7.57446C7.45014 15.9148 7.33091 15.9642 7.24301 16.0521C7.1551 16.14 7.10571 16.2592 7.10571 16.3835C7.10571 16.5079 7.1551 16.6271 7.24301 16.715C7.33091 16.8029 7.45014 16.8523 7.57446 16.8523H12.2897C12.414 16.8523 12.5332 16.8029 12.6212 16.715C12.7091 16.6271 12.7584 16.5079 12.7584 16.3835Z" fill="#006CA9"/>
<path d="M5.03571 16.8523H5.79227C5.91659 16.8523 6.03582 16.8029 6.12372 16.715C6.21163 16.6271 6.26102 16.5079 6.26102 16.3835C6.26102 16.2592 6.21163 16.14 6.12372 16.0521C6.03582 15.9642 5.91659 15.9148 5.79227 15.9148H5.03571C4.91139 15.9148 4.79216 15.9642 4.70425 16.0521C4.61634 16.14 4.56696 16.2592 4.56696 16.3835C4.56696 16.5079 4.61634 16.6271 4.70425 16.715C4.79216 16.8029 4.91139 16.8523 5.03571 16.8523Z" fill="#006CA9"/>
<path d="M19.7955 20.9883H20.9732C21.0975 20.9883 21.2167 20.9389 21.3046 20.851C21.3926 20.7631 21.4419 20.6439 21.4419 20.5195C21.4419 20.3952 21.3926 20.276 21.3046 20.1881C21.2167 20.1002 21.0975 20.0508 20.9732 20.0508H19.7955C19.6712 20.0508 19.552 20.1002 19.4641 20.1881C19.3762 20.276 19.3268 20.3952 19.3268 20.5195C19.3268 20.6439 19.3762 20.7631 19.4641 20.851C19.552 20.9389 19.6712 20.9883 19.7955 20.9883Z" fill="#006CA9"/>
<path d="M17.9951 20.9883H18.0133C18.1376 20.9883 18.2568 20.9389 18.3447 20.851C18.4327 20.7631 18.482 20.6439 18.482 20.5195C18.482 20.3952 18.4327 20.276 18.3447 20.1881C18.2568 20.1002 18.1376 20.0508 18.0133 20.0508H17.9951C17.8708 20.0508 17.7515 20.1002 17.6636 20.1881C17.5757 20.276 17.5263 20.3952 17.5263 20.5195C17.5263 20.6439 17.5757 20.7631 17.6636 20.851C17.7515 20.9389 17.8708 20.9883 17.9951 20.9883Z" fill="#006CA9"/>
<path d="M8.68704 20.5195C8.68704 20.6439 8.73643 20.7631 8.82434 20.851C8.91224 20.9389 9.03147 20.9883 9.15579 20.9883H16.3245C16.4488 20.9883 16.568 20.9389 16.6559 20.851C16.7438 20.7631 16.7932 20.6439 16.7932 20.5195C16.7932 20.3952 16.7438 20.276 16.6559 20.1881C16.568 20.1002 16.4488 20.0508 16.3245 20.0508H9.15579C9.03147 20.0508 8.91224 20.1002 8.82434 20.1881C8.73643 20.276 8.68704 20.3952 8.68704 20.5195Z" fill="#006CA9"/>
<path d="M5.03571 20.9883H7.3311C7.45542 20.9883 7.57465 20.9389 7.66255 20.851C7.75046 20.7631 7.79985 20.6439 7.79985 20.5195C7.79985 20.3952 7.75046 20.276 7.66255 20.1881C7.57465 20.1002 7.45542 20.0508 7.3311 20.0508H5.03571C4.91139 20.0508 4.79216 20.1002 4.70425 20.1881C4.61634 20.276 4.56696 20.3952 4.56696 20.5195C4.56696 20.6439 4.61634 20.7631 4.70425 20.851C4.79216 20.9389 4.91139 20.9883 5.03571 20.9883Z" fill="#006CA9"/>
</svg>
