<svg width="40" height="40" viewBox="0 0 40 40" fill="none" xmlns="http://www.w3.org/2000/svg">
<path d="M19.9804 9.3824C21.503 9.3824 22.7417 8.16318 22.7417 6.66459C22.7417 5.166 21.503 3.94678 19.9804 3.94678C18.4578 3.94678 17.2188 5.166 17.2188 6.66459C17.2188 8.16318 18.4577 9.3824 19.9804 9.3824ZM19.9804 4.88428C20.9861 4.88428 21.8042 5.68287 21.8042 6.66459C21.8042 7.64631 20.9861 8.4449 19.9804 8.4449C18.9747 8.4449 18.1562 7.64623 18.1562 6.66459C18.1562 5.68295 18.9746 4.88428 19.9804 4.88428Z" fill="#006CA9"/>
<path d="M24.2475 15.3751V13.0057C24.2466 12.1732 23.9154 11.375 23.3267 10.7863C22.738 10.1977 21.9399 9.86653 21.1074 9.8656H18.8533C18.0208 9.86653 17.2226 10.1977 16.6339 10.7863C16.0452 11.375 15.7141 12.1732 15.7131 13.0057V15.3751C15.7131 15.4994 15.7625 15.6186 15.8504 15.7065C15.9383 15.7944 16.0576 15.8438 16.1819 15.8438H23.7788C23.9031 15.8438 24.0223 15.7944 24.1102 15.7065C24.1981 15.6186 24.2475 15.4994 24.2475 15.3751ZM23.31 14.9063H16.6506V13.0057C16.6513 12.4217 16.8836 11.8618 17.2965 11.4489C17.7095 11.036 18.2693 10.8037 18.8533 10.8031H21.1074C21.6913 10.8037 22.2512 11.036 22.6641 11.4489C23.0771 11.8618 23.3093 12.4217 23.31 13.0057V14.9063Z" fill="#006CA9"/>
<path d="M38.5938 27.0672H35.2969V24.0437C35.2963 23.5052 35.0821 22.9889 34.7013 22.6081C34.3205 22.2273 33.8042 22.0131 33.2656 22.0125H20.4495V19.169C20.7342 19.1519 21.0205 19.123 21.3079 19.0787C22.4944 18.9012 23.6338 18.4899 24.6602 17.8688C25.6865 17.2477 26.5794 16.429 27.287 15.4602C27.9767 14.5264 28.4741 13.4649 28.7504 12.3374C29.0268 11.2099 29.0765 10.0388 28.8969 8.89187C28.1421 4.03765 23.5106 0.708353 18.5713 1.47062C17.3848 1.64811 16.2453 2.05934 15.219 2.68047C14.1926 3.30161 13.2997 4.12029 12.5921 5.08906C11.9025 6.0229 11.4051 7.08434 11.1287 8.21186C10.8524 9.33937 10.8026 10.5105 10.9823 11.6574C11.6445 15.9167 15.2916 19.0012 19.512 19.179V22.0122H6.39844C5.8599 22.0128 5.34359 22.227 4.96279 22.6078C4.58199 22.9886 4.36779 23.5049 4.36719 24.0434V27.0669H1.40625C1.24055 27.0671 1.08168 27.133 0.964514 27.2501C0.847344 27.3673 0.781436 27.5262 0.78125 27.6919V35.1953C0.781436 35.361 0.847344 35.5199 0.964514 35.6371C1.08168 35.7542 1.24055 35.8201 1.40625 35.8203H10.9461C11.1118 35.8201 11.2707 35.7542 11.3878 35.6371C11.505 35.5199 11.5709 35.361 11.5711 35.1953V27.6922C11.5709 27.5265 11.505 27.3676 11.3878 27.2505C11.2707 27.1333 11.1118 27.0674 10.9461 27.0672H5.30469V24.0437C5.30502 23.7538 5.42036 23.4758 5.6254 23.2707C5.83045 23.0657 6.10846 22.9503 6.39844 22.95H19.512V27.0672H15.2301C15.0644 27.0674 14.9055 27.1333 14.7883 27.2505C14.6712 27.3676 14.6053 27.5265 14.6051 27.6922V35.1953C14.6053 35.361 14.6712 35.5199 14.7883 35.6371C14.9055 35.7542 15.0644 35.8201 15.2301 35.8203H24.7699C24.9356 35.8201 25.0945 35.7542 25.2117 35.6371C25.3288 35.5199 25.3947 35.361 25.3949 35.1953V27.6922C25.3947 27.5265 25.3288 27.3676 25.2117 27.2505C25.0945 27.1333 24.9356 27.0674 24.7699 27.0672H20.4496V22.95H33.2656C33.5556 22.9503 33.8336 23.0657 34.0387 23.2707C34.2437 23.4758 34.359 23.7538 34.3594 24.0437V27.0672H29.0539C28.8882 27.0674 28.7293 27.1333 28.6122 27.2505C28.495 27.3676 28.4291 27.5265 28.4289 27.6922V35.1953C28.4291 35.361 28.495 35.5199 28.6122 35.6371C28.7293 35.7542 28.8882 35.8201 29.0539 35.8203H38.5938C38.7595 35.8201 38.9183 35.7542 39.0355 35.6371C39.1527 35.5199 39.2186 35.361 39.2188 35.1953V27.6922C39.2186 27.5265 39.1527 27.3676 39.0355 27.2505C38.9183 27.1333 38.7595 27.0674 38.5938 27.0672ZM11.9086 11.5134C11.7482 10.4883 11.7929 9.44146 12.0401 8.43371C12.2874 7.42595 12.7322 6.47729 13.3488 5.64273C13.9838 4.77362 14.7851 4.03922 15.7061 3.4821C16.6272 2.92497 17.6496 2.55621 18.7142 2.39718C19.1337 2.33229 19.5576 2.29964 19.9821 2.29952C23.9095 2.29952 27.3601 5.10999 27.9705 9.03585C28.1309 10.061 28.0862 11.1078 27.839 12.1156C27.5918 13.1234 27.147 14.0721 26.5304 14.9066C25.8953 15.7757 25.094 16.5101 24.173 17.0672C23.252 17.6243 22.2295 17.9931 21.1649 18.1521C16.7368 18.8355 12.5841 15.8575 11.9086 11.5134ZM10.6336 34.8828H1.71875V28.0047H10.6336V34.8828ZM24.4574 34.8828H15.5426V28.0047H24.4574V34.8828ZM38.2812 34.8828H29.3664V28.0047H38.2812V34.8828Z" fill="#006CA9"/>
</svg>
