<svg width="37" height="35" viewBox="0 0 37 35" fill="none" xmlns="http://www.w3.org/2000/svg">
<path d="M25.9452 4.24085C25.9452 4.36051 25.8977 4.47526 25.8131 4.55987C25.7285 4.64448 25.6137 4.69201 25.4941 4.69201C25.3744 4.69201 25.2597 4.64448 25.1751 4.55987C25.0905 4.47526 25.0429 4.36051 25.0429 4.24085V1.71251C19.0175 8.93948 11.9645 14.3886 4.06106 17.9165C2.93317 18.4203 1.77265 18.8904 0.611605 19.3147C0.55578 19.3359 0.496311 19.3457 0.43664 19.3438C0.376968 19.3418 0.318281 19.328 0.263987 19.3031C0.209692 19.2783 0.160866 19.2429 0.120338 19.1991C0.0798111 19.1552 0.0483952 19.1038 0.0278988 19.0477C0.00740433 18.9916 -0.00175858 18.9321 0.000946045 18.8724C0.00365067 18.8128 0.0181637 18.7543 0.0436497 18.7003C0.0691357 18.6463 0.105089 18.5979 0.149418 18.5579C0.193745 18.5179 0.245571 18.4871 0.301889 18.4673C1.44339 18.0501 2.58436 17.5875 3.69307 17.0926C11.5544 13.5835 18.5652 8.13891 24.5443 0.90231H21.7547C21.635 0.902309 21.5203 0.854777 21.4357 0.770169C21.3511 0.685561 21.3035 0.570808 21.3035 0.451155C21.3035 0.331501 21.3511 0.216748 21.4357 0.13214C21.5203 0.0475322 21.635 0 21.7547 0H25.4941C25.4993 0 25.5045 0.000601516 25.5096 0.000827093C25.5184 0.000827093 25.5272 0.00127826 25.536 0.00210538C25.543 0.00278211 25.5496 0.00390995 25.5565 0.00481226C25.5633 0.00571457 25.572 0.00684252 25.5797 0.00834637C25.5873 0.00985022 25.5947 0.0116549 25.6017 0.0134595C25.6087 0.0152641 25.6156 0.0167679 25.6224 0.0187981C25.6293 0.0208283 25.6375 0.0236857 25.645 0.0263174C25.6525 0.0289491 25.6579 0.0308289 25.6643 0.0333855C25.6707 0.035942 25.6794 0.0399271 25.6864 0.0434612C25.6924 0.0462433 25.6985 0.0489502 25.7044 0.0520331C25.7119 0.0560183 25.7194 0.0604548 25.7265 0.0648912C25.7319 0.0681244 25.7373 0.0712073 25.7426 0.0746661C25.7501 0.079704 25.7576 0.0851931 25.7647 0.0906069C25.7688 0.0936146 25.7729 0.0962464 25.7769 0.0994045C25.7776 0.100006 25.7782 0.100758 25.779 0.101359C25.7857 0.106773 25.792 0.112714 25.7983 0.118503C25.8031 0.12294 25.8082 0.127075 25.8127 0.131662C25.8173 0.136249 25.8197 0.139181 25.8233 0.143091C25.8491 0.170425 25.8714 0.20089 25.8896 0.233773L25.891 0.23618C25.895 0.243699 25.8985 0.251218 25.9019 0.258737C25.9046 0.264677 25.9077 0.270467 25.9103 0.276558C25.9116 0.27949 25.9125 0.282648 25.9137 0.285656C25.926 0.31715 25.9348 0.349941 25.9398 0.383406C25.9409 0.390023 25.9422 0.39664 25.9428 0.403257C25.9435 0.409874 25.9435 0.414611 25.9439 0.420251C25.9446 0.42965 25.9453 0.439124 25.9453 0.448598V0.451155L25.9452 4.24085Z" fill="#006ca9"/>
<path d="M0.456448 24.2888H8.4179V18.8331C8.4179 18.7134 8.46543 18.5987 8.55004 18.5141C8.63465 18.4295 8.7494 18.3819 8.86905 18.3819H17.9734V12.1588C17.9734 12.0391 18.0209 11.9244 18.1055 11.8398C18.1901 11.7552 18.3049 11.7076 18.4245 11.7076H27.2243V5.08739C27.2243 4.96773 27.2718 4.85298 27.3564 4.76837C27.441 4.68376 27.5558 4.63623 27.6754 4.63623H36.2644C36.3833 4.63622 36.4973 4.68315 36.5818 4.7668C36.6663 4.85045 36.7144 4.96407 36.7155 5.08295L37 34.2836C37.0006 34.3432 36.9893 34.4023 36.9669 34.4575C36.9445 34.5128 36.9113 34.563 36.8694 34.6054C36.8274 34.6478 36.7775 34.6814 36.7225 34.7043C36.6675 34.7273 36.6084 34.7391 36.5488 34.7391H0.456448C0.336796 34.7391 0.222042 34.6915 0.137432 34.6069C0.0528259 34.5223 0.0052948 34.4076 0.0052948 34.2879V24.74C0.0052948 24.6203 0.0528259 24.5056 0.137432 24.421C0.222042 24.3364 0.336796 24.2888 0.456448 24.2888ZM9.32021 19.2842V24.74L9.43616 33.8368H17.9734V19.2842H9.32021ZM18.8757 12.6099V33.8368H27.2243V12.6099H18.8757ZM35.8177 5.53854H28.1266V33.8368H36.0932L35.8177 5.53854ZM0.907604 33.8368H8.53385L8.42361 25.1911H0.907604V33.8368Z" fill="#006ca9"/>
</svg>
