<svg width="40" height="40" viewBox="0 0 40 40" fill="none" xmlns="http://www.w3.org/2000/svg">
<path d="M33.9925 23.2969L33.8072 23.3969C33.0586 22.4885 31.7617 22.1365 30.7736 22.6372C30.77 22.639 30.7665 22.6408 30.7631 22.6426L30.3256 22.8782C29.8038 22.4364 29.1585 22.1663 28.4776 22.1048C27.7967 22.0433 27.1134 22.1933 26.5209 22.5344L24.165 23.8157H21.0302C20.3514 23.8148 19.6815 23.6613 19.07 23.3665L18.6388 23.1579C17.411 22.5606 16.0419 22.3146 14.683 22.4473C13.3241 22.58 12.0284 23.0863 10.9394 23.9099C10.9292 23.9177 10.9192 23.9255 10.9097 23.9343L9.86848 24.8612C9.47501 25.2107 9.00991 25.4699 8.50575 25.6208L7.91442 23.6797C7.88512 23.5837 7.82574 23.4995 7.74502 23.4398C7.6643 23.38 7.56651 23.3477 7.46606 23.3477H2.43067C2.36433 23.3477 2.29874 23.3618 2.23824 23.389C2.17774 23.4163 2.12371 23.456 2.07973 23.5057C2.03575 23.5554 2.00281 23.6138 1.98309 23.6772C1.96337 23.7405 1.95733 23.8073 1.96536 23.8732L3.6438 37.6357C3.65765 37.7493 3.71263 37.854 3.79835 37.9299C3.88407 38.0058 3.99461 38.0477 4.10911 38.0477H11.6618C11.735 38.0477 11.8073 38.0305 11.8727 37.9976C11.9381 37.9646 11.9949 37.9168 12.0385 37.8579C12.0821 37.799 12.1112 37.7308 12.1237 37.6586C12.1361 37.5864 12.1315 37.5123 12.1101 37.4422L11.1179 34.1865L14.2081 32.2333C14.6216 32.0045 15.1066 31.9418 15.5647 32.0578C15.5744 32.0602 15.5842 32.0624 15.594 32.0641L21.8799 33.2216C23.5881 33.5273 25.3494 33.2786 26.9062 32.5119C26.9261 32.5021 26.9453 32.4909 26.9636 32.4783L37.8358 25.0133C37.9342 24.9457 38.0032 24.843 38.0285 24.7263C38.0538 24.6095 38.0336 24.4875 37.972 24.3851C37.5764 23.7263 36.9419 23.2454 36.2006 23.0427C35.4593 22.84 34.6684 22.931 33.9925 23.2969ZM31.2022 23.471C31.7736 23.1848 32.4931 23.4194 32.9526 23.8579L28.8298 26.0822L28.5876 26.2097C28.4571 25.8391 28.2663 25.4925 28.0229 25.1839L31.2022 23.471ZM26.9746 23.355C26.9783 23.3529 26.9824 23.3508 26.9857 23.3486C27.3549 23.1352 27.7747 23.0247 28.2012 23.0287C28.6277 23.0328 29.0453 23.1511 29.4104 23.3715L27.3143 24.5C26.9147 24.2084 26.4587 24.0032 25.9754 23.8975L26.9746 23.355ZM4.5238 37.1102L2.96012 24.2852H7.11864L11.0288 37.1102H4.5238ZM26.46 31.6859C25.0912 32.3522 23.5463 32.5669 22.0476 32.299L15.7772 31.1443C15.0875 30.9741 14.3589 31.0728 13.7393 31.4205C13.7321 31.4245 13.7248 31.4289 13.7177 31.4334L10.8337 33.2566L8.77903 26.5183C9.4126 26.3273 9.99693 26.0005 10.4913 25.5607L11.5178 24.6466C12.4688 23.9316 13.5987 23.493 14.7831 23.3791C15.9674 23.2651 17.1602 23.4803 18.2301 24.0009L18.6613 24.2095C19.4001 24.5656 20.2095 24.7511 21.0297 24.7522H25.2113C25.8258 24.753 26.4209 24.9679 26.8942 25.3598C27.3675 25.7517 27.6896 26.2962 27.805 26.8998L24.7742 26.7627C23.6724 26.7132 22.5683 26.7642 21.4758 26.9151C21.3536 26.9333 21.2435 26.9989 21.1694 27.0978C21.0954 27.1966 21.0633 27.3207 21.0803 27.4431C21.0972 27.5655 21.1618 27.6762 21.2599 27.7512C21.358 27.8262 21.4818 27.8595 21.6043 27.8437C22.6403 27.7005 23.6871 27.6522 24.7318 27.6993L28.2986 27.8607C28.3057 27.8607 28.3129 27.8611 28.3199 27.8611C28.4442 27.8611 28.5634 27.8118 28.6513 27.7239C28.7393 27.6359 28.7886 27.5167 28.7886 27.3924C28.7886 27.3165 28.7854 27.2414 28.7808 27.1666L29.27 26.9088L34.4379 24.1216C34.8347 23.9067 35.2915 23.8289 35.7372 23.9003C36.1828 23.9718 36.5924 24.1884 36.9022 24.5166L26.46 31.6859Z" fill="#006CA9"/>
<path d="M6.01367 35.1708C6.01367 35.4627 6.10022 35.7481 6.26239 35.9907C6.42455 36.2334 6.65503 36.4226 6.9247 36.5343C7.19436 36.646 7.49109 36.6752 7.77736 36.6183C8.06363 36.5613 8.32659 36.4208 8.53298 36.2144C8.73938 36.008 8.87993 35.745 8.93687 35.4588C8.99382 35.1725 8.96459 34.8758 8.85289 34.6061C8.7412 34.3364 8.55204 34.1059 8.30935 33.9438C8.06666 33.7816 7.78133 33.6951 7.48945 33.6951C7.09818 33.6955 6.72307 33.8511 6.4464 34.1278C6.16973 34.4045 6.01411 34.7796 6.01367 35.1708ZM7.48945 34.6326C7.59591 34.6326 7.69998 34.6641 7.7885 34.7233C7.87702 34.7824 7.94602 34.8665 7.98676 34.9649C8.0275 35.0632 8.03816 35.1714 8.01739 35.2759C7.99662 35.3803 7.94535 35.4762 7.87007 35.5515C7.79479 35.6268 7.69888 35.678 7.59447 35.6988C7.49005 35.7196 7.38182 35.7089 7.28346 35.6682C7.1851 35.6274 7.10103 35.5584 7.04189 35.4699C6.98274 35.3814 6.95117 35.2773 6.95117 35.1708C6.95142 35.0282 7.00821 34.8914 7.10911 34.7906C7.21001 34.6897 7.34678 34.6329 7.48945 34.6327V34.6326Z" fill="#006CA9"/>
<path d="M23.5644 7.05514V5.51045C23.56 4.56967 23.1832 3.66893 22.5164 3.00526C21.8496 2.34158 20.9471 1.96899 20.0063 1.96899C19.0655 1.96899 18.163 2.34158 17.4963 3.00526C16.8295 3.66893 16.4527 4.56967 16.4482 5.51045V7.05514C16.4527 7.99591 16.8295 8.89665 17.4963 9.56033C18.163 10.224 19.0655 10.5966 20.0063 10.5966C20.9471 10.5966 21.8496 10.224 22.5164 9.56033C23.1832 8.89665 23.56 7.99591 23.5644 7.05514ZM17.3857 7.05514V5.51045C17.3895 4.8179 17.6673 4.15501 18.1583 3.66664C18.6494 3.17827 19.3138 2.90413 20.0063 2.90413C20.6989 2.90413 21.3633 3.17827 21.8543 3.66664C22.3454 4.15501 22.6231 4.8179 22.6269 5.51045V7.05514C22.6231 7.74768 22.3454 8.41057 21.8543 8.89894C21.3633 9.38731 20.6989 9.66145 20.0063 9.66145C19.3138 9.66145 18.6494 9.38731 18.1583 8.89894C17.6673 8.41057 17.3895 7.74768 17.3857 7.05514Z" fill="#006CA9"/>
<path d="M14.2709 20.2676H25.7414C25.8657 20.2676 25.985 20.2182 26.0729 20.1303C26.1608 20.0424 26.2102 19.9232 26.2102 19.7988V18.7229H34.0625C34.1868 18.7229 34.306 18.6735 34.394 18.5856C34.4819 18.4977 34.5312 18.3785 34.5312 18.2542V15.2117C34.5307 14.3189 34.1904 13.4598 33.5794 12.8089C32.9684 12.158 32.1325 11.7642 31.2416 11.7073C30.9916 11.6889 30.863 11.8472 30.7588 11.9743C30.5514 12.2277 30.289 12.4304 29.9914 12.567C29.6938 12.7035 29.3689 12.7704 29.0416 12.7624C28.7143 12.7544 28.3931 12.6718 28.1025 12.5208C27.812 12.3699 27.5597 12.1546 27.3649 11.8914C27.3202 11.8308 27.2615 11.7819 27.1938 11.7489C27.1262 11.7158 27.0515 11.6995 26.9762 11.7013C26.3673 11.715 25.7727 11.8885 25.252 12.2044C24.9082 11.8046 24.4876 11.4779 24.0152 11.2436C23.5429 11.0093 23.0283 10.8722 22.502 10.8404C22.2598 10.8306 22.1373 10.9776 22.0186 11.1217C21.7753 11.419 21.4673 11.6569 21.1181 11.8172C20.7688 11.9775 20.3876 12.0559 20.0035 12.0465C19.6194 12.0372 19.2425 11.9402 18.9015 11.7631C18.5606 11.5859 18.2645 11.3333 18.036 11.0244C17.9913 10.9637 17.9327 10.9148 17.865 10.8817C17.7973 10.8486 17.7226 10.8324 17.6473 10.8344C16.6194 10.8582 15.6418 11.2846 14.9251 12.0219C14.8659 12.0824 14.8097 12.1452 14.7549 12.2088C14.2709 11.9142 13.7223 11.742 13.1567 11.7071C12.9076 11.6888 12.7781 11.847 12.674 11.9742C12.4666 12.2275 12.2041 12.4302 11.9065 12.5668C11.609 12.7034 11.2841 12.7702 10.9568 12.7622C10.6295 12.7542 10.3083 12.6716 10.0177 12.5207C9.72718 12.3697 9.47491 12.1545 9.28016 11.8913C9.23534 11.8308 9.17664 11.7819 9.109 11.7488C9.04136 11.7158 8.96676 11.6994 8.89148 11.7012C7.97588 11.7245 7.10559 12.1046 6.4662 12.7603C5.8268 13.4161 5.46888 14.2958 5.46875 15.2117V18.2542C5.46875 18.3785 5.51814 18.4977 5.60604 18.5856C5.69395 18.6735 5.81318 18.7229 5.9375 18.7229H13.8022V19.7988C13.8022 19.9232 13.8516 20.0424 13.9395 20.1303C14.0274 20.2182 14.1466 20.2676 14.2709 20.2676ZM26.7761 12.6537C27.0651 12.9817 27.4204 13.2447 27.8186 13.4251C28.2168 13.6056 28.6487 13.6995 29.0859 13.7007C29.523 13.7018 29.9555 13.6102 30.3546 13.4318C30.7537 13.2534 31.1104 12.9923 31.4011 12.6658C32.0107 12.7578 32.5671 13.0652 32.9693 13.5323C33.3716 13.9994 33.5932 14.5952 33.5938 15.2117V17.7854H26.2102V14.7783C26.2107 14.1541 26.0621 13.5387 25.777 12.9835C26.0833 12.8048 26.4236 12.6925 26.7761 12.6537ZM17.4453 11.7861C17.7694 12.1613 18.1703 12.4625 18.6209 12.6694C19.0715 12.8762 19.5613 12.9839 20.0571 12.9851C20.5529 12.9863 21.0432 12.8809 21.4947 12.6762C21.9463 12.4715 22.3486 12.1722 22.6745 11.7985C23.3943 11.8981 24.0538 12.2546 24.5313 12.8022C25.0089 13.3498 25.2723 14.0517 25.273 14.7783V19.3301H14.7397V14.7783C14.7443 14.0343 15.0227 13.318 15.5218 12.7661C16.0208 12.2142 16.7055 11.8654 17.4453 11.7861ZM6.40625 17.7854V15.2117C6.41021 14.5801 6.64462 13.9717 7.06545 13.5008C7.48628 13.0298 8.06457 12.7287 8.69172 12.654C8.98071 12.9819 9.33601 13.2448 9.73413 13.4252C10.1323 13.6056 10.5641 13.6995 11.0012 13.7006C11.4383 13.7017 11.8706 13.61 12.2697 13.4316C12.6687 13.2533 13.0254 12.9922 13.316 12.6658C13.6388 12.714 13.9493 12.8236 14.2309 12.9886C13.9482 13.5428 13.8013 14.1562 13.8022 14.7783V17.7854H6.40625Z" fill="#006CA9"/>
<path d="M32.2148 8.45144V7.09933C32.2148 6.25785 31.8805 5.45083 31.2855 4.85581C30.6905 4.26079 29.8834 3.92651 29.042 3.92651C28.2005 3.92651 27.3935 4.26079 26.7984 4.85581C26.2034 5.45083 25.8691 6.25785 25.8691 7.09933V8.45144C25.8691 9.29292 26.2034 10.0999 26.7984 10.695C27.3935 11.29 28.2005 11.6243 29.042 11.6243C29.8834 11.6243 30.6905 11.29 31.2855 10.695C31.8805 10.0999 32.2148 9.29292 32.2148 8.45144ZM26.8066 8.45144V7.09933C26.8066 6.50649 27.0421 5.93792 27.4613 5.51872C27.8805 5.09952 28.4491 4.86401 29.042 4.86401C29.6348 4.86401 30.2034 5.09952 30.6226 5.51872C31.0418 5.93792 31.2773 6.50649 31.2773 7.09933V8.45144C31.2773 9.04428 31.0418 9.61284 30.6226 10.032C30.2034 10.4512 29.6348 10.6868 29.042 10.6868C28.4491 10.6868 27.8805 10.4512 27.4613 10.032C27.0421 9.61284 26.8066 9.04428 26.8066 8.45144Z" fill="#006CA9"/>
<path d="M14.1308 8.45144V7.09933C14.1308 6.68267 14.0487 6.27009 13.8893 5.88514C13.7298 5.5002 13.4961 5.15043 13.2015 4.85581C12.9069 4.56119 12.5571 4.32748 12.1722 4.16803C11.7872 4.00858 11.3746 3.92651 10.958 3.92651C10.5413 3.92651 10.1287 4.00858 9.74379 4.16803C9.35884 4.32748 9.00907 4.56119 8.71445 4.85581C8.41983 5.15043 8.18612 5.5002 8.02667 5.88514C7.86722 6.27009 7.78516 6.68267 7.78516 7.09933V8.45144C7.78516 8.8681 7.86722 9.28068 8.02667 9.66562C8.18612 10.0506 8.41983 10.4003 8.71445 10.695C9.00907 10.9896 9.35884 11.2233 9.74379 11.3827C10.1287 11.5422 10.5413 11.6243 10.958 11.6243C11.3746 11.6243 11.7872 11.5422 12.1722 11.3827C12.5571 11.2233 12.9069 10.9896 13.2015 10.695C13.4961 10.4003 13.7298 10.0506 13.8893 9.66562C14.0487 9.28068 14.1308 8.8681 14.1308 8.45144ZM8.72266 8.45144V7.09933C8.72266 6.50649 8.95816 5.93792 9.37736 5.51872C9.79657 5.09952 10.3651 4.86401 10.958 4.86401C11.5508 4.86401 12.1194 5.09952 12.5386 5.51872C12.9578 5.93792 13.1933 6.50649 13.1933 7.09933V8.45144C13.1933 8.74498 13.1355 9.03566 13.0231 9.30686C12.9108 9.57806 12.7461 9.82448 12.5386 10.032C12.331 10.2396 12.0846 10.4043 11.8134 10.5166C11.5422 10.6289 11.2515 10.6868 10.958 10.6868C10.6644 10.6868 10.3738 10.6289 10.1026 10.5166C9.83135 10.4043 9.58493 10.2396 9.37736 10.032C9.1698 9.82448 9.00514 9.57806 8.89281 9.30686C8.78047 9.03566 8.72266 8.74498 8.72266 8.45144Z" fill="#006CA9"/>
</svg>
