<svg width="40" height="40" viewBox="0 0 40 40" fill="none" xmlns="http://www.w3.org/2000/svg">
<path d="M5.10375 22.7233L7.94266 22.9967C8.24633 24.2035 8.73194 25.357 9.38281 26.4176L7.57539 28.6002C7.48852 28.7051 7.4439 28.8386 7.45027 28.9747C7.45664 29.1107 7.51355 29.2395 7.60984 29.3358L10.6837 32.4095C10.78 32.5058 10.9087 32.5627 11.0448 32.5691C11.1808 32.5755 11.3143 32.5309 11.4192 32.444L13.6055 30.6335C14.6666 31.2814 15.8183 31.7677 17.0226 32.0766L17.296 34.9059C17.3095 35.0402 17.373 35.1645 17.4738 35.2542C17.5746 35.3439 17.7054 35.3924 17.8403 35.3903H22.1981C22.333 35.3924 22.4638 35.3439 22.5646 35.2542C22.6654 35.1645 22.7289 35.0402 22.7424 34.9059L23.0159 32.0719C24.2225 31.7692 25.3761 31.2845 26.4368 30.6344L28.6193 32.4431C28.7241 32.5301 28.8576 32.5748 28.9936 32.5685C29.1297 32.5622 29.2585 32.5054 29.3548 32.4092L32.4287 29.3358C32.5249 29.2395 32.5818 29.1107 32.5882 28.9747C32.5945 28.8387 32.55 28.7052 32.4631 28.6004L30.653 26.4141C31.3009 25.3528 31.7873 24.201 32.0962 22.9966L34.8969 22.7231C35.0321 22.7099 35.1575 22.6469 35.2488 22.5463C35.34 22.4457 35.3906 22.3147 35.3906 22.1789V17.8211C35.3906 17.6851 35.34 17.554 35.2486 17.4534C35.1572 17.3528 35.0316 17.2898 34.8962 17.2767L32.0573 17.0033C31.7537 15.7965 31.2681 14.643 30.6172 13.5823L32.4246 11.3998C32.5111 11.2953 32.5557 11.1625 32.5498 11.0271C32.5439 10.8916 32.4878 10.7632 32.3926 10.6667L29.3577 7.59289C29.2616 7.49556 29.1325 7.43777 28.9959 7.43093C28.8592 7.42409 28.725 7.46869 28.6197 7.55594L26.4334 9.36648C25.3723 8.71863 24.2206 8.23227 23.0163 7.92336L22.7429 5.09406C22.7294 4.95981 22.6659 4.83553 22.5651 4.74583C22.4643 4.65612 22.3335 4.60754 22.1986 4.60969L17.8408 4.60969C17.7059 4.60754 17.5751 4.65612 17.4743 4.74583C17.3735 4.83553 17.31 4.95981 17.2965 5.09406L17.023 7.92804C15.8164 8.23075 14.6629 8.71548 13.6023 9.36554L11.4192 7.55719C11.3144 7.47023 11.1809 7.42551 11.0449 7.43176C10.9089 7.43802 10.7801 7.49481 10.6837 7.59101L7.60984 10.6645C7.51359 10.7608 7.45672 10.8896 7.45034 11.0256C7.44397 11.1616 7.48856 11.295 7.57539 11.3999L9.38594 13.5859C8.73812 14.6471 8.25175 15.7987 7.94281 17.003L5.10375 17.2764C4.96837 17.2895 4.84271 17.3525 4.7513 17.4532C4.65989 17.5539 4.60929 17.6851 4.60938 17.8211L4.60938 22.1789C4.60937 22.3149 4.66 22.4459 4.75141 22.5466C4.84281 22.6472 4.96842 22.7102 5.10375 22.7233ZM5.70313 18.3178L8.4382 18.0542C8.55364 18.0431 8.66255 17.9955 8.74919 17.9185C8.83584 17.8414 8.89574 17.7387 8.92023 17.6254C9.2201 16.2767 9.7615 14.9935 10.5183 13.8376C10.5813 13.7399 10.6116 13.6247 10.6047 13.5087C10.5978 13.3926 10.5541 13.2818 10.48 13.1923L8.73531 11.0859L11.1051 8.71617L13.2117 10.4609C13.3023 10.536 13.4147 10.5798 13.5322 10.5859C13.6497 10.592 13.766 10.56 13.8639 10.4948C15.0145 9.73339 16.2967 9.19293 17.6452 8.90101C17.7578 8.87863 17.8603 8.82064 17.9375 8.7356C18.0147 8.65056 18.0626 8.54296 18.074 8.42867L18.3373 5.70312H21.7016L21.9652 8.42844C21.9765 8.5433 22.0242 8.65155 22.1014 8.73739C22.1785 8.82323 22.2811 8.88218 22.3941 8.90562C23.7426 9.20462 25.0259 9.7452 26.1819 10.5012C26.2797 10.5641 26.395 10.5942 26.511 10.5871C26.627 10.5799 26.7378 10.536 26.8272 10.4617L28.9314 8.71875L31.2667 11.0837L29.52 13.193C29.445 13.2837 29.4012 13.396 29.3951 13.5135C29.389 13.631 29.421 13.7473 29.4863 13.8452C30.2476 14.9957 30.788 16.278 31.08 17.6264C31.1045 17.7397 31.1644 17.8424 31.2511 17.9194C31.3377 17.9965 31.4466 18.044 31.562 18.0552L34.2969 18.3178V21.6828L31.6001 21.9459C31.4848 21.9571 31.376 22.0047 31.2895 22.0818C31.203 22.1588 31.1432 22.2614 31.1187 22.3746C30.8188 23.7232 30.2774 25.0065 29.5206 26.1624C29.4576 26.2601 29.4273 26.3753 29.4342 26.4913C29.4411 26.6074 29.4848 26.7182 29.5589 26.8077L31.3036 28.9141L28.9339 31.2838L26.8272 29.5391C26.7366 29.4641 26.6242 29.4203 26.5067 29.4142C26.3892 29.4081 26.2729 29.44 26.175 29.5053C25.0244 30.2667 23.7422 30.8071 22.3938 31.0991C22.2811 31.1214 22.1786 31.1794 22.1014 31.2645C22.0242 31.3495 21.9763 31.4571 21.9649 31.5714L21.7016 34.2969H18.3373L18.0737 31.5716C18.0624 31.4567 18.0147 31.3484 17.9376 31.2626C17.8604 31.1768 17.7579 31.1178 17.6448 31.0944C16.2963 30.7954 15.013 30.2548 13.857 29.4987C13.7592 29.4359 13.6439 29.4058 13.5279 29.4129C13.4119 29.42 13.3011 29.4639 13.2117 29.5383L11.1051 31.2835L8.73531 28.9141L10.48 26.8075C10.555 26.7169 10.5988 26.6045 10.6049 26.487C10.611 26.3696 10.579 26.2533 10.5138 26.1554C9.75242 25.0048 9.21196 23.7225 8.92 22.3741C8.89549 22.2608 8.83558 22.1582 8.74894 22.0811C8.66229 22.004 8.55339 21.9565 8.43797 21.9454L5.70313 21.6822V18.3178Z" fill="#006CA9"/>
<path d="M20.0196 29.0313C21.8058 29.0312 23.5519 28.5016 25.0371 27.5092C26.5223 26.5168 27.6798 25.1063 28.3633 23.4561C29.0469 21.8058 29.2257 19.9899 28.8772 18.238C28.5288 16.4862 27.6686 14.877 26.4056 13.6139C25.1425 12.3509 23.5333 11.4907 21.7814 11.1423C20.0295 10.7938 18.2136 10.9727 16.5634 11.6562C14.9132 12.3398 13.5027 13.4973 12.5103 14.9825C11.518 16.4677 10.9883 18.2138 10.9883 20C10.991 22.3944 11.9434 24.69 13.6365 26.3831C15.3296 28.0762 17.6252 29.0285 20.0196 29.0313ZM20.0196 12.0625C21.5895 12.0625 23.1241 12.5281 24.4294 13.4003C25.7347 14.2724 26.7521 15.5121 27.3528 16.9625C27.9536 18.4129 28.1108 20.0089 27.8045 21.5486C27.4982 23.0883 26.7422 24.5026 25.6322 25.6127C24.5221 26.7228 23.1078 27.4787 21.568 27.785C20.0283 28.0913 18.4323 27.9341 16.982 27.3333C15.5316 26.7325 14.2919 25.7151 13.4197 24.4098C12.5476 23.1045 12.082 21.5699 12.082 20C12.0845 17.8956 12.9215 15.878 14.4096 14.39C15.8976 12.9019 17.9152 12.0649 20.0196 12.0625Z" fill="#006CA9"/>
</svg>
