<svg width="40" height="40" viewBox="0 0 40 40" fill="none" xmlns="http://www.w3.org/2000/svg">
<path d="M4.31813 23.5007C4.39375 23.5007 4.46945 23.5016 4.54516 23.5023V31.8787C4.54516 32.0031 4.59454 32.1223 4.68245 32.2102C4.77036 32.2981 4.88959 32.3475 5.01391 32.3475C6.19235 32.3462 7.32214 31.8775 8.15543 31.0442C8.98871 30.2109 9.45743 29.0811 9.45875 27.9027V24.0479C11.2769 24.435 13.0454 25.0264 14.7307 25.8107L24.5968 30.4148C24.6682 30.4482 24.7469 30.4629 24.8256 30.4578C24.9042 30.4527 24.9803 30.4278 25.0468 30.3854C25.1133 30.3431 25.168 30.2847 25.2059 30.2156C25.2439 30.1464 25.2638 30.0689 25.2638 29.9901V23.4631C26.3353 23.3253 27.3199 22.8019 28.0335 21.9907C28.747 21.1795 29.1406 20.1362 29.1406 19.0558C29.1406 17.9755 28.747 16.9321 28.0335 16.1209C27.3199 15.3097 26.3353 14.7863 25.2638 14.6485V8.12156C25.2638 8.04274 25.2439 7.96519 25.2059 7.89608C25.168 7.82698 25.1133 7.76855 25.0468 7.72621C24.9803 7.68386 24.9042 7.65897 24.8256 7.65383C24.7469 7.64869 24.6682 7.66347 24.5968 7.6968L14.7307 12.301C11.4686 13.8175 7.91549 14.6057 4.31813 14.611C3.66677 14.6118 3.04231 14.8708 2.58173 15.3314C2.12115 15.792 1.86207 16.4165 1.86133 17.0678V21.0439C1.86207 21.6953 2.12115 22.3197 2.58173 22.7803C3.04231 23.2409 3.66677 23.5 4.31813 23.5007ZM28.2027 19.0559C28.2016 19.8873 27.9057 20.6914 27.3675 21.3251C26.8293 21.9588 26.0838 22.3811 25.2635 22.5168V15.5952C26.0837 15.7309 26.8292 16.1531 27.3674 16.7868C27.9056 17.4205 28.2016 18.2245 28.2027 19.0559ZM8.52125 27.9027C8.52021 28.7514 8.2119 29.5711 7.65331 30.2101C7.09472 30.8491 6.32364 31.2642 5.48266 31.3787V23.5294C6.50151 23.5788 7.51632 23.6913 8.52125 23.8662V27.9027ZM24.3259 29.2542L21.9839 28.1608V9.95094L24.3266 8.85719L24.3259 29.2542ZM15.1271 13.1505L21.0464 10.3884V27.7233L15.1271 24.9611C13.317 24.1187 11.4146 23.4907 9.45875 23.0898V15.0217C11.4146 14.6209 13.317 13.9929 15.1271 13.1505ZM2.79898 17.0678C2.79944 16.665 2.95965 16.2788 3.24448 15.994C3.5293 15.7092 3.91548 15.549 4.31828 15.5485C5.72663 15.5477 7.13249 15.4301 8.52141 15.197V22.9157C7.13249 22.6825 5.72663 22.565 4.31828 22.5641C3.91529 22.5637 3.52893 22.4034 3.24405 22.1184C2.95916 21.8333 2.79904 21.4469 2.79883 21.0439L2.79898 17.0678Z" fill="#006CA9"/>
<path d="M28.5762 25.7996C28.4618 25.8482 28.3714 25.9404 28.325 26.0557C28.2785 26.171 28.2798 26.3001 28.3285 26.4145C28.3772 26.5289 28.4693 26.6192 28.5846 26.6657C28.6999 26.7122 28.829 26.7109 28.9434 26.6622C30.4352 26.0272 31.7074 24.9675 32.6016 23.6151C33.4959 22.2626 33.9726 20.677 33.9726 19.0556C33.9726 17.4343 33.4959 15.8487 32.6016 14.4962C31.7074 13.1437 30.4352 12.0841 28.9434 11.4491C28.829 11.4004 28.6999 11.3991 28.5846 11.4456C28.4693 11.492 28.3772 11.5824 28.3285 11.6968C28.2798 11.8112 28.2785 11.9403 28.325 12.0556C28.3714 12.1709 28.4618 12.263 28.5762 12.3117C29.8989 12.8747 31.0268 13.8142 31.8196 15.0133C32.6124 16.2124 33.0351 17.6181 33.0351 19.0556C33.0351 20.4931 32.6124 21.8989 31.8196 23.098C31.0268 24.2971 29.8989 25.2366 28.5762 25.7996Z" fill="#006CA9"/>
<path d="M30.624 7.69028C30.5097 7.64159 30.3806 7.64033 30.2653 7.68679C30.15 7.73325 30.0578 7.82362 30.0091 7.93801C29.9604 8.05241 29.9592 8.18146 30.0056 8.29678C30.0521 8.4121 30.1425 8.50424 30.2569 8.55294C32.3167 9.42973 34.0732 10.8929 35.3079 12.7603C36.5425 14.6277 37.2008 16.817 37.2008 19.0556C37.2008 21.2943 36.5425 23.4835 35.3079 25.351C34.0732 27.2184 32.3167 28.6815 30.2569 29.5583C30.1425 29.607 30.0521 29.6992 30.0056 29.8145C29.9592 29.9298 29.9604 30.0588 30.0091 30.1732C30.0578 30.2876 30.15 30.378 30.2653 30.4245C30.3806 30.4709 30.5097 30.4697 30.624 30.421C32.8531 29.4722 34.7539 27.8889 36.09 25.8681C37.4261 23.8473 38.1384 21.4782 38.1384 19.0556C38.1384 16.6331 37.4261 14.264 36.09 12.2432C34.7539 10.2224 32.8531 8.63907 30.624 7.69028Z" fill="#006CA9"/>
</svg>
