<svg width="40" height="40" viewBox="0 0 40 40" fill="none" xmlns="http://www.w3.org/2000/svg">
<path d="M37.3057 23.3355C37.3057 19.1643 33.826 15.7708 29.5484 15.7708C26.2066 15.7708 23.3515 17.8424 22.2627 20.7376C20.4232 19.8699 18.4146 19.4205 16.3806 19.4224C12.6704 19.4224 9.2174 20.8636 6.65778 23.4801C4.06505 26.1311 2.63672 29.758 2.63672 33.6935C2.63672 34.0118 2.89487 34.2696 3.21281 34.2696H24.1125V39.4239C24.1125 39.6528 24.2482 39.8601 24.4581 39.9518C24.668 40.0434 24.912 40.0022 25.0801 39.8466L29.5484 35.7076L34.0173 39.8466C34.1854 40.0022 34.4297 40.0434 34.6393 39.9518C34.8492 39.8601 34.9849 39.6528 34.9849 39.4239V28.7264C36.4634 27.3225 37.3025 25.3743 37.3057 23.3355ZM29.5484 16.9229C33.1904 16.9229 36.1535 19.7995 36.1535 23.3355C36.1493 25.0866 35.4167 26.757 34.1317 27.9464C34.0533 27.9898 33.9858 28.0506 33.9346 28.1242C31.4113 30.2891 27.686 30.2891 25.1624 28.1242C25.1116 28.0506 25.0441 27.9895 24.9654 27.9464C23.6804 26.757 22.9478 25.0866 22.9436 23.3355C22.9436 19.7995 25.9063 16.9229 29.5484 16.9229ZM3.80015 33.1171C3.93132 29.7088 5.22688 26.5908 7.48141 24.2858C9.82274 21.8927 12.9829 20.5746 16.3806 20.5746C18.3079 20.572 20.2097 21.0118 21.9399 21.8605C21.4297 24.3706 22.2511 26.9666 24.1125 28.7264V33.1171H3.80015ZM33.8324 38.1042L29.9396 34.4988C29.7188 34.2944 29.3777 34.2944 29.1568 34.4988L25.2643 38.1042V29.6387C27.8725 31.3204 31.2236 31.3204 33.8318 29.6387L33.8324 38.1042Z" fill="#006CA9"/>
<path d="M25.2548 22.6988L27.3534 24.1831L26.5536 26.5778C26.4748 26.814 26.5565 27.0741 26.7564 27.2226C26.9564 27.3712 27.2293 27.3744 27.4325 27.2307L29.5485 25.7348L31.6641 27.2307C31.8676 27.3744 32.1402 27.3712 32.3402 27.2226C32.5402 27.0741 32.6221 26.814 32.5434 26.5778L31.7435 24.1831L33.8421 22.6988C34.0469 22.5538 34.1347 22.2931 34.0585 22.0539C33.9826 21.8147 33.7605 21.6524 33.5094 21.6524H30.8984L30.0947 19.2451C30.0159 19.0098 29.796 18.8513 29.5481 18.8513C29.3003 18.8513 29.0801 19.0098 29.0016 19.2451L28.1979 21.6524H25.5869C25.3358 21.6524 25.1137 21.8147 25.0378 22.0539C24.9619 22.2931 25.0494 22.5538 25.2541 22.6988H25.2548ZM28.6136 22.8046C28.8615 22.8046 29.0814 22.6461 29.1598 22.4107L29.5488 21.2463L29.9375 22.4114C30.0159 22.6464 30.2361 22.8049 30.484 22.8049H31.6976L30.7289 23.4893C30.5216 23.6359 30.4345 23.9011 30.5148 24.1422L30.8935 25.2751L29.8812 24.5592C29.6819 24.4184 29.4154 24.4184 29.2161 24.5592L28.2037 25.2751L28.5824 24.1422C28.6628 23.9014 28.576 23.6362 28.3683 23.4893L27.4003 22.8049L28.6136 22.8046Z" fill="#006CA9"/>
<path d="M7.90332 8.47676C7.90332 13.1585 11.6987 16.9535 16.3801 16.9535C21.0618 16.9535 24.8568 13.1585 24.8568 8.47676C24.8568 3.79506 21.0618 0 16.3801 0C11.701 0.00546514 7.90879 3.79731 7.90332 8.47676ZM23.7047 8.47676C23.7047 12.5219 20.4256 15.8013 16.3801 15.8013C12.3349 15.8013 9.0555 12.5219 9.0555 8.47676C9.0555 4.43159 12.3349 1.15218 16.3801 1.15218C20.4236 1.15668 23.7002 4.43352 23.7047 8.47676Z" fill="#006CA9"/>
</svg>
