<svg width="40" height="40" viewBox="0 0 40 40" fill="none" xmlns="http://www.w3.org/2000/svg">
<path d="M7.85156 38.2323C7.93182 38.2706 8.02121 38.2856 8.10958 38.2757C8.19796 38.2658 8.28179 38.2313 8.35156 38.1762L11.0458 36.0269L13.7391 38.1762C13.8222 38.2425 13.9254 38.2786 14.0318 38.2786C14.1382 38.2786 14.2414 38.2425 14.3245 38.1762L17.0165 36.027L19.7085 38.1762C19.7916 38.2425 19.8947 38.2787 20.0011 38.2787C20.1074 38.2787 20.2105 38.2425 20.2936 38.1762L22.9853 36.027L25.6771 38.1762C25.7602 38.2425 25.8633 38.2786 25.9696 38.2786C26.0759 38.2786 26.179 38.2425 26.2621 38.1762L28.9534 36.027L31.6447 38.1762C31.7278 38.2425 31.8309 38.2786 31.9373 38.2786C32.0101 38.2786 32.0821 38.2628 32.1482 38.2323C32.2287 38.1944 32.2969 38.1347 32.3452 38.0601C32.3935 37.9854 32.42 37.8988 32.4216 37.8098V7.72875C32.4186 7.60696 32.3692 7.49093 32.2834 7.40445L26.9735 1.86453C26.929 1.81862 26.8758 1.78206 26.817 1.75703C26.7582 1.73199 26.6949 1.71898 26.631 1.71875H8.06297C7.93669 1.71874 7.81538 1.76799 7.72484 1.85602C7.6343 1.94405 7.58166 2.06392 7.57812 2.19016V37.8098C7.57975 37.8988 7.60622 37.9854 7.65455 38.0601C7.70287 38.1347 7.77111 38.1944 7.85156 38.2323ZM27.1094 3.35703L30.8388 7.26563H27.1094V3.35703ZM8.51562 2.65625H26.1719V7.72875C26.1707 7.79009 26.1817 7.85106 26.2041 7.90816C26.2266 7.96525 26.2601 8.01733 26.3028 8.06142C26.3455 8.10551 26.3964 8.14072 26.4528 8.16504C26.5091 8.18936 26.5697 8.2023 26.631 8.20313H31.4844V36.8359L29.2537 35.061C29.1699 34.9947 29.0662 34.9585 28.9593 34.9585C28.8524 34.9585 28.7486 34.9947 28.6648 35.061L25.9714 37.2102L23.2787 35.061C23.1955 34.9947 23.0923 34.9586 22.9859 34.9586C22.8796 34.9586 22.7764 34.9947 22.6932 35.061L20.0012 37.2103L17.3092 35.061C17.2262 34.9947 17.123 34.9586 17.0167 34.9586C16.9104 34.9586 16.8073 34.9947 16.7242 35.061L14.0324 37.2103L11.3402 35.061C11.2571 34.9947 11.154 34.9585 11.0477 34.9586C10.9389 34.9585 10.8332 34.9945 10.7472 35.061L8.51562 36.8359V2.65625Z" fill="#006ca9"/>
<path d="M12.8125 17.9688H20.9375V18.9062H12.8125V17.9688Z" fill="#006ca9"/>
<path d="M15.6739 13.9844H15.4194C15.1098 13.9502 14.8232 13.8045 14.6132 13.5745C14.4032 13.3444 14.2842 13.0458 14.2783 12.7344H13.3408C13.3436 13.2221 13.5079 13.6952 13.808 14.0797C14.1082 14.4642 14.5273 14.7384 14.9998 14.8594V15.8594H15.9373V14.893C16.4797 14.7955 16.966 14.4985 17.3004 14.0605C17.6348 13.6224 17.7931 13.075 17.7441 12.5261C17.6951 11.9772 17.4423 11.4665 17.0357 11.0946C16.629 10.7227 16.0978 10.5165 15.5467 10.5166C15.2101 10.514 14.8881 10.3784 14.651 10.1395C14.4139 9.90051 14.2809 9.57753 14.2809 9.2409C14.2809 8.90427 14.4139 8.58128 14.651 8.34232C14.8881 8.10336 15.2101 7.96779 15.5467 7.96516C15.7125 7.96337 15.877 7.99447 16.0308 8.05665C16.1845 8.11883 16.3244 8.21087 16.4423 8.32744C16.5602 8.44401 16.6539 8.5828 16.7179 8.73578C16.7819 8.88877 16.8149 9.05292 16.815 9.21875H17.7525C17.7525 8.20312 16.9679 7.26281 15.9373 7.07812V6.01562H14.9998V7.11117C14.4793 7.24441 14.0253 7.56304 13.7231 8.00726C13.4208 8.45147 13.2911 8.99072 13.3582 9.5238C13.4253 10.0569 13.6847 10.5471 14.0876 10.9026C14.4906 11.258 15.0094 11.4541 15.5467 11.4541C15.8721 11.454 16.1852 11.5789 16.4211 11.8031C16.6571 12.0273 16.7977 12.3337 16.8141 12.6587C16.8304 12.9838 16.7212 13.3027 16.509 13.5494C16.2968 13.7962 15.9978 13.9519 15.6739 13.9844Z" fill="#006ca9"/>
<path d="M12.8125 21.0938H27.1875V22.0312H12.8125V21.0938Z" fill="#006ca9"/>
<path d="M12.8125 24.2188H27.1875V25.1562H12.8125V24.2188Z" fill="#006ca9"/>
<path d="M12.8125 27.3438H27.1875V28.2812H12.8125V27.3438Z" fill="#006ca9"/>
<path d="M12.8125 30.4688H27.1875V31.4062H12.8125V30.4688Z" fill="#006ca9"/>
</svg>
