<svg width="18" height="18" viewBox="0 0 18 18" fill="none" xmlns="http://www.w3.org/2000/svg">
<path d="M15.25 17.125H15.1437C2.86247 16.4187 1.11872 6.05625 0.874972 2.89375C0.855331 2.64786 0.884402 2.40052 0.960518 2.16588C1.03663 1.93125 1.1583 1.71394 1.31855 1.52641C1.47879 1.33888 1.67446 1.1848 1.89435 1.07302C2.11424 0.961244 2.35403 0.893951 2.59997 0.875001H6.04372C6.29407 0.874758 6.53872 0.949694 6.74599 1.0901C6.95326 1.23051 7.11359 1.42992 7.20622 1.6625L8.15622 4C8.24769 4.22722 8.27039 4.4763 8.2215 4.71631C8.17261 4.95631 8.05428 5.17667 7.88122 5.35L6.54997 6.69375C6.75792 7.87547 7.32384 8.96479 8.17116 9.81435C9.01848 10.6639 10.1063 11.2327 11.2875 11.4438L12.6437 10.1C12.8197 9.92885 13.0421 9.81328 13.2833 9.76771C13.5245 9.72214 13.7737 9.74859 14 9.84375L16.3562 10.7875C16.5853 10.8831 16.7807 11.0446 16.9176 11.2517C17.0546 11.4587 17.1267 11.7018 17.125 11.95V15.25C17.125 15.7473 16.9274 16.2242 16.5758 16.5758C16.2242 16.9275 15.7473 17.125 15.25 17.125ZM2.74997 2.125C2.58421 2.125 2.42524 2.19085 2.30803 2.30806C2.19082 2.42527 2.12497 2.58424 2.12497 2.75V2.8C2.41247 6.5 4.25622 15.25 15.2125 15.875C15.2946 15.8801 15.3769 15.8689 15.4547 15.8421C15.5324 15.8153 15.6042 15.7734 15.6657 15.7188C15.7273 15.6642 15.7774 15.598 15.8133 15.524C15.8492 15.45 15.8702 15.3696 15.875 15.2875V11.95L13.5187 11.0062L11.725 12.7875L11.425 12.75C5.98747 12.0688 5.24997 6.63125 5.24997 6.575L5.21247 6.275L6.98747 4.48125L6.04997 2.125H2.74997Z" fill="#2d6aa4"/>
</svg>
