<svg width="29" height="27" viewBox="0 0 29 27" fill="none" xmlns="http://www.w3.org/2000/svg">
<path d="M19.9589 3.43064C19.9589 3.52038 19.9233 3.60645 19.8598 3.6699C19.7964 3.73336 19.7103 3.76901 19.6206 3.76901C19.5308 3.76901 19.4448 3.73336 19.3813 3.6699C19.3178 3.60645 19.2822 3.52038 19.2822 3.43064V1.53438C14.7631 6.95461 9.47335 11.0415 3.54579 13.6874C2.69988 14.0652 1.82949 14.4178 0.958702 14.736C0.916834 14.7519 0.872232 14.7593 0.827478 14.7578C0.782724 14.7563 0.73871 14.746 0.697989 14.7273C0.657267 14.7087 0.620647 14.6822 0.590252 14.6493C0.559858 14.6164 0.536295 14.5778 0.520924 14.5358C0.505552 14.4937 0.49868 14.449 0.500708 14.4043C0.502737 14.3596 0.513622 14.3157 0.532736 14.2752C0.551851 14.2347 0.578815 14.1984 0.612061 14.1684C0.645308 14.1384 0.684177 14.1153 0.726416 14.1005C1.58254 13.7876 2.43827 13.4406 3.2698 13.0694C9.16583 10.4376 14.4239 6.35418 18.9082 0.926732H16.816C16.7263 0.926732 16.6402 0.891083 16.5768 0.827627C16.5133 0.764171 16.4776 0.678106 16.4776 0.588366C16.4776 0.498626 16.5133 0.412561 16.5768 0.349105C16.6402 0.285649 16.7263 0.25 16.816 0.25H19.6206C19.6245 0.25 19.6283 0.250451 19.6322 0.25062C19.6388 0.25062 19.6454 0.250959 19.652 0.251579C19.6572 0.252087 19.6622 0.252932 19.6674 0.253609C19.6725 0.254286 19.679 0.255132 19.6847 0.25626C19.6905 0.257388 19.696 0.258741 19.7013 0.260095C19.7065 0.261448 19.7117 0.262576 19.7168 0.264099C19.722 0.265621 19.7281 0.267764 19.7337 0.269738C19.7394 0.271712 19.7434 0.273122 19.7482 0.275039C19.753 0.276957 19.7595 0.279945 19.7648 0.282596C19.7693 0.284682 19.7738 0.286713 19.7783 0.289025C19.7839 0.292014 19.7896 0.295341 19.7949 0.298668C19.7989 0.301093 19.803 0.303405 19.8069 0.306C19.8126 0.309778 19.8182 0.313895 19.8235 0.317955C19.8266 0.320211 19.8297 0.322185 19.8327 0.324553C19.8332 0.325005 19.8337 0.325568 19.8342 0.32602C19.8393 0.33008 19.844 0.334535 19.8487 0.338877C19.8523 0.342205 19.8561 0.345306 19.8596 0.348746C19.863 0.352187 19.8648 0.354386 19.8675 0.357318C19.8868 0.377819 19.9035 0.400668 19.9172 0.42533L19.9183 0.427135C19.9213 0.432774 19.9239 0.438414 19.9264 0.444053C19.9285 0.448508 19.9308 0.45285 19.9327 0.457418C19.9337 0.459618 19.9343 0.461986 19.9352 0.464242C19.9445 0.487862 19.9511 0.512456 19.9549 0.537555C19.9557 0.542518 19.9566 0.54748 19.9571 0.552443C19.9576 0.557406 19.9576 0.560958 19.9579 0.565188C19.9584 0.572237 19.959 0.579343 19.959 0.586449V0.588366L19.9589 3.43064Z" fill="#ffffff"/>
<path d="M0.842339 18.4665H6.81343V14.3747C6.81343 14.285 6.84908 14.1989 6.91253 14.1354C6.97599 14.072 7.06205 14.0363 7.15179 14.0363H13.98V9.36897C13.98 9.27922 14.0157 9.19316 14.0791 9.1297C14.1426 9.06625 14.2286 9.0306 14.3184 9.0306H20.9182V4.06542C20.9182 3.97568 20.9539 3.88961 21.0173 3.82616C21.0808 3.7627 21.1668 3.72705 21.2566 3.72705H27.6983C27.7874 3.72705 27.873 3.76224 27.9364 3.82498C27.9997 3.88771 28.0358 3.97293 28.0366 4.06209L28.25 25.9625C28.2504 26.0073 28.242 26.0516 28.2252 26.093C28.2084 26.1345 28.1835 26.1722 28.152 26.2039C28.1206 26.2357 28.0831 26.2609 28.0419 26.2781C28.0006 26.2953 27.9563 26.3042 27.9116 26.3042H0.842339C0.752598 26.3042 0.666533 26.2685 0.603077 26.2051C0.539621 26.1416 0.503971 26.0556 0.503971 25.9658V18.8049C0.503971 18.7151 0.539621 18.6291 0.603077 18.5656C0.666533 18.5021 0.752598 18.4665 0.842339 18.4665ZM7.49016 14.7131V18.8049L7.57712 25.6275H13.98V14.7131H7.49016ZM14.6568 9.70733V25.6275H20.9182V9.70733H14.6568ZM27.3632 4.40378H21.5949V25.6275H27.5699L27.3632 4.40378ZM1.1807 25.6275H6.90039L6.81771 19.1432H1.1807V25.6275Z" fill="#ffffff"/>
</svg>
