<svg width="30" height="30" viewBox="0 0 30 30" fill="none" xmlns="http://www.w3.org/2000/svg">
<path d="M3.82781 17.0423L5.95699 17.2473C6.18475 18.1524 6.54896 19.0176 7.03711 19.8131L5.68154 21.45C5.61639 21.5286 5.58292 21.6288 5.5877 21.7308C5.59248 21.8328 5.63516 21.9294 5.70738 22.0016L8.01275 24.307C8.08497 24.3792 8.18154 24.4219 8.28357 24.4267C8.3856 24.4315 8.48575 24.398 8.56441 24.3329L10.2041 22.9749C11 23.4608 11.8637 23.8256 12.7669 24.0573L12.972 26.1793C12.9822 26.2799 13.0297 26.3732 13.1053 26.4404C13.1809 26.5077 13.279 26.5442 13.3802 26.5425H16.6486C16.7498 26.5442 16.8479 26.5077 16.9235 26.4404C16.9991 26.3732 17.0467 26.2799 17.0568 26.1793L17.2619 24.0538C18.1669 23.8267 19.0321 23.4632 19.8276 22.9756L21.4645 24.3322C21.5431 24.3974 21.6432 24.4309 21.7452 24.4262C21.8473 24.4215 21.9439 24.3789 22.0161 24.3067L24.3215 22.0016C24.3937 21.9294 24.4363 21.8329 24.4411 21.7309C24.4459 21.6289 24.4125 21.5288 24.3473 21.4501L22.9897 19.8104C23.4757 19.0144 23.8404 18.1506 24.0721 17.2472L26.1727 17.0422C26.274 17.0323 26.3681 16.985 26.4366 16.9095C26.505 16.8341 26.543 16.7359 26.543 16.634V13.3656C26.543 13.2637 26.505 13.1654 26.4364 13.0899C26.3679 13.0144 26.2737 12.9671 26.1722 12.9574L24.043 12.7523C23.8153 11.8472 23.451 10.982 22.9629 10.1866L24.3185 8.54964C24.3833 8.47132 24.4168 8.37171 24.4123 8.27012C24.4079 8.16853 24.3659 8.07221 24.2944 7.99985L22.0182 5.69448C21.9462 5.62148 21.8493 5.57815 21.7469 5.57301C21.6444 5.56788 21.5438 5.60134 21.4648 5.66677L19.8251 7.02468C19.0292 6.53879 18.1655 6.17402 17.2622 5.94233L17.0572 3.82036C17.047 3.71967 16.9994 3.62646 16.9238 3.55919C16.8482 3.49191 16.7501 3.45547 16.6489 3.45708H13.3806C13.2794 3.45547 13.1813 3.49191 13.1057 3.55919C13.0301 3.62646 12.9825 3.71967 12.9724 3.82036L12.7673 5.94585C11.8623 6.17288 10.9972 6.53643 10.2017 7.02397L8.56441 5.66771C8.48581 5.60249 8.3857 5.56895 8.28367 5.57364C8.18165 5.57833 8.08504 5.62092 8.01275 5.69308L5.70738 7.99821C5.63519 8.07043 5.59254 8.16698 5.58776 8.26899C5.58298 8.37099 5.61642 8.4711 5.68154 8.54976L7.03945 10.1893C6.55359 10.9851 6.18881 11.8488 5.95711 12.752L3.82781 12.9571C3.72628 12.9669 3.63203 13.0142 3.56348 13.0897C3.49492 13.1653 3.45697 13.2636 3.45703 13.3656V16.634C3.45703 16.736 3.495 16.8343 3.56355 16.9098C3.63211 16.9852 3.72632 17.0325 3.82781 17.0423ZM4.27734 13.7382L6.32865 13.5405C6.41523 13.5321 6.49691 13.4965 6.56189 13.4387C6.62688 13.3808 6.6718 13.3039 6.69018 13.2189C6.91507 12.2074 7.32112 11.2449 7.88871 10.378C7.93598 10.3047 7.95868 10.2183 7.95352 10.1313C7.94836 10.0443 7.9156 9.96116 7.86 9.89401L6.55148 8.31427L8.32881 6.53694L9.90879 7.84552C9.97675 7.9018 10.061 7.93466 10.1492 7.93923C10.2373 7.9438 10.3245 7.91984 10.3979 7.87089C11.2608 7.29986 12.2225 6.89451 13.2339 6.67558C13.3184 6.65879 13.3952 6.6153 13.4531 6.55152C13.511 6.48773 13.5469 6.40704 13.5555 6.32132L13.7529 4.27716H16.2762L16.4739 6.32114C16.4824 6.40729 16.5182 6.48848 16.576 6.55286C16.6339 6.61724 16.7108 6.66145 16.7955 6.67903C17.8069 6.90328 18.7694 7.30872 19.6364 7.87575C19.7098 7.9229 19.7962 7.94544 19.8832 7.94011C19.9703 7.93477 20.0533 7.90185 20.1204 7.8461L21.6986 6.53888L23.45 8.31257L22.14 9.8946C22.0837 9.96256 22.0509 10.0468 22.0463 10.1349C22.0418 10.2231 22.0657 10.3103 22.1147 10.3837C22.6857 11.2466 23.091 12.2083 23.31 13.2196C23.3284 13.3046 23.3733 13.3816 23.4383 13.4394C23.5033 13.4972 23.585 13.5328 23.6715 13.5412L25.7227 13.7382V16.2619L23.7001 16.4592C23.6136 16.4676 23.532 16.5033 23.4671 16.5611C23.4022 16.6189 23.3574 16.6958 23.339 16.7808C23.1141 17.7923 22.708 18.7547 22.1405 19.6216C22.0932 19.6949 22.0705 19.7813 22.0757 19.8683C22.0808 19.9553 22.1136 20.0385 22.1692 20.1056L23.4777 21.6854L21.7004 23.4627L20.1204 22.1542C20.0524 22.0979 19.9681 22.065 19.88 22.0604C19.7919 22.0559 19.7047 22.0798 19.6313 22.1288C18.7683 22.6998 17.8066 23.1052 16.7953 23.3241C16.7108 23.3409 16.634 23.3844 16.576 23.4482C16.5181 23.5119 16.4823 23.5926 16.4737 23.6784L16.2762 25.7225H13.7529L13.5553 23.6785C13.5468 23.5923 13.511 23.5111 13.4532 23.4468C13.3953 23.3824 13.3184 23.3382 13.2336 23.3206C12.2222 23.0963 11.2598 22.6909 10.3928 22.1239C10.3194 22.0767 10.233 22.0542 10.1459 22.0595C10.0589 22.0648 9.97584 22.0978 9.90879 22.1535L8.32881 23.4624L6.55148 21.6854L7.86 20.1054C7.91626 20.0375 7.9491 19.9532 7.95366 19.8651C7.95822 19.777 7.93425 19.6898 7.88531 19.6164C7.31431 18.7534 6.90897 17.7917 6.69 16.7804C6.67162 16.6954 6.62669 16.6184 6.5617 16.5606C6.49672 16.5028 6.41505 16.4672 6.32848 16.4589L4.27734 16.2615V13.7382Z" fill="#ffffff"/>
<path d="M15.0147 21.7734C16.3544 21.7734 17.6639 21.3762 18.7778 20.6319C19.8917 19.8876 20.7598 18.8297 21.2725 17.592C21.7852 16.3544 21.9193 14.9924 21.6579 13.6785C21.3966 12.3646 20.7515 11.1577 19.8042 10.2104C18.8569 9.26316 17.65 8.61806 16.3361 8.35671C15.0221 8.09536 13.6602 8.2295 12.4226 8.74217C11.1849 9.25483 10.127 10.123 9.38274 11.2369C8.63847 12.3508 8.24121 13.6603 8.24121 15C8.24326 16.7958 8.95755 18.5175 10.2274 19.7873C11.4972 21.0571 13.2189 21.7714 15.0147 21.7734ZM15.0147 9.04688C16.1921 9.04689 17.3431 9.39604 18.3221 10.0502C19.301 10.7043 20.0641 11.6341 20.5146 12.7219C20.9652 13.8097 21.0831 15.0066 20.8534 16.1614C20.6237 17.3162 20.0567 18.377 19.2241 19.2095C18.3916 20.0421 17.3308 20.609 16.176 20.8387C15.0212 21.0684 13.8243 20.9505 12.7365 20.5C11.6487 20.0494 10.7189 19.2864 10.0648 18.3074C9.41067 17.3284 9.06152 16.1774 9.06152 15C9.06334 13.4217 9.69113 11.9085 10.8072 10.7925C11.9232 9.67646 13.4364 9.04868 15.0147 9.04688Z" fill="#ffffff"/>
</svg>
