<svg width="30" height="30" viewBox="0 0 30 30" fill="none" xmlns="http://www.w3.org/2000/svg">
<path d="M5.88867 28.6742C5.94886 28.7029 6.0159 28.7142 6.08219 28.7068C6.14847 28.6994 6.21134 28.6735 6.26367 28.6321L8.28434 27.0202L10.3043 28.6321C10.3667 28.6819 10.4441 28.709 10.5238 28.709C10.6036 28.709 10.681 28.6819 10.7434 28.6321L12.7624 27.0202L14.7814 28.6321C14.8437 28.6819 14.9211 28.709 15.0008 28.709C15.0805 28.709 15.1579 28.6819 15.2202 28.6321L17.239 27.0202L19.2578 28.6321C19.3201 28.6819 19.3975 28.709 19.4772 28.709C19.5569 28.709 19.6343 28.6819 19.6966 28.6321L21.7151 27.0202L23.7335 28.6321C23.7958 28.6819 23.8732 28.709 23.9529 28.7089C24.0076 28.7089 24.0616 28.6971 24.1112 28.6742C24.1715 28.6458 24.2227 28.6011 24.2589 28.5451C24.2952 28.4891 24.315 28.4241 24.3162 28.3574V5.79656C24.314 5.70522 24.2769 5.6182 24.2125 5.55334L20.2301 1.3984C20.1968 1.36396 20.1569 1.33655 20.1127 1.31777C20.0686 1.29899 20.0212 1.28923 19.9733 1.28906H6.04723C5.95252 1.28906 5.86154 1.32599 5.79363 1.39201C5.72572 1.45804 5.68625 1.54794 5.68359 1.64262V28.3574C5.68481 28.4241 5.70467 28.4891 5.74091 28.5451C5.77715 28.6011 5.82833 28.6458 5.88867 28.6742ZM20.332 2.51777L23.1291 5.44922H20.332V2.51777ZM6.38672 1.99219H19.6289V5.79656C19.628 5.84257 19.6362 5.8883 19.6531 5.93112C19.6699 5.97394 19.6951 6.013 19.7271 6.04607C19.7591 6.07913 19.7973 6.10554 19.8396 6.12378C19.8818 6.14202 19.9273 6.15173 19.9733 6.15234H23.6133V27.627L21.9403 26.2958C21.8775 26.246 21.7996 26.2189 21.7194 26.2189C21.6393 26.2189 21.5614 26.246 21.4986 26.2958L19.4786 27.9077L17.459 26.2958C17.3966 26.246 17.3192 26.2189 17.2395 26.2189C17.1597 26.2189 17.0823 26.246 17.0199 26.2958L15.0009 27.9077L12.9819 26.2958C12.9196 26.246 12.8423 26.2189 12.7625 26.2189C12.6828 26.2189 12.6055 26.246 12.5432 26.2958L10.5243 27.9077L8.50512 26.2958C8.44284 26.246 8.36547 26.2189 8.28574 26.2189C8.20418 26.2188 8.12491 26.2459 8.06039 26.2958L6.38672 27.627V1.99219Z" fill="#006CA9"/>
<path d="M9.60938 13.4766H15.7031V14.1797H9.60938V13.4766Z" fill="#006CA9"/>
<path d="M11.7557 10.4883H11.5648C11.3326 10.4627 11.1177 10.3534 10.9602 10.1809C10.8027 10.0083 10.7134 9.78435 10.709 9.55078H10.0059C10.0079 9.9166 10.1311 10.2714 10.3563 10.5598C10.5814 10.8481 10.8957 11.0538 11.2501 11.1445V11.8945H11.9532V11.1697C12.36 11.0966 12.7247 10.8739 12.9755 10.5453C13.2263 10.2168 13.345 9.80627 13.3083 9.39458C13.2715 8.98289 13.082 8.59987 12.777 8.32094C12.472 8.04201 12.0736 7.88737 11.6603 7.88748C11.4078 7.88551 11.1663 7.78383 10.9885 7.60461C10.8107 7.42538 10.7109 7.18315 10.7109 6.93067C10.7109 6.6782 10.8107 6.43596 10.9885 6.25674C11.1663 6.07752 11.4078 5.97584 11.6603 5.97387C11.7846 5.97253 11.908 5.99585 12.0233 6.04249C12.1386 6.08913 12.2435 6.15815 12.332 6.24558C12.4204 6.33301 12.4907 6.4371 12.5387 6.55184C12.5866 6.66658 12.6114 6.78969 12.6115 6.91406H13.3147C13.3147 6.15234 12.7261 5.44711 11.9532 5.30859V4.51172H11.2501V5.33338C10.8597 5.43331 10.5192 5.67228 10.2925 6.00544C10.0658 6.3386 9.96855 6.74304 10.0189 7.14285C10.0692 7.54266 10.2638 7.91035 10.566 8.17691C10.8682 8.44347 11.2573 8.59057 11.6603 8.59061C11.9044 8.59047 12.1392 8.68417 12.3161 8.85233C12.493 9.0205 12.5986 9.25024 12.6108 9.49403C12.6231 9.73782 12.5411 9.977 12.382 10.1621C12.2228 10.3471 11.9986 10.4639 11.7557 10.4883Z" fill="#006CA9"/>
<path d="M9.60938 15.8203H20.3906V16.5234H9.60938V15.8203Z" fill="#006CA9"/>
<path d="M9.60938 18.1641H20.3906V18.8672H9.60938V18.1641Z" fill="#006CA9"/>
<path d="M9.60938 20.5078H20.3906V21.2109H9.60938V20.5078Z" fill="#006CA9"/>
<path d="M9.60938 22.8516H20.3906V23.5547H9.60938V22.8516Z" fill="#006CA9"/>
</svg>
