<svg width="41" height="40" viewBox="0 0 41 40" fill="none" xmlns="http://www.w3.org/2000/svg">
<path d="M7.62289 36.3376H33.0159C33.2461 36.3376 33.4327 36.151 33.4327 35.9208V3.41684C33.4327 3.18662 33.2464 3 33.0159 3H7.62289C7.39267 3 7.20605 3.18662 7.20605 3.41684V35.9208C7.20635 36.1507 7.39267 36.3374 7.62289 36.3374V36.3376ZM8.03973 3.83367H32.5993V35.5042H8.03973V3.83367Z" fill="#006CA9"/>
<path d="M28.4207 25.812H12.2186C11.9884 25.812 11.8018 25.9986 11.8018 26.2289C11.8018 26.4591 11.9881 26.6457 12.2186 26.6457H28.4207C28.6509 26.6457 28.8376 26.4591 28.8376 26.2289C28.8373 25.9986 28.6509 25.812 28.4207 25.812Z" fill="#006CA9"/>
<path d="M28.4207 30.375H12.2186C11.9884 30.375 11.8018 30.5616 11.8018 30.7918C11.8018 31.0221 11.9881 31.2087 12.2186 31.2087H28.4207C28.6509 31.2087 28.8376 31.0221 28.8376 30.7918C28.8373 30.5613 28.6509 30.375 28.4207 30.375Z" fill="#006CA9"/>
<path d="M28.4204 20.0594H27.2574V8.27377C27.2574 8.04355 27.071 7.85693 26.8405 7.85693H22.2798C22.0495 7.85693 21.8629 8.04355 21.8629 8.27377V20.0602L18.737 20.0599V10.3995C18.737 10.1693 18.5506 9.98265 18.3201 9.98265H13.7594C13.5291 9.98265 13.3425 10.1693 13.3425 10.3995V20.0599H12.2176C11.9874 20.0599 11.8008 20.2465 11.8008 20.4767C11.8008 20.7069 11.9871 20.8936 12.2176 20.8936H28.4197C28.65 20.8936 28.8366 20.7069 28.8366 20.4767C28.8366 20.2462 28.6503 20.0596 28.42 20.0596L28.4204 20.0594ZM17.9035 20.0594H14.1761V10.8157H17.9035V20.0594ZM26.4238 20.0594H22.6965L22.6967 8.68974H26.4241L26.4238 20.0594Z" fill="#006CA9"/>
</svg>
