<svg width="30" height="30" viewBox="0 0 30 30" fill="none" xmlns="http://www.w3.org/2000/svg">
<path d="M15 0.000133444C11.0216 0.000133444 7.20675 1.58057 4.39356 4.3937C1.58037 7.20682 0 11.022 0 15.0001C0 18.9782 1.58044 22.7934 4.39356 25.6066C7.20669 28.4198 11.0219 30.0001 15 30.0001C18.9781 30.0001 22.7932 28.4197 25.6064 25.6066C28.4196 22.7934 30 18.9782 30 15.0001C29.9951 11.0233 28.4131 7.21089 25.601 4.39903C22.7889 1.58697 18.9766 0.00499738 14.9999 0L15 0.000133444ZM15.3732 29.2468V26.8475C15.3732 26.6414 15.2061 26.4743 15 26.4743C14.7939 26.4743 14.6268 26.6414 14.6268 26.8475V29.2468C10.9787 29.1479 7.50716 27.6544 4.92651 25.074C2.34606 22.4933 0.85258 19.0217 0.753698 15.3737H3.15297C3.35912 15.3737 3.52622 15.2066 3.52622 15.0005C3.52622 14.7943 3.35912 14.6272 3.15297 14.6272H0.753698C0.853646 10.9794 2.34713 7.50832 4.92758 4.92767C7.50802 2.34722 10.9791 0.853739 14.6272 0.753791V3.15307C14.6272 3.35921 14.7943 3.52631 15.0004 3.52631C15.2065 3.52631 15.3736 3.35921 15.3736 3.15307V0.753791C19.0215 0.853739 22.4926 2.34722 25.0732 4.92767C27.6537 7.50812 29.1472 10.9792 29.2471 14.6272H26.8478C26.6417 14.6272 26.4746 14.7943 26.4746 15.0005C26.4746 15.2066 26.6417 15.3737 26.8478 15.3737H29.2471C29.1482 19.0218 27.6547 22.4933 25.0743 25.074C22.4936 27.6544 19.022 29.1479 15.374 29.2468H15.3732Z" fill="#006CA9"/>
<path d="M20.4369 15.5938H14.3287L10.3284 8.46283C10.2254 8.28272 9.9958 8.21999 9.81542 8.32305C9.63505 8.42613 9.57258 8.65569 9.67565 8.83606L13.7803 16.1682H13.78C13.8461 16.2856 13.97 16.3582 14.1046 16.3585H20.4481C20.654 16.3585 20.8211 16.1914 20.8211 15.9855C20.8211 15.7794 20.654 15.6123 20.4481 15.6123L20.4369 15.5938Z" fill="#006CA9"/>
</svg>
