<svg width="15" height="15" viewBox="0 0 15 15" fill="none" xmlns="http://www.w3.org/2000/svg">
<path d="M1.68525 13.3334H2.31214C2.41108 13.3334 2.49128 13.2532 2.49128 13.1542C2.49128 13.0553 2.4112 12.9751 2.31214 12.9751H1.68525C1.58631 12.9751 1.5061 13.0553 1.5061 13.1542C1.5061 13.2532 1.58618 13.3334 1.68525 13.3334Z" fill="#006CA9"/>
<path d="M3.40717 13.3334H4.03406C4.133 13.3334 4.2132 13.2532 4.2132 13.1542C4.2132 13.0553 4.13313 12.9751 4.03406 12.9751H3.40717C3.30823 12.9751 3.22803 13.0553 3.22803 13.1542C3.22803 13.2532 3.3081 13.3334 3.40717 13.3334Z" fill="#006CA9"/>
<path d="M5.12861 13.3334H5.7555C5.85444 13.3334 5.93464 13.2532 5.93464 13.1542C5.93464 13.0553 5.85456 12.9751 5.7555 12.9751H5.12861C5.02966 12.9751 4.94946 13.0553 4.94946 13.1542C4.94959 13.2532 5.02966 13.3334 5.12861 13.3334Z" fill="#006CA9"/>
<path d="M6.85053 13.3334H7.47742C7.57636 13.3334 7.65656 13.2532 7.65656 13.1542C7.65656 13.0553 7.57649 12.9751 7.47742 12.9751H6.85053C6.75159 12.9751 6.67139 13.0553 6.67139 13.1542C6.67151 13.2532 6.75159 13.3334 6.85053 13.3334Z" fill="#006CA9"/>
<path d="M8.57233 13.3334H9.19922C9.29816 13.3334 9.37836 13.2532 9.37836 13.1542C9.37836 13.0553 9.29829 12.9751 9.19922 12.9751H8.57233C8.47339 12.9751 8.39319 13.0553 8.39319 13.1542C8.39331 13.2532 8.47339 13.3334 8.57233 13.3334Z" fill="#006CA9"/>
<path d="M10.2943 13.3334H10.9211C11.0201 13.3334 11.1003 13.2532 11.1003 13.1542C11.1003 13.0553 11.0202 12.9751 10.9211 12.9751H10.2943C10.1953 12.9751 10.1151 13.0553 10.1151 13.1542C10.1151 13.2532 10.1952 13.3334 10.2943 13.3334Z" fill="#006CA9"/>
<path d="M12.0157 13.3334H12.6426C12.7415 13.3334 12.8217 13.2532 12.8217 13.1542C12.8217 13.0553 12.7416 12.9751 12.6426 12.9751H12.0157C11.9167 12.9751 11.8365 13.0553 11.8365 13.1542C11.8365 13.2532 11.9166 13.3334 12.0157 13.3334Z" fill="#006CA9"/>
<path d="M0.179323 1.93533H8.58197V3.77097C8.58197 3.81956 8.60171 3.86616 8.63694 3.89989L9.59486 4.82282C9.62809 4.85505 9.67269 4.87292 9.71903 4.87292H11.0093V5.31464C9.55165 5.40771 8.39333 6.61984 8.39333 8.10058C8.39333 9.07114 8.88753 9.95809 9.71555 10.4732C9.7559 10.4984 9.80437 10.5064 9.85122 10.4954C9.89756 10.4844 9.93779 10.4556 9.96265 10.415L10.4319 9.6518C10.4835 9.56785 10.4576 9.45792 10.374 9.40595C9.91568 9.12075 9.64196 8.63016 9.64196 8.09349C9.64196 7.24088 10.3358 6.54715 11.1884 6.54715C12.041 6.54715 12.7346 7.24085 12.7346 8.09349C12.7346 8.63029 12.4609 9.12087 12.0025 9.40595C11.919 9.45792 11.8931 9.56785 11.9447 9.6518L12.4139 10.415C12.4388 10.4556 12.479 10.4845 12.5253 10.4954C12.539 10.4987 12.5526 10.5003 12.5664 10.5003C12.5997 10.5003 12.6324 10.4912 12.661 10.4733C13.489 9.95825 13.9832 9.07139 13.9832 8.10071C13.9832 6.61996 12.8249 5.40782 11.3675 5.31476V4.87304H12.6575C12.7039 4.87304 12.7485 4.85505 12.7817 4.82295L13.7398 3.90001C13.7749 3.86628 13.7947 3.81969 13.7947 3.77109L13.7945 1.93533H14.1484C14.2473 1.93533 14.3275 1.85512 14.3275 1.75618V0.179144C14.3275 0.0802016 14.2474 0 14.1484 0H0.179144C0.0802016 0 0 0.0802016 0 0.179144V1.75631C0 1.85513 0.0800768 1.93533 0.179144 1.93533H0.179323ZM13.625 8.10059C13.625 8.88636 13.253 9.60958 12.6212 10.0684L12.3388 9.60894C12.814 9.24954 13.0927 8.69499 13.0927 8.09334C13.0927 7.04321 12.2383 6.18885 11.1882 6.18885C10.138 6.18885 9.2836 7.04321 9.2836 8.09334C9.2836 8.69496 9.56243 9.24951 10.0375 9.60894L9.75518 10.0684C9.12343 9.60942 8.7514 8.88636 8.7514 8.10059C8.7514 6.75702 9.8445 5.66382 11.1882 5.66382C12.5319 5.66382 13.625 6.75692 13.625 8.10059H13.625ZM8.94015 3.6946V2.64099L10.8138 4.51462H9.79126L8.94015 3.6946ZM11.3202 4.51462L8.94015 2.13454V1.93516H10.0224L12.5937 4.50648L12.5852 4.5146L11.3202 4.51462ZM12.8517 4.25802L10.529 1.93516H11.8442L13.4365 3.52719V3.6946L12.8517 4.25802ZM13.4365 3.02075L12.3507 1.93516H13.4365V3.02075ZM0.358544 0.357958H13.9696V1.57697H0.358544V0.357958Z" fill="#006CA9"/>
<path d="M1.17333 14.3272H13.1546C13.8014 14.3272 14.3277 13.8009 14.3277 13.1541C14.3277 12.5072 13.8014 11.9809 13.1546 11.9809H12.3444V11.2865C12.3444 10.7907 11.9409 10.3872 11.4449 10.3872H10.9316C10.4356 10.3872 10.0321 10.7907 10.0321 11.2867V11.981H8.32028V11.2867C8.32016 10.7907 7.91678 10.3872 7.42069 10.3872H6.90724C6.41128 10.3872 6.00778 10.7907 6.00778 11.2867V11.981H4.29594V11.2867C4.29582 10.7907 3.89244 10.3872 3.39635 10.3872H2.88303C2.38707 10.3872 1.98357 10.7907 1.98357 11.2867V11.981H1.1733C0.526553 11.981 0.000244141 12.5073 0.000244141 13.1541C0.000244141 13.8009 0.526553 14.3272 1.1733 14.3272H1.17333ZM10.3902 11.2867C10.3902 10.9883 10.6329 10.7454 10.9315 10.7454H11.4448C11.7434 10.7454 11.9861 10.9882 11.9861 11.2867V11.981H10.3902L10.3902 11.2867ZM6.36574 11.2867C6.36574 10.9883 6.60847 10.7454 6.90705 10.7454H7.4205C7.71907 10.7454 7.96181 10.9882 7.96181 11.2867V11.981H6.36577L6.36574 11.2867ZM2.34159 11.2867C2.34159 10.9883 2.58432 10.7454 2.8829 10.7454H3.39622C3.69479 10.7454 3.93753 10.9882 3.93753 11.2867V11.981H2.34162L2.34159 11.2867ZM1.17317 12.3392H13.1545C13.6038 12.3392 13.9693 12.7047 13.9693 13.1541C13.9693 13.6036 13.6038 13.9691 13.1545 13.9691H1.17317C0.723811 13.9691 0.358302 13.6035 0.358302 13.1541C0.358302 12.7047 0.723843 12.3392 1.17317 12.3392Z" fill="#006CA9"/>
</svg>
