<svg width="30" height="30" viewBox="0 0 30 30" fill="none" xmlns="http://www.w3.org/2000/svg">
<path d="M11.1112 10.1162C10.8708 10.1164 10.6407 10.2145 10.4708 10.3883C10.3012 10.5623 10.2058 10.798 10.2056 11.0439V13.1361V13.1358C10.2058 13.3818 10.3012 13.6174 10.4708 13.7914C10.6407 13.9654 10.8708 14.0633 11.1112 14.0637H14.5245C14.7653 14.064 14.9961 13.9664 15.1664 13.7924C15.3367 13.6184 15.4326 13.3822 15.4326 13.1359V11.0437V11.0439C15.4326 10.7975 15.3367 10.5614 15.1664 10.3874C14.9961 10.2134 14.7653 10.1158 14.5245 10.1163L11.1112 10.1162ZM11.1112 10.6513H14.5245C14.6263 10.651 14.724 10.6924 14.7959 10.766C14.868 10.8398 14.9082 10.9397 14.9082 11.0439V13.1361V13.1358C14.9078 13.3523 14.7361 13.5275 14.5245 13.5273H11.1112C10.9 13.5268 10.7292 13.3519 10.7288 13.136V11.0439C10.7283 10.8274 10.8996 10.6517 11.1112 10.6513V10.6513Z" fill="#006CA9"/>
<path d="M18.314 10.1162C18.0734 10.1162 17.8428 10.2138 17.6727 10.3878C17.5026 10.5618 17.4072 10.7977 17.4072 11.0439V13.1361V13.1358C17.4072 13.382 17.5026 13.6179 17.6727 13.7919C17.8428 13.9659 18.0734 14.0635 18.314 14.0638H21.7273C21.9677 14.0635 22.1985 13.9659 22.3683 13.7919C22.5384 13.6179 22.6341 13.382 22.6341 13.1358V11.0437V11.0439C22.6341 10.7977 22.5384 10.5619 22.3683 10.3878C22.1985 10.2138 21.9677 10.1162 21.7273 10.1162H18.314ZM18.314 10.6513H21.7273C21.9389 10.6517 22.1101 10.8274 22.1097 11.0439V13.1361V13.1358C22.1092 13.3519 21.9382 13.5268 21.7273 13.5273H18.314C18.1028 13.5268 17.9318 13.3519 17.9316 13.1361V11.0439C17.9312 10.8274 18.1024 10.6517 18.314 10.6513V10.6513Z" fill="#006CA9"/>
<path d="M5.14256 0.00085509C4.86382 0.0122995 4.59992 0.132811 4.40544 0.337639C4.21117 0.542467 4.10091 0.815725 4.09771 1.10116V2.82944H1.55278C1.14118 2.82944 0.746239 2.99643 0.455203 3.29421C0.163909 3.59176 0.00022792 3.99554 0 4.41664V23.1625C0 23.5839 0.163454 23.9882 0.454741 24.2859C0.745807 24.584 1.14096 24.7512 1.55279 24.7512H20.2621C20.1943 26.0565 20.6305 27.3366 21.4765 28.3161C22.3226 29.2957 23.511 29.8959 24.7855 29.9877C26.0601 30.0795 27.3188 29.6556 28.2907 28.8068C29.2625 27.9584 29.8697 26.7532 29.9813 25.4511C30.093 24.1489 29.7003 22.854 28.8879 21.8451C28.0754 20.8364 26.9079 20.1946 25.6373 20.0577V4.41666C25.6371 3.99556 25.4734 3.59174 25.1823 3.29422C24.891 2.99667 24.4964 2.82945 24.0848 2.82968H21.5398V1.10116C21.528 0.711595 21.3179 0.356838 20.986 0.165331C20.6541 -0.0259487 20.2487 -0.0259487 19.9167 0.165331C19.5848 0.356844 19.375 0.711613 19.3631 1.10116V2.82945L13.9071 2.82968V1.10116C13.8969 0.710417 13.6873 0.354022 13.3547 0.161559C13.0223 -0.0308929 12.6155 -0.0308929 12.2829 0.161559C11.9505 0.35401 11.7407 0.710411 11.7304 1.10116V2.82944L6.27466 2.82967V1.10115C6.27124 0.800336 6.14911 0.513763 5.93589 0.306364C5.7229 0.0992044 5.43685 -0.0110362 5.14284 0.000873906L5.14256 0.00085509ZM5.15762 0.535926C5.17634 0.534992 5.19529 0.534992 5.21401 0.535926C5.51032 0.55064 5.745 0.79774 5.75116 1.10113V5.09305C5.7418 5.40532 5.49183 5.65358 5.18638 5.65358C4.88116 5.65358 4.63119 5.40532 4.62183 5.09305V1.10113C4.628 0.798206 4.86176 0.55134 5.15762 0.535926H5.15762ZM12.7888 0.535926C12.8076 0.534992 12.8263 0.534992 12.845 0.535926C13.142 0.550173 13.3774 0.797273 13.3835 1.10113V5.09305C13.3835 5.41256 13.1304 5.67133 12.8183 5.67133C12.5062 5.67133 12.2531 5.41256 12.2531 5.09305V1.10113C12.259 0.798206 12.493 0.55134 12.7888 0.535926H12.7888ZM20.4212 0.535926C20.44 0.534992 20.4587 0.534992 20.4774 0.535926C20.7739 0.55064 21.0084 0.79774 21.0146 1.10113V5.09305C21.0054 5.40532 20.7552 5.65358 20.45 5.65358C20.1448 5.65358 19.8946 5.40532 19.8854 5.09305V1.10113C19.8914 0.798206 20.1254 0.55134 20.4212 0.535926H20.4212ZM1.5524 3.3647H4.09756V5.09299H4.09733C4.1092 5.48255 4.31923 5.83755 4.65115 6.02882C4.98285 6.2201 5.3885 6.2201 5.72022 6.02882C6.05214 5.83754 6.26216 5.48254 6.27404 5.09299V3.3647H11.7298V5.09299C11.7401 5.48373 11.9496 5.84036 12.2822 6.03282C12.6149 6.22529 13.0214 6.22527 13.3541 6.03282C13.6867 5.84037 13.8962 5.48374 13.9065 5.09299V3.3647H19.3623V5.09299C19.3741 5.48255 19.5842 5.83755 19.9161 6.02882C20.248 6.22009 20.6534 6.2201 20.9854 6.02882C21.3173 5.83754 21.5271 5.48254 21.539 5.09299V3.3647H24.0841C24.3567 3.3647 24.6183 3.47564 24.8112 3.67276C25.0039 3.87011 25.1123 4.13776 25.1123 4.4166V7.06744H0.523842V4.4166C0.523842 4.13774 0.632279 3.87009 0.825175 3.67276C1.01785 3.47564 1.27946 3.3647 1.55206 3.3647H1.5524ZM0.524187 7.60392H25.1121V20.03C23.9576 20.0331 22.842 20.4556 21.9638 21.2219C21.0854 21.9882 20.5016 23.0488 20.3163 24.2144H1.55205C1.27947 24.2144 1.01786 24.1035 0.825158 23.9061C0.632256 23.709 0.523825 23.4414 0.523825 23.1625L0.524187 7.60392ZM25.0127 20.552H25.0125C26.1874 20.5207 27.325 20.9773 28.1656 21.8176C29.0061 22.6582 29.4784 23.8113 29.4745 25.0138C29.4745 26.6034 28.6456 28.0722 27.3001 28.867C25.9546 29.6618 24.2968 29.6618 22.9513 28.867C21.6056 28.0722 20.7766 26.6034 20.7766 25.0138C20.773 23.8514 21.2142 22.7336 22.0059 21.8998C22.7974 21.0658 23.8767 20.5821 25.0124 20.552H25.0127Z" fill="#006CA9"/>
<path d="M27.6831 25.2822C27.8274 25.2818 27.9441 25.1619 27.9441 25.0143C27.9441 24.8667 27.8274 24.7469 27.6831 24.7462H25.3268L24.717 22.4177C24.6771 22.278 24.5353 22.1965 24.3979 22.2344C24.2604 22.272 24.1774 22.4151 24.2111 22.5564L24.925 25.2822L27.6831 25.2822Z" fill="#006CA9"/>
<path d="M3.90934 16.2173C3.6685 16.2168 3.43748 16.3147 3.26719 16.4889C3.09666 16.6634 3.00124 16.8997 3.00147 17.1461V19.2372C3.00147 19.4833 3.09734 19.7194 3.26765 19.8935C3.43795 20.0675 3.66874 20.1651 3.90933 20.1649H7.32287C7.56302 20.1644 7.79336 20.0665 7.9632 19.8925C8.13282 19.7185 8.22825 19.4829 8.22847 19.2372V17.1462C8.2287 16.9002 8.13351 16.6641 7.96367 16.4898C7.79383 16.3156 7.56325 16.2175 7.32286 16.2173L3.90934 16.2173ZM3.90934 16.7538H7.32288C7.53427 16.7542 7.70549 16.9299 7.70526 17.1461V19.2372C7.70549 19.4534 7.5345 19.6293 7.32288 19.6298H3.90934C3.69795 19.6293 3.52673 19.4534 3.52719 19.2372V17.1461C3.52673 16.9299 3.69795 16.7542 3.90934 16.7538Z" fill="#006CA9"/>
<path d="M18.314 16.2173C18.0731 16.2173 17.8423 16.3151 17.6723 16.4894C17.5022 16.6636 17.4068 16.9 17.4072 17.1461V19.2371C17.4072 19.4831 17.5027 19.719 17.6727 19.893C17.8428 20.067 18.0734 20.1646 18.314 20.1648H21.7273C21.9677 20.1646 22.1985 20.067 22.3683 19.893C22.5384 19.719 22.6341 19.4831 22.6341 19.2371V17.1461C22.6343 16.8999 22.5389 16.6636 22.3688 16.4894C22.1987 16.3151 21.9679 16.2173 21.7273 16.2173H18.314ZM18.314 16.7538H21.7273C21.9389 16.7542 22.1099 16.9299 22.1096 17.1461V19.2372C22.1101 19.4534 21.9389 19.6293 21.7273 19.6298H18.314C18.1023 19.6293 17.9311 19.4534 17.9316 19.2372V17.1461C17.9311 16.9299 18.1023 16.7542 18.314 16.7538Z" fill="#006CA9"/>
<path d="M11.1112 16.2173C10.8706 16.2175 10.6402 16.3156 10.4704 16.4898C10.3005 16.6641 10.2053 16.9002 10.2056 17.1462V19.2372C10.2058 19.4829 10.3012 19.7185 10.4708 19.8925C10.6407 20.0665 10.8708 20.1644 11.1112 20.1649H14.5245C14.7653 20.1651 14.9961 20.0675 15.1664 19.8935C15.3367 19.7195 15.4326 19.4834 15.4326 19.2372V17.1461C15.4328 16.8997 15.3372 16.6634 15.1668 16.4889C14.9965 16.3147 14.7655 16.2168 14.5245 16.2173L11.1112 16.2173ZM11.1112 16.7538H14.5245C14.6263 16.7535 14.724 16.7949 14.7959 16.8684C14.8681 16.9422 14.9082 17.042 14.9082 17.1461V19.2372C14.9082 19.3413 14.8681 19.4411 14.7959 19.5149C14.724 19.5884 14.6263 19.6298 14.5245 19.6298H11.1112C10.8996 19.6293 10.7283 19.4534 10.7288 19.2372V17.1461C10.7286 16.9299 10.8996 16.7542 11.1112 16.7538Z" fill="#006CA9"/>
<path d="M3.90933 10.1163C3.66871 10.1158 3.43792 10.2134 3.26765 10.3874C3.09734 10.5614 3.00146 10.7976 3.00146 11.0439V13.1361V13.1359C3.00146 13.3823 3.09734 13.6184 3.26765 13.7924C3.43795 13.9664 3.66874 14.064 3.90933 14.0638H7.32287C7.56302 14.0633 7.79336 13.9654 7.9632 13.7914C8.13282 13.6174 8.22825 13.3818 8.22847 13.1358V11.0437V11.0439C8.22824 10.798 8.13282 10.5623 7.9632 10.3883C7.79336 10.2143 7.56302 10.1164 7.32287 10.1162L3.90933 10.1163ZM3.90933 10.6514H7.32287C7.53449 10.6518 7.70547 10.8275 7.70525 11.044V13.1361V13.1359C7.70479 13.3519 7.5338 13.5269 7.32287 13.5273H3.90933C3.69839 13.5269 3.5274 13.3519 3.52718 13.1361V11.044C3.52672 10.8275 3.69794 10.6518 3.90933 10.6514V10.6514Z" fill="#006CA9"/>
</svg>
