<svg width="17" height="16" viewBox="0 0 17 16" fill="none" xmlns="http://www.w3.org/2000/svg">
<path d="M9.34124 6.53013L8.47468 3.91842L9.33875 2.84556L9.41683 2.74648C9.46027 2.69085 9.50864 2.62951 9.52706 2.60707C10.0103 2.01583 10.1316 1.30504 10.0842 0.837029C10.0532 0.531365 9.95008 0.292863 9.79381 0.165511C9.633 0.0334919 9.37663 -0.0222692 9.07213 0.00807475C8.61019 0.0542414 7.94246 0.316464 7.45483 0.913779C7.41631 0.960464 7.28689 1.11868 7.25979 1.15188L6.37702 2.24811L2.17568 1.74545C1.85095 1.70719 1.52986 1.83545 1.32196 2.09055L0.60845 2.96565C0.53907 3.04916 0.514559 3.16173 0.542958 3.26625C0.571229 3.37117 0.649427 3.45611 0.751229 3.4932L4.31615 4.80639L2.87159 6.59874L1.62144 6.62649C1.41084 6.63129 1.21422 6.72765 1.0808 6.89196L0 8.2495L2.99376 8.60742L3.94189 11.4642L5.02269 10.1072C5.15484 9.94486 5.20969 9.73297 5.17286 9.52548L4.94903 8.29412L6.39448 6.50061L7.51834 8.31397V15.4541H17L16.9999 6.53019L9.34124 6.53013ZM11.2364 6.90193H13.2816V10.2849L12.2833 9.6614L11.2365 10.2913L11.2364 6.90193ZM4.55347 8.19254L4.80739 9.59065C4.82529 9.69103 4.79883 9.79348 4.73373 9.87349L4.07934 10.6953L3.27284 8.26553L0.706779 7.95883L1.37089 7.12457C1.43431 7.04624 1.52911 7.0002 1.63039 6.99774L3.05304 6.96596L4.93075 4.63592L0.928263 3.16168L1.61054 2.32483C1.7375 2.16908 1.93475 2.08997 2.13186 2.11422L6.53771 2.64126L7.54952 1.38487C7.57611 1.35193 7.70397 1.19566 7.74236 1.1491C8.15918 0.6388 8.73923 0.414308 9.10937 0.377357C9.30843 0.357775 9.47675 0.385527 9.55832 0.452444L9.55871 0.452833C9.61823 0.501333 9.69034 0.637244 9.71433 0.87393C9.75427 1.26804 9.65039 1.86834 9.23892 2.37164C9.21973 2.39511 9.1698 2.45905 9.12454 2.5165L8.05775 3.84317L9.47233 8.10693C9.53588 8.29847 9.49801 8.50518 9.37066 8.66042L8.68762 9.49767L6.435 5.85839L4.55347 8.19254ZM16.628 15.0823H7.88998V8.91462L8.39809 9.73563C8.45515 9.82745 8.55345 9.88685 8.66096 9.89424C8.77249 9.89994 8.87416 9.85598 8.94393 9.77155L9.65861 8.89593C9.86688 8.64201 9.92926 8.30326 9.82538 7.99023L9.46474 6.90193H10.8647V10.9492L12.2795 10.0973L13.6534 10.9556V6.90199H16.6281L16.628 15.0823Z" fill="#006CA9"/>
<path d="M13.2817 13.2231H15.6987V13.5949H13.2817V13.2231Z" fill="#006CA9"/>
<path d="M13.2817 13.9663H15.6987V14.3381H13.2817V13.9663Z" fill="#006CA9"/>
</svg>
