<svg width="18" height="18" viewBox="0 0 18 18" fill="none" xmlns="http://www.w3.org/2000/svg">
<path d="M17.8688 7.42495L16.3643 6.88886C16.2049 6.32944 15.9823 5.78983 15.7011 5.28064L16.3859 3.84068H16.3858C16.4215 3.76549 16.4058 3.6761 16.3467 3.61755L14.3902 1.66103C14.3321 1.60289 14.2436 1.5872 14.1691 1.622L12.737 2.30098V2.30085C12.2236 2.01534 11.6794 1.78894 11.1149 1.62585L10.5749 0.129115C10.5467 0.0510502 10.4721 -0.000811428 10.3892 9.6092e-06H7.61082C7.52784 -0.000809227 7.45332 0.0510502 7.42507 0.129115L6.89486 1.61806H6.89472C6.3338 1.78183 5.79296 2.00824 5.28266 2.29305L3.85049 1.61407C3.77584 1.57941 3.68754 1.59497 3.6294 1.65324L1.67289 3.60976C1.6138 3.66831 1.5981 3.7577 1.63372 3.83276L2.31857 5.27272V5.27285C2.03716 5.78204 1.8147 6.32154 1.65531 6.88107L0.131153 7.42491C0.0529519 7.45234 0.000408772 7.52604 0 7.60888V10.389C0.0004094 10.472 0.0529519 10.5456 0.131153 10.573L1.64944 11.1149C1.81021 11.6646 2.03131 12.1947 2.30875 12.6957L1.61422 14.1592V14.1593C1.57942 14.2338 1.59512 14.3223 1.65326 14.3804L3.61959 16.3369C3.67814 16.3945 3.76644 16.4092 3.84068 16.374L5.31201 15.6756C5.80795 15.9491 6.333 16.1663 6.87712 16.3231L7.43476 17.8688C7.46233 17.9477 7.53712 18.0004 7.62064 17.9999H10.3892C10.4727 18.0004 10.5473 17.9477 10.5749 17.8688L11.1208 16.3329C11.6651 16.176 12.1901 15.9589 12.6861 15.6854L14.1574 16.3838C14.2315 16.4191 14.3198 16.4042 14.3785 16.3466L16.335 14.3901C16.3931 14.3319 16.4088 14.2436 16.374 14.169L15.6912 12.6957C15.9687 12.1947 16.1898 11.6646 16.3506 11.1149L17.8688 10.573C17.947 10.5456 17.9996 10.472 18 10.389V7.60888C17.9996 7.52604 17.947 7.45234 17.8688 7.42491L17.8688 7.42495ZM17.6085 10.2522L16.1236 10.7805V10.7803C16.0636 10.8015 16.0176 10.8503 16.0003 10.9115C15.8387 11.4983 15.6033 12.0624 15.2999 12.5901C15.27 12.6472 15.27 12.7152 15.2999 12.7722L15.9789 14.2025L14.2181 15.9633L12.7801 15.2805L12.7799 15.2803C12.723 15.2505 12.6549 15.2505 12.598 15.2803C12.0744 15.5775 11.5156 15.8081 10.9349 15.9671C10.8731 15.9839 10.8234 16.03 10.8018 16.0903L10.2521 17.6086H7.74779L7.21363 16.106C7.1922 16.0455 7.14253 15.9996 7.08057 15.9828C6.49987 15.8238 5.94128 15.593 5.4176 15.296C5.36055 15.2661 5.29259 15.2661 5.23568 15.296L3.79764 15.9788L2.03685 14.218L2.71583 12.7878H2.71569C2.74558 12.7308 2.74558 12.6627 2.71569 12.6058C2.41217 12.0781 2.17688 11.514 2.01516 10.9272C1.99782 10.866 1.95183 10.8172 1.89192 10.796L0.39138 10.2522V7.74785L1.86257 7.21763C1.92303 7.19607 1.96902 7.14639 1.98581 7.08457C2.14631 6.48818 2.38228 5.91485 2.68823 5.37849C2.71744 5.32198 2.71744 5.25484 2.68823 5.19848L2.0191 3.79167L3.78975 2.03088L5.18862 2.69414C5.24567 2.72403 5.31363 2.72403 5.37068 2.69414C5.90977 2.38188 6.48718 2.14114 7.0885 1.97806C7.15032 1.96127 7.2 1.91514 7.22156 1.85482L7.74779 0.391242H10.2521L10.7706 1.84497C10.792 1.90543 10.8418 1.95142 10.9037 1.9682C11.505 2.13129 12.0824 2.37205 12.6215 2.68429C12.6784 2.71417 12.7465 2.71417 12.8034 2.68429L14.2023 2.02103L15.9631 3.78182L15.2939 5.18862H15.2941C15.2649 5.24513 15.2649 5.31227 15.2941 5.36863C15.6001 5.9051 15.836 6.47847 15.9965 7.07471C16.0133 7.13654 16.0593 7.18635 16.1197 7.20778L17.6085 7.74781V10.2522Z" fill="#006CA9"/>
<path d="M8.95095 3.271C7.44605 3.271 6.00294 3.86875 4.9387 4.93284C3.87461 5.9968 3.27686 7.44005 3.27686 8.94475C3.27686 10.4497 3.87461 11.8928 4.9387 12.957C6.0028 14.0211 7.44591 14.6188 8.95095 14.6188C10.4557 14.6188 11.8988 14.0211 12.9629 12.957C14.027 11.8929 14.6247 10.4498 14.6247 8.94475C14.6247 7.43998 14.027 5.99673 12.9629 4.93284C11.8988 3.86875 10.4557 3.271 8.95095 3.271ZM8.95095 14.2159V14.2158C7.54988 14.2158 6.20618 13.6592 5.21541 12.6686C4.22475 11.6779 3.66819 10.3343 3.66819 8.93339C3.66819 7.53232 4.22475 6.18872 5.21541 5.1982C6.20607 4.20754 7.54981 3.65098 8.95095 3.65098C10.3519 3.65098 11.6956 4.20754 12.6861 5.1982C13.6767 6.18886 14.2334 7.53246 14.2334 8.93339C14.2334 10.3345 13.6768 11.6781 12.6861 12.6686C11.6955 13.6591 10.3517 14.2158 8.95095 14.2158V14.2159Z" fill="#006CA9"/>
<path d="M7.00039 10.4282C7.00039 10.4801 7.021 10.5299 7.05757 10.5666C7.09429 10.6033 7.1441 10.6239 7.19596 10.6239C7.29177 10.6239 8.14882 10.5927 8.44621 10.1817C8.55238 10.032 8.57941 9.84027 8.51854 9.6671C8.50448 9.61606 8.47036 9.57293 8.42396 9.54755C8.37756 9.52203 8.32283 9.51657 8.2722 9.53212C8.2217 9.54782 8.17953 9.58316 8.15551 9.63039C8.13163 9.67761 8.12767 9.73247 8.14487 9.78256C8.16943 9.83824 8.16343 9.90252 8.12917 9.95274C7.99802 10.1347 7.49921 10.2247 7.18802 10.2325H7.18816C7.08321 10.2367 7.00023 10.3231 7.00037 10.4282L7.00039 10.4282Z" fill="#006CA9"/>
<path d="M11.2226 6.14503C11.1933 5.87508 11.072 5.26652 10.5436 4.93982C9.97426 4.58771 9.23676 4.80866 8.99996 4.89682C8.76317 4.8088 8.0217 4.58771 7.45627 4.93982C6.92797 5.26654 6.80663 5.8751 6.77935 6.14503C6.23551 6.3915 5.45867 7.02354 5.6896 8.00955C5.42935 8.2795 4.78367 9.12864 5.5781 10.2557H5.57797C5.49103 10.5824 5.52351 10.9293 5.66995 11.2339C5.83809 11.5249 6.11569 11.7363 6.44089 11.8209C6.60138 12.2396 7.02788 12.8637 7.79486 12.8637H7.83786H7.83772C8.09921 13.0313 8.40189 13.1233 8.71239 13.1299C8.80915 13.129 8.9055 13.118 8.99994 13.0966C9.09438 13.1178 9.19073 13.1289 9.2875 13.1299C9.59811 13.1237 9.90083 13.0316 10.1622 12.8637C10.9447 12.8853 11.3967 12.2474 11.5591 11.8209H11.559C11.8842 11.7363 12.1618 11.5249 12.3299 11.2339C12.4768 10.9294 12.5101 10.5825 12.4238 10.2557C13.2063 9.12864 12.5705 8.27962 12.3104 8.00955C12.5412 7.02162 11.7664 6.39162 11.2225 6.14503H11.2226ZM8.80427 5.63829C8.80427 5.68128 8.75336 6.00213 8.10185 5.98453L8.10198 5.98467C7.99389 5.98467 7.90627 6.07228 7.90627 6.18037C7.90627 6.28832 7.99389 6.37595 8.10198 6.37595H8.15289C8.37807 6.38604 8.60215 6.33896 8.8043 6.23906V7.27996C8.57925 7.34451 8.11358 7.50883 7.9572 7.80619C7.89237 7.92329 7.88309 8.06304 7.93182 8.18764C7.96048 8.26434 8.03376 8.31511 8.11565 8.31484C8.13898 8.31484 8.16218 8.31074 8.18416 8.3031C8.2326 8.28468 8.27191 8.24769 8.2932 8.20047C8.31449 8.15311 8.31599 8.09921 8.29757 8.05075C8.28788 8.03097 8.28788 8.00776 8.29757 7.98811C8.43254 7.83799 8.60887 7.73113 8.80431 7.6809V12.7346C8.64504 12.7483 8.48454 12.7262 8.33481 12.6701C8.3475 12.6593 8.35924 12.6476 8.37002 12.6349C8.49981 12.4771 8.55672 12.2716 8.52656 12.0695C8.51619 11.9627 8.42202 11.8843 8.31516 11.8934C8.26289 11.8978 8.21444 11.9231 8.18101 11.9635C8.14757 12.0041 8.13174 12.0563 8.1372 12.1086C8.15507 12.2035 8.13392 12.3015 8.07851 12.3805C8.02665 12.434 7.95705 12.4667 7.8828 12.4725C7.07473 12.5389 6.79701 11.6468 6.78527 11.6097C6.76603 11.5433 6.71321 11.492 6.64634 11.4747C6.38731 11.4286 6.16021 11.2741 6.02224 11.0501C5.91566 10.8094 5.90037 10.5382 5.97912 10.2871V10.2714C5.97912 10.2714 6.1044 9.72944 6.58958 9.72944C6.69767 9.72944 6.78529 9.64183 6.78529 9.53374C6.78529 9.42578 6.69767 9.33816 6.58958 9.33816C6.42145 9.33653 6.2559 9.37938 6.10961 9.46209C5.96331 9.54493 5.84143 9.66475 5.75614 9.80969C5.62636 9.59037 5.56767 9.33639 5.58801 9.08242C5.6082 8.82844 5.7066 8.58701 5.86956 8.39118L5.90872 8.42639C6.04465 8.5237 6.20938 8.57269 6.3763 8.56532C6.45955 8.5645 6.54266 8.55741 6.62482 8.54376C6.73291 8.52602 6.80606 8.42393 6.78818 8.31585C6.77044 8.2079 6.66836 8.13474 6.56027 8.15249C6.22577 8.20926 6.11411 8.11141 6.10049 8.04494C6.10117 8.0403 6.10117 8.0358 6.10049 8.03116C6.10131 8.02406 6.10131 8.01683 6.10049 8.00973C5.86179 7.2272 6.44086 6.77912 6.79309 6.57945C6.82189 6.74363 6.89791 6.89594 7.01186 7.01754C7.12582 7.13914 7.27281 7.22484 7.43478 7.26428C7.45171 7.26619 7.46877 7.26619 7.48569 7.26428C7.59378 7.27834 7.69272 7.20205 7.70678 7.09396C7.72083 6.98601 7.64455 6.88693 7.53659 6.87287C7.41404 6.83657 7.30895 6.75714 7.24058 6.64919C7.1722 6.54124 7.14531 6.41227 7.16483 6.28601V6.27237C7.16483 6.26841 7.16483 5.56802 7.6657 5.26476C8.04523 5.03002 8.57544 5.15913 8.80827 5.23542L8.80427 5.63829ZM12.2399 9.79798C12.1547 9.65304 12.0327 9.53322 11.8864 9.45038C11.7401 9.36767 11.5746 9.32482 11.4065 9.32646C11.2985 9.32646 11.2109 9.41407 11.2109 9.52203C11.2109 9.63012 11.2985 9.71773 11.4065 9.71773C11.8916 9.71773 12.013 10.2343 12.0169 10.2597V10.2754C12.0958 10.5264 12.0812 10.7974 11.9759 11.0384C11.8371 11.2625 11.6093 11.4169 11.3498 11.463C11.2828 11.4803 11.23 11.5316 11.2109 11.598C11.2109 11.598 10.9272 12.5274 10.1153 12.4607C10.0416 12.4543 9.9724 12.4225 9.91959 12.3708C9.86308 12.2914 9.84125 12.1926 9.85899 12.0969C9.86868 11.9888 9.78898 11.8933 9.68089 11.8836C9.5728 11.8739 9.4774 11.9536 9.46758 12.0617C9.43742 12.2638 9.49433 12.4692 9.62411 12.6271C9.63558 12.6404 9.648 12.6529 9.66137 12.6643C9.51289 12.7205 9.35416 12.7445 9.19572 12.7347V7.68093C9.38856 7.7291 9.56337 7.83241 9.69851 7.97831C9.70929 7.99782 9.70929 8.02143 9.69851 8.04095C9.68009 8.08953 9.68172 8.14331 9.70301 8.19066C9.7243 8.23802 9.76347 8.27487 9.81192 8.29329C9.83471 8.30107 9.85846 8.30503 9.88248 8.30503C9.96354 8.30449 10.036 8.25399 10.0644 8.17797C10.1124 8.05637 10.1052 7.92004 10.0447 7.80417C9.8863 7.50679 9.42065 7.34247 9.19559 7.27794L9.19572 6.2391C9.39989 6.34378 9.62766 6.39428 9.85695 6.38581H9.90786C10.0159 6.38581 10.1036 6.2982 10.1036 6.19011C10.1036 6.08202 10.0159 5.99454 9.90786 5.99454C9.24855 6.01214 9.20543 5.68351 9.20351 5.65021V5.25894C9.43825 5.18265 9.96655 5.05354 10.3461 5.28828C10.8371 5.59153 10.8469 6.28809 10.8469 6.29589V6.30953C10.8659 6.43591 10.8385 6.56502 10.7698 6.67282C10.7012 6.78062 10.5958 6.86006 10.4733 6.89636C10.3652 6.91042 10.289 7.0095 10.3031 7.11745C10.3172 7.22554 10.4161 7.30183 10.5242 7.28777C10.5411 7.28982 10.5582 7.28982 10.575 7.28777C10.7367 7.24847 10.8835 7.16303 10.9975 7.04184C11.1114 6.92051 11.1876 6.76875 11.2168 6.60484C11.5689 6.80055 12.1481 7.26415 11.9113 8.03512C11.9104 8.04495 11.9104 8.05477 11.9113 8.06446C11.9122 8.06829 11.9122 8.07238 11.9113 8.0762C11.9029 8.10104 11.8872 8.12287 11.8663 8.13884C11.7406 8.20777 11.592 8.22182 11.4555 8.17801C11.3474 8.16014 11.2453 8.23328 11.2276 8.34137C11.2097 8.44933 11.2829 8.55141 11.3909 8.56929C11.4724 8.58266 11.5549 8.5899 11.6374 8.59071C11.8045 8.59808 11.9691 8.54923 12.105 8.45192C12.1154 8.43254 12.1238 8.4122 12.1305 8.39119C12.2902 8.58634 12.3864 8.82585 12.4061 9.0774C12.4256 9.32892 12.3677 9.58033 12.24 9.79799L12.2399 9.79798Z" fill="#006CA9"/>
<path d="M10.8095 10.2287C10.565 10.2228 10.0113 10.1524 9.86839 9.95672C9.83236 9.90731 9.82567 9.84222 9.85079 9.78653C9.86798 9.73644 9.86416 9.68158 9.84014 9.63436C9.81612 9.58714 9.77409 9.55166 9.72346 9.5361C9.67296 9.5204 9.6181 9.526 9.57169 9.55138C9.52529 9.5769 9.49117 9.62003 9.47712 9.67107C9.41639 9.84412 9.44327 10.036 9.54945 10.1856C9.84683 10.5965 10.7038 10.6259 10.8016 10.6278C10.9097 10.6278 10.9973 10.5402 10.9973 10.4322C10.9973 10.3241 10.9097 10.2365 10.8016 10.2365L10.8095 10.2287Z" fill="#006CA9"/>
</svg>
