<svg width="18" height="15" viewBox="0 0 18 15" fill="none" xmlns="http://www.w3.org/2000/svg">
<path d="M9.00019 0L8.82567 0.160182L0.452057 7.61284L0 8.01313H1.89512V15H16.1049V8.01313H18L17.5479 7.61284L15.3436 5.65511V2.65649H12.2987V2.94046L9.17451 0.160186L9.00019 0ZM9.00019 0.647866L12.3782 3.65359L12.8064 4.03926V3.12236H14.8364V5.8516L14.9157 5.91707L16.7475 7.5473H15.5977V14.5342H2.4029V7.5473H1.25311L9.00019 0.647866ZM6.2089 7.5474V9.87636H8.74635V7.5474H6.2089ZM9.25398 7.5474V9.87636H11.7914V7.5474H9.25398ZM6.71652 8.01315H8.23891V9.41061H6.71652V8.01315ZM9.76143 8.01315H11.2838V9.41061H9.76143V8.01315ZM6.2089 10.3421V12.6711H8.74635V10.3421H6.2089ZM9.25398 10.3421V12.6711H11.7914V10.3421H9.25398ZM6.71652 10.8079H8.23891V12.2053H6.71652V10.8079ZM9.76143 10.8079H11.2838V12.2053H9.76143V10.8079Z" fill="#006CA9"/>
</svg>
