<svg width="17" height="17" viewBox="0 0 17 17" fill="none" xmlns="http://www.w3.org/2000/svg">
<path d="M1.83515 9.98779C1.8673 9.98779 1.89947 9.98815 1.93164 9.98845V13.5485C1.93164 13.6013 1.95263 13.652 1.98999 13.6893C2.02735 13.7267 2.07803 13.7477 2.13086 13.7477C2.6317 13.7471 3.11186 13.5479 3.46601 13.1938C3.82015 12.8396 4.01936 12.3595 4.01992 11.8586V10.2203C4.79262 10.3849 5.54425 10.6362 6.2605 10.9695L10.4536 12.9263C10.484 12.9405 10.5174 12.9467 10.5508 12.9446C10.5842 12.9424 10.6166 12.9318 10.6448 12.9138C10.6731 12.8958 10.6964 12.871 10.7125 12.8416C10.7286 12.8122 10.737 12.7793 10.737 12.7458V9.97181C11.1924 9.91325 11.6109 9.69079 11.9142 9.34604C12.2174 9.00129 12.3847 8.55786 12.3847 8.09871C12.3847 7.63956 12.2174 7.19613 11.9142 6.85138C11.6109 6.50663 11.1924 6.28417 10.737 6.22561V3.45165C10.737 3.41815 10.7286 3.38519 10.7125 3.35582C10.6964 3.32645 10.6731 3.30162 10.6448 3.28363C10.6166 3.26563 10.5842 3.25505 10.5508 3.25287C10.5174 3.25068 10.484 3.25696 10.4536 3.27113L6.2605 5.22792C4.87411 5.87242 3.36403 6.20743 1.83515 6.20967C1.55833 6.20999 1.29293 6.32009 1.09719 6.51584C0.901441 6.71159 0.791332 6.97698 0.791016 7.25381V8.94365C0.791332 9.22047 0.901441 9.48587 1.09719 9.68162C1.29293 9.87736 1.55833 9.98747 1.83515 9.98779ZM11.9861 8.09873C11.9856 8.45208 11.8599 8.79381 11.6311 9.06315C11.4024 9.33248 11.0856 9.51195 10.7369 9.56963V6.62793C11.0855 6.6856 11.4024 6.86506 11.6311 7.13437C11.8598 7.40368 11.9856 7.74539 11.9861 8.09873ZM3.62148 11.8586C3.62104 12.2193 3.49001 12.5677 3.25261 12.8393C3.01521 13.1108 2.6875 13.2873 2.33008 13.336V9.99997C2.76309 10.021 3.19439 10.0688 3.62148 10.1431V11.8586ZM10.3385 12.433L9.34311 11.9683V4.22914L10.3388 3.76429L10.3385 12.433ZM6.42897 5.58897L8.94468 4.41507V11.7824L6.42897 10.6085C5.65968 10.2504 4.85117 9.98352 4.01992 9.81317V6.38422C4.85117 6.21388 5.65967 5.94699 6.42897 5.58897ZM1.18952 7.25381C1.18971 7.08262 1.2578 6.91849 1.37885 6.79744C1.49991 6.67639 1.66403 6.6083 1.83522 6.60811C2.43377 6.60776 3.03126 6.55779 3.62155 6.45869V9.73916C3.03126 9.64007 2.43377 9.59009 1.83522 9.58975C1.66395 9.58957 1.49975 9.52143 1.37867 9.40029C1.25759 9.27916 1.18954 9.11492 1.18945 8.94365L1.18952 7.25381Z" fill="#006CA9"/>
<path d="M12.1449 10.965C12.0963 10.9857 12.0579 11.0248 12.0381 11.0738C12.0184 11.1228 12.0189 11.1777 12.0396 11.2263C12.0603 11.2749 12.0995 11.3133 12.1485 11.3331C12.1975 11.3528 12.2523 11.3523 12.3009 11.3316C12.935 11.0617 13.4757 10.6114 13.8557 10.0366C14.2357 9.46175 14.4384 8.78789 14.4384 8.0988C14.4384 7.40972 14.2357 6.73585 13.8557 6.16105C13.4757 5.58625 12.935 5.13589 12.3009 4.86601C12.2523 4.84532 12.1975 4.84479 12.1485 4.86453C12.0995 4.88428 12.0603 4.92268 12.0396 4.9713C12.0189 5.01992 12.0184 5.07477 12.0381 5.12378C12.0579 5.17279 12.0963 5.21195 12.1449 5.23264C12.707 5.47191 13.1864 5.87119 13.5233 6.38081C13.8603 6.89042 14.0399 7.48787 14.0399 8.0988C14.0399 8.70974 13.8603 9.30719 13.5233 9.8168C13.1864 10.3264 12.707 10.7257 12.1449 10.965Z" fill="#006CA9"/>
<path d="M13.0153 3.26836C12.9667 3.24766 12.9118 3.24713 12.8628 3.26687C12.8138 3.28662 12.7746 3.32503 12.754 3.37364C12.7333 3.42226 12.7327 3.47711 12.7525 3.52612C12.7722 3.57513 12.8106 3.61429 12.8592 3.63499C13.7347 4.00762 14.4812 4.62946 15.0059 5.42311C15.5306 6.21676 15.8104 7.14719 15.8104 8.09863C15.8104 9.05006 15.5306 9.98049 15.0059 10.7741C14.4812 11.5678 13.7347 12.1896 12.8592 12.5623C12.8106 12.583 12.7722 12.6221 12.7525 12.6711C12.7327 12.7201 12.7333 12.775 12.754 12.8236C12.7746 12.8722 12.8138 12.9106 12.8628 12.9304C12.9118 12.9501 12.9667 12.9496 13.0153 12.9289C13.9626 12.5257 14.7705 11.8528 15.3383 10.9939C15.9062 10.1351 16.2089 9.12822 16.2089 8.09863C16.2089 7.06904 15.9062 6.06218 15.3383 5.20334C14.7705 4.3445 13.9626 3.67159 13.0153 3.26836Z" fill="#006CA9"/>
</svg>
