<svg width="18" height="18" viewBox="0 0 18 18" fill="none" xmlns="http://www.w3.org/2000/svg">
<g clip-path="url(#clip0_4502_46669)">
<path d="M15.2966 10.4834L15.2132 10.5284C14.8763 10.1196 14.2927 9.96123 13.8481 10.1866C13.8465 10.1874 13.8449 10.1882 13.8433 10.189L13.6465 10.295C13.4117 10.0962 13.1213 9.97467 12.8149 9.94698C12.5085 9.9193 12.201 9.98682 11.9344 10.1403L10.8742 10.7169H9.46354C9.15809 10.7165 8.85663 10.6474 8.58147 10.5148L8.38741 10.4209C7.83492 10.1521 7.21881 10.0414 6.6073 10.1011C5.99579 10.1609 5.41273 10.3886 4.92269 10.7593C4.91809 10.7628 4.91359 10.7663 4.9093 10.7703L4.44077 11.1874C4.26371 11.3446 4.05441 11.4613 3.82754 11.5292L3.56144 10.6557C3.54826 10.6125 3.52153 10.5746 3.48521 10.5477C3.44888 10.5208 3.40488 10.5063 3.35968 10.5063H1.09375C1.0639 10.5063 1.03438 10.5126 1.00716 10.5249C0.979934 10.5371 0.955622 10.555 0.935829 10.5774C0.916037 10.5997 0.901214 10.626 0.892342 10.6545C0.88347 10.6831 0.88075 10.7131 0.884362 10.7428L1.63966 16.9359C1.64589 16.987 1.67063 17.0341 1.70921 17.0683C1.74778 17.1024 1.79753 17.1213 1.84905 17.1213H5.24775C5.28071 17.1213 5.31321 17.1136 5.34265 17.0987C5.37209 17.0839 5.39764 17.0624 5.41726 17.0359C5.43688 17.0094 5.45001 16.9787 5.45561 16.9462C5.46121 16.9137 5.45912 16.8804 5.44951 16.8488L5.00302 15.3837L6.39359 14.5048C6.57966 14.4019 6.79794 14.3736 7.00408 14.4258C7.00844 14.4269 7.01284 14.4279 7.01727 14.4287L9.8459 14.9496C10.6146 15.0871 11.4072 14.9752 12.1078 14.6302C12.1167 14.6258 12.1253 14.6207 12.1336 14.6151L17.026 11.2558C17.0704 11.2254 17.1014 11.1792 17.1128 11.1266C17.1242 11.0741 17.1151 11.0192 17.0874 10.9731C16.9093 10.6766 16.6238 10.4603 16.2902 10.369C15.9566 10.2778 15.6007 10.3188 15.2966 10.4834ZM14.0409 10.5618C14.2981 10.433 14.6218 10.5386 14.8286 10.7359L12.9734 11.7368L12.8644 11.7942C12.8056 11.6274 12.7198 11.4714 12.6103 11.3326L14.0409 10.5618ZM12.1385 10.5096C12.1402 10.5086 12.142 10.5077 12.1435 10.5067C12.3097 10.4107 12.4986 10.361 12.6905 10.3628C12.8824 10.3646 13.0703 10.4178 13.2347 10.517L12.2914 11.0249C12.1115 10.8936 11.9064 10.8013 11.6889 10.7537L12.1385 10.5096ZM2.03566 16.6994L1.33201 10.9282H3.20334L4.96291 16.6994H2.03566ZM11.907 14.2585C11.291 14.5583 10.5958 14.6549 9.92138 14.5344L7.09971 14.0148C6.78934 13.9382 6.46144 13.9826 6.18266 14.1391C6.17939 14.1409 6.17612 14.1428 6.17292 14.1449L4.87513 14.9653L3.95052 11.933C4.23562 11.8471 4.49857 11.7001 4.72103 11.5021L5.18295 11.0908C5.61092 10.7691 6.11938 10.5717 6.65234 10.5204C7.18529 10.4691 7.72206 10.566 8.20351 10.8002L8.39754 10.8941C8.73 11.0544 9.09423 11.1378 9.4633 11.1383H11.345C11.6216 11.1387 11.8893 11.2354 12.1023 11.4117C12.3153 11.5881 12.4603 11.8331 12.5122 12.1047L11.1483 12.043C10.6525 12.0208 10.1557 12.0437 9.66404 12.1116C9.60906 12.1198 9.55951 12.1493 9.52619 12.1938C9.49286 12.2383 9.47844 12.2942 9.48607 12.3492C9.49369 12.4043 9.52274 12.4541 9.56691 12.4879C9.61107 12.5216 9.66677 12.5366 9.72191 12.5295C10.1881 12.4651 10.6591 12.4433 11.1292 12.4645L12.7343 12.5371C12.7375 12.5371 12.7407 12.5373 12.7439 12.5373C12.7998 12.5373 12.8535 12.5151 12.8931 12.4756C12.9326 12.436 12.9548 12.3824 12.9548 12.3264C12.9548 12.2923 12.9534 12.2584 12.9513 12.2248L13.1714 12.1088L15.497 10.8546C15.6756 10.7578 15.8811 10.7228 16.0817 10.755C16.2822 10.7871 16.4665 10.8846 16.606 11.0323L11.907 14.2585Z" fill="#006CA9"/>
<path d="M2.70605 15.8267C2.70605 15.958 2.745 16.0864 2.81798 16.1957C2.89095 16.3049 2.99467 16.39 3.11602 16.4402C3.23736 16.4905 3.37089 16.5037 3.49972 16.478C3.62854 16.4524 3.74687 16.3892 3.83975 16.2963C3.93262 16.2034 3.99587 16.0851 4.0215 15.9563C4.04712 15.8274 4.03397 15.6939 3.9837 15.5726C3.93344 15.4512 3.84832 15.3475 3.73911 15.2745C3.6299 15.2015 3.5015 15.1626 3.37016 15.1626C3.19409 15.1628 3.02528 15.2328 2.90078 15.3573C2.77628 15.4818 2.70625 15.6506 2.70605 15.8267ZM3.37016 15.5845C3.41806 15.5845 3.4649 15.5987 3.50473 15.6253C3.54456 15.6519 3.57561 15.6897 3.59394 15.734C3.61228 15.7783 3.61707 15.827 3.60773 15.874C3.59838 15.9209 3.57531 15.9641 3.54144 15.998C3.50756 16.0319 3.4644 16.0549 3.41741 16.0643C3.37042 16.0736 3.32172 16.0688 3.27746 16.0505C3.2332 16.0322 3.19537 16.0011 3.16875 15.9613C3.14214 15.9214 3.12793 15.8746 3.12793 15.8267C3.12804 15.7625 3.1536 15.701 3.199 15.6556C3.24441 15.6102 3.30595 15.5846 3.37016 15.5845V15.5845Z" fill="#006CA9"/>
<path d="M10.6039 3.17451V2.4794C10.6019 2.05605 10.4323 1.65071 10.1323 1.35206C9.83223 1.05341 9.4261 0.885742 9.00275 0.885742C8.5794 0.885742 8.17327 1.05341 7.87322 1.35206C7.57316 1.65071 7.4036 2.05605 7.40161 2.4794V3.17451C7.4036 3.59785 7.57316 4.00319 7.87322 4.30184C8.17327 4.60049 8.5794 4.76816 9.00275 4.76816C9.4261 4.76816 9.83223 4.60049 10.1323 4.30184C10.4323 4.00319 10.6019 3.59785 10.6039 3.17451ZM7.82349 3.17451V2.4794C7.82519 2.16775 7.95018 1.86945 8.17115 1.64968C8.39212 1.42992 8.6911 1.30655 9.00275 1.30655C9.3144 1.30655 9.61338 1.42992 9.83435 1.64968C10.0553 1.86945 10.1803 2.16775 10.182 2.4794V3.17451C10.1803 3.48615 10.0553 3.78445 9.83435 4.00422C9.61338 4.22399 9.3144 4.34735 9.00275 4.34735C8.6911 4.34735 8.39212 4.22399 8.17115 4.00422C7.95018 3.78445 7.82519 3.48615 7.82349 3.17451Z" fill="#006CA9"/>
<path d="M6.42192 9.1205H11.5836C11.6396 9.1205 11.6932 9.09828 11.7328 9.05872C11.7723 9.01916 11.7946 8.96551 11.7946 8.90957V8.4254H15.3281C15.3841 8.4254 15.4377 8.40317 15.4773 8.36361C15.5168 8.32405 15.5391 8.2704 15.5391 8.21446V6.84533C15.5388 6.44359 15.3857 6.05701 15.1107 5.76411C14.8358 5.47121 14.4596 5.29396 14.0587 5.26836C13.9462 5.2601 13.8884 5.33133 13.8415 5.38853C13.7482 5.50255 13.63 5.59376 13.4961 5.65522C13.3622 5.71667 13.216 5.74675 13.0687 5.74315C12.9214 5.73955 12.7769 5.70238 12.6461 5.63446C12.5154 5.56654 12.4019 5.46967 12.3142 5.35123C12.2941 5.32397 12.2677 5.30196 12.2372 5.28707C12.2068 5.27218 12.1732 5.26485 12.1393 5.26569C11.8653 5.27184 11.5977 5.34991 11.3634 5.49206C11.2087 5.31216 11.0194 5.16514 10.8069 5.05971C10.5943 4.95427 10.3627 4.89258 10.1259 4.87827C10.0169 4.87384 9.96177 4.94 9.90837 5.00483C9.79887 5.13865 9.66027 5.2457 9.50312 5.31783C9.34598 5.38995 9.17444 5.42525 9.00159 5.42103C8.82873 5.41681 8.65912 5.37318 8.50569 5.29347C8.35225 5.21375 8.21904 5.10006 8.11621 4.96106C8.0961 4.93377 8.0697 4.91174 8.03925 4.89686C8.00879 4.88197 7.97519 4.87466 7.9413 4.87556C7.47871 4.88626 7.03881 5.07815 6.71629 5.40994C6.68964 5.43718 6.66436 5.46541 6.63972 5.49407C6.4219 5.36146 6.17504 5.28397 5.92052 5.26829C5.80841 5.26003 5.75016 5.33126 5.70329 5.38846C5.60997 5.50248 5.49186 5.59369 5.35795 5.65515C5.22404 5.7166 5.07786 5.74668 4.93056 5.74308C4.78327 5.73948 4.63874 5.70231 4.50798 5.63439C4.37723 5.56647 4.26371 5.4696 4.17607 5.35116C4.1559 5.32393 4.12949 5.30195 4.09905 5.28706C4.06861 5.27218 4.03504 5.26482 4.00117 5.26562C3.58914 5.27611 3.19752 5.44714 2.90979 5.74224C2.62206 6.03735 2.461 6.43317 2.46094 6.84533V8.21446C2.46094 8.2704 2.48316 8.32405 2.52272 8.36361C2.56228 8.40317 2.61593 8.4254 2.67188 8.4254H6.21098V8.90957C6.21098 8.96551 6.23321 9.01916 6.27277 9.05872C6.31232 9.09828 6.36598 9.1205 6.42192 9.1205ZM12.0492 5.69425C12.1793 5.84185 12.3392 5.96018 12.5184 6.0414C12.6975 6.12262 12.8919 6.16488 13.0886 6.1654C13.2854 6.16591 13.48 6.12467 13.6596 6.04439C13.8392 5.96411 13.9997 5.84662 14.1305 5.6997C14.4048 5.74108 14.6552 5.87942 14.8362 6.08961C15.0172 6.2998 15.1169 6.56793 15.1172 6.84533V8.00352H11.7946V6.65032C11.7948 6.36942 11.728 6.09252 11.5996 5.84264C11.7375 5.76226 11.8906 5.71171 12.0492 5.69425ZM7.85039 5.30384C7.99624 5.47268 8.17665 5.60823 8.37941 5.70131C8.58218 5.79439 8.80258 5.84284 9.02569 5.84337C9.2488 5.8439 9.46942 5.7965 9.67263 5.70438C9.87584 5.61226 10.0569 5.47757 10.2035 5.30943C10.5274 5.35422 10.8242 5.51463 11.0391 5.76107C11.254 6.00751 11.3725 6.32334 11.3728 6.65032V8.69863H6.63286V6.65032C6.63495 6.31551 6.76023 5.99319 6.98479 5.74484C7.20935 5.4965 7.51748 5.33951 7.85039 5.30384ZM2.88281 8.00352V6.84533C2.8846 6.56113 2.99008 6.28735 3.17945 6.07543C3.36883 5.8635 3.62906 5.728 3.91127 5.69439C4.04132 5.84195 4.20121 5.96023 4.38036 6.04142C4.55951 6.1226 4.75386 6.16484 4.95055 6.16534C5.14724 6.16584 5.34179 6.1246 5.52136 6.04433C5.70092 5.96406 5.86141 5.84659 5.99221 5.6997C6.13745 5.72141 6.27719 5.77072 6.40389 5.84496C6.27671 6.09435 6.21059 6.37038 6.21098 6.65032V8.00352H2.88281Z" fill="#006CA9"/>
<path d="M14.4966 3.80331V3.19486C14.4966 2.81619 14.3462 2.45303 14.0785 2.18527C13.8107 1.91751 13.4475 1.76709 13.0689 1.76709C12.6902 1.76709 12.3271 1.91751 12.0593 2.18527C11.7915 2.45303 11.6411 2.81619 11.6411 3.19486V3.80331C11.6411 4.18197 11.7915 4.54513 12.0593 4.81289C12.3271 5.08065 12.6902 5.23107 13.0689 5.23107C13.4475 5.23107 13.8107 5.08065 14.0785 4.81289C14.3462 4.54513 14.4966 4.18197 14.4966 3.80331ZM12.063 3.80331V3.19486C12.063 2.92808 12.169 2.67222 12.3576 2.48358C12.5462 2.29494 12.8021 2.18897 13.0689 2.18897C13.3357 2.18897 13.5915 2.29494 13.7802 2.48358C13.9688 2.67222 14.0748 2.92808 14.0748 3.19486V3.80331C14.0748 4.07008 13.9688 4.32594 13.7802 4.51458C13.5915 4.70322 13.3357 4.8092 13.0689 4.8092C12.8021 4.8092 12.5462 4.70322 12.3576 4.51458C12.169 4.32594 12.063 4.07008 12.063 3.80331Z" fill="#006CA9"/>
<path d="M6.35895 3.80331V3.19486C6.35895 3.00736 6.32202 2.8217 6.25027 2.64847C6.17851 2.47525 6.07335 2.31785 5.94077 2.18527C5.80819 2.05269 5.65079 1.94752 5.47757 1.87577C5.30434 1.80402 5.11868 1.76709 4.93118 1.76709C4.74369 1.76709 4.55803 1.80402 4.3848 1.87577C4.21158 1.94752 4.05418 2.05269 3.9216 2.18527C3.78902 2.31785 3.68385 2.47525 3.6121 2.64847C3.54035 2.8217 3.50342 3.00736 3.50342 3.19486V3.80331C3.50342 3.9908 3.54035 4.17646 3.6121 4.34969C3.68385 4.52291 3.78902 4.68031 3.9216 4.81289C4.05418 4.94547 4.21158 5.05064 4.3848 5.12239C4.55803 5.19414 4.74369 5.23107 4.93118 5.23107C5.11868 5.23107 5.30434 5.19414 5.47757 5.12239C5.65079 5.05064 5.80819 4.94547 5.94077 4.81289C6.07335 4.68031 6.17851 4.52291 6.25027 4.34969C6.32202 4.17646 6.35895 3.9908 6.35895 3.80331ZM3.92529 3.80331V3.19486C3.92529 2.92808 4.03127 2.67222 4.21991 2.48358C4.40855 2.29494 4.6644 2.18897 4.93118 2.18897C5.19796 2.18897 5.45381 2.29494 5.64246 2.48358C5.8311 2.67222 5.93707 2.92808 5.93707 3.19486V3.80331C5.93707 3.9354 5.91106 4.0662 5.86051 4.18824C5.80995 4.31028 5.73586 4.42117 5.64246 4.51458C5.54905 4.60798 5.43816 4.68208 5.31612 4.73263C5.19408 4.78318 5.06328 4.8092 4.93118 4.8092C4.79909 4.8092 4.66829 4.78318 4.54625 4.73263C4.42421 4.68208 4.31332 4.60798 4.21991 4.51458C4.12651 4.42117 4.05241 4.31028 4.00186 4.18824C3.95131 4.0662 3.92529 3.9354 3.92529 3.80331Z" fill="#006CA9"/>
</g>
<defs>
<clipPath id="clip0_4502_46669">
<rect width="18" height="18" fill="white"/>
</clipPath>
</defs>
</svg>
