<svg width="16" height="16" viewBox="0 0 16 16" fill="none" xmlns="http://www.w3.org/2000/svg">
<path d="M14.9223 9.33399C14.9223 7.66552 13.5304 6.30811 11.8194 6.30811C10.4826 6.30811 9.34062 7.13675 8.90508 8.29485C8.16928 7.94778 7.36584 7.76801 6.55224 7.76878C5.06816 7.76878 3.68696 8.34525 2.66311 9.39186C1.62602 10.4522 1.05469 11.903 1.05469 13.4772C1.05469 13.6045 1.15795 13.7076 1.28512 13.7076H9.64499V15.7694C9.64499 15.8609 9.69926 15.9439 9.78323 15.9805C9.8672 16.0172 9.9648 16.0007 10.0321 15.9385L11.8194 14.2828L13.6069 15.9385C13.6742 16.0007 13.7719 16.0172 13.8557 15.9805C13.9397 15.9439 13.994 15.8609 13.994 15.7694V11.4903C14.5854 10.9288 14.921 10.1495 14.9223 9.33399ZM11.8194 6.76898C13.2762 6.76898 14.4614 7.91961 14.4614 9.33399C14.4597 10.0344 14.1667 10.7026 13.6527 11.1784C13.6213 11.1957 13.5943 11.22 13.5739 11.2495C12.5645 12.1154 11.0744 12.1154 10.065 11.2495C10.0447 11.22 10.0177 11.1956 9.98615 11.1784C9.47217 10.7026 9.17911 10.0344 9.17744 9.33399C9.17744 7.91961 10.3625 6.76898 11.8194 6.76898ZM1.52006 13.2466C1.57253 11.8833 2.09075 10.6361 2.99256 9.71411C3.9291 8.75687 5.19315 8.22965 6.55224 8.22965C7.32314 8.22862 8.08389 8.40453 8.77597 8.74402C8.5719 9.74806 8.90045 10.7864 9.64499 11.4903V13.2466H1.52006ZM13.533 15.2415L11.9758 13.7993C11.8875 13.7176 11.7511 13.7176 11.6627 13.7993L10.1057 15.2415V11.8553C11.149 12.528 12.4894 12.528 13.5327 11.8553L13.533 15.2415Z" fill="#006CA9"/>
<path d="M10.102 9.07951L10.9415 9.67322L10.6215 10.6311C10.59 10.7256 10.6227 10.8296 10.7027 10.8891C10.7826 10.9485 10.8918 10.9498 10.9731 10.8923L11.8195 10.2939L12.6657 10.8923C12.7471 10.9498 12.8562 10.9485 12.9362 10.8891C13.0162 10.8296 13.049 10.7256 13.0174 10.6311L12.6975 9.67322L13.537 9.07951C13.6189 9.02152 13.654 8.91723 13.6235 8.82156C13.5932 8.72589 13.5043 8.66095 13.4039 8.66095H12.3594L12.038 7.69805C12.0065 7.60392 11.9185 7.54053 11.8194 7.54053C11.7202 7.54053 11.6321 7.60392 11.6007 7.69805L11.2793 8.66095H10.2348C10.1344 8.66095 10.0456 8.72589 10.0152 8.82156C9.98486 8.91723 10.0198 9.02152 10.1018 9.07951H10.102ZM11.4455 9.12182C11.5447 9.12182 11.6326 9.05842 11.664 8.9643L11.8196 8.49854L11.9751 8.96455C12.0065 9.05855 12.0945 9.12195 12.1937 9.12195H12.6791L12.2917 9.39572C12.2087 9.45436 12.1739 9.56045 12.206 9.65689L12.3575 10.11L11.9526 9.82367C11.8728 9.76735 11.7662 9.76735 11.6865 9.82367L11.2816 10.11L11.4331 9.65689C11.4652 9.56058 11.4305 9.45449 11.3474 9.39572L10.9602 9.12195L11.4455 9.12182Z" fill="#006CA9"/>
<path d="M3.16138 3.39071C3.16138 5.26339 4.67953 6.78141 6.55208 6.78141C8.42476 6.78141 9.94278 5.26339 9.94278 3.39071C9.94278 1.51802 8.42476 0 6.55208 0C4.68043 0.00218606 3.16356 1.51892 3.16138 3.39071ZM9.48191 3.39071C9.48191 5.00877 8.17028 6.32054 6.55208 6.32054C4.93401 6.32054 3.62225 5.00877 3.62225 3.39071C3.62225 1.77264 4.93401 0.460873 6.55208 0.460873C8.16951 0.462673 9.48011 1.77341 9.48191 3.39071Z" fill="#006CA9"/>
</svg>
