<svg width="16" height="16" viewBox="0 0 16 16" fill="none" xmlns="http://www.w3.org/2000/svg">
<path d="M15.4531 14.1258L12.3067 10.9794C13.1753 9.83236 13.6997 8.40659 13.6997 6.84986C13.6997 3.0808 10.6189 0 6.84986 0C3.0808 0 0 3.06441 0 6.84986C0 10.6353 3.0808 13.6997 6.84986 13.6997C8.30832 13.6997 9.65213 13.2409 10.7664 12.4707L13.9455 15.6498C14.1586 15.8629 14.4372 15.9612 14.6994 15.9612C14.978 15.9612 15.2565 15.8629 15.4533 15.6498C15.8793 15.2238 15.8793 14.5355 15.4532 14.1258L15.4531 14.1258ZM0.327686 6.84986C0.327686 3.26106 3.261 0.327744 6.8498 0.327744C10.4386 0.327744 13.3719 3.26106 13.3719 6.84986C13.3719 10.4387 10.4386 13.372 6.8498 13.372C3.261 13.372 0.327686 10.4387 0.327686 6.84986ZM15.2237 15.4204C14.9288 15.7153 14.4535 15.7153 14.1586 15.4204L11.0286 12.274C11.4219 11.9626 11.7825 11.6186 12.1102 11.2416L15.2401 14.3716C15.5187 14.6502 15.5187 15.1254 15.2237 15.4203L15.2237 15.4204Z" fill="#006CA9"/>
<path d="M6.84982 1.09814C3.67069 1.09814 1.0979 3.68733 1.0979 6.85006C1.0979 10.0128 3.67075 12.602 6.84982 12.602C10.0289 12.602 12.6017 10.0291 12.6017 6.85006C12.6018 3.67094 10.0126 1.09814 6.84982 1.09814ZM6.84982 1.42586C9.83229 1.42586 12.274 3.85114 12.274 6.85003C12.274 8.12823 11.8315 9.29176 11.0941 10.2094L10.9795 9.61947C10.8811 9.12783 10.5206 8.71814 10.0453 8.55436L8.16085 7.93162C8.86544 7.32532 9.3244 6.29289 9.3244 5.3096C9.3244 3.78565 8.21013 2.54013 6.84996 2.54013C5.48982 2.54013 4.37552 3.78553 4.37552 5.3096C4.37552 6.27642 4.83436 7.3252 5.53907 7.93162L3.6546 8.55436C3.17943 8.71828 2.81888 9.12797 2.72047 9.61947L2.6057 10.2258C1.86831 9.30812 1.42582 8.12821 1.42582 6.86639C1.42571 3.86753 3.85099 1.42583 6.84999 1.42583L6.84982 1.42586ZM4.70312 5.30963C4.70312 3.96582 5.66994 2.86791 6.84982 2.86791C8.0297 2.86791 8.99651 3.96585 8.99651 5.30963C8.99651 6.60416 8.06238 8.11191 6.84982 8.11191C5.63725 8.11191 4.70312 6.60428 4.70312 5.30963ZM2.86778 10.5372L3.0317 9.68499C3.0972 9.30812 3.37589 8.99673 3.75277 8.86563L5.7192 8.2102L6.27634 9.16066L5.98143 12.1923C4.75227 11.9956 3.67068 11.4056 2.86786 10.5371L2.86778 10.5372ZM6.29271 12.2415L6.6041 9.07875L6.14525 8.30844C6.35832 8.3904 6.58774 8.43955 6.83352 8.43955C7.07928 8.43955 7.30869 8.3904 7.52178 8.30844L7.06294 9.09499L7.39065 12.2413C7.21039 12.2577 7.03013 12.2741 6.83352 12.2741C6.65325 12.274 6.473 12.2577 6.29274 12.2413L6.29271 12.2415ZM7.71837 12.1923L7.42346 9.1607L7.98059 8.21024L9.94703 8.86567C10.3075 8.98043 10.5861 9.29171 10.6681 9.68503L10.832 10.5372C10.0127 11.4057 8.93107 11.9957 7.71844 12.1924L7.71837 12.1923Z" fill="#006CA9"/>
</svg>
