<svg width="16" height="12" viewBox="0 0 16 12" fill="none" xmlns="http://www.w3.org/2000/svg">
<path d="M15.0044 9.01163V3.75387L15.138 3.70441C15.6832 3.50336 15.765 3.21266 15.765 3.05667C15.765 2.90067 15.6832 2.61051 15.138 2.40892L9.09396 0.180317C8.44167 -0.0603816 7.32328 -0.0598298 6.67139 0.180317L0.626975 2.40935C0.0817671 2.61039 0 2.9011 0 3.05709C0 3.21308 0.0817635 3.50324 0.626975 3.70483L2.04627 4.22824V8.26707C2.04627 9.86021 3.85087 11.4676 7.88244 11.4676C11.9142 11.4676 13.7186 9.86006 13.7186 8.26707V4.22859L14.5061 3.93787V9.01241C14.1568 9.15555 13.5103 9.67108 13.5103 11.5241C13.5103 11.7867 13.7255 12 13.9892 12H15.5211C15.7848 12 16 11.7865 16 11.5241C16.0001 9.66818 15.3527 9.15361 15.0044 9.01159L15.0044 9.01163ZM0.498151 3.06269C0.505104 3.03989 0.574906 2.95726 0.799618 2.87395L6.84403 0.644528C7.1117 0.545457 7.49033 0.489084 7.88262 0.489084C8.27376 0.489084 8.65255 0.545599 8.9202 0.644528L14.9639 2.87395C15.1886 2.95713 15.259 3.0399 15.2654 3.05178C15.2584 3.07458 15.1886 3.1572 14.9639 3.24052L8.92092 5.46994C8.38475 5.66808 7.37995 5.66808 6.84474 5.46994L0.800329 3.24052C0.575622 3.15734 0.50526 3.07457 0.498308 3.06269H0.498151ZM13.2203 8.26704C13.2203 9.57002 11.5497 10.9723 7.88244 10.9723C4.21522 10.9723 2.54464 9.56988 2.54464 8.26704V4.41215L6.67143 5.93398C6.99736 6.05433 7.42801 6.12065 7.8834 6.12065C8.33798 6.12065 8.76807 6.05433 9.09442 5.93398L13.2205 4.41215L13.2203 8.26704ZM14.0097 11.5051C14.0147 9.57777 14.7512 9.45202 14.7532 9.45107C14.7611 9.45203 15.4967 9.57639 15.5017 11.5051H14.0097Z" fill="#006CA9"/>
</svg>
