<svg width="17" height="17" viewBox="0 0 17 17" fill="none" xmlns="http://www.w3.org/2000/svg">
<path d="M10.8086 15.7638C10.6081 15.9631 10.3215 16.0522 10.0432 16.0028L3.55046 14.8434C3.53858 14.8412 3.5264 14.8402 3.51437 14.8402L0.205364 14.8401C0.0919399 14.8401 0 14.932 0 15.0455C0 15.1589 0.0917969 15.2508 0.205364 15.2508H3.49634L9.97115 16.4071C10.0459 16.4204 10.1211 16.427 10.1958 16.427C10.5307 16.427 10.8565 16.2952 11.0981 16.0552L16.0426 11.1418C16.3024 10.8836 16.4412 10.5256 16.4227 10.1597C16.4042 9.79381 16.2306 9.45153 15.9459 9.22038C15.4633 8.82854 14.768 8.83558 14.2934 9.23699L11.3251 11.748H11.1042V11.4751C11.1042 10.6513 10.4335 9.98125 9.60936 9.98125H7.24985L3.73565 9.28384C3.17571 9.17285 2.60185 9.31677 2.16092 9.67879C1.77381 9.99658 1.53181 10.4477 1.47883 10.939H0.205422C0.0919986 10.939 5.84586e-05 11.031 5.84586e-05 11.1444C5.84586e-05 11.2578 0.0918556 11.3498 0.205422 11.3498H1.67317C1.7866 11.3498 1.87854 11.2578 1.87854 11.1444C1.87854 10.6982 2.07645 10.2796 2.42146 9.99631C2.76731 9.71246 3.21628 9.60003 3.65593 9.68669L7.18979 10.388C7.20282 10.3906 7.21628 10.3919 7.22974 10.3919H9.60959C10.2075 10.3919 10.6938 10.8779 10.6938 11.4751V11.7481H6.77359C6.66017 11.7481 6.56823 11.84 6.56823 11.9534C6.56823 12.0668 6.66003 12.1588 6.77359 12.1588H11.4003C11.4488 12.1588 11.4957 12.1416 11.5328 12.1102L14.5585 9.55052C14.8829 9.27598 15.3576 9.27154 15.6873 9.5392C15.8816 9.69688 16 9.9306 16.0126 10.1803C16.0251 10.4301 15.9304 10.6744 15.753 10.8506L10.8086 15.7638Z" fill="#006CA9"/>
<path d="M5.39151 2.48531C4.61245 3.24919 4.18325 4.2707 4.18325 5.36138V5.78013C3.80244 5.85145 3.51318 6.18498 3.51318 6.5861V7.58641C3.51318 8.03926 3.88152 8.40756 4.33433 8.40756H12.0901C12.5431 8.40756 12.9113 8.03908 12.9113 7.58641V6.5861C12.9113 6.18498 12.622 5.85144 12.2412 5.78013V5.43829C12.2412 3.26136 10.5364 1.4528 8.41738 1.34318L8.41752 0.410728H9.19885C9.31228 0.410728 9.40422 0.318788 9.40422 0.205364C9.40422 0.0919401 9.31242 0 9.19885 0H7.22558C7.11215 0 7.02021 0.0919401 7.02021 0.205364C7.02021 0.318788 7.11201 0.410728 7.22558 0.410728H8.0068V1.34333C7.02225 1.39245 6.10197 1.78899 5.39136 2.48516L5.39151 2.48531ZM12.5009 6.58628V7.5866C12.5009 7.81301 12.3166 7.99717 12.0904 7.99717L4.33459 7.99731C4.10817 7.99731 3.92401 7.81315 3.92401 7.58674V6.58628C3.92401 6.35986 4.10832 6.1757 4.33459 6.1757H12.0904C12.3166 6.1757 12.5009 6.35987 12.5009 6.58628V6.58628ZM11.8309 5.43844V5.76511H4.59386V5.36168C4.59386 4.38212 4.97925 3.46488 5.67912 2.7789C6.37928 2.09278 7.30972 1.72404 8.28653 1.74548C10.2409 1.78444 11.8308 3.44123 11.8308 5.43841L11.8309 5.43844Z" fill="#006CA9"/>
</svg>
