<svg width="17" height="16" viewBox="0 0 17 16" fill="none" xmlns="http://www.w3.org/2000/svg">
<path d="M11.5315 2.32916C11.5315 2.38234 11.5103 2.43334 11.4727 2.47094C11.4351 2.50855 11.3841 2.52967 11.3309 2.52967C11.2778 2.52967 11.2268 2.50855 11.1892 2.47094C11.1516 2.43334 11.1304 2.38234 11.1304 2.32916V1.20545C8.45244 4.41744 5.31779 6.83927 1.80516 8.40722C1.30388 8.63112 0.78809 8.84006 0.272069 9.02864C0.247257 9.03805 0.220827 9.04244 0.194306 9.04156C0.167786 9.04068 0.141703 9.03454 0.117572 9.0235C0.093441 9.01246 0.0717402 8.99675 0.0537281 8.97726C0.0357161 8.95778 0.0217533 8.93491 0.0126438 8.90999C0.00353527 8.88506 -0.000536919 8.85858 0.000664711 8.83207C0.00186634 8.80556 0.00831699 8.77956 0.0196447 8.75556C0.0309715 8.73157 0.0469503 8.71006 0.0666523 8.69228C0.0863533 8.67451 0.109387 8.66082 0.134418 8.65201C0.64175 8.4666 1.14885 8.26101 1.64161 8.04105C5.13555 6.48145 8.25146 4.06163 10.9088 0.845362H9.66899C9.61581 0.845362 9.56481 0.824237 9.52721 0.786633C9.4896 0.74903 9.46848 0.698029 9.46848 0.644849C9.46848 0.59167 9.4896 0.540668 9.52721 0.503065C9.56481 0.465461 9.61581 0.444336 9.66899 0.444336H11.3309C11.3333 0.444336 11.3356 0.444603 11.3379 0.444704C11.3418 0.444704 11.3457 0.444904 11.3496 0.445272C11.3527 0.445572 11.3556 0.446074 11.3587 0.446475C11.3617 0.446876 11.3656 0.447377 11.369 0.448045C11.3724 0.448714 11.3757 0.449516 11.3788 0.450318C11.3819 0.45112 11.385 0.451788 11.388 0.452691C11.391 0.453593 11.3947 0.454863 11.398 0.456033C11.4014 0.457202 11.4038 0.458038 11.4066 0.459174C11.4094 0.46031 11.4133 0.462081 11.4164 0.463652C11.4191 0.464889 11.4218 0.466092 11.4244 0.467462C11.4278 0.469233 11.4311 0.471205 11.4342 0.473176C11.4367 0.474613 11.4391 0.475984 11.4414 0.477521C11.4447 0.47976 11.4481 0.4822 11.4512 0.484606C11.453 0.485942 11.4549 0.487112 11.4566 0.488516C11.457 0.488783 11.4572 0.489117 11.4576 0.489385C11.4605 0.491791 11.4634 0.494431 11.4662 0.497004C11.4683 0.498976 11.4705 0.500814 11.4726 0.502852C11.4746 0.504891 11.4757 0.506194 11.4773 0.507932C11.4887 0.52008 11.4986 0.53362 11.5067 0.548235L11.5074 0.549305C11.5091 0.552647 11.5107 0.555988 11.5122 0.55933C11.5134 0.56197 11.5148 0.564544 11.5159 0.567251C11.5165 0.568554 11.5169 0.569957 11.5174 0.571294C11.5229 0.585291 11.5268 0.599865 11.5291 0.614739C11.5295 0.61768 11.5301 0.62062 11.5304 0.623561C11.5307 0.626502 11.5307 0.628608 11.5309 0.631114C11.5312 0.635291 11.5315 0.639502 11.5315 0.643713V0.644849L11.5315 2.32916Z" fill="#006CA9"/>
<path d="M0.203005 11.2394H3.74143V8.8146C3.74143 8.76142 3.76255 8.71042 3.80016 8.67281C3.83776 8.63521 3.88876 8.61409 3.94194 8.61409H7.9883V5.84824C7.9883 5.79506 8.00942 5.74406 8.04702 5.70645C8.08463 5.66885 8.13563 5.64773 8.18881 5.64773H12.0998V2.7054C12.0998 2.65222 12.1209 2.60122 12.1585 2.56361C12.1962 2.52601 12.2472 2.50488 12.3003 2.50488H16.1176C16.1705 2.50488 16.2212 2.52573 16.2587 2.56291C16.2963 2.60009 16.3176 2.65059 16.3181 2.70342L16.4446 15.6815C16.4448 15.708 16.4398 15.7342 16.4299 15.7588C16.4199 15.7834 16.4052 15.8057 16.3865 15.8245C16.3679 15.8433 16.3457 15.8583 16.3212 15.8685C16.2968 15.8787 16.2706 15.8839 16.2441 15.8839H0.203005C0.149826 15.8839 0.0988235 15.8628 0.0612202 15.8252C0.0236168 15.7876 0.002491 15.7366 0.002491 15.6834V11.4399C0.002491 11.3867 0.0236168 11.3357 0.0612202 11.2981C0.0988235 11.2605 0.149826 11.2394 0.203005 11.2394ZM4.14245 9.01511V11.4399L4.19399 15.4829H7.9883V9.01511H4.14245ZM8.38932 6.04875V15.4829H12.0998V6.04875H8.38932ZM15.9191 2.90591H12.5008V15.4829H16.0416L15.9191 2.90591ZM0.403519 15.4829H3.79296L3.74397 11.6404H0.403519V15.4829Z" fill="#006CA9"/>
</svg>
