<svg width="17" height="17" viewBox="0 0 17 17" fill="none" xmlns="http://www.w3.org/2000/svg">
<path d="M13.1333 0.63199C12.7324 1.03269 12.5126 1.56645 12.5142 2.13472C12.5157 2.63243 12.6867 3.10425 12.9999 3.4842L11.5785 4.90556C10.7368 4.13134 9.61464 3.65776 8.38363 3.65776C7.1595 3.65776 6.04285 4.12581 5.20274 4.89198L3.78082 3.47007C4.46843 2.63392 4.4249 1.39558 3.64774 0.618153C2.82035 -0.209089 1.47162 -0.205574 0.640413 0.625895C0.237955 1.02835 0.015485 1.56271 0.0137274 2.13065C0.0121205 2.69888 0.231968 3.23253 0.632822 3.63338C1.03206 4.03277 1.56335 4.25247 2.12942 4.25247H2.13541C2.63312 4.25116 3.10494 4.07995 3.48504 3.76677L4.90625 5.18797C4.13218 6.02969 3.65859 7.15188 3.65859 8.38289C3.65859 9.60686 4.12665 10.7237 4.89282 11.5638L3.47117 12.9854C3.09122 12.6722 2.61939 12.501 2.12183 12.4997C1.5631 12.4997 1.01995 12.718 0.619103 13.1188C0.218253 13.5195 -0.00159928 14.0533 8.75898e-06 14.6216C0.00161564 15.1892 0.224095 15.7237 0.626695 16.1263C1.04374 16.5433 1.59096 16.7519 2.13717 16.7519C2.68001 16.7519 3.22196 16.546 3.63403 16.1339C4.03488 15.7332 4.25473 15.1994 4.25312 14.6312C4.25166 14.1335 4.0806 13.6616 3.76742 13.2817L5.18877 11.8603C6.03049 12.6344 7.15268 13.108 8.38368 13.108C9.60781 13.108 10.7245 12.6399 11.5646 11.8737L12.9865 13.2957C12.2989 14.1318 12.3424 15.3701 13.1196 16.1476C13.5318 16.5598 14.0735 16.7656 14.6162 16.7656C15.1626 16.7656 15.7099 16.5569 16.1269 16.14C16.5294 15.7375 16.7518 15.2032 16.7536 14.6352C16.7552 14.067 16.5353 13.5334 16.1345 13.1325C15.7352 12.7331 15.204 12.5134 14.6379 12.5134H14.6319C14.1342 12.5147 13.6624 12.6859 13.2823 12.9991L11.8611 11.5779C12.6351 10.736 13.1087 9.61386 13.1087 8.38285C13.1087 7.15887 12.6407 6.04207 11.8745 5.20196L13.2961 3.78031C13.6761 4.0935 14.1479 4.2647 14.6455 4.26601H14.6518C15.2177 4.26601 15.749 4.0463 16.1482 3.64691C16.5491 3.24621 16.7689 2.71246 16.7673 2.14418C16.7657 1.57651 16.5432 1.042 16.1406 0.639432C15.3094 -0.191774 13.9602 -0.19484 13.1333 0.631982L13.1333 0.63199ZM2.1343 3.83344H2.12934C1.67516 3.83344 1.24907 3.65727 0.928843 3.33708C0.607321 3.01571 0.431024 2.5877 0.432482 2.13165C0.433651 1.67531 0.612598 1.2457 0.936472 0.92196C1.27187 0.586561 1.7117 0.418719 2.1511 0.418719C2.58658 0.418719 3.02116 0.58379 3.3516 0.914219C4.01523 1.578 4.01171 2.66148 3.344 3.32934C3.02029 3.6532 2.59065 3.83229 2.13431 3.83344H2.1343ZM3.33786 15.8376C2.67423 16.5011 1.59075 16.4979 0.92274 15.83C0.599031 15.5063 0.420097 15.0766 0.418751 14.6202C0.41729 14.1643 0.593608 13.7363 0.915111 13.4148C1.23532 13.0946 1.66143 12.9184 2.11561 12.9184H2.12057C2.57677 12.9197 3.00653 13.0987 3.33027 13.4224C3.654 13.7461 3.83291 14.1757 3.83425 14.6321C3.83572 15.0883 3.6594 15.5163 3.33789 15.8377L3.33786 15.8376ZM14.633 12.9323H14.638C15.0922 12.9323 15.5183 13.1085 15.8385 13.4286C16.16 13.75 16.3363 14.178 16.3348 14.6341C16.3337 15.0904 16.1547 15.52 15.8309 15.8438C15.163 16.5116 14.0797 16.5151 13.4157 15.8515C12.7521 15.1877 12.7556 14.1042 13.4233 13.4364C13.747 13.1125 14.1767 12.9334 14.633 12.9323L14.633 12.9323ZM8.38374 12.6891C6.00938 12.6891 4.07756 10.7573 4.07756 8.38289C4.07756 6.00838 6.0093 4.07671 8.38374 4.07671C10.7582 4.07671 12.6899 6.0083 12.6899 8.38289C12.6899 10.7575 10.7582 12.6891 8.38374 12.6891ZM15.8521 3.35085C15.5319 3.67105 15.1058 3.84721 14.6516 3.84721H14.6467C14.1905 3.8459 13.7607 3.66695 13.437 3.34322C13.1132 3.01949 12.9343 2.58987 12.933 2.13353C12.9317 1.67748 13.108 1.24944 13.4295 0.928097C13.7599 0.597667 14.1945 0.432596 14.6301 0.432596C15.0692 0.432596 15.5091 0.600442 15.8445 0.935688C16.1682 1.2594 16.3471 1.68915 16.3485 2.14553C16.3499 2.60143 16.1736 3.02947 15.8521 3.35081L15.8521 3.35085Z" fill="#006CA9"/>
<path d="M8.40643 8.17329H8.36056C7.85235 8.17329 7.43882 7.76179 7.43882 7.25578C7.43882 6.74977 7.85238 6.33826 8.36056 6.33826C8.86878 6.33826 9.28204 6.74977 9.28204 7.25578C9.28204 7.37147 9.37568 7.46526 9.49152 7.46526C9.60722 7.46526 9.701 7.37147 9.701 7.25578C9.701 6.59009 9.20973 6.03819 8.57006 5.93741V5.63868C8.57006 5.52298 8.47643 5.4292 8.36058 5.4292C8.24489 5.4292 8.15111 5.52298 8.15111 5.63868V5.93741C7.51144 6.0382 7.02002 6.59009 7.02002 7.25578C7.02002 7.9926 7.62158 8.59224 8.3606 8.59224H8.40647C8.91468 8.59224 9.32821 9.00375 9.32821 9.50976C9.32821 10.0158 8.91465 10.4273 8.40647 10.4273C7.89825 10.4273 7.48499 10.0158 7.48499 9.50976C7.48499 9.39406 7.39135 9.30028 7.27551 9.30028C7.15981 9.30028 7.06603 9.39406 7.06603 9.50976C7.06603 10.1595 7.53378 10.7019 8.15112 10.8211V11.1267C8.15112 11.2424 8.24476 11.3362 8.3606 11.3362C8.4763 11.3362 8.57008 11.2424 8.57008 11.1267V10.835C9.2321 10.754 9.74705 10.191 9.74705 9.50961C9.74705 8.77295 9.14549 8.1733 8.40647 8.1733L8.40643 8.17329Z" fill="#006CA9"/>
</svg>
