<svg width="13" height="18" viewBox="0 0 13 18" fill="none" xmlns="http://www.w3.org/2000/svg">
<path d="M10.1743 14.9018C10.2786 14.9018 10.3606 14.8199 10.3606 14.7156V8.00952C10.3606 7.9052 10.2786 7.82324 10.1743 7.82324C10.07 7.82324 9.98804 7.9052 9.98804 8.00952V14.7156C9.98804 14.8199 10.0737 14.9018 10.1743 14.9018Z" fill="#006CA9"/>
<path d="M8.6394 14.9018C8.74371 14.9018 8.82568 14.8199 8.82568 14.7156V8.00952C8.82568 7.9052 8.74372 7.82324 8.6394 7.82324C8.53508 7.82324 8.45312 7.9052 8.45312 8.00952V14.7156C8.45312 14.8199 8.53508 14.9018 8.6394 14.9018Z" fill="#006CA9"/>
<path d="M7.10083 14.9018C7.20514 14.9018 7.2871 14.8199 7.2871 14.7156V8.00952C7.2871 7.9052 7.20514 7.82324 7.10083 7.82324C6.99651 7.82324 6.91455 7.9052 6.91455 8.00952V14.7156C6.91455 14.8199 7.00024 14.9018 7.10083 14.9018Z" fill="#006CA9"/>
<path d="M5.56616 14.9018C5.67047 14.9018 5.75243 14.8199 5.75243 14.7156V8.00952C5.75243 7.9052 5.67048 7.82324 5.56616 7.82324C5.46184 7.82324 5.37988 7.9052 5.37988 8.00952V14.7156C5.37988 14.8199 5.46184 14.9018 5.56616 14.9018Z" fill="#006CA9"/>
<path d="M4.0271 14.9018C4.13141 14.9018 4.21337 14.8199 4.21337 14.7156V8.00952C4.21337 7.9052 4.13141 7.82324 4.0271 7.82324C3.92278 7.82324 3.84082 7.9052 3.84082 8.00952V14.7156C3.84082 14.8199 3.92651 14.9018 4.0271 14.9018Z" fill="#006CA9"/>
<path d="M2.49243 14.9018C2.59674 14.9018 2.6787 14.8199 2.6787 14.7156V8.00952C2.6787 7.9052 2.59674 7.82324 2.49243 7.82324C2.38811 7.82324 2.30615 7.9052 2.30615 8.00952V14.7156C2.30615 14.8199 2.38811 14.9018 2.49243 14.9018Z" fill="#006CA9"/>
<path d="M9.59315 2.61156V0.186276C9.59315 0.0819623 9.51119 0 9.40687 0H3.25979C3.15547 0 3.07351 0.0819589 3.07351 0.186276V2.61156C1.36723 2.68607 0 4.06078 0 5.73725V13.6354C0 15.3119 1.36726 16.6866 3.07351 16.7611V17.6962C3.07351 17.8005 3.15547 17.8825 3.25979 17.8825H4.79841C4.90273 17.8825 4.98469 17.8005 4.98469 17.6962V16.7649H7.68567V17.6962C7.68567 17.8005 7.76763 17.8825 7.87195 17.8825H9.41057C9.51489 17.8825 9.59685 17.8005 9.59685 17.6962V16.7611C11.3031 16.6866 12.6704 15.3119 12.6704 13.6354V5.73725C12.6666 4.06078 11.2994 2.68609 9.5931 2.61156H9.59315ZM3.44606 0.372558H9.22052V2.60785H3.44606V0.372558ZM4.61212 17.5096H3.44606V16.7645H4.61212V17.5096ZM9.22065 17.5096H8.05459V16.7645H9.22065V17.5096ZM12.2942 13.6351C12.2942 15.1551 11.0163 16.392 9.44417 16.392H3.21874C1.64659 16.392 0.368737 15.1551 0.368737 13.6351V6.33299H12.2903V13.6351H12.2942ZM12.2942 5.9607H0.37262V5.73717C0.37262 4.21717 1.65047 2.98029 3.22262 2.98029H9.4443C11.0164 2.98029 12.2943 4.21714 12.2943 5.73717L12.2942 5.9607Z" fill="#006CA9"/>
</svg>
