<svg width="18" height="18" viewBox="0 0 18 18" fill="none" xmlns="http://www.w3.org/2000/svg">
<path d="M2.37939 10.2102L3.64113 10.3317C3.77609 10.8681 3.99192 11.3807 4.2812 11.8521L3.4779 12.8222C3.43929 12.8688 3.41946 12.9281 3.42229 12.9886C3.42512 13.049 3.45041 13.1063 3.49321 13.1491L4.85936 14.5152C4.90215 14.558 4.95938 14.5833 5.01984 14.5861C5.0803 14.589 5.13965 14.5691 5.18626 14.5305L6.15793 13.7258C6.62956 14.0138 7.1414 14.2299 7.67665 14.3672L7.79817 15.6247C7.80419 15.6844 7.83239 15.7396 7.87719 15.7795C7.92199 15.8193 7.98012 15.8409 8.04008 15.84H9.97689C10.0369 15.8409 10.095 15.8193 10.1398 15.7795C10.1846 15.7396 10.2128 15.6844 10.2188 15.6247L10.3403 14.3651C10.8766 14.2306 11.3893 14.0152 11.8607 13.7263L12.8307 14.5301C12.8773 14.5688 12.9367 14.5886 12.9971 14.5858C13.0576 14.583 13.1148 14.5578 13.1577 14.515L14.5238 13.1491C14.5666 13.1063 14.5919 13.0491 14.5947 12.9886C14.5975 12.9282 14.5777 12.8688 14.5391 12.8222L13.7346 11.8505C14.0226 11.3788 14.2387 10.8669 14.376 10.3316L15.6208 10.2101C15.6809 10.2042 15.7366 10.1762 15.7772 10.1315C15.8177 10.0868 15.8402 10.0286 15.8402 9.96824V8.03143C15.8402 7.97101 15.8177 7.91275 15.7771 7.86802C15.7365 7.82328 15.6806 7.79529 15.6205 7.78949L14.3588 7.66796C14.2238 7.13161 14.008 6.61893 13.7187 6.14754L14.522 5.17751C14.5604 5.1311 14.5803 5.07207 14.5776 5.01187C14.575 4.95167 14.5501 4.89459 14.5078 4.85171L13.1589 3.48557C13.1162 3.44231 13.0588 3.41662 12.9981 3.41358C12.9374 3.41054 12.8777 3.43037 12.8309 3.46914L11.8593 4.27383C11.3876 3.9859 10.8758 3.76973 10.3405 3.63244L10.219 2.37498C10.213 2.31531 10.1848 2.26007 10.14 2.2202C10.0952 2.18034 10.0371 2.15874 9.9771 2.1597H8.04029C7.98033 2.15874 7.92219 2.18034 7.87739 2.2202C7.83259 2.26007 7.8044 2.31531 7.79838 2.37498L7.67686 3.63452C7.14057 3.76906 6.62791 3.98449 6.15651 4.27341L5.18626 3.4697C5.13969 3.43105 5.08036 3.41117 5.0199 3.41395C4.95944 3.41673 4.90219 3.44197 4.85936 3.48473L3.49321 4.85074C3.45043 4.89354 3.42515 4.95075 3.42232 5.0112C3.41949 5.07164 3.43931 5.13097 3.4779 5.17758L4.28258 6.14914C3.99466 6.62076 3.7785 7.13259 3.6412 7.66782L2.37939 7.78935C2.31922 7.79515 2.26337 7.82317 2.22275 7.86793C2.18212 7.91269 2.15963 7.97098 2.15967 8.03143V9.96824C2.15967 10.0287 2.18217 10.0869 2.22279 10.1317C2.26342 10.1764 2.31924 10.2044 2.37939 10.2102ZM2.64578 8.2522L3.86137 8.13504C3.91267 8.13009 3.96108 8.10896 3.99959 8.07471C4.0381 8.04045 4.06472 7.99483 4.07561 7.94445C4.20888 7.34505 4.4495 6.77471 4.78585 6.26098C4.81386 6.21757 4.82731 6.16637 4.82425 6.11479C4.8212 6.06322 4.80178 6.01397 4.76883 5.97418L3.99342 5.03803L5.04665 3.9848L5.98293 4.76025C6.0232 4.7936 6.07315 4.81308 6.12537 4.81579C6.17759 4.8185 6.22929 4.80429 6.27279 4.77529C6.78415 4.4369 7.35405 4.19669 7.95335 4.06695C8.00342 4.05701 8.04897 4.03123 8.08328 3.99344C8.1176 3.95564 8.13886 3.90782 8.14394 3.85702L8.26095 2.64567H9.75623L9.87338 3.85692C9.8784 3.90797 9.89959 3.95608 9.93388 3.99423C9.96817 4.03238 10.0137 4.05858 10.064 4.069C10.6633 4.20189 11.2337 4.44215 11.7474 4.77817C11.7909 4.80611 11.8421 4.81946 11.8937 4.8163C11.9453 4.81315 11.9945 4.79363 12.0343 4.7606L12.9695 3.98595L14.0074 5.03702L13.2311 5.97452C13.1977 6.01479 13.1783 6.06474 13.1756 6.11695C13.1728 6.16916 13.1871 6.22085 13.2161 6.26435C13.5544 6.77572 13.7946 7.34561 13.9244 7.9449C13.9353 7.99528 13.9619 8.04088 14.0004 8.07514C14.0389 8.10939 14.0873 8.13051 14.1386 8.13546L15.3541 8.2522V9.74775L14.1555 9.86466C14.1043 9.86966 14.0559 9.89081 14.0175 9.92506C13.979 9.95931 13.9525 10.0049 13.9416 10.0552C13.8083 10.6546 13.5677 11.225 13.2313 11.7387C13.2033 11.7821 13.1899 11.8333 13.1929 11.8849C13.196 11.9364 13.2154 11.9857 13.2483 12.0255L14.0238 12.9616L12.9706 14.0149L12.0343 13.2395C11.994 13.2061 11.944 13.1866 11.8918 13.1839C11.8396 13.1812 11.7879 13.1954 11.7444 13.2244C11.233 13.5628 10.6631 13.803 10.0638 13.9327C10.0138 13.9427 9.96821 13.9685 9.9339 14.0063C9.89959 14.0441 9.87832 14.0919 9.87324 14.1427L9.75623 15.354H8.26095L8.1438 14.1427C8.13878 14.0917 8.11759 14.0436 8.0833 14.0054C8.04902 13.9673 8.00343 13.9411 7.95321 13.9307C7.35386 13.7978 6.78351 13.5575 6.26974 13.2215C6.22627 13.1936 6.17503 13.1802 6.12346 13.1834C6.07189 13.1865 6.02266 13.206 5.98293 13.2391L5.04665 14.0147L3.99342 12.9616L4.76883 12.0254C4.80217 11.9851 4.82164 11.9352 4.82434 11.883C4.82704 11.8307 4.81284 11.7791 4.78383 11.7356C4.44546 11.2242 4.20526 10.6543 4.0755 10.055C4.06461 10.0046 4.03798 9.95903 3.99947 9.92477C3.96097 9.89052 3.91256 9.8694 3.86126 9.86445L2.64578 9.74747V8.2522Z" fill="#006CA9"/>
<path d="M9.0088 13.0136C9.80267 13.0136 10.5787 12.7782 11.2388 12.3371C11.8989 11.8961 12.4133 11.2692 12.7171 10.5358C13.0209 9.80231 13.1004 8.99525 12.9455 8.21664C12.7906 7.43802 12.4084 6.72282 11.847 6.16147C11.2856 5.60012 10.5704 5.21784 9.79182 5.06296C9.0132 4.90809 8.20615 4.98758 7.47271 5.29138C6.73927 5.59519 6.11238 6.10966 5.67133 6.76974C5.23028 7.42982 4.99487 8.20586 4.99487 8.99973C4.99609 10.0639 5.41937 11.0842 6.17187 11.8367C6.92436 12.5891 7.94461 13.0124 9.0088 13.0136ZM9.0088 5.47195C9.70652 5.47196 10.3886 5.67887 10.9687 6.06651C11.5489 6.45415 12.001 7.00511 12.268 7.64973C12.535 8.29435 12.6049 9.00367 12.4688 9.68799C12.3326 10.3723 11.9966 11.0009 11.5033 11.4943C11.0099 11.9876 10.3813 12.3236 9.69698 12.4597C9.01266 12.5958 8.30335 12.526 7.65873 12.259C7.01412 11.992 6.46316 11.5398 6.07552 10.9597C5.68788 10.3795 5.48098 9.69746 5.48098 8.99973C5.48206 8.06443 5.85409 7.16774 6.51545 6.50639C7.17681 5.84504 8.0735 5.47302 9.0088 5.47195Z" fill="#006CA9"/>
</svg>
