<svg width="16" height="16" viewBox="0 0 16 16" fill="none" xmlns="http://www.w3.org/2000/svg">
<path d="M6.15132 0C5.65012 0.0116795 5.26248 0.128087 4.98267 0.34883C4.70287 0.569574 4.5443 0.887657 4.48848 1.23841C4.42827 1.61698 4.47512 2.04494 4.59308 2.48839C4.49925 2.44868 4.39349 2.41857 4.27915 2.41857C3.97937 2.41857 3.73902 2.47463 3.54071 2.61621C3.34449 2.7565 3.19772 2.9596 3.01174 3.23836C3.00979 3.24109 3.00771 3.24135 3.0059 3.2442C2.99889 3.25419 2.25825 4.3269 1.51164 5.74987C0.761666 7.17957 0 8.95695 0 10.4185C0 13.2505 0.968145 14.2514 2.07566 15.9128C2.10953 15.9668 2.16884 15.9997 2.23256 16H6.32561C6.42826 16 6.51158 15.9167 6.51158 15.8139C6.51158 14.6274 6.46836 13.5024 6.30225 12.5466C6.14288 11.6286 5.86829 10.8662 5.39537 10.3547V6.88368C5.39537 6.33641 4.99164 5.90234 4.47084 5.80812C4.49939 5.76205 4.64526 5.52664 4.81968 5.1686C4.99722 4.80458 5.17866 4.37698 5.20344 3.99427C5.58238 4.721 6.05906 5.41723 6.52328 5.96513C6.79218 6.28255 7.05159 6.55169 7.29647 6.74415C7.54149 6.9366 7.76329 7.06975 8 7.06975C8.23671 7.06975 8.45851 6.9366 8.70353 6.74415C8.94841 6.55169 9.20785 6.28253 9.47672 5.96513C9.94094 5.41723 10.4176 4.721 10.7966 3.99427C10.8213 4.37698 11.0028 4.80458 11.1803 5.1686C11.3547 5.52663 11.5006 5.76204 11.5292 5.80812C11.0084 5.90233 10.6046 6.33641 10.6046 6.88368V10.3547C10.1317 10.8662 9.85712 11.6286 9.69775 12.5466C9.53164 13.5024 9.48842 14.6274 9.48842 15.8139C9.48842 15.9167 9.57174 16 9.67439 16H13.7674C13.8312 15.9997 13.8905 15.9668 13.9243 15.9128C15.0319 14.2516 16 13.2506 16 10.4185C16 8.95705 15.2383 7.17967 14.4884 5.74987C13.7417 4.3269 13.0011 3.2542 12.9941 3.2442C12.9923 3.24135 12.9902 3.24109 12.9883 3.23836C12.8023 2.95961 12.6555 2.75651 12.4593 2.61621C12.261 2.47463 12.0206 2.41857 11.7208 2.41857C11.6065 2.41857 11.5007 2.44868 11.4069 2.48839C11.5249 2.04494 11.5717 1.61698 11.5115 1.23841C11.4557 0.887624 11.2971 0.569557 11.0173 0.34883C10.7375 0.128104 10.3499 0.0116941 9.84868 0H9.84297C9.14646 0.00376338 8.5421 0.407866 7.99987 0.88377C7.45768 0.407899 6.85329 0.0037873 6.15677 0H6.15106H6.15132ZM6.15703 0.372052H6.16287C6.75673 0.377762 7.32749 0.752278 7.87215 1.24998C7.94391 1.31798 8.0563 1.31798 8.12807 1.24998C8.67275 0.752311 9.24349 0.377767 9.83734 0.372052C9.83955 0.372182 9.84085 0.372052 9.84318 0.372052C10.2857 0.383343 10.5861 0.488588 10.785 0.645356C10.9848 0.803031 11.0949 1.01522 11.1397 1.29657C11.2292 1.85929 11.0163 2.67412 10.6338 3.48832C10.2513 4.30253 9.71239 5.11945 9.1978 5.72665C8.94045 6.03032 8.6866 6.28402 8.47105 6.45338C8.25536 6.62274 8.06939 6.69762 8.00008 6.69762C7.93078 6.69762 7.74481 6.62274 7.52912 6.45338C7.31356 6.28403 7.05971 6.03033 6.80237 5.72665C6.28781 5.11945 5.74884 4.30253 5.36638 3.48832C4.98392 2.67412 4.77096 1.85929 4.8605 1.29657C4.90527 1.01522 5.01532 0.803061 5.21518 0.645356C5.414 0.488588 5.71442 0.383345 6.15698 0.372052H6.15703ZM4.27918 2.79064C4.41869 2.79064 4.50058 2.82984 4.57572 2.90692C4.65073 2.98413 4.70913 3.10508 4.75014 3.23836C4.83216 3.50479 4.83735 3.8139 4.83735 3.90695C4.83735 4.17182 4.66409 4.63368 4.48266 5.00574C4.30122 5.37779 4.12213 5.66848 4.12213 5.66848C4.09786 5.70858 4.08955 5.75634 4.0989 5.80228C3.57202 5.8913 3.16281 6.33187 3.16281 6.88355V12.2788C3.16216 12.3286 3.1815 12.3765 3.21641 12.4121C3.25132 12.4475 3.29908 12.4675 3.34891 12.4675C3.39875 12.4675 3.4465 12.4475 3.48141 12.4121C3.51632 12.3765 3.53566 12.3286 3.53501 12.2788V6.88355C3.53501 6.46814 3.86361 6.13944 4.27914 6.13944C4.69467 6.13944 5.02326 6.46816 5.02326 6.88355V10.4184C5.02365 10.4661 5.04247 10.5119 5.07569 10.5462C5.49566 10.9662 5.77078 11.6917 5.93028 12.6101C6.08108 13.4784 6.12871 14.5226 6.13377 15.6276H2.33142C1.23494 13.9986 0.372173 13.1184 0.37204 10.4184C0.37204 9.08911 1.09892 7.32589 1.83723 5.91848C2.57554 4.51096 3.31395 3.45331 3.31395 3.45331C3.3159 3.45149 3.31784 3.44954 3.31979 3.4476C3.50316 3.17248 3.63437 3.00947 3.76169 2.91851C3.889 2.82754 4.02072 2.79055 4.2791 2.79055L4.27918 2.79064ZM11.7211 2.79064C11.9795 2.79064 12.1112 2.82763 12.2385 2.9186C12.3658 3.00957 12.497 3.17257 12.6804 3.44769C12.6823 3.44964 12.6843 3.45159 12.6862 3.4534C12.6862 3.4534 13.4247 4.51106 14.1629 5.91857C14.9013 7.32595 15.6281 9.08921 15.6281 10.4185C15.628 13.1185 14.7652 13.9988 13.6688 15.6277H9.86641C9.87147 14.5227 9.9191 13.4785 10.0699 12.6102C10.2294 11.6918 10.5045 10.9662 10.9245 10.5463C10.9577 10.512 10.9765 10.4662 10.9769 10.4185V6.88365C10.9769 6.46824 11.3055 6.13954 11.721 6.13954C12.1366 6.13954 12.4652 6.46826 12.4652 6.88365V12.2789C12.4645 12.3287 12.4839 12.3766 12.5188 12.4122C12.5537 12.4476 12.6014 12.4676 12.6513 12.4676C12.7011 12.4676 12.7489 12.4476 12.7838 12.4122C12.8187 12.3766 12.838 12.3287 12.8374 12.2789V6.88365C12.8374 6.33392 12.4312 5.89373 11.9071 5.80237C11.9148 5.75565 11.9043 5.70789 11.8781 5.66858C11.8781 5.66858 11.699 5.37788 11.5175 5.00583C11.3361 4.63378 11.1628 4.1719 11.1628 3.90705C11.1628 3.814 11.168 3.5049 11.25 3.23846C11.2911 3.10518 11.3495 2.98423 11.4245 2.90702C11.4996 2.82993 11.5815 2.79074 11.721 2.79074L11.7211 2.79064Z" fill="#006CA9"/>
</svg>
