<svg width="15" height="9" viewBox="0 0 15 9" fill="none" xmlns="http://www.w3.org/2000/svg">
<path d="M0 0V9H15V5.78736H13.3334V2.89439H11.3334V0H0ZM11.0034 2.89439H7.66502V0.318139H11.0034V2.89439ZM0.330033 3.21261H1.66664V5.7873H0.330033V3.21261ZM1.99667 3.21261H5.66829V5.7873H1.99667V3.21261ZM3.99664 2.89439L3.99676 0.318139H7.3351V2.89439H3.99664ZM7.33498 6.10561V8.68186H3.99664V6.10561H7.33498ZM7.66499 6.10561H11.0033V8.68186H7.66499V6.10561ZM5.99835 5.78739V3.2127H9.33492V5.78739H5.99835ZM3.66664 0.31828V2.89453H0.330062V0.31828H3.66664ZM0.330062 6.10564H3.66664V8.68189H0.330062V6.10564ZM14.67 8.68189H11.3334V6.10564H14.67V8.68189ZM13.0034 5.7875H9.66502V3.21281H13.0034V5.7875Z" fill="#006CA9"/>
</svg>
