<svg width="30" height="21" viewBox="0 0 30 21" fill="none" xmlns="http://www.w3.org/2000/svg">
<path d="M29.9081 6.7469C29.8062 6.67289 29.6623 6.69352 29.5861 6.79284L27.9031 9.00074L26.3226 7.84684C26.2919 7.76539 26.2151 7.70903 26.1265 7.70329L19.3223 2.73119L21.0064 0.522036C21.0513 0.475463 21.0735 0.412515 21.0678 0.348926C21.0619 0.285126 21.0288 0.227068 20.9766 0.18879C20.9241 0.150511 20.8577 0.135836 20.7935 0.148383C20.7295 0.160931 20.674 0.199636 20.6407 0.254715L18.8198 2.64315L18.8201 2.64294C18.7443 2.74204 18.765 2.88218 18.8664 2.95619L19.6772 3.54803C19.6745 3.5508 19.6721 3.55377 19.6704 3.55696C19.1079 4.47268 18.7914 4.68833 18.7219 4.69557C18.6285 4.67728 18.5364 4.65346 18.4458 4.62475C17.6571 4.3972 15.8082 3.8649 14.3686 5.68C14.2673 5.80782 14.17 5.9318 14.0766 6.05216C13.5609 5.71148 13.097 5.54602 12.6478 5.3865L12.6476 5.38629C12.3309 5.28315 12.0233 5.15512 11.7278 5.00349C11.0651 4.64622 10.1674 3.86554 9.97299 3.69351L11.2212 2.34051C11.2633 2.29627 11.2852 2.23715 11.2822 2.17676C11.2783 2.11699 11.2504 2.06128 11.2047 2.0213L8.91517 0.0562593H8.91539C8.82004 -0.0258287 8.67461 -0.0171129 8.59036 0.0760367C8.50633 0.16897 8.51526 0.311031 8.61061 0.393331L10.7251 2.21012L2.50479 11.1011L0.382221 9.28064C0.287306 9.19834 0.141882 9.20706 0.0576331 9.29999C-0.0263979 9.39293 -0.0174755 9.53478 0.0774437 9.61708L2.36698 11.5821C2.46124 11.6634 2.60471 11.6553 2.68895 11.5642L3.92507 10.2274C4.57249 10.7038 5.94877 11.8048 6.19499 12.3657C6.37785 12.7826 7.07709 13.8382 8.55463 15.224L8.39005 15.4198C7.95117 15.9409 8.04391 16.7269 8.59665 17.1711L8.61319 17.1843V17.1841C8.84875 17.3757 9.14547 17.481 9.452 17.4818C9.48487 17.4818 9.51774 17.4806 9.55083 17.4782C9.57652 17.4782 9.60134 17.4735 9.62638 17.4699H9.62616C9.59677 17.6188 9.59677 17.7719 9.62616 17.9208C9.6993 18.2583 9.89044 18.5605 10.1669 18.7752L10.1852 18.7895C10.4536 19.0104 10.7919 19.134 11.1429 19.1391H11.1466C11.302 19.1395 11.4564 19.1106 11.6007 19.0538C11.6231 19.4117 11.7977 19.7439 12.0823 19.9704L12.0988 19.984H12.0986C12.3346 20.1756 12.6313 20.2809 12.938 20.2818C13.1938 20.2828 13.4437 20.2071 13.6543 20.0651C13.7276 20.3124 13.8765 20.5319 14.0809 20.6944L14.0955 20.7063C14.3226 20.893 14.6089 20.9968 14.9056 21H14.9215C15.2136 21.0027 15.4916 20.8775 15.6791 20.6586L16.0448 20.2216C16.2081 20.302 16.3733 20.3824 16.5423 20.4628C16.7937 20.5755 17.0673 20.6333 17.3438 20.6325C17.8402 20.6414 18.3128 20.4256 18.6239 20.0479C18.9537 19.6572 18.9574 19.0736 18.8634 18.6492L18.8636 18.649C18.9468 18.6634 19.0312 18.6709 19.1159 18.6711H19.1579C19.5372 18.6592 19.862 18.4954 20.1227 18.1841C20.4695 17.7909 20.5884 17.2529 20.4386 16.755H20.4917C21.0177 16.755 21.4267 16.4704 21.6852 15.9177C21.8365 15.6089 21.8778 15.2595 21.8027 14.925H21.8278C21.9094 14.9252 21.991 14.9191 22.0716 14.9065C22.4983 14.8404 22.8464 14.6035 23.1078 14.2026C23.3443 13.8453 23.5613 13.2218 23.0719 12.4347C23.4736 11.8839 24.3855 10.4697 24.6768 9.84868C24.8884 9.39741 25.663 8.63756 26.0947 8.24095L27.8106 9.49437C27.8502 9.52351 27.8983 9.53925 27.9477 9.53903C27.9586 9.53967 27.9697 9.53967 27.9806 9.53903C28.0409 9.53031 28.0953 9.49863 28.1319 9.45099L29.9532 7.06255C29.9902 7.01492 30.0063 6.95473 29.9978 6.89561C29.9893 6.83628 29.9571 6.7829 29.9081 6.74696L29.9081 6.7469ZM9.51782 17.0294C9.29686 17.0443 9.07872 16.9754 8.90823 16.8372L8.89169 16.8235C8.53379 16.5364 8.46979 16.0346 8.74779 15.7041L9.49386 14.8182L9.49408 14.818C9.64168 14.6444 9.86156 14.5451 10.0925 14.5477C10.3015 14.5496 10.5031 14.6221 10.6631 14.7531C11.0203 15.0402 11.085 15.5427 10.807 15.8732L10.0603 16.7591C9.92555 16.9186 9.72919 17.0164 9.5178 17.0294L9.51782 17.0294ZM11.1453 18.689C10.9009 18.6843 10.6657 18.5969 10.4796 18.4419L10.4613 18.4277C10.2689 18.2777 10.1354 18.0674 10.0841 17.8322C10.0392 17.6435 10.0841 17.4453 10.206 17.2926L11.4251 15.845C11.5548 15.6987 11.7458 15.6175 11.9439 15.6247C12.1962 15.6311 12.4383 15.7238 12.6279 15.8867C12.8203 16.0364 12.9535 16.2469 13.0045 16.4822C13.0495 16.671 13.0047 16.8697 12.8826 17.0223L12.2273 17.8001L11.875 18.2169L11.6654 18.4663H11.6652C11.5354 18.6137 11.3443 18.6956 11.1453 18.689L11.1453 18.689ZM12.3901 19.6364L12.2445 19.8097L12.3738 19.6228C12.0166 19.3357 11.9519 18.8338 12.2299 18.5034L12.976 17.6174C13.2546 17.287 13.7714 17.2519 14.145 17.5526V17.5524C14.3177 17.6887 14.4294 17.8854 14.4566 18.1008C14.4725 18.2263 14.4561 18.3539 14.4089 18.4717L13.8254 19.1641H13.8257C13.7693 19.2313 13.7229 19.306 13.6879 19.3857L13.5429 19.5584C13.2642 19.8889 12.7454 19.9234 12.3901 19.6365L12.3901 19.6364ZM15.3269 20.3712C15.2246 20.4873 15.0746 20.5528 14.9178 20.5498C14.7245 20.5481 14.5377 20.4805 14.3899 20.3586L14.3747 20.3467C14.2234 20.2291 14.1193 20.0628 14.081 19.8776C14.0631 19.7891 14.0677 19.6979 14.0938 19.6113L14.6424 18.9563C14.7043 18.8834 14.7572 18.8034 14.7996 18.7181C14.9026 18.6188 15.0426 18.5648 15.1873 18.5686C15.3852 18.5737 15.5755 18.6456 15.7255 18.7717C15.8772 18.8893 15.9813 19.0556 16.0194 19.2411C16.0536 19.3906 16.0176 19.5475 15.9212 19.6685L15.3269 20.3712ZM22.7229 13.9562C22.5303 14.2487 22.2962 14.4135 21.9989 14.4594C21.4594 14.5428 20.7438 14.2331 19.8691 13.5381C19.8221 13.4977 19.7605 13.4777 19.6982 13.4826C19.6357 13.4877 19.5783 13.5173 19.5389 13.5645C19.4992 13.6119 19.4812 13.673 19.4888 13.7336C19.4964 13.7942 19.5288 13.8493 19.5789 13.8859C20.2146 14.3914 20.7902 14.7119 21.2996 14.8463C21.3497 14.9511 21.4746 15.2875 21.2691 15.7263C21.0484 16.1984 20.7236 16.373 20.2464 16.2741V16.2743C20.2194 16.2683 20.193 16.2605 20.1671 16.2511C20.1408 16.2345 20.1114 16.2228 20.0805 16.2171C19.7428 16.0712 19.2271 15.705 18.9351 15.4711C18.837 15.396 18.6955 15.4111 18.6162 15.5051C18.537 15.5993 18.5489 15.7379 18.6432 15.8175C18.7279 15.8853 19.3801 16.4027 19.8904 16.6256C20.0097 16.823 20.0624 17.052 20.0404 17.2802C20.0186 17.5086 19.9233 17.7242 19.7685 17.8963C19.593 18.1059 19.3893 18.2118 19.145 18.2195L19.1448 18.2197C18.9556 18.2208 18.7684 18.1816 18.5962 18.1047C18.5827 18.0976 18.5687 18.0915 18.5541 18.0868C18.0055 17.845 17.5368 17.3591 17.5308 17.352C17.4441 17.2612 17.2987 17.2561 17.2057 17.3408C17.113 17.4252 17.1078 17.5673 17.1942 17.6581C17.2229 17.6878 17.7086 18.194 18.3297 18.4768C18.4198 18.6627 18.5942 19.3743 18.2688 19.76C17.6677 20.4716 16.7797 20.0733 16.7448 20.0578C16.6077 19.9923 16.4729 19.9268 16.3395 19.8613H16.3397C16.4732 19.6522 16.5198 19.4011 16.4701 19.1592C16.4098 18.8634 16.2433 18.5982 16.0008 18.4113C15.7018 18.1627 15.3 18.067 14.9175 18.1536C14.9175 18.1185 14.9138 18.0834 14.9096 18.0481C14.8661 17.7112 14.6897 17.4041 14.4176 17.1925C14.1453 16.9724 13.7939 16.8686 13.4423 16.9041C13.4837 16.7378 13.4874 16.5647 13.4528 16.3969C13.3777 16.0528 13.1817 15.7455 12.8987 15.5282C12.6301 15.3077 12.2918 15.1843 11.9411 15.1792H11.9374C11.7617 15.1784 11.5879 15.2152 11.4284 15.287C11.3927 14.9368 11.2148 14.615 10.9346 14.3939C10.3817 13.9496 9.5753 14.0121 9.13581 14.5331L8.84692 14.8768C7.43642 13.5519 6.7744 12.5469 6.61724 12.1919C6.30266 11.4744 4.76179 10.2865 4.23385 9.89514L9.65892 4.02735C9.86682 4.21067 10.786 5.00922 11.4992 5.3969V5.39669C11.8155 5.56002 12.1448 5.69804 12.4843 5.80883C12.9011 5.95706 13.3315 6.11018 13.7942 6.4126C12.7024 7.85891 12.3116 8.71577 12.9212 9.51961V9.51983C13.1772 9.86201 13.5917 10.0557 14.0252 10.036C14.7847 10.0134 15.5863 9.43329 16.2879 8.40014C16.3794 8.36569 16.628 8.3055 16.9334 8.49711C17.415 8.79846 17.4949 8.85439 17.5077 8.8646L17.6188 8.93733C19.5206 10.1878 20.8944 11.0899 21.6564 11.6444C22.3108 12.1195 23.3185 13.0514 22.7229 13.956V13.9562ZM24.2608 9.65765C24.0034 10.2055 23.2049 11.4542 22.7873 12.0478H22.7876C22.5335 11.7628 22.2472 11.507 21.9342 11.2849C21.1631 10.7239 19.7855 9.8188 17.8789 8.56538L17.7801 8.50115C17.7642 8.48925 17.6734 8.42545 17.1851 8.11942C16.5542 7.72472 16.0378 8.02053 16.016 8.03308C15.9862 8.05073 15.9612 8.07476 15.9422 8.10326C15.3259 9.02856 14.6232 9.56983 14.0147 9.58769V9.5879C13.7319 9.60172 13.4607 9.47561 13.2937 9.2521C12.8352 8.64833 13.1304 7.97015 14.7285 5.95497C15.9764 4.38126 17.5545 4.83613 18.3127 5.0552C18.427 5.09199 18.5437 5.1207 18.6621 5.14091C18.8066 5.15749 19.1856 5.20343 20.0421 3.81731L25.7233 7.9664C25.319 8.33856 24.5096 9.12161 24.261 9.65749L24.2608 9.65765Z" fill="#006CA9"/>
</svg>
