<svg width="797" height="1033" viewBox="0 0 797 1033" fill="none" xmlns="http://www.w3.org/2000/svg">
<path opacity="0.15" d="M572.005 971.459V934.999L532.724 915.147V954.179L496.139 972.675V934.327L457.532 953.837L420.272 935.011V899.236C421.405 898.977 422.241 898.08 422.241 897.006C422.241 896.793 422.2 896.593 422.133 896.404L457.855 878.345L458.192 878.18V838.475L419.598 857.985L381.665 838.805L343.732 857.973L306.473 839.136V801.472L345.08 781.962L306.473 762.452V723.419L267.529 743.106L267.192 743.272V780.935L232.481 763.384C232.534 763.195 232.588 762.995 232.588 762.782C232.588 761.708 231.753 760.811 230.62 760.551V686.428L268.216 667.426L268.553 667.26V627.555L229.609 647.243L229.272 647.408V685.756L192.013 704.593L155.428 686.098L192.35 667.437L192.687 667.272V627.567L153.743 647.254L153.406 647.42V723.431L118.695 705.88C118.749 705.691 118.802 705.49 118.802 705.278C118.802 704.204 117.967 703.307 116.834 703.047V666.588L79.6157 647.762L116.201 629.267L116.875 629.609V628.924L117.549 628.582L116.875 628.24V589.892L80.8154 571.668C80.8693 571.479 80.9233 571.279 80.9233 571.066C80.9233 569.791 79.737 568.753 78.2811 568.753C76.8253 568.753 75.639 569.791 75.639 571.066C75.639 572.14 76.4748 573.037 77.6071 573.297V609.072L39 628.582L76.9331 647.75L40.011 666.411L39.674 666.576V704.924L39 705.266L39.674 705.608V743.956L76.9062 762.782L39.9706 781.454L39.6336 781.62V821.325L78.5777 801.637L78.9147 801.472V763.797L78.9417 763.809V724.776L114.314 706.895C114.637 707.178 115.055 707.391 115.513 707.497V743.956L152.772 762.782L115.864 781.454L115.527 781.62V819.979L80.1818 837.849C79.6966 837.424 79.036 837.164 78.3081 837.164C76.8522 837.164 75.666 838.203 75.666 839.478C75.666 840.552 76.5018 841.449 77.6341 841.709V915.784L39.9706 934.822L39.6336 934.988V974.693L39.6875 974.658V1012.36L77.6206 1031.52V1032.21L78.2946 1031.87L78.9686 1032.21V1031.52L116.565 1012.52L116.902 1012.36V972.651L80.1818 991.217C79.6966 990.792 79.036 990.533 78.3081 990.533C77.5667 990.533 76.9062 990.792 76.4344 991.217L41.696 973.654L77.6341 955.489V955.525L116.241 936.015L154.848 955.525V916.481L192.404 897.49L192.741 897.324V860.865C193.873 860.605 194.709 859.708 194.709 858.634C194.709 857.359 193.523 856.321 192.067 856.321C190.611 856.321 189.425 857.359 189.425 858.634C189.425 858.847 189.465 859.047 189.533 859.236L153.81 877.295L153.473 877.46V915.111L116.929 896.64V820.617L154.147 801.803L192.755 821.313V782.292L228.126 764.411C228.45 764.694 228.868 764.907 229.326 765.013V801.472L265.386 819.696C265.332 819.885 265.278 820.086 265.278 820.298C265.278 820.51 265.318 820.711 265.386 820.9L229.663 838.959L229.326 839.124V915.772L194.17 933.548C193.685 932.958 192.903 932.568 192.013 932.568C190.557 932.568 189.371 933.607 189.371 934.881C189.371 935.955 190.207 936.853 191.339 937.112V974.681L229.272 955.513V993.176L268.553 1013.03V973.324L231.335 954.51L267.933 936.003L303.319 953.884C303.265 954.073 303.211 954.274 303.211 954.486C303.211 955.761 304.397 956.8 305.853 956.8C307.309 956.8 308.495 955.761 308.495 954.486C308.495 953.412 307.659 952.515 306.527 952.255V878.144L343.786 859.307L380.371 877.802L343.449 896.463L343.112 896.628V934.976L342.438 935.318L343.112 935.66V973.324L305.516 992.327L305.179 992.492V1032.2L344.123 1012.51L344.46 1012.34V974.681L381.045 993.176V993.861L381.719 993.519L420.326 1013.03V975.897C420.785 975.791 421.203 975.578 421.526 975.295L456.898 993.176V1032.2L494.831 1013.03V1013.04L533.775 993.353L534.112 993.188V955.525L568.824 973.076C568.77 973.265 568.716 973.465 568.716 973.678C568.716 974.953 569.902 975.991 571.358 975.991C572.814 975.991 574 974.953 574 973.678C573.973 972.616 573.137 971.719 572.005 971.459ZM154.794 648.092L191.38 629.597V666.576L154.794 685.071V648.092ZM77.5667 800.799L40.9816 819.295V782.316L77.5667 763.821V800.799ZM115.554 974.705V1011.68L78.9686 1030.18V995.088C80.101 994.829 80.9367 993.932 80.9367 992.858C80.9367 992.645 80.8963 992.445 80.8289 992.256L115.554 974.705ZM77.6206 995.088V1030.18L41.049 1011.68V974.705L75.7604 992.256C75.7064 992.445 75.6525 992.645 75.6525 992.858C75.6525 993.932 76.4883 994.817 77.6206 995.088ZM494.804 973.336L458.219 991.831V954.852L494.804 936.357V973.336ZM418.938 971.459C418.48 971.565 418.062 971.766 417.738 972.061L383.04 954.522L418.951 936.369V971.459H418.938ZM382.366 915.831V878.853L417.078 896.404C417.024 896.593 416.97 896.793 416.97 897.006C416.97 898.08 417.806 898.977 418.938 899.236V934.327L382.366 915.831ZM418.938 894.763C418.48 894.869 418.062 895.082 417.738 895.365L383.04 877.826L418.951 859.673V894.763H418.938ZM381.692 916.858L418.277 935.354L401.656 943.757L381.692 953.849L345.107 935.354L361.728 926.95L381.692 916.858ZM382.366 955.537L417.078 973.088C417.024 973.277 416.97 973.477 416.97 973.69C416.97 973.902 417.01 974.103 417.078 974.292L382.366 991.843V955.537ZM456.871 877.484L421.499 895.365C421.176 895.082 420.758 894.869 420.299 894.763V858.988L456.884 840.493V877.484H456.871ZM268.58 818.079V782.989L305.165 801.484V838.463L270.454 820.912C270.508 820.723 270.562 820.522 270.562 820.31C270.548 819.236 269.713 818.339 268.58 818.079ZM268.58 822.541C269.039 822.434 269.457 822.222 269.78 821.939L304.478 839.478L268.58 857.631V822.541ZM305.839 800.457L269.254 781.962L287.196 772.897L305.839 763.478L342.425 781.974L305.839 800.457ZM268.58 743.956L305.165 725.461V762.44L268.58 780.935V743.956ZM230.647 648.092L267.232 629.597V666.576L230.647 685.071V648.092ZM229.299 724.104L217.329 730.159L192.714 742.599V705.62L229.299 687.125V724.104ZM191.38 780.935L173.087 771.693L154.794 762.452V725.473L173.087 734.715L191.38 743.956V780.935ZM154.794 687.125L191.38 705.62V742.599L173.087 733.357L154.794 724.115V687.125ZM115.527 703.047C115.068 703.153 114.651 703.354 114.327 703.649L78.9552 685.768V648.789L115.54 667.284V703.047H115.527ZM115.527 590.576V627.555L78.9417 609.06V573.285C79.4 573.179 79.8179 572.978 80.1414 572.683L115.527 590.576ZM78.2677 610.087L114.853 628.582L78.9417 646.735L78.2677 647.077L77.5937 646.735L41.6825 628.582L78.2677 610.087ZM41.0085 667.272L77.5937 648.777V685.756L41.0085 704.251V667.272ZM41.0085 706.293L77.5937 724.788V761.767L41.0085 743.272V706.293ZM78.2677 723.773L41.6825 705.278L58.3036 696.874L78.2677 686.783L113.653 704.664C113.599 704.853 113.545 705.054 113.545 705.266C113.545 705.479 113.586 705.679 113.653 705.868L78.2677 723.773ZM116.875 707.509C117.333 707.402 117.751 707.202 118.075 706.907L153.446 724.788V761.767L116.861 743.272V707.509H116.875ZM116.875 782.304L153.46 763.809V800.788L116.875 819.283V782.304ZM78.9686 841.709C80.101 841.449 80.9367 840.552 80.9367 839.478C80.9367 839.265 80.8963 839.065 80.8289 838.876L115.54 821.325V858.304L78.9552 876.799V841.709H78.9686ZM115.554 896.663L78.9686 915.159V878.18L115.554 859.685V896.663ZM77.5667 954.168L40.9816 972.663V935.684L77.5667 917.189V954.168ZM78.9686 916.516L115.554 898.021V934.999L78.9686 953.495V916.516ZM154.794 878.168L190.166 860.287C190.49 860.57 190.908 860.782 191.366 860.889V896.663L154.781 915.159V878.168H154.794ZM153.473 917.177V953.495L116.888 934.999V898.021L153.433 916.492V917.189L153.473 917.177ZM191.38 819.283L154.794 800.788V763.809L173.087 773.051L191.38 782.292V819.283ZM192.728 780.947V743.956L213.635 733.393L229.313 725.473V760.563C228.18 760.823 227.345 761.72 227.345 762.794C227.345 763.006 227.385 763.207 227.452 763.396L192.728 780.947ZM230.647 800.799V765.025C231.106 764.918 231.523 764.718 231.847 764.423L267.219 782.304V818.079C266.761 818.185 266.343 818.386 266.019 818.681L230.647 800.799ZM230.647 839.82L266.019 821.939C266.343 822.222 266.761 822.434 267.219 822.541V858.315L266.545 858.658L230.634 876.811V839.82H230.647ZM230.647 916.516L267.232 898.021V934.999L230.647 953.495V916.516ZM267.232 896.663L230.647 915.159V878.18L267.232 859.685V896.663ZM192.66 972.663V937.148C193.792 936.888 194.628 935.991 194.628 934.917C194.628 934.846 194.615 934.775 194.601 934.704L229.232 917.201V954.179L192.66 972.663ZM267.178 1011L230.593 992.504V955.525L267.178 974.02V1011ZM305.165 952.279C304.707 952.385 304.289 952.586 303.966 952.881L268.594 934.999V898.021L305.179 916.516V952.279H305.165ZM268.58 896.663V859.685L305.165 878.18V915.159L268.58 896.663ZM305.839 877.141L269.254 858.646L305.826 840.151L306.5 840.493L342.411 858.646L305.839 877.141ZM381.692 840.162L418.277 858.658L382.366 876.811L381.692 877.153L381.018 876.811L345.107 858.658L381.692 840.162ZM344.433 897.336L381.018 878.841V915.82L344.433 934.315V897.336ZM343.085 1011.7L306.5 1030.19V993.212L343.085 974.717V1011.7ZM344.433 973.347V936.369L381.018 954.864V991.843L344.433 973.347ZM383.04 992.87L417.738 975.33C418.062 975.614 418.48 975.826 418.938 975.932V1011.02L383.04 992.87ZM420.286 971.459V936.369L456.871 954.864V991.843L422.16 974.292C422.214 974.103 422.267 973.902 422.267 973.69C422.267 972.616 421.418 971.719 420.286 971.459ZM458.219 1030.18V993.212L494.804 974.717V1011.7L458.219 1030.18ZM532.724 992.527L496.139 1011.02V974.044L532.724 955.548V992.527ZM534.072 954.179V917.201L570.657 935.696V971.471C570.199 971.577 569.781 971.778 569.457 972.073L534.072 954.179Z" fill="url(#paint0_linear_4172_12844)"/>
<g opacity="0.15">
<path d="M0 458.308L39.6471 436.545L1.0567 415.357L0.704529 415.17V371.616L0 371.227L0.704529 370.839V327.298L39.619 305.923L1.0144 284.722L0.662231 284.535V239.453L41.366 261.806L41.7182 261.994V304.771L41.7465 304.757V349.075L78.7166 369.378C79.0547 369.056 79.4916 368.815 79.9706 368.694V283.771L119.618 262.007V218.467L157.306 197.775C157.236 197.547 157.194 197.32 157.194 197.078C157.194 196.837 157.236 196.609 157.306 196.395L119.97 175.891L119.618 175.703V132.953L81.4218 153.926V241.771L43.0426 220.691C42.5353 221.174 41.845 221.469 41.0842 221.469C39.5625 221.469 38.3228 220.289 38.3228 218.842C38.3228 217.622 39.1963 216.604 40.3798 216.309V132.203L1.02856 110.587L0.67627 110.399V65.3175L40.3798 87.1213V87.0811L80.7313 109.233L121.069 87.0811V131.412L160.321 152.975L160.674 153.163V194.559C161.857 194.854 162.731 195.872 162.731 197.092C162.731 198.311 161.857 199.33 160.674 199.625V241.021L121.026 262.785V305.548L159.265 326.548V283.784L198.912 262.021V261.243L199.616 261.632L200.321 261.243V262.021L239.616 283.57L239.968 283.757V328.839L201.589 307.759C201.082 308.241 200.391 308.536 199.63 308.536C198.87 308.536 198.165 308.241 197.672 307.759L160.702 328.062V415.92L120.35 393.768L81.4075 415.143L42.4648 436.531L80.7031 457.531L81.4075 457.142V457.92L82.112 458.308L81.4075 458.697V502.238L41.7605 524.001V564.62C42.944 564.915 43.8174 565.933 43.8174 567.153C43.8174 568.6 42.5776 569.78 41.056 569.78C39.5344 569.78 38.2946 568.6 38.2946 567.153C38.2946 566.912 38.3369 566.684 38.4073 566.47L1.07086 545.966L0.718567 545.778V500.696L40.3656 522.46V480.474L0 458.308ZM40.3234 262.771L2.08521 241.771V283.757L40.3234 304.757V262.771ZM2.11346 414.379L40.3516 435.379V393.393L2.11346 372.393V414.379ZM2.11346 370.061L40.3516 349.062V307.076L2.11346 328.075V370.061ZM41.056 350.227L2.81781 371.227L20.1898 380.769L41.056 392.227L78.0403 371.911C77.9839 371.696 77.9276 371.468 77.9276 371.227C77.9276 370.986 77.9698 370.758 78.0403 370.544L41.056 350.227ZM81.3935 328.075V368.681C81.8725 368.802 82.3093 369.043 82.6475 369.364L100.499 359.555L119.618 349.062V307.076L100.499 317.569L81.3935 328.075ZM80.0269 153.926L41.7886 132.927V174.913L80.0269 195.912V153.926ZM80.0269 239.453V197.467L41.7886 176.467V216.309C42.9721 216.604 43.8457 217.622 43.8457 218.842C43.8457 219.083 43.8035 219.311 43.733 219.525L80.0269 239.453ZM40.3234 88.6357L2.08521 67.636V109.622L40.3234 130.622V88.6357ZM41.7886 131.386L80.0269 152.385V110.399L41.7886 89.3995V131.386ZM119.66 89.3995L81.4218 110.399V152.385L119.618 131.412V130.622L119.646 130.635V89.3995H119.66ZM121.041 132.94V174.926L158.011 195.229C158.349 194.907 158.786 194.666 159.265 194.546V153.926L121.041 132.94ZM159.279 240.23V199.611C158.8 199.491 158.363 199.263 158.025 198.928L121.041 219.244V261.23L159.279 240.23ZM81.3935 284.548V326.534L100.513 316.041L119.632 305.548V263.562L81.3935 284.548ZM238.559 326.521V284.535L200.321 263.535V303.377C201.504 303.672 202.378 304.69 202.378 305.91C202.378 306.151 202.336 306.379 202.265 306.593L238.559 326.521ZM198.912 303.39V263.548L160.674 284.548V326.534L196.953 306.62C196.897 306.405 196.841 306.178 196.841 305.936C196.855 304.704 197.728 303.685 198.912 303.39ZM159.279 328.075L121.041 307.076V349.062L159.279 370.061V328.075ZM159.279 371.616L121.041 350.616V392.602L159.279 413.602V371.616ZM119.632 392.602V350.616L100.513 361.109L83.3519 370.53C83.4083 370.745 83.4647 370.973 83.4647 371.214C83.4647 372.433 82.5911 373.452 81.4075 373.747V413.588L119.632 392.602ZM79.9846 373.76C79.5055 373.639 79.0688 373.412 78.7307 373.077L41.7605 393.379V435.365L79.9987 414.366V373.76H79.9846ZM41.7605 437.697L41.056 437.309L40.3516 437.697L2.81781 458.308L41.056 479.308L79.2943 458.308L41.7605 437.697ZM79.9846 459.461L41.7465 480.461V522.447L79.9846 501.447V459.461ZM2.11346 503.001V544.987L39.0836 565.29C39.4217 564.969 39.8585 564.727 40.3375 564.607V523.988L2.11346 503.001ZM236.488 240.619C236.488 240.378 236.53 240.15 236.601 239.935L199.264 219.432L198.912 219.244V132.203L162.167 112.021C161.66 112.691 160.843 113.133 159.913 113.133C158.391 113.133 157.151 111.954 157.151 110.506C157.151 109.287 158.025 108.268 159.208 107.974V65.3175L198.855 87.0811V44.3178L239.897 21.777V66.8587L200.997 88.2202L239.263 109.233L276.248 88.9171C276.191 88.7027 276.135 88.4748 276.135 88.2336C276.135 86.7863 277.375 85.607 278.896 85.607C280.418 85.607 281.658 86.7863 281.658 88.2336C281.658 89.4531 280.784 90.4716 279.601 90.7665V130.608V174.926L318.544 196.314L356.782 175.315L318.191 154.127L317.839 153.94V110.386L317.135 109.997L317.839 109.609V66.8453L278.544 45.2693L278.192 45.0817V0L318.896 22.3532L319.248 22.5409V65.3041L357.486 44.3044V43.5272L358.191 43.9158L398.542 21.7636V63.9238C399.021 64.0444 399.458 64.2857 399.796 64.6073L436.766 44.3044V0L476.414 21.7636V21.7502L517.117 44.1034L517.47 44.291V87.0543L555.708 66.0546V65.2773L556.412 65.666L557.117 65.2773V66.0546L596.031 87.4564L636.383 65.3041V109.609L674.621 130.608V87.845L715.677 65.3041L755.324 43.5406V87.8584L792.28 108.148C792.787 107.665 793.478 107.371 794.239 107.371C795.76 107.371 797 108.55 797 109.997C797 111.445 795.76 112.624 794.239 112.624C793.464 112.624 792.773 112.329 792.28 111.847L755.31 132.149V176.467L714.606 154.114L714.254 153.926V111.163L676.016 132.163V176.467L637.637 155.387C637.299 155.709 636.862 155.95 636.383 156.071V197.467L595.327 220.008V176.467L555.68 198.231V153.149L594.622 131.774L556.398 110.788L516.047 132.94V88.6223L477.808 67.6226V153.149L517.103 174.725L517.455 174.913V219.994L479.076 198.914C478.569 199.397 477.879 199.692 477.118 199.692C475.596 199.692 474.357 198.512 474.357 197.065C474.357 195.845 475.23 194.827 476.414 194.532V153.926L437.119 132.35L436.766 132.163V89.3995L398.528 110.399V151.018C399.712 151.313 400.585 152.332 400.585 153.551C400.585 153.792 400.543 154.02 400.473 154.235L437.809 174.739L438.161 174.926V220.008L397.81 197.856L358.163 219.619L318.515 197.856L278.868 219.619L239.926 198.231V238.073C241.109 238.367 241.983 239.386 241.983 240.606C241.983 242.053 240.743 243.232 239.221 243.232C237.728 243.246 236.488 242.066 236.488 240.619ZM200.321 218.453L237.291 238.756C237.629 238.435 238.066 238.193 238.545 238.073V197.467L237.84 197.078L200.307 176.467V218.453H200.321ZM278.192 132.927L239.954 153.926V195.912L278.192 174.913V132.927ZM238.559 153.926L200.321 132.927V174.913L238.559 195.912V153.926ZM200.321 131.386L238.559 152.385V110.399L200.321 89.3995V131.386ZM160.617 67.636V107.96C161.801 108.255 162.674 109.274 162.674 110.493C162.674 110.573 162.66 110.654 162.646 110.734L198.841 130.608V88.6357L160.617 67.636ZM238.488 24.0954L200.25 45.0951V87.0811L238.488 66.0948V24.0954ZM278.192 90.7665C277.713 90.6458 277.276 90.418 276.938 90.083L239.968 110.386V152.372L278.206 131.372V90.7665H278.192ZM358.177 130.997L396.415 109.997L379.043 100.456L358.177 88.9975L319.938 109.997L337.31 119.539L358.177 130.997ZM397.119 69.0029C396.64 68.8823 396.203 68.6544 395.865 68.3194L359.6 88.2336L397.119 108.845V69.0029ZM358.895 87.0677L395.161 67.1535C395.105 66.9391 395.048 66.7113 395.048 66.47C395.048 66.2288 395.09 66.001 395.161 65.7866L358.881 45.859V87.0677H358.895ZM358.895 132.163V174.149L395.161 154.221C395.105 154.007 395.048 153.779 395.048 153.538C395.048 152.318 395.922 151.3 397.105 151.005V111.163L358.895 132.163ZM397.119 156.071C396.64 155.95 396.203 155.709 395.865 155.387L359.6 175.301L397.133 195.912V156.071H397.119ZM319.248 153.149L357.486 174.149V132.163L319.248 111.163V153.149ZM317.839 23.3181L279.601 2.31841V44.3044L317.839 65.3041V23.3181ZM319.248 66.8453V108.845L357.486 87.845V45.859L319.248 66.8453ZM359.6 44.6931L395.865 64.6073C396.203 64.2857 396.64 64.0444 397.119 63.9238V24.082L359.6 44.6931ZM438.175 2.33181V44.3178L476.414 65.3175V23.3449L438.175 2.33181ZM557.103 67.6226V109.609L595.341 130.608V88.6223L557.103 67.6226ZM634.974 67.6226L596.736 88.6223V130.608L615.855 120.115L634.974 109.622V67.6226ZM596.736 174.149L615.855 163.656L633.015 154.235C632.959 154.02 632.903 153.792 632.903 153.551C632.903 152.332 633.776 151.313 634.96 151.018V111.163L615.841 121.656L596.721 132.149V174.149H596.736ZM676.016 130.608L714.254 109.609V67.6226L676.016 88.6223V130.608ZM753.887 45.8456L715.649 66.8453V108.845L753.887 87.845V45.8456ZM791.576 109.314L754.591 89.0109L716.353 110.011L733.725 119.552L754.591 131.01L791.576 110.707C791.519 110.493 791.463 110.265 791.463 110.024C791.477 109.756 791.519 109.528 791.576 109.314ZM715.663 153.149L753.901 174.149V132.163L715.663 111.163V153.149ZM674.607 174.149V132.149L636.369 111.15V150.992C637.552 151.286 638.426 152.305 638.426 153.524C638.426 153.766 638.383 153.993 638.313 154.208L674.607 174.149ZM596.736 217.676L634.974 196.676V156.071C634.495 155.95 634.058 155.722 633.72 155.387L615.869 165.197L596.75 175.69V217.676H596.736ZM557.103 195.912L595.341 174.913V132.927L557.103 153.926V195.912ZM517.455 130.608L555.694 109.609V67.6226L517.455 88.6223V130.608ZM516.047 87.0677V45.0817L477.808 24.082V66.068L516.047 87.0677ZM438.175 45.8724V87.845L476.399 108.845V66.8721L438.175 45.8724ZM516.047 217.689V175.703L477.808 154.704V194.546C478.992 194.84 479.865 195.859 479.865 197.078C479.865 197.32 479.823 197.547 479.753 197.762L516.047 217.689ZM438.175 131.386L476.414 152.385V110.386L438.175 89.3861V131.386ZM436.766 45.859L400.487 65.7732C400.543 65.9876 400.599 66.2154 400.599 66.4566C400.599 67.6762 399.726 68.6946 398.542 68.9895V108.845L436.766 87.845V45.859ZM436.766 175.703L399.796 155.401C399.458 155.722 399.021 155.963 398.542 156.084V196.703L436.78 217.703V175.703H436.766ZM358.191 218.078L396.429 197.078L358.895 176.467L358.191 176.079L357.486 176.467L319.952 197.078L358.191 218.078ZM317.135 197.078L278.896 176.079L240.658 197.078L278.896 218.078L317.135 197.078Z" fill="url(#paint1_linear_4172_12844)"/>
</g>
<defs>
<linearGradient id="paint0_linear_4172_12844" x1="220.554" y1="1131.34" x2="792.523" y2="188.641" gradientUnits="userSpaceOnUse">
<stop stop-color="#D2D2D1"/>
<stop offset="0.1074" stop-color="#DADADA"/>
<stop offset="0.3674" stop-color="#EAEAEA"/>
<stop offset="0.5713" stop-color="#F0F0F0"/>
<stop offset="0.7773" stop-color="#F4F4F4"/>
<stop offset="0.976" stop-color="white"/>
</linearGradient>
<linearGradient id="paint1_linear_4172_12844" x1="883.406" y1="912.497" x2="210.534" y2="-108.377" gradientUnits="userSpaceOnUse">
<stop stop-color="#D2D2D1"/>
<stop offset="0.1074" stop-color="#DADADA"/>
<stop offset="0.3674" stop-color="#EAEAEA"/>
<stop offset="0.5713" stop-color="#F0F0F0"/>
<stop offset="0.7773" stop-color="#F4F4F4"/>
<stop offset="0.976" stop-color="white"/>
</linearGradient>
</defs>
</svg>
