<?xml version="1.0" encoding="UTF-8"?>
<svg xmlns="http://www.w3.org/2000/svg" width="310" height="60" viewBox="0 0 310 60" fill="none">
  <path fill-rule="evenodd" clip-rule="evenodd" d="M28.1559 0L27.4354 10.7548H22.1445L21.6606 4.06413H13.2458V20.0748H16.8537C17.1226 18.8804 17.3376 17.686 17.8162 16.489H21.6606V27.4816H18.0581L17.0957 23.8958H13.4878V40.8631H21.9026L22.6231 33.4536L28.3925 33.7208L28.8764 44.9539H1.22588V41.1329L5.07033 40.4168V4.53975L0.5 3.82365V0.00267564H28.1505L28.1559 0ZM125.746 59.9813C125.746 58.7869 126.015 57.8303 126.015 56.8738L128.899 56.1576V17.9479C127.698 17.6807 126.735 17.6807 125.533 17.4669V14.3594L134.674 13.165C134.943 14.3594 135.395 15.5538 135.637 16.5104C135.905 16.5104 135.905 16.2432 136.12 16.2432C138.285 13.6139 141.169 12.8978 144.535 13.1356C148.622 13.6166 151.028 16.2432 151.99 19.8263C152.474 21.499 152.953 23.1717 152.953 24.8444C153.222 28.4302 153.222 32.0134 152.684 35.3587C152.415 36.5531 151.963 37.988 151.482 39.1797C149.799 42.7655 146.912 44.9138 143.067 45.1543C140.903 45.4215 138.981 45.1543 137.056 44.1977H136.572V56.1764L139.699 56.8925C139.699 57.849 139.43 58.8029 139.43 60H125.724L125.746 59.9813ZM136.567 40.147C138.97 41.1035 141.406 41.3414 143.78 40.4142C144.21 40.2258 144.553 39.8846 144.742 39.4576C145.011 38.2632 145.463 37.0688 145.463 35.8717C145.947 32.2859 145.947 28.4623 145.732 24.8791C145.726 23.5718 145.482 22.2763 145.011 21.0554C144.291 18.4262 142.366 17.4696 139.72 17.9479H139.236C137.553 18.2151 136.591 19.3828 136.591 21.0554V40.1443L136.567 40.147ZM227.938 40.8684L231.065 41.5845C231.065 42.7789 231.065 43.7355 230.796 44.9299H220.217V23.4202C220.217 22.4636 219.948 21.5097 219.733 20.5531C219.464 19.3587 218.532 18.8804 217.33 18.6426C216.128 18.4048 215.166 18.3754 214.203 18.9098C213.241 19.4442 212.52 19.8664 212.52 21.0608V40.8951L215.647 41.6112C215.647 42.5678 215.378 43.7622 215.378 44.9566H201.914V41.6166L205.041 40.9005V18.1964C203.839 17.9292 202.877 17.9292 201.675 17.7154V14.3327L210.547 13.1383L211.267 16.0053C211.988 15.5244 212.711 14.811 213.432 14.3327C216.316 12.4222 219.682 12.1817 222.809 13.3761C225.454 14.3327 226.895 16.4836 227.379 19.3507C227.648 20.0668 227.648 21.0234 227.648 21.7395V39.6633C227.823 40.0367 227.906 40.4461 227.89 40.8577L227.938 40.8684ZM41.8346 41.1356L44.9612 41.8517C44.9612 43.0461 44.6924 44.0027 44.6924 45.1971H30.9868C30.9868 44.2405 30.9868 43.0461 31.2556 41.8517L34.1403 41.1356C34.4092 40.4195 34.4092 19.6259 34.1403 18.4315C33.1779 18.1643 31.9761 18.1643 30.7744 17.9506V14.5731L39.6462 13.3788L40.3667 16.2458L41.0872 15.5297C43.9719 13.1409 47.3378 12.4222 50.9457 13.3788C54.0723 14.0949 55.7849 16.2458 56.4758 19.3534C56.7446 20.0695 56.7446 21.0261 56.7446 21.7422V40.8604L59.8713 41.5765V44.9539H49.2923V24.1657C49.2923 23.4496 49.2923 22.493 49.0235 21.7769C48.7546 19.8664 47.5798 18.9098 45.8968 18.6693C44.4531 18.4021 43.2514 18.6693 42.2889 19.8637C41.805 20.3447 41.805 20.8203 41.805 21.5364V41.1329L41.8346 41.1356ZM276.534 17.4456C275.333 17.4456 274.37 17.1784 273.169 17.1784V14.3113L283.508 13.1169C283.992 14.3113 284.471 15.5057 284.471 16.9379V41.0741L287.597 41.7902C287.597 42.9846 287.329 43.9412 287.329 45.1356H278.457C278.188 44.4195 277.973 43.4629 277.736 42.5063C277.467 42.7735 277.252 42.9873 277.016 42.9873C273.408 46.3327 268.601 45.8544 265.474 44.4222C263.071 43.2278 261.866 41.3146 261.388 38.688C261.119 37.7315 261.119 37.0154 261.119 36.0588V17.6567C259.917 17.3895 258.716 17.3895 257.753 17.1757V14.3327L267.851 13.1383C268.12 14.3327 268.571 15.2892 268.571 16.4836V34.6453C268.571 35.3614 268.571 36.318 268.84 37.0341C269.109 39.185 270.523 40.6199 272.685 40.6199C273.405 40.6199 274.368 40.3527 275.088 40.3527C275.809 40.0855 277.01 38.68 277.01 37.9639V18.1269C276.526 17.8597 276.526 17.646 276.526 17.4108L276.534 17.4456ZM108.731 31.0648C108.731 33.6941 109.215 35.8744 110.414 37.996C111.615 39.6687 113.298 40.6253 115.463 40.8631C117.627 40.8631 119.549 40.3821 121.474 39.6687C121.743 39.6687 121.958 39.4015 122.436 39.4015C122.92 40.3581 123.157 41.312 123.638 42.2685C123.154 42.7495 122.436 42.9846 121.955 43.4629C118.111 45.6139 114.024 46.33 109.933 44.8978C106.325 43.9412 104.163 41.5524 102.478 38.2071C100.795 34.6212 100.313 30.7976 100.795 26.974C101.063 24.5852 101.515 22.1643 102.478 20.0428C104.16 16.4569 106.779 14.0681 110.65 13.352C114.522 12.6359 117.863 13.0848 120.748 15.7408C122.431 17.4135 123.393 19.5618 124.114 21.7154C124.834 24.1042 125.076 26.2579 125.076 28.6466C125.076 29.3627 124.593 30.0815 124.356 31.0354H108.728L108.731 31.0648ZM118.108 27.0033C118.108 26.0468 117.839 25.3307 117.839 24.6146C117.57 22.7041 117.355 21.0287 116.396 19.356C115.433 17.4456 113.75 16.9673 111.825 17.6834C111.105 17.9506 110.623 18.3995 110.142 19.1182C109.18 21.7475 108.699 24.3768 108.459 27.0007V27.7168L118.076 27.0007L118.108 27.0033ZM255.89 31.0648L240.262 31.332C239.993 32.5264 240.262 33.483 240.531 34.4395C240.777 36.0093 241.441 37.4851 242.453 38.7148C243.655 40.1496 245.099 40.8657 247.024 40.8657C248.949 40.8657 250.868 40.5985 252.793 39.9092C253.277 39.642 253.513 39.642 253.995 39.4282C254.479 40.3848 254.715 41.3387 255.196 42.2953C254.928 42.2953 254.928 42.5625 254.712 42.5625C251.347 44.9512 247.739 45.67 243.652 45.4295C238.813 44.9486 235.479 42.0842 233.794 37.5471C231.39 31.813 231.63 26.0762 234.063 20.3393C235.506 16.7535 238.149 14.1269 242.236 13.4082C245.362 12.6921 248.486 12.9272 251.107 14.843C253.03 16.2779 254.234 18.1884 255.194 20.1015C256.156 22.7308 256.637 25.8357 256.637 28.7054C256.637 29.4215 256.153 30.1403 255.917 31.0942L255.89 31.0648ZM249.879 27.0033C249.879 24.8524 249.61 22.9419 248.916 21.0287C248.647 20.0721 248.196 19.1182 247.473 18.3995C246.271 16.7268 242.424 17.2051 241.942 19.356C241.459 21.0287 240.98 22.7014 240.741 24.6146C240.472 25.5711 240.472 26.525 240.472 27.7221L249.849 27.006L249.879 27.0033ZM200.584 31.0648L184.956 31.332C184.956 34.1991 185.44 36.5905 187.12 38.7415C188.322 40.1764 189.765 40.8925 191.421 40.8925C193.344 40.8925 195.508 40.6253 197.191 39.9359C197.675 39.6687 197.911 39.6687 198.393 39.4549C198.876 40.4115 199.113 41.3654 199.594 42.322C199.11 42.5892 198.874 42.8029 198.632 43.0381C195.188 45.1585 191.073 45.9255 187.09 45.189C183.246 44.4729 180.598 42.0815 178.918 38.7361C177.235 35.1503 176.753 31.5671 176.995 27.7435C177.264 25.1142 177.716 22.7255 178.678 20.334C179.88 17.4669 181.805 15.316 184.69 14.1216C188.056 12.6867 191.421 12.6867 194.787 14.3888C196.952 15.5832 198.395 17.4963 199.358 19.6473C200.559 22.5144 201.041 25.6219 201.041 28.7321C201.31 29.4482 200.772 30.167 200.557 31.1209L200.584 31.0648ZM194.572 27.0033C194.572 26.0468 194.303 25.0929 194.303 24.1363C194.035 22.4636 193.82 20.7909 192.86 19.3267C191.658 17.4162 189.975 16.6974 188.021 17.654C187.537 17.9212 187.058 18.1349 186.819 18.8484C185.856 20.7589 185.375 22.9098 185.136 25.0608C185.136 25.7769 184.867 26.4957 184.867 27.4496C187.994 27.4496 191.118 27.1824 194.484 26.9686L194.572 27.0033ZM88.2638 13.3814L88.9843 16.2485C89.4682 15.9813 89.7048 15.7675 90.186 15.5324C92.3502 14.338 94.7563 13.6219 97.1598 13.3814C98.3615 13.1142 99.324 13.6486 100.044 14.5758L99.082 22.9392C97.3991 22.9392 95.7161 22.672 94.0331 22.672C93.7643 21.2371 93.5492 19.8049 93.5492 18.1296C92.3475 18.1296 91.385 18.6106 90.4226 19.324V40.8337L93.5492 41.5498C93.5492 42.5063 93.5492 43.7007 93.2804 44.6573H79.849V41.5498L82.7337 40.8337V18.1536C81.532 17.8864 80.5695 17.8864 79.3678 17.6727V14.3327C82.2524 14.3327 85.1371 13.8517 88.2396 13.3761L88.2638 13.3814ZM289.036 44.9539C289.036 43.7595 289.036 42.8029 289.305 41.8464L292.189 41.1303V18.4262C291.227 18.159 290.025 18.159 288.823 17.9452V14.5731L297.964 13.3788L298.684 16.008L302.529 14.3353C303.973 13.8544 305.174 13.6192 306.615 13.3788C307.817 13.1116 308.78 13.3788 309.5 14.5731L308.538 22.9365C306.855 22.9365 305.172 22.6693 303.489 22.6693C303.22 21.2345 303.005 19.5618 303.005 18.1269L299.878 19.3213V41.0715L303.005 41.7876C303.005 42.7442 302.736 43.9385 302.736 44.8951H289.03L289.036 44.9539ZM169.508 18.1617L166.381 19.356V41.1062L169.508 41.8223C169.508 43.0167 169.239 43.9733 169.239 44.9299H155.776V41.8223L158.66 41.1062V18.4021C157.459 18.1349 156.496 18.1349 155.294 17.9212V14.5731L164.435 13.3788L165.156 16.008L167.801 14.5731C169.484 13.857 171.167 13.3788 173.092 13.1383C174.535 13.1383 175.495 13.6192 176.218 14.5731L175.256 22.9365C173.573 22.9365 171.89 22.6693 170.207 22.6693L169.487 18.1269L169.508 18.1617ZM70.9288 7.40682V13.8597H76.4885C76.2196 15.2946 76.2196 16.489 76.2196 17.9212C74.5367 17.9212 72.8537 18.1884 71.1707 18.4021V38.7148C71.4396 39.9092 72.1332 40.8657 73.5742 40.8657H76.7008C76.7008 42.0601 76.9697 43.0167 76.9697 44.2111C76.2492 44.6921 75.2867 44.9272 74.3243 45.1677C72.402 45.6486 70.4798 45.6486 68.5549 45.4349C65.6702 44.9539 63.7157 43.0461 63.2641 39.9385V18.4289C62.0623 18.1617 60.8606 17.9479 59.6562 17.9479C59.6562 16.7535 59.6562 15.3186 59.925 14.1269C61.3687 14.1269 62.5705 13.8597 64.0115 13.8597L65.6944 7.8851L70.9852 7.40415L70.9288 7.40682Z" fill="black"></path>
</svg>
