<?xml version="1.0" encoding="UTF-8"?>
<svg xmlns="http://www.w3.org/2000/svg" width="258" height="60" viewBox="0 0 258 60" fill="none">
  <path d="M33.5228 13.9554V46.3379C33.6427 53.922 39.845 59.9741 47.3802 59.8533C54.7441 59.736 60.686 53.7529 60.8025 46.3379V13.9554C60.9224 6.37131 54.912 0.122542 47.3802 0.00177637C39.8484 -0.118989 33.6427 5.9331 33.5228 13.5172C33.5228 13.6621 33.5228 13.807 33.5228 13.952M43.2854 46.3344V13.9554C43.2614 11.8955 44.9027 10.2048 46.9485 10.1806H47.2911C49.2889 10.1151 50.9577 11.6919 51.0262 13.7035V46.3241C50.9954 48.3875 49.3403 50.0506 47.2911 50.0816C45.1529 50.1645 43.3539 48.4841 43.2717 46.331M139.482 0.94375H111.915V10.7741H120.824V59.0597H130.587V10.7741H139.496L139.482 0.94375ZM168.198 0.94375V46.3379C168.259 48.4151 166.639 50.1472 164.576 50.2093C162.513 50.2714 160.793 48.6394 160.731 46.5622C160.731 46.4863 160.731 46.4104 160.731 46.3344V0.94375H150.681V46.3379C150.8 54.0048 157.068 60.119 164.682 59.9982C172.125 59.8809 178.132 53.8323 178.248 46.3379V0.94375H168.198ZM257.5 10.7741V0.94375H233.38V59.0597H257.5V49.2294H243.142V34.1923H252.333V24.3482H243.142V10.7741H257.5ZM102.724 59.0597H92.3895L85.1935 31.5907C88.8874 30.8557 91.5397 27.5778 91.5088 23.7857V14.8146C91.5602 12.6304 89.84 10.8189 87.671 10.7672C87.671 10.7672 87.6675 10.7672 87.6641 10.7672C87.6059 10.7637 87.5476 10.7637 87.4894 10.7672H83.768V59.0597H74.0123V0.94375H87.5065C94.9252 0.874741 101.042 6.77502 101.289 14.2418V23.4959C101.556 28.3645 99.5341 33.0744 95.8333 36.2177L102.724 59.0597ZM211.555 0.94375V32.7466L201.505 0.94375H191.454V59.0597H201.505V30.7246L210.695 59.0597H221.606V0.94375H211.555ZM0.5 1.80981V59.9292H10.8383V35.0618H20.313V25.2315H10.8383V11.6402H25.7682V1.80981H0.5Z" fill="#010101"></path>
</svg>
